<svg xmlns="http://www.w3.org/2000/svg" viewBox="0 0 839.92 272.28"><defs><style>.cls-1{fill:#fdc311;}</style></defs><title>kiwi</title><g id="Layer_2" data-name="Layer 2"><g id="Layer_1-2" data-name="Layer 1"><polygon class="cls-1" points="400.3 71.87 372.27 71.87 321.82 133.33 321.82 71.87 299.21 71.87 299.21 200.79 321.82 200.79 321.82 159.62 333.03 146.48 376.33 200.79 404.16 200.79 347.92 132.75 400.3 71.87"/><circle class="cls-1" cx="419.98" cy="83.47" r="12.56"/><polygon class="cls-1" points="558.5 171.22 531.83 71.87 513.85 71.87 487.18 171.22 462.05 71.87 436.73 71.87 473.65 200.79 497.81 200.79 522.74 105.69 547.87 200.79 572.03 200.79 608.75 71.87 583.43 71.87 558.5 171.22"/><polygon class="cls-1" points="420.02 107.43 399.73 107.43 399.73 127.73 409.93 127.73 409.93 200.79 430.23 200.79 430.23 107.43 420.02 107.43 420.02 107.43"/><circle class="cls-1" cx="628.95" cy="83.47" r="12.56"/><path class="cls-1" d="M629.05,107.43h-20.3v20.3H618.9v36.55a33.65,33.65,0,0,1,10-12.05,35.1,35.1,0,0,1,9-4.91l1.38-.48V107.43Z"/><path d="M629.29,180.25c0-13,9.88-21.32,21.93-21.32a19.27,19.27,0,0,1,17,9.21l-7.29,4a11.66,11.66,0,0,0-9.76-5.37c-7.48,0-12.91,5.74-12.91,13.53s5.43,13.53,12.91,13.53a13.89,13.89,0,0,0,8.77-3.15v-4.94H649.12V178h19.65v15.82a22.86,22.86,0,0,1-17.55,7.79C639.17,201.63,629.29,193.22,629.29,180.25Z"/><path d="M698.74,200.82l-8.1-14.64h-6.42v14.64h-8.78V159.61h19.28c8.59,0,13.84,5.63,13.84,13.29,0,7.29-4.57,11.18-9,12.23l9.27,15.69Zm.86-27.92c0-3.46-2.66-5.56-6.18-5.56h-9.2v11.12h9.2C696.94,178.46,699.6,176.36,699.6,172.9Z"/><path d="M712.89,180.25c0-12.42,9.08-21.32,21.5-21.32S756,167.83,756,180.25s-9.08,21.31-21.56,21.31S712.89,192.67,712.89,180.25Zm34,0c0-7.72-4.94-13.53-12.54-13.53s-12.48,5.81-12.48,13.53,4.88,13.53,12.48,13.53S746.93,187.91,746.93,180.25Z"/><path d="M761.82,184.39V159.61h8.9v24.47c0,5.75,3.34,9.7,9.7,9.7s9.64-3.95,9.64-9.7V159.61h9v24.72c0,10.25-6.06,17.23-18.6,17.23S761.82,194.52,761.82,184.39Z"/><path d="M806.81,200.82V159.61h19.27c9,0,13.84,6.06,13.84,13.29s-4.94,13.28-13.84,13.28h-10.5v14.64ZM831,172.9c0-3.46-2.59-5.56-6.05-5.56h-9.33v11.12h9.33C828.37,178.46,831,176.3,831,172.9Z"/><path class="cls-1" d="M122.8,272.28h0a33.49,33.49,0,0,1-16.64-4.44l-40-23V156.73l29.94-32.56,83.11,120.57-39.69,23A33.36,33.36,0,0,1,122.8,272.28ZM72.54,241.21l36.78,21.13a27.52,27.52,0,0,0,27.06-.06l33.76-19.59L95.43,134.31,72.54,159.2Z"/><path class="cls-1" d="M42.94,231.93,16.6,216.61a33.49,33.49,0,0,1-16.6-29L.34,84.85A33.49,33.49,0,0,1,17.14,56L44,40.6ZM37.58,51.57,20.29,61.48A27.13,27.13,0,0,0,6.68,84.87L6.34,187.65a27.15,27.15,0,0,0,13.45,23.48l16.87,9.81Z"/><path class="cls-1" d="M66.2,129.7V27.29L105.6,4.43A33.93,33.93,0,0,1,139,4.36l28.25,16.22Zm6.34-98.76v82.59l84.65-91.41L135.84,9.85a27.51,27.51,0,0,0-27,.06Z"/><path class="cls-1" d="M199.83,232.8,112.12,107.15l71.39-77.22,44.61,25.63c4.51,2.58,8.46,7,11.76,13.08A46.73,46.73,0,0,1,244,79a28.46,28.46,0,0,1,.81,5.21c.14,2,.12,4,.1,5.91,0,.77,0,1.54,0,2.31l.18,94.78a33.51,33.51,0,0,1-16.64,29ZM120.24,107.71l81.45,116.68,23.59-13.69a27.13,27.13,0,0,0,13.48-23.46l-.18-94.77c0-.8,0-1.59,0-2.39,0-1.88,0-3.66-.08-5.41a22.72,22.72,0,0,0-.62-4,40.92,40.92,0,0,0-3.59-9c-2.73-5-5.87-8.61-9.34-10.61L184.73,37.94Z"/></g></g></svg>