<svg xmlns="http://www.w3.org/2000/svg" viewBox="0 0 874.7 87.8"><defs><style>.cls-1{fill:#fabc46;}</style></defs><title>Asset 1</title><g id="Layer_2" data-name="Layer 2"><g id="Layer_1-2" data-name="Layer 1"><path class="cls-1" d="M15.2,1.3V57.7a22,22,0,0,0,.8,5.8,11,11,0,0,0,2.9,4.7,14.21,14.21,0,0,0,5.4,3.1,26,26,0,0,0,8.5,1.2H66.3V87.7H31.9a42.93,42.93,0,0,1-14.7-2.2,25.8,25.8,0,0,1-9.9-6.2,23.59,23.59,0,0,1-5.6-9.4A37.84,37.84,0,0,1,0,57.9V1.3Z"/><path class="cls-1" d="M93.1,20.1V60.5a13,13,0,0,0,4.3,10c2.9,2.6,7,4,12.4,4h11c5.4,0,9.5-1.3,12.3-4a13.14,13.14,0,0,0,4.2-10V20.1h13.3v41a29.2,29.2,0,0,1-1.9,10.8,22.56,22.56,0,0,1-5.6,8.4,26.22,26.22,0,0,1-9.2,5.5,37.61,37.61,0,0,1-12.7,2H108.7a37.2,37.2,0,0,1-12.7-2,27.16,27.16,0,0,1-9.2-5.5,22.16,22.16,0,0,1-5.6-8.4,30.56,30.56,0,0,1-1.9-10.8v-41Z"/><path class="cls-1" d="M212.9,20.1a31.38,31.38,0,0,1,10.8,1.7,20,20,0,0,1,7.4,4.7,18.86,18.86,0,0,1,4.2,7.1,28,28,0,0,1,1.3,8.8V74.1a28,28,0,0,1-.6,6.3,9.27,9.27,0,0,1-2.1,4.2,9,9,0,0,1-4.3,2.4,27,27,0,0,1-7,.8H191c-8,0-13.8-1.8-17.3-5.5s-5.3-8.7-5.3-15.1a25.74,25.74,0,0,1,1.2-8.2,14.56,14.56,0,0,1,3.9-6.1,17.4,17.4,0,0,1,7-3.8,36.1,36.1,0,0,1,10.6-1.3h32.1V42.7a9.83,9.83,0,0,0-2.4-6.7c-1.6-1.8-4.2-2.7-8-2.7H172.4V20.2h40.5Zm6.5,54.4c2.5,0,3.7-1.2,3.7-3.5V58.3H191.2c-3.6,0-6.1.7-7.6,2.1a7.61,7.61,0,0,0-2.2,5.8,8.08,8.08,0,0,0,2.2,6c1.4,1.5,3.9,2.2,7.3,2.2h28.5Z"/><path d="M404.2,20.1q12,0,17.4,5.4T427,40.8c0,6.2-1.8,11-5.2,14.4s-9.4,5.1-17.7,5.1H372v4.9a9.49,9.49,0,0,0,2.4,6.7c1.6,1.8,4.2,2.6,8,2.6h41.3V87.7H382.4A30.58,30.58,0,0,1,371.6,86a19.58,19.58,0,0,1-7.3-4.7,19.27,19.27,0,0,1-4.2-7,28.16,28.16,0,0,1-1.3-8.9v-23a27.53,27.53,0,0,1,1.3-8.8,17.65,17.65,0,0,1,4.2-7.1,19.58,19.58,0,0,1,7.3-4.7,30.58,30.58,0,0,1,10.8-1.7ZM371.9,49.6h31.7c3.7,0,6.3-.7,7.7-2.2a7.84,7.84,0,0,0,2.2-5.9,8.22,8.22,0,0,0-2.3-6.1c-1.5-1.5-4-2.3-7.3-2.3H382.1c-3.8,0-6.4.9-8,2.7a9.66,9.66,0,0,0-2.4,6.7v7.1Z"/><path d="M481,20.1c11.5,0,20.1,2.6,25.7,7.7s8.4,12.4,8.4,21.8v38H501.4v-38q0-8.1-4.8-12.3T481,33.1H458.9c-1.1,0-1.7.6-1.7,1.9V87.7H443.6V30.6c0-4,.7-6.8,2.2-8.3s3.9-2.2,7.3-2.2Z"/><path d="M536.5,20.1V4.1h13.7v16h18.7V33.2H550.2v32c0,3.8.7,6.5,2.1,7.9s3.7,2.2,7,2.2h9.3V87.7H556.5a29.72,29.72,0,0,1-9-1.2,13.56,13.56,0,0,1-6.2-3.8,17.41,17.41,0,0,1-3.6-7.2,43.77,43.77,0,0,1-1.2-11.1V33.2h-9.2V20.1Z"/><path d="M595.4,20.1V60.5a13,13,0,0,0,4.3,10c2.9,2.6,7,4,12.4,4h11c5.4,0,9.5-1.3,12.3-4a13.14,13.14,0,0,0,4.2-10V20.1h13.3v41A29.2,29.2,0,0,1,651,71.9a22.56,22.56,0,0,1-5.6,8.4,26.22,26.22,0,0,1-9.2,5.5,37.61,37.61,0,0,1-12.7,2H611a37.2,37.2,0,0,1-12.7-2,27.16,27.16,0,0,1-9.2-5.5,22.16,22.16,0,0,1-5.6-8.4,30.56,30.56,0,0,1-1.9-10.8v-41Z"/><path d="M717.9,20.1V33.2H694.1q-8.7,0-8.7,8.7V87.7H671.8V39.8q0-10.2,4.2-15c2.8-3.2,7.5-4.7,14.1-4.7Z"/><path d="M775.3,20.1q12,0,17.4,5.4t5.4,15.3c0,6.2-1.8,11-5.2,14.4s-9.4,5.1-17.7,5.1H743.1v4.9a9.49,9.49,0,0,0,2.4,6.7c1.6,1.8,4.2,2.6,8,2.6h41.3V87.7H753.5A30.58,30.58,0,0,1,742.7,86a19.58,19.58,0,0,1-7.3-4.7,19.27,19.27,0,0,1-4.2-7,28.16,28.16,0,0,1-1.3-8.9v-23a27.53,27.53,0,0,1,1.3-8.8,17.65,17.65,0,0,1,4.2-7.1,19.58,19.58,0,0,1,7.3-4.7,30.58,30.58,0,0,1,10.8-1.7ZM743,49.6h31.7c3.7,0,6.3-.7,7.7-2.2a7.84,7.84,0,0,0,2.2-5.9,8.22,8.22,0,0,0-2.3-6.1c-1.5-1.5-4-2.3-7.3-2.3H753.2c-3.8,0-6.4.9-8,2.7a9.66,9.66,0,0,0-2.4,6.7v7.1Z"/><path d="M278.7,37.5a13.4,13.4,0,0,0-7.1-12.2c-1.7-.9-3.5-1.6-5.2-2.5-5.3-2.9-7.9-9.3-6-14.6A13.08,13.08,0,0,1,274.9.3,12.2,12.2,0,0,1,284,11.7c0,2-.3,3.9-.4,5.9-.3,6.2,2.5,11.3,8.2,13.6,9.1,3.6,11.1,8.7,10.2,17.2-.8,7.3,2.3,12.1,9.1,14.9,4.9,2,8.5,5.1,9.4,10.5.8,5.2-1.6,9.1-5.8,11.9a10.5,10.5,0,0,1-12.4.1c-4.2-2.8-6.6-6.7-5.8-12.1.2-1.4.2-2.9.3-4.3a12.82,12.82,0,0,0-6.6-12c-1.9-1.1-3.9-2.2-5.8-3.3-4.8-2.7-6.7-6.9-6.1-12.3C278.4,40.4,278.6,39.1,278.7,37.5Z"/><path d="M319.4,11.8c-.1,1-.2,2.1-.4,3.1-1.1,7.2,2.2,13.3,9,15.9,4.2,1.7,7.6,3.9,8.7,8.6s-.1,8.9-3.9,12.1c-4,3.3-8.5,3.7-13.1,1.3a10.75,10.75,0,0,1-6.1-11c.1-1.4.4-2.9.5-4.3a14,14,0,0,0-8.7-13.9c-1.1-.5-2.2-.9-3.2-1.4a11.45,11.45,0,0,1-5.7-14.1A11.89,11.89,0,0,1,309.7.2,11.45,11.45,0,0,1,319.4,11.8Z"/><path d="M341,22.1A11.05,11.05,0,1,1,340.9,0,11.18,11.18,0,0,1,352,11,11.12,11.12,0,0,1,341,22.1Z"/><path d="M872.1,19.9V33H834.6c-3.2,0-5.4.6-6.8,1.9s-2.1,3.2-2.1,5.8a7.41,7.41,0,0,0,2,5.5c1.3,1.2,3.9,1.9,7.6,1.9h15.9a37.55,37.55,0,0,1,11.6,1.5,19.19,19.19,0,0,1,7.2,4.1,13.47,13.47,0,0,1,3.7,6,25.45,25.45,0,0,1,1,7.4,27.29,27.29,0,0,1-1.2,8.3,16,16,0,0,1-3.9,6.5,18.27,18.27,0,0,1-6.9,4.2,30.27,30.27,0,0,1-10.1,1.5H813.2V74.4h39.4c3.2,0,5.4-.6,6.8-1.7s2.1-3.1,2.1-5.7-.8-4.7-2.2-5.8-4-1.7-7.4-1.7h-16a33.48,33.48,0,0,1-11.5-1.6,17.23,17.23,0,0,1-7.1-4.4,14.78,14.78,0,0,1-3.7-6.4,26.42,26.42,0,0,1-1-7.4q0-9.15,5.1-14.4c3.4-3.5,9.1-5.3,16.9-5.3h37.5Z"/></g></g></svg>