<?xml version="1.0" encoding="utf-8"?>
<!-- Generator: Adobe Illustrator 24.0.0, SVG Export Plug-In . SVG Version: 6.00 Build 0)  -->
<svg version="1.1" id="Layer_1" xmlns="http://www.w3.org/2000/svg" xmlns:xlink="http://www.w3.org/1999/xlink" x="0px" y="0px"
	 viewBox="0 0 579.9 204.3" style="enable-background:new 0 0 579.9 204.3;" xml:space="preserve">
<style type="text/css">
	.st0{fill-rule:evenodd;clip-rule:evenodd;fill:url(#SVGID_1_);}
	.st1{fill:#161616;}
</style>
<g id="Bg">
</g>
<g id="Object">
	
		<linearGradient id="SVGID_1_" gradientUnits="userSpaceOnUse" x1="48.2772" y1="36.5608" x2="204.5769" y2="-5.8432" gradientTransform="matrix(1 0 0 1 0 83.826)">
		<stop  offset="0" style="stop-color:#4F6FFA"/>
		<stop  offset="1" style="stop-color:#6AB7FB"/>
	</linearGradient>
	<path class="st0" d="M72.3,52.6c-11,13.8-20.6,26.1-21.5,27.2l-1.6,2.1l7.7,34l7.7,34L95.8,165l31.2,15.1l31.2-15.1l31.2-15.1
		l7.7-34l7.7-34l-1.6-2.1c-0.9-1.1-10.6-13.4-21.5-27.2l-19.9-25.2H127H92.2L72.3,52.6z M138.3,51c-6,7.5-11,13.7-11.2,13.7
		s-5.2-6.2-11.2-13.7L105,37.3h22.1h22.1L138.3,51z M107.8,56.5c6.6,8.3,12.2,15.4,12.4,15.9c0.4,0.7-0.8,2.5-9,12.8
		c-7.5,9.5-9.7,12-10.3,11.9c-1-0.2-37.5-15.4-38-15.9c-0.2-0.2,5.7-8,13.2-17.4c19.5-24.7,18.6-23.5,19.2-22.9
		C95.6,41.2,101.2,48.2,107.8,56.5z M176.6,61.8c7.7,9.8,14,17.9,13.8,18c-0.3,0.3-38.4,8.3-38.5,8.1c-0.1-0.1,2.2-10.1,4.9-22.3
		c2.8-12.2,5.2-22.1,5.4-21.9S168.9,52.1,176.6,61.8z M146.1,68.6c-1.9,8.4-3.6,15.4-3.7,15.5c-0.1,0.1-2.2-2.3-4.6-5.4
		c-3.8-4.7-4.4-5.6-3.9-6.3c1.1-1.7,15.3-19.5,15.5-19.3C149.5,53.2,148.1,60.2,146.1,68.6z M131.4,86.4c3.4,4.3,3.9,5,3.2,5.3
		c-0.4,0.2-4.7,1.1-9.4,2.1c-4.8,1-8.9,1.9-9.2,2c-0.4,0.1-0.4,0-0.2-0.4c0.9-1.5,11.2-14.1,11.5-14.1
		C127.3,81.3,129.2,83.6,131.4,86.4z M193.1,90.2c-0.1,0.4-2.4,10.2-5,21.8s-4.9,21.5-5,22.1l-0.2,1l-1-1
		c-1.5-1.5-28-35.1-28.2-35.7c-0.1-0.4,5.6-1.8,19.4-4.7c10.8-2.3,19.8-4.2,20-4.2C193.2,89.4,193.3,89.8,193.1,90.2z M78.3,98.5
		c9,3.8,16.4,7,16.4,7.2s-5.2,6.9-11.6,14.9c-9.7,12.2-11.6,14.5-11.9,13.7c-0.2-0.5-2.3-9.6-4.7-20.4C64.1,103.2,62,93.7,61.8,93
		c-0.2-0.8-0.2-1.4-0.1-1.4C61.9,91.6,69.3,94.7,78.3,98.5z M138.6,101.9c-0.1,0.4-3.4,15-7.4,32.4c-3.9,17.4-7.3,32-7.5,32.4
		c-0.3,0.6-3.9-1-23.5-10.5C87.5,150,77,144.8,77,144.6c-0.1-0.2,6.4-8.5,14.3-18.5l14.4-18.2l15.8-3.4c8.7-1.8,16.1-3.4,16.6-3.4
		C138.6,101.1,138.8,101.4,138.6,101.9z M162.6,125.6c7.9,10,14.4,18.5,14.5,18.8c0.1,0.6-42,21.2-42.5,20.8
		c-0.1-0.1,2.5-12.5,5.9-27.5c7.5-33.1,7-31.1,7.4-30.6C148,107.3,154.7,115.6,162.6,125.6z"/>
	<g>
		<path class="st1" d="M242.1,60.8c13.5,0.4,26.8-0.2,39.9,1.3c16.5,1.8,25.5,15.7,22,31.8c-2.2,9.9-10.5,17.3-21.9,19.1
			c-3.6,0.6-7.3,0.7-10.9,0.8c-4.8,0.1-9.7,0-14.9,0c0,7.4,0,14.6,0,21.9c-4.9,0-9.4,0-14.2,0C242.1,110.9,242.1,86.3,242.1,60.8z
			 M256.4,102.7c7.5-0.3,14.7-0.3,21.8-1.1c7.4-0.8,11.7-6.1,11.9-13.5c0.2-7.8-3.6-13.5-11-14.6c-7.4-1-15-0.9-22.7-1.3
			C256.4,82.6,256.4,92.2,256.4,102.7z"/>
		<path class="st1" d="M417,78.2c6.1,0.1,16,4.5,21.5,15.5c5.3,10.5,4.5,21.2-2.2,30.9c-8.2,11.8-26.5,15.6-40.3,8.5
			c-12.7-6.5-18.5-21.4-13.9-35.5C386,85.6,397,78.2,417,78.2z M394.6,107.4c0,10.5,6.8,17.7,16.5,17.7s16.6-7.4,16.6-17.7
			c0-10.4-6.9-17.7-16.6-17.7C401.4,89.6,394.6,96.9,394.6,107.4z"/>
		<path class="st1" d="M342.3,136.5c-13,0-23.7-6.4-28-17.4c-4.5-11.6-3.2-22.8,5.6-32c8.9-9.2,20.2-10.8,32.1-7.7
			c11,2.9,18,10.2,20.4,21.4C376.7,120.4,363,136.5,342.3,136.5z M326,107.4c0,10.4,6.8,17.7,16.6,17.7c9.7,0,16.7-7.5,16.6-17.8
			c0-10.3-7-17.7-16.7-17.7C332.7,89.6,326,96.9,326,107.4z"/>
		<path class="st1" d="M529.4,124.9c0,4,0,7.2,0,10.7c-16.4,0-32.7,0-49.2,0c-0.6-4.5-0.5-8.5,2.9-12.4c8.7-9.9,17-20.3,25.5-30.5
			c0.7-0.8,1.2-1.7,2.2-3c-10.2,0-19.9,0-29.9,0c0-3.7,0-7.1,0-10.6c15.9,0,31.5,0,47.6,0c0.2,4.1,0.8,7.9-2.5,11.7
			c-9.6,11-18.7,22.3-28.4,34C508.5,124.9,518.8,124.9,529.4,124.9z"/>
		<path class="st1" d="M467.6,135.7c-4.5,0-8.8,0-13.3,0c0-26.2,0-52.2,0-78.6c4.4,0,8.7,0,13.3,0
			C467.6,83.2,467.6,109.2,467.6,135.7z"/>
	</g>
</g>
</svg>
