<?xml version="1.0" encoding="utf-8"?>
<!-- Generator: Adobe Illustrator 25.2.0, SVG Export Plug-In . SVG Version: 6.00 Build 0)  -->
<svg version="1.1" id="Layer_1" xmlns="http://www.w3.org/2000/svg" xmlns:xlink="http://www.w3.org/1999/xlink" x="0px" y="0px"
	 viewBox="0 0 447.57 168.16" style="enable-background:new 0 0 447.57 168.16;" xml:space="preserve">
<style type="text/css">
	.st0{fill:#231F20;}
	.st1{fill:#DDB329;}
</style>
<g>
	<g>
		<g>
			<polygon class="st0" points="160.87,38.13 185.73,38.13 185.73,99.74 202.94,99.74 202.94,38.13 227.92,38.13 227.92,22.03 
				160.87,22.03 			"/>
			<polygon class="st0" points="264.57,60.89 283.62,41.83 303.43,22.03 279.09,22.03 252.35,48.77 252.35,22.03 235.15,22.03 
				235.15,99.74 252.35,99.74 252.35,73.01 279.09,99.74 303.43,99.74 283.62,79.94 			"/>
		</g>
		<g>
			<path class="st0" d="M180,145.43h-4.73l-14.41-30.65h7.49l9.33,20.32l8.72-20.32h7.31L180,145.43z"/>
			<path class="st0" d="M200.48,114.77h23.43v6.35h-16.64v5.69h15.55v6.13h-15.55v6.13h17.04v6.35h-23.82V114.77z"/>
			<path class="st0" d="M254.71,145.43l-14.85-18.17v18.17h-6.61v-30.65h5.21l14.89,18.22v-18.22h6.61v30.65H254.71z"/>
			<path class="st0" d="M267.17,114.77h26.45v6.35h-9.85v24.3h-6.78v-24.3h-9.81V114.77z"/>
			<path class="st0" d="M327.1,132.29c0,1.87-0.25,3.56-0.74,5.08c-0.5,1.52-1.15,2.79-1.97,3.81c-0.82,1.02-1.79,1.88-2.91,2.59
				c-1.13,0.7-2.3,1.2-3.53,1.51c-1.22,0.31-2.51,0.46-3.85,0.46c-3.88,0-7.14-1.2-9.77-3.59c-2.63-2.39-3.94-5.77-3.94-10.12
				v-17.25h6.79v16.47c0,2.48,0.6,4.46,1.79,5.93c1.2,1.47,2.9,2.21,5.13,2.21c4.14,0,6.22-2.66,6.22-7.97v-16.64h6.79V132.29z"/>
			<path class="st0" d="M336.72,145.43v-30.65h12.39c2.34,0,4.34,0.28,6.02,0.83c1.68,0.56,2.96,1.32,3.85,2.3
				c0.89,0.98,1.53,2.02,1.93,3.13c0.39,1.11,0.59,2.35,0.59,3.72c0,1.99-0.54,3.8-1.62,5.43c-1.08,1.64-2.54,2.82-4.38,3.55
				l8.54,11.69h-8.19l-7.49-10.47h-4.86v10.47H336.72z M343.5,121.12v7.49h5.74c1.66,0,2.95-0.34,3.85-1.01
				c0.91-0.67,1.36-1.62,1.36-2.85c0-1.2-0.4-2.1-1.2-2.72c-0.81-0.61-2.23-0.92-4.27-0.92H343.5z"/>
			<path class="st0" d="M371.25,114.77h23.43v6.35h-16.64v5.69h15.55v6.13h-15.55v6.13h17.04v6.35h-23.82V114.77z"/>
			<path class="st0" d="M418.69,134.85c-0.85-0.57-1.9-1.01-3.15-1.31c-1.25-0.31-2.63-0.71-4.12-1.2c-1.49-0.5-2.86-1.05-4.12-1.66
				c-1.25-0.61-2.31-1.54-3.15-2.78c-0.85-1.24-1.27-2.74-1.27-4.49c0-2.54,1.1-4.73,3.31-6.57c2.2-1.84,5.06-2.76,8.56-2.76
				c5.17,0,9.17,1.88,12,5.65l-4.55,4.38c-2.22-2.45-4.79-3.68-7.71-3.68c-3.07,0-4.6,0.96-4.6,2.89c0,0.73,0.42,1.34,1.27,1.84
				c0.85,0.5,1.9,0.88,3.15,1.16c1.25,0.28,2.63,0.66,4.12,1.16c1.49,0.5,2.86,1.05,4.12,1.66c1.25,0.61,2.31,1.55,3.15,2.8
				c0.85,1.26,1.27,2.75,1.27,4.47c0,2.77-1.11,5.09-3.33,6.94c-2.22,1.85-4.98,2.78-8.28,2.78c-3.47,0-6.42-0.7-8.85-2.1
				c-2.42-1.4-4.2-3.2-5.34-5.39l4.95-4.12c1.02,1.64,2.32,2.92,3.9,3.85c1.57,0.94,3.3,1.4,5.17,1.4c1.61,0,2.8-0.27,3.59-0.81
				c0.79-0.54,1.18-1.22,1.18-2.04C419.96,136.12,419.54,135.42,418.69,134.85z"/>
		</g>
	</g>
	<g>
		<path class="st1" d="M20.59,23.43c0-0.77,0.63-1.4,1.4-1.4h28.53c0.77,0,1.4,0.63,1.4,1.4v28.54c0,0.77-0.63,1.4-1.4,1.4H21.99
			c-0.77,0-1.4-0.63-1.4-1.4V23.43z"/>
		<path class="st1" d="M66.98,23.43c0-0.77,0.63-1.4,1.4-1.4h28.53c0.77,0,1.4,0.63,1.4,1.4v28.54c0,0.77-0.63,1.4-1.4,1.4H68.38
			c-0.77,0-1.4-0.63-1.4-1.4V23.43z"/>
		<path class="st1" d="M113.36,23.43c0-0.77,0.63-1.4,1.4-1.4h28.54c0.77,0,1.4,0.63,1.4,1.4v28.54c0,0.77-0.63,1.4-1.4,1.4h-28.54
			c-0.77,0-1.4-0.63-1.4-1.4V23.43z"/>
		<path class="st1" d="M20.59,69.81c0-0.77,0.63-1.4,1.4-1.4h28.53c0.77,0,1.4,0.63,1.4,1.4v28.54c0,0.77-0.63,1.4-1.4,1.4H21.99
			c-0.77,0-1.4-0.63-1.4-1.4V69.81z"/>
		<path class="st1" d="M66.98,69.81c0-0.77,0.63-1.4,1.4-1.4h28.53c0.77,0,1.4,0.63,1.4,1.4v28.54c0,0.77-0.63,1.4-1.4,1.4H68.38
			c-0.77,0-1.4-0.63-1.4-1.4V69.81z"/>
		<path class="st1" d="M113.36,69.81c0-0.77,0.63-1.4,1.4-1.4h28.54c0.77,0,1.4,0.63,1.4,1.4v28.54c0,0.77-0.63,1.4-1.4,1.4h-28.54
			c-0.77,0-1.4-0.63-1.4-1.4V69.81z"/>
		<path class="st1" d="M20.59,116.2c0-0.77,0.63-1.4,1.4-1.4h28.53c0.77,0,1.4,0.63,1.4,1.4v28.54c0,0.77-0.63,1.4-1.4,1.4H21.99
			c-0.77,0-1.4-0.63-1.4-1.4V116.2z"/>
		<path class="st1" d="M66.98,116.2c0-0.77,0.63-1.4,1.4-1.4h28.53c0.77,0,1.4,0.63,1.4,1.4v28.54c0,0.77-0.63,1.4-1.4,1.4H68.38
			c-0.77,0-1.4-0.63-1.4-1.4V116.2z"/>
		<path class="st1" d="M113.36,116.2c0-0.77,0.63-1.4,1.4-1.4h28.54c0.77,0,1.4,0.63,1.4,1.4v28.54c0,0.77-0.63,1.4-1.4,1.4h-28.54
			c-0.77,0-1.4-0.63-1.4-1.4V116.2z"/>
	</g>
</g>
</svg>
