<svg xmlns="http://www.w3.org/2000/svg" viewBox="0 0 600.1 117.6"><defs><style>.cls-1{fill:#242828;}.cls-2{fill:#00e8b4;}</style></defs><title>Asset 2</title><g id="Layer_2" data-name="Layer 2"><g id="Layer_1-2" data-name="Layer 1"><path class="cls-1" d="M169.4,99V49.2H150.3V38.3h51.6V49.2H182.8V99Zm61.4-21.4c0-4.1-.8-7.1-2.5-9.1a8.52,8.52,0,0,0-7-3c-6.3,0-9.5,4.1-9.5,12.2s3.2,12.2,9.5,12.2,9.5-4.2,9.5-12.3M209.5,97a18.68,18.68,0,0,1-7.8-7.7,24.1,24.1,0,0,1-2.8-11.7,23,23,0,0,1,2.8-11.7,19,19,0,0,1,7.8-7.6,27.14,27.14,0,0,1,23.6,0,18.45,18.45,0,0,1,7.8,7.6,24.1,24.1,0,0,1,2.8,11.7,23,23,0,0,1-2.8,11.7,19.27,19.27,0,0,1-7.8,7.7,24.76,24.76,0,0,1-11.8,2.7A25,25,0,0,1,209.5,97M314.6,60.1c2.4,2.9,3.5,7.4,3.5,13.4V99h-13V73.9c0-2.9-.4-4.9-1.3-6.2s-2.4-1.9-4.5-1.9a7.1,7.1,0,0,0-5.8,2.6q-2.1,2.55-2.1,7.2V99h-13V73.9c0-2.9-.4-4.9-1.3-6.2s-2.4-1.9-4.5-1.9a7.1,7.1,0,0,0-5.8,2.6q-2.1,2.55-2.1,7.2V99h-13V56.7h12.7v5.7a13.41,13.41,0,0,1,5.3-5,17,17,0,0,1,7.6-1.7q9.45,0,12.6,7.8a15.13,15.13,0,0,1,5.8-5.7,16.41,16.41,0,0,1,8.2-2.1c4.8,0,8.4,1.4,10.7,4.4m43.2,17.5c0-4.1-.8-7.1-2.5-9.1a8.52,8.52,0,0,0-7-3c-6.3,0-9.5,4.1-9.5,12.2s3.2,12.2,9.5,12.2,9.5-4.2,9.5-12.3M336.5,97a18.68,18.68,0,0,1-7.8-7.7,24.1,24.1,0,0,1-2.8-11.7,23,23,0,0,1,2.8-11.7,19,19,0,0,1,7.8-7.6,27.14,27.14,0,0,1,23.6,0,18.45,18.45,0,0,1,7.8,7.6,24.1,24.1,0,0,1,2.8,11.7,23,23,0,0,1-2.8,11.7,19.27,19.27,0,0,1-7.8,7.7,27.14,27.14,0,0,1-23.6,0m55.7-1.1A25.68,25.68,0,0,1,381.7,85,35.71,35.71,0,0,1,378,68.6a34.49,34.49,0,0,1,3.7-16.4,25.68,25.68,0,0,1,10.5-10.9,32,32,0,0,1,16.1-3.8,34.84,34.84,0,0,1,11.6,1.9,24.29,24.29,0,0,1,9.1,5.1l-4.3,9.6a28.49,28.49,0,0,0-7.9-4.4,24.63,24.63,0,0,0-8.1-1.4c-5.4,0-9.6,1.7-12.5,5.2s-4.4,8.5-4.4,15.2,1.5,11.7,4.4,15.2,7.1,5.2,12.5,5.2a24.63,24.63,0,0,0,8.1-1.4,30,30,0,0,0,7.9-4.4l4.3,9.6a24.29,24.29,0,0,1-9.1,5.1,37.11,37.11,0,0,1-11.6,1.9,32.81,32.81,0,0,1-16.1-4M475,60.1c2.5,3,3.7,7.4,3.7,13.4V99h-13V74.1c0-2.9-.5-5-1.6-6.3a6.12,6.12,0,0,0-5-2,8.58,8.58,0,0,0-6.5,2.6,9.71,9.71,0,0,0-2.5,6.9V99h-13V38.2h13V62.3a15.22,15.22,0,0,1,5.7-5,17.87,17.87,0,0,1,7.8-1.7c5.1.1,8.9,1.5,11.4,4.5m36,28.1a9.18,9.18,0,0,0,2.3-6.6V80.1h-1.5c-4.7,0-7.9.4-9.8,1.1a4,4,0,0,0-2.8,4,5.13,5.13,0,0,0,1.6,3.9,5.76,5.76,0,0,0,4,1.6,7.54,7.54,0,0,0,6.2-2.5m10.2-28.1c3,3,4.5,7.6,4.5,13.9V99H513.4V92.7a10.26,10.26,0,0,1-4.3,5.1,13.67,13.67,0,0,1-7.1,1.9,17.87,17.87,0,0,1-7.8-1.7,13.55,13.55,0,0,1-5.5-4.8,12.09,12.09,0,0,1-2-6.9,10.53,10.53,0,0,1,2.4-7.3c1.6-1.8,4.1-3.1,7.6-3.9a67.71,67.71,0,0,1,14.4-1.2h2.2V72.3c0-2.5-.5-4.3-1.6-5.3s-3-1.6-5.7-1.6a25.94,25.94,0,0,0-6.9,1.1,32.62,32.62,0,0,0-7.2,3.1l-3.4-8.7a39,39,0,0,1,8.9-3.8,36.1,36.1,0,0,1,9.9-1.5c6.2.1,10.9,1.6,13.9,4.5M535.5,99h13V56.7h-13Zm-.4-50.5h14V36.4h-14Zm61.3,11.6c2.5,3,3.7,7.4,3.7,13.4V99h-13V74.1c0-2.9-.5-5-1.6-6.3a6.12,6.12,0,0,0-5-2,8.58,8.58,0,0,0-6.5,2.6,9.71,9.71,0,0,0-2.5,6.9V99h-13V56.7h12.7v6a15.55,15.55,0,0,1,5.8-5.3,17.86,17.86,0,0,1,8.1-1.8c5,.1,8.8,1.5,11.3,4.5M19.6,0V39.2L0,58.8V19.6ZM78.4,78.4A39.2,39.2,0,0,1,0,78.4V58.8H19.6V78.4a19.6,19.6,0,0,0,39.2,0Z"/><polygon id="Fill-20" class="cls-2" points="78.4 39.2 58.8 58.8 0.1 58.8 19.6 39.2 78.4 39.2"/></g></g></svg>