<svg xmlns="http://www.w3.org/2000/svg" xmlns:xlink="http://www.w3.org/1999/xlink" viewBox="0 0 139.88 40.95"><defs><style>.cls-1,.cls-10,.cls-11,.cls-12,.cls-13,.cls-14,.cls-15,.cls-16,.cls-17,.cls-18,.cls-19,.cls-2,.cls-20,.cls-3,.cls-4,.cls-6,.cls-7,.cls-8,.cls-9{fill-rule:evenodd;}.cls-1{fill:url(#linear-gradient);}.cls-2{fill:#f68b43;}.cls-3{fill:#ec7034;}.cls-4{fill:#e16933;}.cls-5{opacity:0.2;}.cls-6{fill:url(#linear-gradient-2);}.cls-7{fill:url(#linear-gradient-3);}.cls-8{fill:url(#linear-gradient-4);}.cls-9{fill:url(#linear-gradient-5);}.cls-10{fill:url(#linear-gradient-6);}.cls-11{fill:url(#linear-gradient-7);}.cls-12{fill:url(#linear-gradient-8);}.cls-13{fill:url(#linear-gradient-9);}.cls-14{fill:#b74135;}.cls-15{fill:#d9772c;opacity:0.4;isolation:isolate;}.cls-16{fill:#7b1d35;}.cls-17{fill:#f3704c;}.cls-18{fill:#8a2335;}.cls-19{fill:#fdca71;}.cls-20{fill:#f2774f;}</style><linearGradient id="linear-gradient" x1="69.94" y1="0.88" x2="69.94" y2="39.4" gradientTransform="matrix(1, 0, 0, -1, 0, 41.83)" gradientUnits="userSpaceOnUse"><stop offset="0" stop-color="#8d2748"/><stop offset="1" stop-color="#d75730"/></linearGradient><linearGradient id="linear-gradient-2" x1="13.99" y1="18.45" x2="79.41" y2="18.45" gradientTransform="matrix(1, 0, 0, -1, 0, 41.83)" gradientUnits="userSpaceOnUse"><stop offset="0" stop-color="#c57cb4"/><stop offset="1" stop-color="#984678"/></linearGradient><linearGradient id="linear-gradient-3" x1="22.03" y1="18.38" x2="99.35" y2="18.38" xlink:href="#linear-gradient-2"/><linearGradient id="linear-gradient-4" x1="59.56" y1="18.45" x2="81.88" y2="18.45" xlink:href="#linear-gradient-2"/><linearGradient id="linear-gradient-5" x1="6.54" y1="21.47" x2="29.11" y2="21.47" xlink:href="#linear-gradient-2"/><linearGradient id="linear-gradient-6" x1="62.57" y1="18.8" x2="109.43" y2="18.8" xlink:href="#linear-gradient-2"/><linearGradient id="linear-gradient-7" x1="75.61" y1="18.38" x2="135.86" y2="18.38" xlink:href="#linear-gradient-2"/><linearGradient id="linear-gradient-8" x1="97.79" y1="10.35" x2="115.9" y2="10.35" xlink:href="#linear-gradient-2"/><linearGradient id="linear-gradient-9" x1="101.37" y1="12.24" x2="139.84" y2="12.24" xlink:href="#linear-gradient-2"/></defs><title>7-20</title><g id="Layer_2" data-name="Layer 2"><g id="Layer_1-2" data-name="Layer 1"><path class="cls-1" d="M123.85,35.52l-10.4,4.14,21.29-6.36A53.64,53.64,0,0,1,127.11,41H14S.78,33.55.07,22.63a14.76,14.76,0,0,1,0-2.1l.25-.09,7-2.67L2.05,15.22,1.66,15C3.59,11.08,7.41,6.82,14,2.43l1.21.11c8.67.78,62.34,5.25,108.64,1.32,0,0,24.15,8.27,13.1,26.3Z"/><path class="cls-2" d="M123.84,3.85,120.64,0,55.4,2.42,18.34,0,14,2.42S75.76,9.26,123.84,3.85Z"/><path class="cls-3" d="M139.84,20.74S141.69,8.22,120.65,0l3.2,3.85S139.13,9.6,139.84,20.74Z"/><path class="cls-3" d="M.09,20.53l.25-.09a19,19,0,0,0-.27,2.19c0,.16,0,.34,0,.51a14.67,14.67,0,0,1,0-2.59h0Z"/><path class="cls-3" d="M18.35,0,15.21,2.53h0s-9,4.23-13.14,12.67L1.67,15l-.4-.19C3.11,9.67,7.6,3.39,18.35,0Z"/><polygon class="cls-4" points="117.49 4.62 125.76 4.62 122.65 2.42 117.49 4.62"/><polygon class="cls-4" points="11.68 4.62 18.93 2.97 15.59 1.53 11.68 4.62"/><polygon class="cls-2" points="0.34 20.44 3.7 16.01 7.37 17.77 0.34 20.44"/><polygon class="cls-2" points="134.74 33.29 132.97 31.78 113.45 39.66 134.74 33.29"/><g class="cls-5"><path class="cls-6" d="M14,41S27.43,18.23,69.69,5.81l9.72.12s-41.32,5.51-60.48,35H14Z"/><path class="cls-7" d="M22,41S48.83,14,87.09,5.94H99.35S44.6,14.75,34.7,41Z"/><path class="cls-8" d="M59.56,29.6s9.12-12.55,22.32-12.45C81.88,17.15,77.52,29.09,59.56,29.6Z"/><path class="cls-9" d="M27.83,3.52S7.68,16.53,6.54,35.14L8.77,37.2S5.85,18.09,29.11,3.61Z"/><path class="cls-10" d="M67.52,41S95.33,27,109.43,5.11l-2.53.15S96.07,28.33,62.57,41Z"/><path class="cls-11" d="M75.61,41s38.39-26,52.8-35a48.41,48.41,0,0,1,7.45,6s-34.28,15.29-44,29Z"/><path class="cls-12" d="M97.79,38.27s-.41-5.65,18.11-13.58C115.89,24.69,104.52,30.15,97.79,38.27Z"/><polygon class="cls-13" points="139.41 18.22 101.37 40.95 105.48 40.95 139.84 20.74 139.41 18.22"/></g><polygon class="cls-4" points="37.34 4.38 52.72 6.88 87.99 5.93 57.3 4.62 37.34 4.38"/><polygon class="cls-14" points="99.36 5.93 115.26 5.1 121.02 5.93 128.59 6.88 137.24 13.69 133.58 9.4 125.76 4.62 118.05 4.38 99.36 5.93"/><path class="cls-14" d="M2.89,13.66,9.8,6.4l5.5-1.3L26,3.92,38,4.38,18.93,3,11.67,4.63,7.36,8.11S4,11.06,2.89,13.66Z"/><path class="cls-15" d="M71.44,38.8a113.52,113.52,0,0,0,31.81-25.49A83.44,83.44,0,0,1,71.44,38.8Z"/><path class="cls-15" d="M35.24,39.66s9.79-21,57-32.31C92.27,7.35,48.13,15.59,35.24,39.66Z"/><path class="cls-15" d="M18.93,41S36.05,15.38,77,6.23C77,6.23,43.72,9.11,18.93,41Z"/><path class="cls-15" d="M8.79,32.45S9.7,16.49,28.46,4C28.46,4,12.18,10.94,8.79,32.45Z"/><polygon class="cls-16" points="7.37 17.77 21.54 17.77 78.37 20.36 12.73 18.44 7.37 17.77"/><polygon class="cls-17" points="12.73 18.44 16.96 19.11 26.54 19.11 12.73 18.44"/><polygon class="cls-16" points="13.99 40.95 47.56 39.2 71.16 40.95 93.9 40.08 97.79 38.27 94.55 40.95 13.99 40.95"/><polygon class="cls-16" points="108.92 40.95 113.45 39.66 111.63 40.95 108.92 40.95"/><polygon class="cls-16" points="30.07 37.2 24.74 31.78 29.11 34.7 30.07 37.2"/><polygon class="cls-16" points="86.01 38.42 100.14 35.72 91.06 38.27 86.01 38.42"/><polygon class="cls-18" points="37.34 2.42 33.08 4.02 35.24 7.35 35.61 4.02 37.34 2.42"/><polygon class="cls-2" points="35.24 7.35 34.32 5.93 35.55 4.62 35.24 7.35"/><polygon class="cls-18" points="94.68 16.01 101.37 21.68 97.79 19.84 94.68 16.01"/><polygon class="cls-2" points="86.01 38.42 91.06 38.27 100.14 35.72 90.61 37.94 86.01 38.42"/><polygon class="cls-17" points="24.74 31.78 27.4 35.09 30.07 37.2 24.74 31.78"/><polygon class="cls-19" points="96.88 5.7 93.9 0.99 115.89 0.18 117.49 4.62 96.88 5.7"/><polygon class="cls-19" points="20.72 3.08 22.81 0.29 18.35 0 16.15 1.77 18.93 2.97 20.72 3.08"/><polygon class="cls-18" points="101.96 17.77 99.16 8.95 101.37 13.69 101.96 17.77"/><polygon class="cls-16" points="125.76 29.09 126.87 27.76 131.02 29.09 129.91 31.24 127.16 31.24 125.76 29.09"/><polygon class="cls-18" points="19.84 25.17 20.36 24.65 22.58 25.74 21.16 26.66 19.84 25.66 19.84 25.17"/><polygon class="cls-20" points="125.76 29.09 127.15 30.82 129.44 31.08 129.99 31.08 129.91 31.24 127.16 31.41 125.76 29.09"/><polygon class="cls-20" points="19.84 25.66 20.77 26.22 21.72 26.22 22.58 25.74 21.44 26.66 21.16 26.66 19.84 25.66"/><path class="cls-15" d="M60.46,29.56s15.93,2.26,21.42-12.41C81.88,17.15,77.81,29.47,60.46,29.56Z"/></g></g></svg>