<svg xmlns="http://www.w3.org/2000/svg" xmlns:xlink="http://www.w3.org/1999/xlink" viewBox="0 0 303.04 150.56"><defs><style>.cls-1{fill:none;}.cls-2{isolation:isolate;}.cls-3{clip-path:url(#clip-path);}.cls-4{fill:url(#linear-gradient);}.cls-5{opacity:0.25;mix-blend-mode:overlay;}.cls-6{clip-path:url(#clip-path-2);}.cls-7{clip-path:url(#clip-path-3);}.cls-8{fill:url(#linear-gradient-2);}.cls-9{clip-path:url(#clip-path-4);}.cls-10{fill:url(#linear-gradient-3);}.cls-11{clip-path:url(#clip-path-5);}.cls-12{fill:url(#linear-gradient-4);}.cls-13{fill:#8da7cb;}.cls-14{clip-path:url(#clip-path-6);}.cls-15{fill:url(#linear-gradient-5);}.cls-16{fill:#9fb0d2;}.cls-17{fill:#dce7f6;}.cls-18{clip-path:url(#clip-path-7);}.cls-19{fill:url(#linear-gradient-6);}.cls-20{fill:#f2f2f3;}.cls-21{clip-path:url(#clip-path-8);}.cls-22{fill:url(#radial-gradient);}.cls-23{clip-path:url(#clip-path-9);}.cls-24{fill:url(#radial-gradient-2);}.cls-25{clip-path:url(#clip-path-10);}.cls-26{fill:url(#radial-gradient-3);}.cls-27{clip-path:url(#clip-path-11);}.cls-28{fill:url(#radial-gradient-4);}.cls-29{clip-path:url(#clip-path-12);}.cls-30{fill:url(#radial-gradient-5);}.cls-31{clip-path:url(#clip-path-13);}.cls-32{fill:url(#radial-gradient-6);}.cls-33{clip-path:url(#clip-path-14);}.cls-34{fill:url(#radial-gradient-7);}.cls-35{clip-path:url(#clip-path-15);}.cls-36{fill:url(#radial-gradient-8);}.cls-37{clip-path:url(#clip-path-16);}.cls-38{fill:url(#radial-gradient-9);}.cls-39{clip-path:url(#clip-path-17);}.cls-40{fill:url(#radial-gradient-10);}.cls-41{clip-path:url(#clip-path-18);}.cls-42{fill:url(#radial-gradient-11);}.cls-43{clip-path:url(#clip-path-19);}.cls-44{fill:url(#radial-gradient-12);}.cls-45{clip-path:url(#clip-path-20);}.cls-46{fill:url(#radial-gradient-13);}.cls-47{clip-path:url(#clip-path-21);}.cls-48{fill:url(#radial-gradient-14);}</style><clipPath id="clip-path" transform="translate(0 0)"><path class="cls-1" d="M62.64,5.7S20.88,28.46,0,41.12c0,0,1.29,9.2,2.54,21.68,1.9,18.9,3.68,45.33.63,58.67,0,0,36.06,20.24,48.09,29.1,0,0,36.05-3.79,55.66-2.53,0,0,30.11-11.93,86-7l.73.07,2.64-1.26c3.27-1.56,9.37-4.42,17.06-8,26.62-12.26,72.3-32.64,85.94-34.41L303,82.25l-.06-.64-.69-8.33-1.16-14.44L186,0S118.32,13.29,62.64,5.7"/></clipPath><linearGradient id="linear-gradient" x1="-366.88" y1="2900.95" x2="-365.88" y2="2900.95" gradientTransform="matrix(0, 150.56, 150.56, 0, -436629.68, 55239.67)" gradientUnits="userSpaceOnUse"><stop offset="0" stop-color="#dbe6f5"/><stop offset="0.01" stop-color="#dbe6f5"/><stop offset="0.99" stop-color="#b6c4e0"/><stop offset="1" stop-color="#b6c4e0"/></linearGradient><clipPath id="clip-path-2" transform="translate(0 0)"><rect class="cls-1" width="303.04" height="131.84"/></clipPath><clipPath id="clip-path-3" transform="translate(0 0)"><path class="cls-1" d="M2.54,62.8C1.29,50.32,0,41.12,0,41.12,20.89,28.46,62.64,5.7,62.64,5.7,118.32,13.29,186,0,186,0L301.13,58.84l1.17,14.44.67,8.33.07.64-3.8,15.18c-13.64,1.77-59.32,22.15-85.94,34.41C192,59.24,61.93,57.83,2.54,62.8"/></clipPath><linearGradient id="linear-gradient-2" x1="-366.56" y1="2901" x2="-365.56" y2="2901" gradientTransform="matrix(0, 131.83, 131.83, 0, -382297.6, 48325.42)" gradientUnits="userSpaceOnUse"><stop offset="0" stop-color="#fff"/><stop offset="0.02" stop-color="#fff"/><stop offset="0.59" stop-color="#d1daec"/><stop offset="0.99" stop-color="#b6c4e0"/><stop offset="1" stop-color="#b6c4e0"/></linearGradient><clipPath id="clip-path-4" transform="translate(0 0)"><path class="cls-1" d="M62.64,5.7s-.34.2-1,.54C55.24,9.75,19,29.61,0,41.12c0,0,.1.68.26,2,1.38,10.26,7.41,58.65,2.91,78.4l.76.43c5.23,3,36.33,20.57,47.33,28.67,20.23-27.2-33.53-29.74-33.48-29.78,9.53-5.81,13.64-13.72,14.68-22.05,2.48-19.62-12.21-41.17-12.21-41.17h.46C51.36,57.8,69,48.85,78.94,39.89S91.15,22.18,91.2,22.2c1.26.52,14.94,6.07,48.62,14.49,33.39,8.35,49.92-8,51.7-9.94l.17-.18S198,37.32,212.57,44.91s53.14,8.23,68.32,11.4c12.39,2.58,19.3,13.15,21.4,17l-1.16-14.44L186.6.31,186,0S118.32,13.29,62.64,5.7"/></clipPath><linearGradient id="linear-gradient-3" x1="-366.88" y1="2900.95" x2="-365.88" y2="2900.95" gradientTransform="matrix(0, 150.56, 150.56, 0, -436630.05, 55239.67)" gradientUnits="userSpaceOnUse"><stop offset="0" stop-color="#cbd6eb"/><stop offset="1" stop-color="#9fb0d2"/></linearGradient><clipPath id="clip-path-5" transform="translate(0 0)"><path class="cls-1" d="M273.3,91.52c-18.51,0-58.3,2-77.07,48.31,14.61-6.92,85.45-40.14,103-42.4L303,82.24l0-.63c-5.41,3.72-16.41,9.91-29.68,9.91"/></clipPath><linearGradient id="linear-gradient-4" x1="-363.33" y1="2901.54" x2="-362.33" y2="2901.54" gradientTransform="matrix(0, 58.21, 58.21, 0, -168661.77, 21232.44)" gradientUnits="userSpaceOnUse"><stop offset="0" stop-color="#8da7cb"/><stop offset="0.01" stop-color="#8da7cb"/><stop offset="0.35" stop-color="#87a1c6"/><stop offset="0.83" stop-color="#778fb8"/><stop offset="0.99" stop-color="#7087b2"/><stop offset="1" stop-color="#7087b2"/></linearGradient><clipPath id="clip-path-6" transform="translate(0 0)"><path class="cls-1" d="M62.64,5.7s-.34.2-1,.54l29.55,16c2.78,1.57,67.7,36.62,102,6.54L186.6.31,186,0S118.32,13.29,62.64,5.7"/></clipPath><linearGradient id="linear-gradient-5" x1="-368.7" y1="2897.95" x2="-367.7" y2="2897.95" gradientTransform="matrix(131.56, 0, 0, -131.56, 48567.53, 381278.37)" gradientUnits="userSpaceOnUse"><stop offset="0" stop-color="#bcc9e3"/><stop offset="0.01" stop-color="#bcc9e3"/><stop offset="0.39" stop-color="#adbedb"/><stop offset="1" stop-color="#8da7cb"/></linearGradient><clipPath id="clip-path-7" transform="translate(0 0)"><path class="cls-1" d="M177.83,114.14a7.79,7.79,0,0,0,7.49,8.06c4.13,0,7.48-3.61,7.48-8.06s-3.35-8.06-7.48-8.06a7.79,7.79,0,0,0-7.49,8.06"/></clipPath><linearGradient id="linear-gradient-6" x1="-348.19" y1="2904.03" x2="-347.19" y2="2904.03" gradientTransform="matrix(0, 16.12, 16.12, 0, -46635.43, 5719.78)" gradientUnits="userSpaceOnUse"><stop offset="0" stop-color="#7087b2"/><stop offset="0.01" stop-color="#7087b2"/><stop offset="0.17" stop-color="#778fb8"/><stop offset="0.65" stop-color="#87a1c6"/><stop offset="0.99" stop-color="#8da7cb"/><stop offset="1" stop-color="#8da7cb"/></linearGradient><clipPath id="clip-path-8" transform="translate(0 0)"><path class="cls-1" d="M44.89,55.06,55.38,56.4l-10.86-.18-.6,1.94,5,.18L43.68,59l-1.52,4.91,4.49-.18L41.19,97h1.88l.67-6V97l4.42-.12-.42-11.64,1-.06-.06-5.34.78,5.34L50.83,85c0-.24.09-.48.15-.7a2.41,2.41,0,0,0,.09-.64l1.58,1.22h.54L53.31,82c0-1,.1-1.94.19-2.91l-1.94-.18,1.75-11.64,4.79-.67L58,62.22l1,4.24,1.88-.24,1.4,13.94-8.31-1v5.7l2.67-.18-1,20.54,2.24-.36.61-6,.42,5.88,1.58-.24V102a2.89,2.89,0,0,0,.42,1.15,4,4,0,0,1,.49,1.21l4.06-.6-.36-12.13,1.57,12,2.79-.37L64.41,53.61,45.68,52.4Z"/></clipPath><radialGradient id="radial-gradient" cx="-370.17" cy="2901.61" r="1" gradientTransform="matrix(0, -234.17, -234.17, 0, 679601.82, -86311.73)" gradientUnits="userSpaceOnUse"><stop offset="0" stop-color="#e5a32d"/><stop offset="0.02" stop-color="#e5a32d"/><stop offset="0.15" stop-color="#e49f2d"/><stop offset="0.29" stop-color="#df932b"/><stop offset="0.43" stop-color="#d97e2a"/><stop offset="0.52" stop-color="#d36e28"/><stop offset="0.68" stop-color="#cf6d28"/><stop offset="0.84" stop-color="#c36828"/><stop offset="1" stop-color="#b06128"/><stop offset="1" stop-color="#af6128"/></radialGradient><clipPath id="clip-path-9" transform="translate(0 0)"><path class="cls-1" d="M80.59,87.55l-.79-.12L78.71,70.34,86,69.43l-.91-5.64a24.09,24.09,0,0,0,1,2.73,26.23,26.23,0,0,1,1,2.79L89.5,69,89,72.4l-.79,12.67-.67-4-1.15,7.21-4.67-.6-.42,12.6ZM87,53.37q1.64,2.91,3,5.79a44.11,44.11,0,0,1,2.36,6l-3-5.91q-1.48-2.94-3.24-5.85a4.77,4.77,0,0,1-.76.06h-.88q-.12.36-.21.69c-.06.23-.21.3-.46.22s-.62-.26-.91-.4a8.58,8.58,0,0,0-.91-.39,8.28,8.28,0,0,1-1,.06,8.52,8.52,0,0,0-1,.06L76.14,54c-1.2.13-2.26.24-3.19.37s-2,.3-3,.42l-.06,4.61,3.16.18c-.53.16-1.06.3-1.58.42a13.65,13.65,0,0,0-1.58.49v.73c.93-.08,1.88-.13,2.85-.16s1.92-.07,2.85-.15l-5.7,1.34L69.86,65l4.06-.9-.54,7.33-.73,27-.91-5.94-.73,9.4,12.49-1.76V97.25q0-1.52.12-3l.61,5.82L91.74,99c.37-.57.77-1.27,1.22-2.12s.89-1.66,1.45-2.79,1.19-2.52,1.88-4.18,1.27-3.15,1.76-4.49S98.94,83,99.26,82c.36-1.09.67-2.08.91-3-.36-1-.79-2.18-1.27-3.52-.45-1.13-1-2.47-1.55-4s-1.24-3.3-2-5.24S94,62.59,93.32,61,92,58.12,91.44,56.94s-1.25-2.52-1.82-3.57Z"/></clipPath><radialGradient id="radial-gradient-2" cx="-370.17" cy="2901.61" r="1" gradientTransform="matrix(0, -234.17, -234.17, 0, 679613.23, -86334.68)" xlink:href="#radial-gradient"/><clipPath id="clip-path-10" transform="translate(0 0)"><path class="cls-1" d="M113.45,90.16l-3.4-17.4-.67,1.1c-.48-3-.91-5.94-1.27-9s-.81-6-1.33-8.91l-.18-1-12.37.3-.12,1.28,8.12.18L94,57.55l-.43,3.33,6.85-.3,8.25,42,2-.31-2.31-12q.91,2.91,1.73,5.88c.55,2,1.14,3.94,1.79,5.88l1-.12-.48-3.58,1.51,3.4,4.91-.79,3.64-19-2.37,18.79,2.37-.37L126.36,80a.05.05,0,0,1-.06-.06l1.45-13,.73,1.81L131.27,54l-5.64-1c-.24.85-.52,1.67-.82,2.46s-.6,1.58-.88,2.39c.08-.85.15-1.7.21-2.54a20.17,20.17,0,0,1,.34-2.49l-1.64-.24-4.67,24.55,3.28-24.79L119,52Z"/></clipPath><radialGradient id="radial-gradient-3" cx="-370.17" cy="2901.61" r="1" gradientTransform="matrix(0, -234.17, -234.17, 0, 679624.31, -86355.67)" xlink:href="#radial-gradient"/><clipPath id="clip-path-11" transform="translate(0 0)"><path class="cls-1" d="M137.66,76.49c-.14-2.73-.17-5.48-.09-8.27l.73,1.27-.43,15.28q0-4.18-.21-8.28m3.49-17.3a.48.48,0,0,0-.06.21.31.31,0,0,1-.13.21l-.54,2.61-.55-3-6.18.06L133.39,70c-.08-1.82-.17-3.61-.28-5.37a53.15,53.15,0,0,1,0-5.36h-2.54l1.64,35.21,2.6.31.55-18.13L135.75,95l4.55.54,2.18-17.15-.73.42,2.85-17.21.3-2.43Z"/></clipPath><radialGradient id="radial-gradient-4" cx="-370.17" cy="2901.61" r="1" gradientTransform="matrix(0, -234.17, -234.17, 0, 679634.41, -86378.35)" xlink:href="#radial-gradient"/><clipPath id="clip-path-12" transform="translate(0 0)"><path class="cls-1" d="M150.69,66.4a9.53,9.53,0,0,1,0-1.85c.06-.63.16-1.26.28-1.91a10.3,10.3,0,0,0,.18-1.88l.24,7.34a3.33,3.33,0,0,1-.7-1.7m5.67-12.06c.08,1.9.14,3.78.18,5.63s0,3.7-.12,5.52l-.91-10.85-.88.24-.75.24-.61,1.34A2.59,2.59,0,0,0,153,56a1.83,1.83,0,0,1-.31-.51l-2,.63c-.54.19-1,.36-1.36.52a9.57,9.57,0,0,0-1,.42c-.12,1.5-.26,3-.42,4.67-.13,1.42-.23,3-.31,4.73s-.12,3.54-.12,5.39l3.46,1.22,3.63,1.39c1.38.53,2.79,1.09,4.25,1.7a4.76,4.76,0,0,1-1.15-2.06c.92.68,1.87,1.37,2.84,2.06s1.92,1.37,2.85,2.06c.69.32,1.25.6,1.7.85s.83.46,1.15.66a4.26,4.26,0,0,1,.85.61l-1.64,6.79-2.36,7-8.49,1.64c.2-1.82.39-3.44.55-4.85.16-1.21.32-2.33.48-3.34s.35-1.51.55-1.51.39.15.58.57a14.64,14.64,0,0,1,.51,1.43c.16.61.34,1.29.55,2.06L161.21,88l-.79-3.7c.28.57.54,1.11.76,1.64s.47,1.07.76,1.63l2.36-1.45-.42-1c-.17-.32-.34-.67-.52-1a13.64,13.64,0,0,0-.69-1.21,10.83,10.83,0,0,0-1-1.31c-.39-.42-.76-.79-1.13-1.12s-.87-.77-1.27-1.09c-.44.12-1,.28-1.57.49s-1.17.42-1.91.66-1.65.57-2.7,1c-.53.2-1,.4-1.46.58l-1.21.51-.79,9-.3-8.48a6.28,6.28,0,0,0-.91.48,3,3,0,0,1-.67.37l-.54.3c0,.49,0,1.07.06,1.76s.1,1.28.18,2.15.18,1.85.3,2.94.32,2.12.46,3.09.29,1.82.45,2.55.35,1.64.55,2.36q1.39.12,3.21.18c1.05,0,2.28.07,3.67.1s3,0,4.7-.1c.6,0,1.19,0,1.75,0l1.7,0c.4-1.29.8-2.59,1.18-3.91s.84-2.61,1.37-3.91h.06a26,26,0,0,1-.67,3.88c-.32,1.3-.63,2.59-.91,3.88a5,5,0,0,0,.91-.06l1-2.3-.12,2.3a7.66,7.66,0,0,1,.94-.06,7.78,7.78,0,0,0,.94-.06c.56-2.22,1.18-4.46,1.85-6.7s1.32-4.49,2-6.76c-.33,2.19-.77,4.4-1.34,6.64s-1.07,4.52-1.51,6.82l2.67-.18a8.8,8.8,0,0,1,1-.06,22.78,22.78,0,0,0,.73-2.61c.21-.89.45-2,.73-3.24s.57-2.76.85-4.46q.3-1.87.51-3.51c.15-1.09.28-2.1.4-3l-4.79-5.28,4.91,3.94c.08-.56.14-1,.18-1.45s.08-.77.12-1.09a8.74,8.74,0,0,0,.06-.91c-.64-.41-1.39-.85-2.24-1.34s-1.63-.94-2.7-1.48-2.31-1.1-3.72-1.67-2.58-1-3.73-1.42-2.13-.68-2.94-.88c-1-.24-1.84-.44-2.61-.61,0-.44-.08-1-.12-1.57,0-1,0-2.49,0-4.43q.12-1.51.24-2.79c.08-.85.16-1.61.25-2.3s.22-1.49.3-2.18a7.63,7.63,0,0,1,1,.24,7.84,7.84,0,0,1,1.18.42,14.7,14.7,0,0,1,1.49.79,9,9,0,0,1,1.39,1c.36.33.67.61.91.85a2.77,2.77,0,0,1,.6.85,5.17,5.17,0,0,1-.06.61l-.15.9c-.06.37-.15.83-.27,1.4a11.57,11.57,0,0,1-.42,1.51c-.17.45-.33.83-.49,1.16a8.46,8.46,0,0,1-.48,1l4.12.54,2.6-6.36-1.09,6.55,1,.18a18,18,0,0,1,.88-2.22,15.9,15.9,0,0,0,.88-2.21l-.79,4.55,1.88.24c.08-.36.16-.77.24-1.21s.16-.86.22-1.37l.21-1.78c.08-.69.13-1.32.15-1.88a11.17,11.17,0,0,0,0-1.46c0-.44-.08-.87-.12-1.27-.33-.32-.73-.71-1.21-1.15s-1-.81-1.55-1.34a22.52,22.52,0,0,0-2.09-1.63c-.77-.57-1.45-1-2-1.46l-1.49-1a9.84,9.84,0,0,0-1.15-.73Z"/></clipPath><radialGradient id="radial-gradient-5" cx="-370.17" cy="2901.61" r="1" gradientTransform="matrix(0, -234.15, -234.15, 0, 679590.91, -86391.71)" xlink:href="#radial-gradient"/><clipPath id="clip-path-13" transform="translate(0 0)"><path class="cls-1" d="M205.28,76c-.16-2.08-.35-4.16-.55-6.22l.73,1.4.43,10.91q-.37-3-.61-6.09m-8.61-17-2,.55a31,31,0,0,1-.3,3.24c-.16,1.11-.31,2.21-.43,3.31l4.79-1.34c.16.85.33,1.86.49,3,.16,1,.32,2.27.48,3.76s.33,3.24.49,5.22.27,3.68.33,5.12.13,2.61.21,3.54q.12,1.64.12,2.79l-1.76.18c-.56.08-1.27.15-2.11.19s-1.8.06-2.86.06-2,0-2.84-.06-1.56-.09-2.13-.13l-1.81-.12a1.76,1.76,0,0,1,.06-.42,2.12,2.12,0,0,0,.06-.52,3.9,3.9,0,0,1,.06-.63l1.09-11.4c.08.41.16.8.24,1.18s.16.78.24,1.19v-.13c.33-1.57.63-3,.91-4.36s.55-2.49.79-3.46c.28-1.13.57-2.14.85-3l1.76-.48,1.21-6.73-3.7,1.12c-1.41.43-2.79.88-4.12,1.36a.4.4,0,0,1-.21.07.48.48,0,0,0-.21.06c-.37,1.13-.68,2.27-.94,3.42a28.36,28.36,0,0,1-1,3.36h-.13c.13-1,.28-2.11.46-3.18s.35-2.13.52-3.18c-.57.2-1.1.39-1.58.58l-1.4.51c-.08,2.51-.19,5-.33,7.49s-.29,5-.45,7.48L181.58,64l-1.09.43-.79.3c-.24.12-.47.22-.67.3v3.58c0,1.13,0,2.47.06,4s.12,3.24.24,5.09.25,3.52.37,5,.22,2.71.3,3.76c.12,1.22.22,2.29.3,3.22a4.13,4.13,0,0,0,.91.54l1.09.55c.41.2.85.44,1.34.72.24-1.29.51-2.6.82-3.94s.63-2.64,1-3.94l-1.16,8.25.76.39.82.4q.12.12.18.12l.06-2.73a8.47,8.47,0,0,1,.46,1.57c.1.53.21,1.06.33,1.58.77.32,1.52.65,2.24,1s1.4.61,2,.85,1.4.53,2,.73l3.95-1.22A11.09,11.09,0,0,1,195,94a9.32,9.32,0,0,0-2-.51q1.41.18,2.82.3l2.91.24,4.61-1.46L202.85,80q.5,3,.79,6.06c.2,2.06.41,4.12.61,6.18l3.45-1.09c.25-.85.49-1.82.73-2.91.2-.93.46-2.07.76-3.42s.61-2.88.94-4.58.58-3.19.79-4.49.36-2.36.48-3.21q.24-1.51.3-2.55l-1.27-1.27c-.44-.44-1-1-1.64-1.54s-1.41-1.23-2.3-1.91l.06.12,1,2.55L202,61.73c-.69-.52-1.32-1-1.88-1.3l-1.46-.88c-.44-.28-.83-.51-1.15-.67a7.26,7.26,0,0,0-.79.18"/></clipPath><radialGradient id="radial-gradient-6" cx="-370.17" cy="2901.61" r="1" gradientTransform="matrix(0, -234.17, -234.17, 0, 679657.93, -86425.54)" xlink:href="#radial-gradient"/><clipPath id="clip-path-14" transform="translate(0 0)"><path class="cls-1" d="M236.56,68.34q-.44-2.79-.67-5.64l.3.3,1.7,10.19q-.12.18-.24.39a1.38,1.38,0,0,1-.37.4q-.3-2.85-.72-5.64M225,76.4l-2.37-.24-.66-13c.44-.13.91-.25,1.39-.37s1-.19,1.58-.33,1.25-.27,1.94-.4q1.76-.3,3.36-.54c1.07-.16,1.79-.28,2.15-.37l.12-.06v.06h.19a1,1,0,0,1-.06.31.75.75,0,0,0-.06.33,2.2,2.2,0,0,1-.07.52l.13,8.24-1.15-2.67c-.09.37-.17.72-.25,1.07s-.16.67-.24,1a51.1,51.1,0,0,1-1.46,5c-.24.68-.46,1.27-.66,1.75l-2.85-.24a3.78,3.78,0,0,1-.15,1.37,1.91,1.91,0,0,0,0,1.3l-.24,3.63ZM234.55,54l-2.75.13c-1,0-2.12.1-3.25.18s-2.59.2-4.39.36-3.55.34-5.24.54l-6.25.67-.24,3.58L225.59,58l-.19.19-13,2.6-.12,1.64c.56-.12,1.16-.23,1.79-.34s1.24-.23,1.85-.39l-3.7,1.82L212,67.31l4.3-1.21-1.88,33,3.64.18.18-16.85,1.15,16.91,1.7.12a5.68,5.68,0,0,1,.09-1.54,7.91,7.91,0,0,0,.15-1.55l.58,1.55.57,1.61,3.16.12-.43-15a3.15,3.15,0,0,1,.85.12c.28.08.58.15.91.21a4.7,4.7,0,0,1,1,.33,9.73,9.73,0,0,1,1.06.42l.94.49a4,4,0,0,1,.85.55c0,.36.08.76.12,1.21a12.47,12.47,0,0,1-.18,3.09,19,19,0,0,1-.37,2.24c-.16.69-.32,1.32-.48,1.88s-.32,1.25-.49,1.82l.43.3,1.09.73c.16-.89.34-1.79.55-2.7l.6-2.75-.42,5.82c.44.2.94.41,1.48.63a15.05,15.05,0,0,0,1.79.58,8,8,0,0,0,1,.24l3.09-1c-.2.2-.45.43-.76.7a6.87,6.87,0,0,1-.94.69c.73.16,1.45.31,2.15.43s1.35.24,1.92.36,1.31.28,1.87.37l.67-1.46c.2-.45.44-1,.7-1.67a17.51,17.51,0,0,0,.69-2.21,16,16,0,0,0,.43-2.39,13.4,13.4,0,0,0,.06-2.16c0-.72-.1-1.43-.18-2.12l-3.7.55v3.76L241,90l-2.42.42.54,1.64c.12.44.23.88.31,1.3a2.07,2.07,0,0,1,0,1c-.08.25-.36.46-.82.64a10.16,10.16,0,0,1-1.55.45,14,14,0,0,1-2.06.37c.36-.93.75-1.88,1.15-2.85.33-.81.67-1.7,1-2.67s.69-1.88,1-2.73a19.88,19.88,0,0,0,.73-2.33c.16-.67.3-1.22.42-1.67a6.64,6.64,0,0,0,.31-1.45,4.1,4.1,0,0,0-.94-1.3c-.39-.35-.74-.64-1.06-.88a8.73,8.73,0,0,0-1.22-.73l1.22-.61c.36-.2.76-.41,1.21-.63l1.27-.64-.85-5.21,1.64,4.67,1-.7c.32-.22.61-.44.85-.64a6.69,6.69,0,0,0,.73-.6c-.17-1.14-.37-2.37-.61-3.7-.2-1.13-.47-2.42-.82-3.85s-.78-2.92-1.3-4.46-1-2.92-1.42-4-.8-2-1.13-2.76-.74-1.53-1-2.06c-.4,0-.83,0-1.27,0l-1.4,0"/></clipPath><radialGradient id="radial-gradient-7" cx="-370.17" cy="2901.61" r="1" gradientTransform="matrix(0, -234.17, -234.17, 0, 679672.05, -86451.73)" xlink:href="#radial-gradient"/><clipPath id="clip-path-15" transform="translate(0 0)"><path class="cls-1" d="M44.89,52.79l10.49,1.33-10.86-.18-.6,1.94,5,.18-5.27.67-1.52,4.91,4.49-.18L41.19,94.74h1.88l.67-6v5.94l4.42-.12-.42-11.64,1-.06-.06-5.34.78,5.34,1.34-.12A6.61,6.61,0,0,1,51,82a2.41,2.41,0,0,0,.09-.64l1.58,1.21h.54l.12-2.91c0-1,.1-1.94.19-2.91l-1.94-.18L53.31,65l4.79-.66L58,59.94l1,4.25,1.88-.25,1.4,14-8.31-1v5.69l2.67-.18-1,20.55,2.24-.36.61-6,.42,5.88,1.58-.25V99.71a2.89,2.89,0,0,0,.42,1.15,3.85,3.85,0,0,1,.49,1.21l4.06-.6-.36-12.13,1.57,11.94,2.79-.36L64.41,51.34,45.68,50.12Z"/></clipPath><radialGradient id="radial-gradient-8" cx="-367.77" cy="2899.68" r="1" gradientTransform="matrix(0, 209.53, 209.53, 0, -607428.76, 77101.36)" xlink:href="#radial-gradient"/><clipPath id="clip-path-16" transform="translate(0 0)"><path class="cls-1" d="M80.59,85.28l-.79-.12L78.71,68.07,86,67.16l-.91-5.64a24.09,24.09,0,0,0,1,2.73,26.23,26.23,0,0,1,1,2.79l2.42-.31L89,70.13,88.17,82.8l-.67-4L86.35,86l-4.67-.61L81.26,98ZM87,51.09Q88.6,54,90,56.88a44.11,44.11,0,0,1,2.36,6l-3-5.91Q87.87,54,86.11,51.09a4.77,4.77,0,0,1-.76.06h-.88c-.08.25-.15.48-.21.7s-.21.3-.46.21-.62-.25-.91-.39-.58-.27-.91-.4a6.67,6.67,0,0,1-1,.07,8.52,8.52,0,0,0-1,.06l-3.78.36c-1.2.12-2.26.24-3.19.36s-2,.31-3,.43l-.06,4.61,3.16.18c-.53.16-1.06.3-1.58.42a10.63,10.63,0,0,0-1.58.49V59q1.39-.12,2.85-.15t2.85-.15L69.92,60l-.06,2.73,4.06-.91-.54,7.34-.73,27-.91-5.94L71,99.65,83.5,97.89V95q0-1.52.12-3l.61,5.82,7.51-1.09c.37-.57.77-1.28,1.22-2.12s.89-1.66,1.45-2.79,1.19-2.53,1.88-4.18,1.27-3.16,1.76-4.49.89-2.46,1.21-3.39c.36-1.1.67-2.09.91-3L98.9,73.28c-.45-1.13-1-2.48-1.55-4s-1.24-3.31-2-5.25S94,60.32,93.32,58.76,92,55.84,91.44,54.67c-.65-1.33-1.25-2.52-1.82-3.58Z"/></clipPath><radialGradient id="radial-gradient-9" cx="-367.77" cy="2899.68" r="1" gradientTransform="matrix(0, 209.53, 209.53, 0, -607421.73, 77079.77)" xlink:href="#radial-gradient"/><clipPath id="clip-path-17" transform="translate(0 0)"><path class="cls-1" d="M113.45,87.89l-3.4-17.4-.67,1.09c-.48-3-.91-5.94-1.27-9s-.81-6-1.33-8.91l-.18-1L94.23,53l-.12,1.28,8.12.18L94,55.28l-.43,3.33,6.85-.3,8.25,42,2-.3-2.31-12q.91,2.91,1.73,5.88c.55,2,1.14,3.94,1.79,5.88l1-.12-.48-3.58,1.51,3.4,4.91-.79,3.64-19-2.37,18.8,2.37-.37,3.88-20.31a.05.05,0,0,1-.06-.06l1.45-13,.73,1.82,2.79-14.85-5.64-1c-.24.85-.52,1.67-.82,2.45s-.6,1.59-.88,2.4q.12-1.28.21-2.55a20,20,0,0,1,.34-2.48l-1.64-.25-4.67,24.56,3.28-24.8L119,49.7Z"/></clipPath><radialGradient id="radial-gradient-10" cx="-367.77" cy="2899.68" r="1" gradientTransform="matrix(0, 209.53, 209.53, 0, -607414.49, 77062.22)" xlink:href="#radial-gradient"/><clipPath id="clip-path-18" transform="translate(0 0)"><path class="cls-1" d="M137.66,74.22q-.21-4.09-.09-8.28l.73,1.28-.43,15.27c0-2.79-.07-5.54-.21-8.27m3.49-17.31a.48.48,0,0,0-.06.21.31.31,0,0,1-.13.22l-.54,2.6-.55-3-6.18.06-.3,10.79c-.08-1.82-.17-3.6-.28-5.36a53.34,53.34,0,0,1,0-5.37h-2.54l1.64,35.22,2.6.31.55-18.13.42,18.25,4.55.54,2.18-17.15-.73.42,2.85-17.21.3-2.43Z"/></clipPath><radialGradient id="radial-gradient-11" cx="-367.77" cy="2899.68" r="1" gradientTransform="matrix(0, 209.53, 209.53, 0, -607407.49, 77046.53)" xlink:href="#radial-gradient"/><clipPath id="clip-path-19" transform="translate(0 0)"><path class="cls-1" d="M150.69,64.13a9.53,9.53,0,0,1,0-1.85c.06-.63.16-1.27.28-1.91a10.3,10.3,0,0,0,.18-1.88l.24,7.33a3.3,3.3,0,0,1-.7-1.69m5.67-12.07q.12,2.85.18,5.64t-.12,5.52l-.91-10.85-.88.24-.75.24-.61,1.33a2.21,2.21,0,0,0-.3-.45,1.75,1.75,0,0,1-.31-.52l-2,.64c-.54.18-1,.36-1.36.52a9.57,9.57,0,0,0-1,.42c-.12,1.5-.26,3.05-.42,4.67-.13,1.41-.23,3-.31,4.73s-.12,3.53-.12,5.39l3.46,1.21,3.63,1.4c1.38.52,2.79,1.09,4.25,1.7a4.73,4.73,0,0,1-1.15-2.07c.92.69,1.87,1.38,2.84,2.07s1.92,1.37,2.85,2.06c.69.32,1.25.6,1.7.84s.83.47,1.15.67a3.9,3.9,0,0,1,.85.61l-1.64,6.79-2.36,7-8.49,1.63c.2-1.81.39-3.43.55-4.84.16-1.22.32-2.33.48-3.34s.35-1.51.55-1.51.39.15.58.57a14.64,14.64,0,0,1,.51,1.43c.16.6.34,1.29.55,2.06l3.45-2.12-.79-3.7c.28.56.54,1.11.76,1.64s.47,1.07.76,1.63l2.36-1.45c-.12-.29-.26-.61-.42-1l-.52-1a13.69,13.69,0,0,0-.69-1.22,10.75,10.75,0,0,0-1-1.3,14.8,14.8,0,0,0-1.13-1.12c-.44-.4-.87-.77-1.27-1.09-.44.12-1,.28-1.57.48s-1.17.43-1.91.67-1.65.57-2.7,1l-1.46.57-1.21.52-.79,9-.3-8.48a6.28,6.28,0,0,0-.91.48,3.42,3.42,0,0,1-.67.36,5.49,5.49,0,0,1-.54.31c0,.48,0,1.07.06,1.76s.1,1.28.18,2.15.18,1.85.3,2.94.32,2.12.46,3.09.29,1.82.45,2.54.35,1.64.55,2.37q1.39.12,3.21.18c1.05,0,2.28.07,3.67.09s3,0,4.7-.09c.6,0,1.19,0,1.75,0l1.7,0c.4-1.29.8-2.59,1.18-3.91a41.27,41.27,0,0,1,1.37-3.91h.06a26.26,26.26,0,0,1-.67,3.88c-.32,1.29-.63,2.59-.91,3.88a5,5,0,0,0,.91-.06l1-2.3-.12,2.3a7.66,7.66,0,0,1,.94-.06,7.78,7.78,0,0,0,.94-.06c.56-2.22,1.18-4.46,1.85-6.7s1.32-4.49,2-6.76c-.33,2.18-.77,4.4-1.34,6.64s-1.07,4.51-1.51,6.82l2.67-.18a8.8,8.8,0,0,1,1-.06,22.78,22.78,0,0,0,.73-2.61c.21-.89.45-2,.73-3.24s.57-2.76.85-4.46c.2-1.25.37-2.42.51-3.52s.28-2.1.4-3l-4.79-5.27,4.91,3.94c.08-.57.14-1,.18-1.45s.08-.77.12-1.1a8.41,8.41,0,0,0,.06-.9c-.64-.41-1.39-.85-2.24-1.34s-1.63-.94-2.7-1.48-2.31-1.1-3.72-1.67-2.58-1-3.73-1.43-2.13-.67-2.94-.87c-1-.25-1.84-.45-2.61-.61,0-.44-.08-1-.12-1.58,0-1,0-2.48,0-4.42q.12-1.51.24-2.79c.08-.85.16-1.62.25-2.3s.22-1.5.3-2.19a9.93,9.93,0,0,1,1,.25,7.84,7.84,0,0,1,1.18.42,12.92,12.92,0,0,1,1.49.79,8.34,8.34,0,0,1,1.39,1c.36.32.67.61.91.85a2.66,2.66,0,0,1,.6.85,4.87,4.87,0,0,1-.06.6l-.15.91c-.06.37-.15.83-.27,1.4a11.57,11.57,0,0,1-.42,1.51,12.41,12.41,0,0,1-.49,1.15,8.66,8.66,0,0,1-.48,1l4.12.54,2.6-6.36-1.09,6.54,1,.18a18.49,18.49,0,0,1,.88-2.21A16.41,16.41,0,0,0,173,61.4l-.79,4.54,1.88.25c.08-.37.16-.77.24-1.22a13.38,13.38,0,0,0,.22-1.36c.06-.5.13-1.1.21-1.79s.13-1.31.15-1.88a11,11,0,0,0,0-1.45c0-.45-.08-.87-.12-1.27-.33-.33-.73-.71-1.21-1.16s-1-.8-1.55-1.33a24.32,24.32,0,0,0-2.09-1.64c-.77-.56-1.45-1.05-2-1.45l-1.49-1a7.74,7.74,0,0,0-1.15-.73Z"/></clipPath><radialGradient id="radial-gradient-12" cx="-367.77" cy="2899.68" r="1" gradientTransform="matrix(0, 209.53, 209.53, 0, -607402.21, 77027.53)" xlink:href="#radial-gradient"/><clipPath id="clip-path-20" transform="translate(0 0)"><path class="cls-1" d="M205.28,73.73c-.16-2.08-.35-4.15-.55-6.21l.73,1.4.43,10.91q-.37-3-.61-6.1m-8.61-16.94c-.48.12-1.15.3-2,.55a31,31,0,0,1-.3,3.24c-.16,1.11-.31,2.21-.43,3.3l4.79-1.33c.16.85.33,1.86.49,3,.16,1,.32,2.26.48,3.76s.33,3.23.49,5.21.27,3.69.33,5.12.13,2.62.21,3.55q.12,1.64.12,2.79l-1.76.18c-.56.08-1.27.14-2.11.18s-1.8.06-2.86.06-2,0-2.84-.06l-2.13-.12-1.81-.12a1.76,1.76,0,0,1,.06-.42,2.18,2.18,0,0,0,.06-.52,4.11,4.11,0,0,1,.06-.64l1.09-11.39c.08.4.16.8.24,1.18s.16.78.24,1.18V75.4c.33-1.58.63-3,.91-4.36s.55-2.49.79-3.46c.28-1.13.57-2.14.85-3l1.76-.49,1.21-6.72-3.7,1.12c-1.41.42-2.79.88-4.12,1.36a.48.48,0,0,1-.21.06.68.68,0,0,0-.21.06c-.37,1.14-.68,2.28-.94,3.43a28.93,28.93,0,0,1-1,3.36h-.13c.13-1,.28-2.11.46-3.18s.35-2.13.52-3.18l-1.58.57-1.4.52c-.08,2.5-.19,5-.33,7.48s-.29,5-.45,7.49l.06-14.67-1.09.43-.79.3c-.24.12-.47.22-.67.3v3.58c0,1.13,0,2.46.06,4s.12,3.23.24,5.09.25,3.52.37,5,.22,2.71.3,3.76q.18,1.82.3,3.21a3.79,3.79,0,0,0,.91.55l1.09.54c.41.21.85.45,1.34.73.24-1.29.51-2.6.82-3.94s.63-2.64,1-3.94l-1.16,8.25.76.39c.27.14.54.27.82.39q.12.12.18.12l.06-2.72a8.47,8.47,0,0,1,.46,1.57c.1.53.21,1.06.33,1.58.77.32,1.52.65,2.24,1l2,.85c.73.28,1.4.52,2,.72l3.95-1.21a11.09,11.09,0,0,1-2.06-.57,8.21,8.21,0,0,0-2-.51c.94.12,1.89.22,2.83.29l2.91.25,4.61-1.46-.55-12.55q.5,3,.79,6.07c.2,2.06.41,4.12.61,6.18l3.45-1.09c.25-.85.49-1.82.73-2.91.2-.93.46-2.07.76-3.43s.61-2.88.94-4.57.58-3.2.79-4.49.36-2.36.48-3.21q.24-1.52.3-2.55l-1.27-1.27c-.44-.44-1-1-1.64-1.55s-1.41-1.22-2.3-1.91l.06.13,1,2.54L202,59.46a21.06,21.06,0,0,0-1.88-1.3l-1.46-.88a11.28,11.28,0,0,0-1.15-.67,7.26,7.26,0,0,0-.79.18"/></clipPath><radialGradient id="radial-gradient-13" cx="-367.77" cy="2899.68" r="1" gradientTransform="matrix(0, 209.53, 209.53, 0, -607392.34, 77004.97)" xlink:href="#radial-gradient"/><clipPath id="clip-path-21" transform="translate(0 0)"><path class="cls-1" d="M236.56,66.07q-.44-2.79-.67-5.64l.3.3,1.7,10.19q-.12.18-.24.39a1.35,1.35,0,0,1-.37.39q-.3-2.85-.72-5.63M225,74.13l-2.37-.24-.66-13,1.39-.36c.45-.08,1-.19,1.58-.33s1.25-.28,1.94-.4q1.76-.3,3.36-.54c1.07-.17,1.79-.29,2.15-.37l.12-.06v.06h.19a1.1,1.1,0,0,1-.06.31.75.75,0,0,0-.06.33,2.12,2.12,0,0,1-.07.51l.13,8.25-1.15-2.67c-.09.36-.17.72-.25,1.06s-.16.68-.24,1a50.72,50.72,0,0,1-1.46,5c-.24.69-.46,1.28-.66,1.76l-2.85-.24a3.73,3.73,0,0,1-.15,1.36,1.93,1.93,0,0,0,0,1.31l-.24,3.63Zm9.51-22.37-2.75.12c-1,0-2.12.1-3.25.18l-4.39.37c-1.8.16-3.55.34-5.24.54-2,.2-4.07.43-6.25.67l-.24,3.58,13.16-1.52-.19.18-13,2.61-.12,1.63c.56-.12,1.16-.23,1.79-.33s1.24-.23,1.85-.39l-3.7,1.82L212,65l4.3-1.21-1.88,33L218,97l.18-16.85L219.34,97l1.7.12a5.65,5.65,0,0,1,.09-1.54,8,8,0,0,0,.15-1.55l.58,1.55.57,1.6,3.16.12-.43-15a3.6,3.6,0,0,1,.85.12,7.18,7.18,0,0,0,.91.21,5.38,5.38,0,0,1,1,.34,9.73,9.73,0,0,1,1.06.42c.34.16.65.33.94.49a4.42,4.42,0,0,1,.85.54c0,.37.08.77.12,1.22a12.51,12.51,0,0,1-.18,3.09,19.38,19.38,0,0,1-.37,2.24c-.16.69-.32,1.31-.48,1.88s-.32,1.25-.49,1.82l.43.3,1.09.73c.16-.89.34-1.79.55-2.7s.4-1.83.6-2.76l-.42,5.82c.44.2.94.42,1.48.64a13.45,13.45,0,0,0,1.79.57,7.77,7.77,0,0,0,1,.25l3.09-1c-.2.2-.45.43-.76.69a6.2,6.2,0,0,1-.94.7c.73.16,1.45.3,2.15.43s1.35.24,1.92.36,1.31.28,1.87.36c.21-.44.43-.93.67-1.45s.44-1,.7-1.67a18,18,0,0,0,.69-2.21,16,16,0,0,0,.43-2.4,13.25,13.25,0,0,0,.06-2.15c0-.73-.1-1.43-.18-2.12l-3.7.55v3.76L241,87.77l-2.42.42.54,1.64c.12.44.23.88.31,1.3a2.07,2.07,0,0,1,0,1c-.08.24-.36.46-.82.64a10.16,10.16,0,0,1-1.55.45,14,14,0,0,1-2.06.37c.36-.93.75-1.88,1.15-2.85.33-.81.67-1.7,1-2.67s.69-1.88,1-2.73a21.13,21.13,0,0,0,.73-2.33c.16-.67.3-1.22.42-1.67a6.64,6.64,0,0,0,.31-1.45,4.15,4.15,0,0,0-.94-1.31c-.39-.34-.74-.63-1.06-.88a9.72,9.72,0,0,0-1.22-.72l1.22-.61,1.21-.64,1.27-.63-.85-5.21,1.64,4.66,1-.69c.32-.23.61-.44.85-.64a6.72,6.72,0,0,0,.73-.61c-.17-1.13-.37-2.36-.61-3.69-.2-1.14-.47-2.42-.82-3.85s-.78-2.92-1.3-4.46-1-2.92-1.42-4-.8-2-1.13-2.76-.74-1.53-1-2.06c-.4,0-.83,0-1.27,0l-1.4,0"/></clipPath><radialGradient id="radial-gradient-14" cx="-367.77" cy="2899.68" r="1" gradientTransform="matrix(0, 209.53, 209.53, 0, -607382.99, 76983.19)" xlink:href="#radial-gradient"/></defs><title>advisor</title><g class="cls-2"><g id="Layer_2" data-name="Layer 2"><g id="Layer_1-2" data-name="Layer 1"><g class="cls-3"><rect class="cls-4" width="303.04" height="150.56"/></g><g class="cls-5"><g class="cls-6"><g class="cls-7"><rect class="cls-8" width="303.04" height="131.83"/></g></g></g><g class="cls-9"><rect class="cls-10" width="302.29" height="150.56"/></g><g class="cls-11"><rect class="cls-12" x="196.23" y="81.61" width="106.8" height="58.22"/></g><path class="cls-13" d="M3.93,121.9l-.76-.43c4.5-19.75-1.53-68.14-2.91-78.4l20.45,14.5.61.44S36.23,84.64,32.46,98.74c0,.13-.05.21-.06.3a30.1,30.1,0,0,1-14.62,21.75c-.05,0-13.85,1.11-13.85,1.11" transform="translate(0 0)"/><g class="cls-14"><rect class="cls-15" x="61.65" width="131.56" height="58.82"/></g><path class="cls-16" d="M106.92,148c23.8-22,89.32-8.22,89.32-8.22l-3.37,1.2c-55.84-4.91-85.95,7-85.95,7" transform="translate(0 0)"/><path class="cls-17" d="M245.42,52s-32.78.81-52.21-23.27c0,0-25.33,31.44-102-6.54,0,0,69.83,42.16,101.6,9.58,0,0,13.36,22.46,52.62,20.23" transform="translate(0 0)"/><path class="cls-17" d="M91.2,22.2S87.43,55.31,21.32,58c0,0,60.55,9.86,69.88-35.81" transform="translate(0 0)"/><g class="cls-18"><rect class="cls-19" x="177.83" y="106.08" width="14.97" height="16.12"/></g><polygon class="cls-20" points="45.58 104.73 41.66 104.73 33.74 104.95 33.74 104.73 29.42 104.73 34.79 71.94 28.43 72.2 30.53 65.4 30.47 65.4 35.38 49.68 38.35 39.63 73.49 41.9 80.44 109.58 68.13 111.18 58.64 112.6 55.06 113.15 45.11 114.76 45.58 104.73"/><path class="cls-20" d="M61.77,89.48l1.06,0,.4-15-3.65.81L59.83,64l.09-6.87V51.38l.08,0,.1-7.59,8.59-1.13c.6-.08,1.23-.16,1.88-.26l-.72-1.28H82.79l.4-.05.13.05h2l5.88-1,.59,1H95.6l2.83,5.27c.63,1.16,1.3,2.49,2,3.94q.93,1.94,2,4.42c.77,1.76,1.55,3.73,2.31,5.86q1.06,2.85,1.93,5.14c.57,1.51,1.06,2.81,1.49,3.9l.1.25c.49,1.34,2.35,6.51,2.35,6.51l-.83,3c-.29,1.07-.64,2.21-1.07,3.5l0,.13c-.34,1-.76,2.14-1.26,3.52s-1.19,3.13-1.92,4.91S104,95,103.36,96.3s-1.14,2.24-1.6,3.07c-.57,1.07-1.09,2-1.6,2.78L97.69,106l-22.33,3.24v-.08l-15.27,2.15Z" transform="translate(0 0)"/><polygon class="cls-20" points="92.26 68.67 82.15 69.12 84.14 53.42 85.11 43.19 109.95 42.58 110.58 38.32 118.44 39.5 118.48 39.35 125.4 40.54 132.65 41.63 132.65 41.64 136.35 42.19 136.31 42.42 142.97 43.56 138.43 67.76 138.45 67.76 137.07 74.97 131.96 102.21 131.9 102.06 130.98 106.88 127.35 107.44 124.12 107.96 124.18 108.39 114.93 109.47 109.95 110.23 107.93 110.55 107.92 110.54 100.69 111.63 92.26 68.67"/><polygon class="cls-20" points="132.15 102.31 122.58 101.2 120.06 47.03 127.46 47.03 142.95 46.88 156.25 46.66 154.94 57.21 154.96 57.2 148.97 104.33 132.15 102.31"/><path class="cls-20" d="M156.48,107.14H156c-1.49,0-2.79,0-3.91-.1-1.33,0-2.59-.11-3.69-.21l-6.92-.6-1.86-6.68c-.26-1-.5-2-.7-3s-.39-2-.56-3.13l-.48-3.24V90c-.13-1.16-.24-2.2-.33-3.13s-.15-1.73-.2-2.36v-.11c0-.87-.08-1.66-.08-2.35V75.84l.24-.12V69.58c0-2,.05-4,.13-5.86s.2-3.6.33-5.12v-.13c.16-1.55.3-3,.41-4.49l.46-5.6,5-2.53a19.32,19.32,0,0,1,1.81-.77l.43-.18,0-.6,7.38-1.81,5.14-1.62.13.33,7.78-1.91,3.28,1.65a18,18,0,0,1,2.48,1.52l1.36.94c.65.45,1.38,1,2.2,1.58a31,31,0,0,1,2.92,2.3c.46.41.85.75,1.2,1l.23.18.21.2c.6.55,1.1,1,1.5,1.43l2.56,2.54.47,4.9a21.4,21.4,0,0,1,.07,2.72c0,.86-.11,1.76-.22,2.69l-.21,1.82c-.09.72-.2,1.4-.32,2,0,.18-.07.35-.1.52l3.12,2v5.55c0,.43,0,.89-.06,1.39l.09.1-1,7.61c-.15,1.19-.34,2.46-.56,3.82-.14.84-.28,1.65-.42,2.4l-1,6.92-.45-.36c-.29,1.19-.58,2.19-.89,3.08l-2.36,6.68h-6.94l-.4,0-1.54.11-.11.34h-4.91l-10.27,1.29Z" transform="translate(0 0)"/><path class="cls-20" d="M181.12,99.33l-2.8-1.18-.1-.43-4.81-2.4.08-.58-2.78-2.33-.37-4.13c-.07-.89-.17-1.93-.29-3.1l0-.22c-.08-1-.18-2.27-.3-3.7s-.25-3.22-.37-5.14-.22-3.84-.26-5.49-.07-3-.07-4.26V56l3.49-1.39v-.26L179,52,191.64,47v.52l6.06-2.17-.1.65,9.76-3-1.29,7.18c.62.41,1.26.87,1.94,1.38l.71.55L212,55.6l.65-.53c1.11.85,2,1.64,2.89,2.4s1.45,1.34,2,1.88L222,63.81l-.26,4.49c-.06,1-.19,2.13-.4,3.44-.13.87-.29,2-.49,3.26s-.51,3-.85,4.82-.68,3.44-1,4.89-.55,2.44-.75,3.35c-.29,1.33-.58,2.5-.88,3.54l-1.48,5.17-2.12.67v0L200,101.8h0L193,104l-1.88-.62-.31,1.67Z" transform="translate(0 0)"/><path class="cls-20" d="M231.11,107.91l-10.4-.75-5.42-.2,0-.1-11.44-.58,1.66-29-4.4,1.24.37-5.83-.15,0,.81-11,1.16-17.1,8.31-.92,6.25-.67c1.75-.2,3.58-.39,5.44-.56l3.24-.28,2-8.87,3.69,8.54,1.88-.09c.73,0,1.33,0,1.9,0s1.2,0,1.76,0l5.65.28L246,47c.36.68.77,1.5,1.24,2.49l.11.24c.4.91.84,2,1.33,3.26s1,2.69,1.57,4.43,1.12,3.55,1.54,5.28.7,3.1.93,4.42.49,2.81.67,4l.64,4.54.26,0,1.19,10.24c.11.9.19,1.82.24,2.73a25,25,0,0,1-.1,3.72,28,28,0,0,1-.67,3.8,28.35,28.35,0,0,1-1.09,3.44c-.34.87-.64,1.57-.89,2.13l-.68,1.48-3.1,6.83L241.8,109c-.83-.12-1.68-.28-2.63-.5l-.38-.08-.75,4.11Z" transform="translate(0 0)"/><g class="cls-21"><rect class="cls-22" x="25.68" y="51.78" width="59.32" height="54.02" transform="translate(-40.93 76.92) rotate(-53.8)"/></g><g class="cls-23"><rect class="cls-24" x="56.48" y="51.08" width="57.08" height="53.13" transform="translate(-27.85 100.4) rotate(-53.8)"/></g><g class="cls-25"><rect class="cls-26" x="80.86" y="47.12" width="63.11" height="60.32" transform="translate(-16.34 122.36) rotate(-53.8)"/></g><g class="cls-27"><rect class="cls-28" x="118.8" y="60.77" width="37.84" height="33.07" transform="translate(-6 142.79) rotate(-53.8)"/></g><g class="cls-29"><rect class="cls-30" x="134.28" y="49.72" width="55.87" height="52.13" transform="translate(5.26 161.93) rotate(-53.8)"/></g><g class="cls-31"><rect class="cls-32" x="170.85" y="53.24" width="49.04" height="48.13" transform="translate(17.61 189.32) rotate(-53.8)"/></g><g class="cls-33"><rect class="cls-34" x="199.76" y="50.04" width="58.23" height="55.3" transform="translate(31.02 216.51) rotate(-53.8)"/></g><g class="cls-35"><rect class="cls-36" x="27" y="47.55" width="56.69" height="57.94" transform="translate(-37.3 58.2) rotate(-42.94)"/></g><g class="cls-37"><rect class="cls-38" x="57.38" y="47.27" width="55.26" height="56.19" transform="translate(-28.57 78.1) rotate(-42.94)"/></g><g class="cls-39"><rect class="cls-40" x="81.37" y="43.64" width="62.08" height="62.74" transform="translate(-20.98 96.67) rotate(-42.94)"/></g><g class="cls-41"><rect class="cls-42" x="120.08" y="56.83" width="35.29" height="36.41" transform="translate(-14.22 113.91) rotate(-42.94)"/></g><g class="cls-43"><rect class="cls-44" x="135.13" y="45.99" width="54.17" height="55.05" transform="translate(-6.62 130.19) rotate(-42.94)"/></g><g class="cls-45"><rect class="cls-46" x="170.86" y="50.42" width="49.02" height="49.24" transform="translate(1.22 153.18) rotate(-42.94)"/></g><g class="cls-47"><rect class="cls-48" x="200.35" y="46.54" width="57.06" height="57.75" transform="translate(9.94 176.11) rotate(-42.94)"/></g></g></g></g></svg>