<svg xmlns="http://www.w3.org/2000/svg" xmlns:xlink="http://www.w3.org/1999/xlink" viewBox="0 0 1273.05 262.68"><defs><style>.cls-1{fill:none;}.cls-2{clip-path:url(#clip-path);}.cls-3{fill:#924621;}.cls-4{fill:#7b381a;}.cls-5{clip-path:url(#clip-path-2);}.cls-6{fill:url(#radial-gradient);}.cls-7{clip-path:url(#clip-path-3);}.cls-8{fill:url(#radial-gradient-2);}.cls-9{clip-path:url(#clip-path-5);}.cls-10{fill:url(#radial-gradient-3);}.cls-11{clip-path:url(#clip-path-6);}.cls-12{fill:url(#radial-gradient-4);}.cls-13{clip-path:url(#clip-path-7);}.cls-14{fill:url(#radial-gradient-5);}.cls-15{clip-path:url(#clip-path-8);}.cls-16{fill:url(#radial-gradient-6);}.cls-17{clip-path:url(#clip-path-9);}.cls-18{fill:url(#radial-gradient-7);}.cls-19{clip-path:url(#clip-path-10);}.cls-20{fill:url(#radial-gradient-8);}.cls-21{clip-path:url(#clip-path-12);}.cls-22{fill:url(#radial-gradient-9);}.cls-23{clip-path:url(#clip-path-14);}.cls-24{fill:url(#radial-gradient-10);}.cls-25{clip-path:url(#clip-path-16);}.cls-26{fill:url(#radial-gradient-11);}.cls-27{clip-path:url(#clip-path-18);}.cls-28{fill:url(#radial-gradient-12);}.cls-29{clip-path:url(#clip-path-19);}.cls-30{fill:url(#radial-gradient-13);}.cls-31{clip-path:url(#clip-path-20);}.cls-32{fill:url(#radial-gradient-14);}.cls-33{fill:#cc6f2c;}.cls-34{fill:#9f5325;}.cls-35{fill:#e88d42;}.cls-36{fill:#682f15;}</style><clipPath id="clip-path"><rect class="cls-1" x="177.51" y="24.03" width="959.97" height="209.87"/></clipPath><clipPath id="clip-path-2"><path class="cls-1" d="M732.57,48.83c-8.59.82-17.33,1.85-26.16,2.9h2.34l27.2-.27c36.72-.36,67.09-2,67.5-3.64,0-.17.47-.29,1.12-.37h-.34c-9.83-.42-19.42-.68-28.91-.68a404.12,404.12,0,0,0-42.75,2.09"/></clipPath><radialGradient id="radial-gradient" cx="718.31" cy="70.5" r="1" gradientTransform="translate(-1336560.69 -83994.91) scale(1861.7 1192.87)" gradientUnits="userSpaceOnUse"><stop offset="0" stop-color="#c46228"/><stop offset="0.34" stop-color="#bf6128"/><stop offset="0.65" stop-color="#b55d27"/><stop offset="0.95" stop-color="#a25425"/><stop offset="1" stop-color="#9f5325"/></radialGradient><clipPath id="clip-path-3"><path class="cls-1" d="M869.59,53.44l27.61,3.64c36,4.74,95.44,8.77,132.16,9l26.44.14c22.15.11,52.79-.06,81.68-.41v-16q-91.31,3.88-182.27,2.77c-43.35-.44-87-2.08-129.85-4.1,11.77,1,27.29,2.78,44.23,5"/></clipPath><radialGradient id="radial-gradient-2" cx="718.31" cy="70.5" r="1" gradientTransform="translate(-1336567.43 -83993.13) scale(1861.71 1192.87)" xlink:href="#radial-gradient"/><clipPath id="clip-path-5"><path class="cls-1" d="M93.66,18.28l-25.87.45C50.88,19,29,19.85,6.85,20.92c66.63-.85,133.15-1.25,199.62-.73-35.85-1.61-82.28-2.45-112.81-1.91"/></clipPath><radialGradient id="radial-gradient-3" cx="718.31" cy="70.5" r="1" gradientTransform="translate(-1336568.84 -83995.59) scale(1861.71 1192.88)" xlink:href="#radial-gradient"/><clipPath id="clip-path-6"><path class="cls-1" d="M177.51,167a487.22,487.22,0,0,0,49.22-2.08L254.91,162c36.25-3.76,95.93-6,132.62-5.07l28.07.75c36.69,1,96.75,2.31,133.45,3l25.64.47c30,.55,75.48,1.31,111.19,1.89-23.87-1.2-47.5-2.9-70.89-4.62Q516.05,151,417.66,143.07L220.8,126.47c-14.49-1.17-28.93-2.19-43.29-2.83Z"/></clipPath><radialGradient id="radial-gradient-4" cx="718.31" cy="70.5" r="1" gradientTransform="translate(-1336639.43 -83995.65) scale(1861.81 1192.93)" xlink:href="#radial-gradient"/><clipPath id="clip-path-7"><path class="cls-1" d="M1058.4,219l-31.75,6c-35.23,6.64-93.81,9.4-130.18,6.14l-29.41-2.63c-36.37-3.27-96.15-5.18-132.84-4.25l-26.77.67c-36.69.93-96.38-1.37-132.64-5.09l-28.14-2.9c-36.26-3.72-95.94-5.87-132.62-4.76l-26,.78c-36.68,1.11-96.29,5.33-132.46,9.39l-29.87,3.35a480,480,0,0,1-48.25,2.43v4.57q15.85.59,31.69,1.2h928.28V211.39c-28.22.92-57.86,3.62-79.08,7.62"/></clipPath><radialGradient id="radial-gradient-5" cx="718.31" cy="70.5" r="1" gradientTransform="translate(-1336581.99 -83992.47) scale(1861.73 1192.88)" xlink:href="#radial-gradient"/><clipPath id="clip-path-8"><path class="cls-1" d="M256.37,173l-31.12,4.73a383.21,383.21,0,0,1-47.74,3.59V195c31.12.43,62.59-.69,94.08-2-31.33,2.3-62.76,4.38-94.08,4.84v15.78a443.62,443.62,0,0,0,48.73-3.34l27.09-3.68c35.92-4.87,95.35-9.35,132.06-9.93l29.41-.48c35.86-.58,93.66,1.27,130.28,4.11-21.44-2.53-42.85-5.81-64.16-10.14,64.42,5.53,125.85,5.93,187.12,5.91,61.28-.24,122.46-1.34,186.62-3.07-33.75,4.83-67.07,8.33-100.24,10.67,36.06-.56,83.26.85,114,3.63l26.69,2.41c36.36,3.29,95.54,2.09,131.5-2.66l29.2-3.86c22-2.9,52.77-4.92,81.72-5.63v-1.24c-91.26,2.53-183.64,4.42-278,5.71,94.18-7.51,186.59-14.32,278-20.44v-9.37c-29,.74-59.84,1.27-82.11,1.34l-26.16.09c-36.72.12-96.8-.13-133.51-.56l-27.32-.33c-36.71-.43-96.76.22-133.43,1.44l-27,.9c-36.67,1.22-96.71,1.88-133.43,1.48l-26.73-.3c-36.71-.4-96.58-3-133-5.88l-27.09-2.11c-11-.85-24-1.25-37.78-1.25-32.09,0-68.48,2.18-93.47,6"/></clipPath><radialGradient id="radial-gradient-6" cx="718.31" cy="70.5" r="1" gradientTransform="translate(-1336568.87 -83995.59) scale(1861.71 1192.88)" xlink:href="#radial-gradient"/><clipPath id="clip-path-9"><path class="cls-1" d="M675.12,76.25c22.1-1.29,44.29-2.59,67.28-1,25.4,1.39,48.32,8.51,69.87,14.18s44.6,10.72,69,6.59c-11,3.81-24,5.36-36.68,5.13a231.25,231.25,0,0,1-36.92-4c-23.8-4.31-45.06-9.91-67.58-11-22.64-1.55-46.25-.94-70.56-1.4-24.14-.49-49.82-2-72.83-8.61A289.08,289.08,0,0,0,631,78c14.82,0,29.48-.86,44.17-1.72m59.46-14.19L708.2,63.34c-36.61,1.77-96.61,2.81-133.32,2.3l-25.52-.35c-36.71-.51-96.24,2.76-132.28,7.26l-30.76,3.84c-36.05,4.5-94.73,3.65-130.42-1.9l-31.09-4.83c-13.3-2.07-29.86-3.78-47.3-5v18.4c9.21-.1,18.41,0,27.6.14,27.72.53,55.28,2.07,82.89,3.36,54.94,2.44,111.4,5,166-4.77C399.67,93.4,341.75,92.44,286.3,91.31c-27.89-.64-55.59-1.52-83.06-1.44-8.64-.07-17.19.1-25.73.42v13.62c16.6.44,33,1.36,49.22,2.45,28.2,2,56.18,4.17,84.15,6.33,27.46.37,56,0,77-1.37l26.49-1.67c36.54-2.3,96.39-5.69,133-7.53l27.85-1.4c36.61-1.84,66.8-2.32,67.09-1.06s30.07,5.85,66.15,10.21l27.78,3.35c36.08,4.36,95.39,5.35,131.78,2.2l26.68-2.3c36.39-3.15,96.21-6.08,132.92-6.51l27.51-.32c22.33-.27,53.27-.44,82.36-.49v-2.63c-24.34-2.2-48.44-5-72.49-7.83-32.65-3.78-65.36-7.47-98.6-9.22S899.34,85,866,89.58c32.75-6.34,67.16-8.6,101.12-8.53,34,.23,67.66,2.52,100.83,5,23.36,1.74,46.53,3.54,69.54,4.81V81.13c-29.19,0-60.28-.33-82.68-.8l-27.29-.58c-36.7-.78-66.79-1.68-66.87-2s-29.73-4-65.87-8.15l-27.89-3.21c-27-3.1-67.19-5-101-5-11.38,0-22,.21-31.27.66"/></clipPath><radialGradient id="radial-gradient-7" cx="718.31" cy="70.5" r="1" gradientTransform="translate(-1336324.36 -98975.68) scale(1861.37 1405.36)" xlink:href="#radial-gradient"/><clipPath id="clip-path-10"><path class="cls-1" d="M917.11,152.46c-33,2.11-65.87,6.08-99.53,8.89-13.54,1.2-27.28,2-41.06,2.51,31.71-.17,67.05-.84,91.81-1.87l26.67-1.1c36.65-1.51,96.68-2.88,133.4-3l26.29-.11c22.43-.09,53.58-.39,82.79-.76v-4.35c-40.27,1.21-80.76-.44-120.1-1.3-14.08-.34-28.09-.58-42-.58-19.61,0-39,.46-58.26,1.71M414.9,117.31l-24.37,1.63,34.12,2.7L621.8,138.23c65.76,5.87,130.2,11.21,195.46,6.61C850.09,143,883.52,140,917.74,139s68.51.61,102.24,2.78c39,2.46,78.22,5.77,117.5,6.47v-18.8c-19.59-1.25-39.62-1.92-60.37.83,18.76-6.15,40-8.41,60.37-8.94v-7c-29-.19-59.9,0-82.17.69l-26.22.78c-36.68,1.09-96.52,4.28-133,7.09l-28.31,2.18c-36.46,2.81-95.94,2-132.18-1.79l-29.25-3.07c-36.24-3.8-95.93-7-132.66-7.11L548.05,113h-3.18c-36.92,0-94.5,1.87-130,4.25"/></clipPath><radialGradient id="radial-gradient-8" cx="718.31" cy="70.5" r="1" gradientTransform="translate(-1336568.12 -83992.07) scale(1861.71 1192.87)" xlink:href="#radial-gradient"/><clipPath id="clip-path-12"><polygon class="cls-1" points="407.24 4.22 395.81 4.49 398.06 5.02 407.24 4.22"/></clipPath><radialGradient id="radial-gradient-9" cx="718.31" cy="70.5" r="1" gradientTransform="translate(-1336689.62 -84001.24) scale(1861.88 1192.98)" xlink:href="#radial-gradient"/><clipPath id="clip-path-14"><path class="cls-1" d="M386.82,6l5.65-.49c-2.07-.28-4.13-.53-6.2-.8-34.45.8-72.92,1.69-108.53,2.38C312.93,8.88,357.36,8.58,386.82,6"/></clipPath><radialGradient id="radial-gradient-10" cx="718.31" cy="70.5" r="1" gradientTransform="translate(-1336589.57 -83994.02) scale(1861.74 1192.89)" xlink:href="#radial-gradient"/><clipPath id="clip-path-16"><path class="cls-1" d="M1029.15,9.77,1055,8.82c28.54-1,71.12-2.45,105.94-3.52l-21,.36c-25.11.4-124.63-2.19-244.28-3.08l1.68.24c35.83,5.17,95.13,8.29,131.8,7"/></clipPath><radialGradient id="radial-gradient-11" cx="718.31" cy="70.5" r="1" gradientTransform="translate(-1336567.68 -83992.76) scale(1861.71 1192.87)" xlink:href="#radial-gradient"/><clipPath id="clip-path-18"><path class="cls-1" d="M576.13,11.07c35.87,5,94,3.53,129.07-3.35l25-4.9c-31.89.39-63.54,1-94.08,1.95a41.28,41.28,0,0,0-10.55-2.61c-5.8-.84-11.52-1.37-17.21-1.68Q597.13.62,585.84.17c-9,.17-18.05.56-27.46.86-22.5.72-45,1.15-67.52,1.47,20.43.77,40.25,2.24,55.71,4.41Z"/></clipPath><radialGradient id="radial-gradient-12" cx="718.31" cy="70.5" r="1" gradientTransform="translate(-1336704.81 -83999.7) scale(1861.9 1192.99)" xlink:href="#radial-gradient"/><clipPath id="clip-path-19"><path class="cls-1" d="M177.51,48.52c18.22.56,35.63,1.51,49.6,2.8L255,53.91c36.35,3.37,95.89,3.71,132.32.76l27.14-2.19c14.07-1.14,31.63-2,50-2.67q-53.34-3-106.82-4.85c-59.91-2-119.95-3.1-180.13-3.68Z"/></clipPath><radialGradient id="radial-gradient-13" cx="718.31" cy="70.5" r="1" gradientTransform="translate(-1336582.02 -83992.47) scale(1861.73 1192.88)" xlink:href="#radial-gradient"/><clipPath id="clip-path-20"><path class="cls-1" d="M690.8,24c-35.46,3.66-83.46,3.81-114.66,0h-193q65.19,2.52,130.23,7c49.84,3.43,98.44,8.16,145.51,5,23.55-1.53,47.87-5,73.69-7.09,26.08-2.24,52.88-1.52,78,0,50,3.25,99.21,5.91,149.22,7.31q88.5,2.61,177.7.84V24Z"/></clipPath><radialGradient id="radial-gradient-14" cx="718.31" cy="70.5" r="1" gradientTransform="translate(-1336568.3 -83991.79) scale(1861.71 1192.87)" xlink:href="#radial-gradient"/></defs><title>Asset 3</title><g id="Layer_2" data-name="Layer 2"><g id="Layer_1-2" data-name="Layer 1"><g id="Layer_1-2-2" data-name="Layer 1-2"><g class="cls-2"><path class="cls-3" d="M1265.59,66.25c-4.43-13.73,19.77-44-4.92-51.91q-17.06-5.46-34-11C1216-.14,1206.48,3,1195.08,3.6c-15.81.86-31.86.72-47.71,1-67.12,1.2-134.18-.87-201.29-1.76C843.28,1.5,740.38,1,637.67,3.81l-8.46.25c-4.35.13-6-.26-7.52,1.05C605-.85,583.78-.2,565.51.33,505,2.1,444.39,3.11,383.83,4.56,325.18,6,266.51,7.49,207.83,8.13c-26,.28-51.89-.22-77.88-.58-23.76-.32-47.52-.42-71.27-.09-9.52.13-19,.42-28.54.26C23,7.6,9.24,6.06,3.12,9.47c-4.93,2.75-2.16,5.09.29,8.19,3.2,4.07,3.81,5.07,3.27,9.72-.36,3.13-1.3,5.92.84,8.9,2.39,3.32,7.15,4.26,9.85,7.3C27.68,55.21,8,70.29,19,82.3c3.21,3.49,8.93,5.26,13.76,7.39,7.87,3.46,5.37,2.91,5.19,9.06-.2,7.19,10.49,10.2,17.93,13.48,8,3.51,16,7.86,24.48,10.65-5.28,1.08-24.74,6.56-15.21,12.68-10.14,1.5-23.88,3-32.88,6.78-5.54,2.35-5,5.39-5.12,10.12a67,67,0,0,0,1,12c2.55,16.11,7.92,31.69-.39,47.44-3.4,6.44-5.87,10.43,2.76,14.84,7.2,3.69,17.66,6.07,23.84,10.57,1.89,1.38,2.49,3.67,4.88,5.19,3.23,2.05,8.23,3.54,11.92,5.16,7.76,3.42,15.66,7.81,24,10.41,17.51,5.44,40.74,2.25,59.16,2,18.87-.25,37.74-.12,56.62,0l88.38.74q97.41.82,194.82,1.49c22.74.12,45.59.58,68.31-.06q18-.51,35.86-2.16c11.07-1,25.47-1.29,35.74-4.56,15.76-5,9.16-22.87,9.42-35.22a11.43,11.43,0,0,1,3.35,2.13,32.35,32.35,0,0,1,6,7.48c2.61,4.45,2.4,10,5.61,14.25,1.7,2.22,5.43,3.18,8.49,4.22,3.82,1.31,7.62,2.39,11.35,3.67s7.84,2.6,11.34,3.66c4.28,1.3,9.1,3.23,13.9,3.69,8.44.83,17.81.37,26.48.43q165.9,1.28,331.88.54c22.64-.12,45.24-1.11,67.87-1.17q11.13,0,22.25.21c5.07.1,18.37,2,22.7.73,7.33-2.15,8.48-11.71,13.1-16.44,4.87-5,11.36-8.26,20.48-8.32,7.18,0,17.19,2.36,23.89-.11,7.59-2.79,5.34-11.28,5.43-16,.06-4.11.08-8.32-1.85-12.27-1.7-3.48-4.85-6.17-1.9-9.81,4-4.9,14.16-4.9,20.89-7.06,11.67-3.75,10.1-11.09,10.32-18.63.28-9.13,0-18.3,1.92-27.35,1.66-7.71,3.6-14.66-7.19-19.72-9.35-4.39-21.56-7.17-31.87-10.5-17.79-5.75,1.34-9.83,11.95-11.74,10.17-1.84,29.13-2.2,32.3-9.88,3.43-8.34-4-18.13-6.57-26.12"/><path class="cls-4" d="M1185.75,219.33l49.31,14.2a8.35,8.35,0,0,1-2.9,1.81c-6.7,2.47-16.72.07-23.89.11a30.22,30.22,0,0,0-11.31,2.14l-49.79-18.26ZM1180.86,186l52.55,12.22c.18-.31.16-.6.43-.92,4-4.9,14.16-4.9,20.88-7.06.59-.19,1-.43,1.54-.64l5.61-3.53.07-.08L1214,170.85Zm49.08-104.9-64.84,8,6,7,52,10.8c3.83-2,11.4-3.56,16.79-4.53,10.17-1.84,29.13-2.2,32.3-9.88Zm-565.41,159s-58.63,2.08-58.42,0l-481.57-4.21-65.28,6.72c3.22,2,8.23,3.53,11.92,5.16,7.76,3.42,15.66,7.81,24,10.41,17.51,5.43,40.74,2.25,59.16,2,18.87-.25,37.74-.13,56.62,0q44.19.35,88.38.74,97.41.82,194.82,1.48c22.74.13,45.58.59,68.31,0,2.11-.06,4.22-.2,6.32-.28v.06l4.58-.26c3.71-.18,7.41-.38,11.12-.63,23.25-1.27,65.6-3.39,78.62-2.71,18.25.94,54.59,1.74,54.59,1.74l.11-.27c4.09,0,8.2-.09,12.15-.06q165.9,1.28,331.88.54c22.64-.12,45.24-1.11,67.87-1.18q11.11,0,22.25.22c5.07.1,18.37,2,22.7.73.36-.11.64-.31,1-.45l-50.24-16.48ZM79.16,123.17l16.58,1.21L111,109.11l-59.77-4.23L49,109.32c2.36,1,4.79,2,7,2.91,8,3.51,16,7.86,24.48,10.65-.32.06-.82.19-1.22.29"/></g><g class="cls-5"><rect class="cls-6" x="706.41" y="46.74" width="98.16" height="4.99"/></g><g class="cls-7"><rect class="cls-8" x="825.36" y="48.42" width="312.12" height="17.86"/></g><g class="cls-2"><g class="cls-9"><rect class="cls-10" x="6.85" y="17.74" width="199.62" height="3.18"/></g></g><g class="cls-11"><rect class="cls-12" x="177.51" y="123.64" width="508.37" height="43.35"/></g><g class="cls-13"><rect class="cls-14" x="177.51" y="211.07" width="959.97" height="23.33"/></g><g class="cls-15"><rect class="cls-16" x="177.51" y="167.05" width="959.97" height="46.59"/></g><g class="cls-17"><rect class="cls-18" x="177.51" y="61.4" width="959.97" height="57.17"/></g><g class="cls-19"><rect class="cls-20" x="390.53" y="113.06" width="746.95" height="50.79"/></g><g class="cls-2"><g class="cls-21"><rect class="cls-22" x="395.81" y="4.22" width="11.43" height="0.8"/></g></g><g class="cls-2"><g class="cls-23"><rect class="cls-24" x="277.74" y="4.71" width="114.74" height="4.17"/></g></g><g class="cls-2"><g class="cls-25"><rect class="cls-26" x="895.67" y="2.58" width="265.24" height="8.53"/></g></g><g class="cls-2"><g class="cls-27"><rect class="cls-28" x="490.86" y="0.17" width="239.34" height="15.93"/></g></g><g class="cls-29"><rect class="cls-30" x="177.51" y="41.28" width="286.95" height="16.34"/></g><g class="cls-31"><rect class="cls-32" x="383.16" y="24.03" width="754.32" height="15.13"/></g><g class="cls-2"><path class="cls-33" d="M104.61,195.3c55.25,5.2,111.25,1.8,167-2.29-55.51,2.24-111,4-164.53-2.33q-20-2.35-39.52-5.85A334.64,334.64,0,0,0,32,180.54c.41,2.22.76,4.43,1,6.64,10.36.59,20.67,1.48,30.81,3,13.43,2,27.08,3.82,40.82,5.1"/><path class="cls-33" d="M575.86,202.78c36.43,2.95,96.21,4.09,132.85,2.53l26.93-1.14c5.72-.25,12.12-.39,18.78-.5,33.17-2.33,66.49-5.83,100.24-10.66-64.16,1.73-125.34,2.83-186.62,3.07-61.27,0-122.71-.38-187.12-5.91,21.31,4.33,42.72,7.62,64.16,10.14.86.06,1.86.12,2.7.19Z"/><path class="cls-33" d="M203.24,89.87c27.47-.08,55.17.8,83.06,1.44,55.44,1.13,113.37,2.09,167.7-9.52C399.42,91.52,343,89,288,86.56c-27.61-1.29-55.17-2.83-82.89-3.36-13.87-.23-27.76-.31-41.67.16-14.09.45-27.36,1.23-41,1.56-33.37.84-66.75.39-100.16-.33a20.68,20.68,0,0,0,4.32,2.2c5.55,2,14,3.36,14.13,7.06,0,.18-.13.34-.16.51,26.73.13,53.56-.09,80.51-1.16,27.91-1.29,54.61-3.56,82.15-3.33"/><path class="cls-33" d="M585.84.17q11.28.44,22.53.31c-7.52-.42-15-.45-22.53-.31"/><path class="cls-33" d="M812.27,89.47c-21.55-5.68-44.47-12.79-69.87-14.18-49.95-3.54-96.11,6.71-145.71.8,23,6.66,48.69,8.12,72.83,8.61,24.31.46,47.92-.15,70.56,1.4,22.52,1.13,43.78,6.73,67.58,11a229,229,0,0,0,36.92,4c12.67.24,25.65-1.31,36.68-5.12-24.39,4.13-47.37-.93-69-6.59"/><path class="cls-33" d="M1138.18,121.32c-20.59.49-42.1,2.74-61.07,9,20.78-2.76,40.85-2.08,60.47-.82s39,3.41,58.47,5.33c18.57,1.76,37.6,3.62,57,4.67v-.83a39.73,39.73,0,0,1,1.39-7.57c-18.37-2.62-36.63-5.24-55.4-7a505.23,505.23,0,0,0-60.88-2.73"/><path class="cls-33" d="M398.06,5l-2.25-.53-9.54.22c2.07.27,4.13.52,6.2.8Z"/><path class="cls-33" d="M1166.43,92.11c-32.5-1-65.31-3.6-98.49-6.08s-66.82-4.75-100.83-5c-34-.07-68.37,2.19-101.12,8.53,33.35-4.57,67.21-5.07,100.4-3.46s65.95,5.44,98.6,9.22,65.38,7.67,98.69,9.9c3.52.26,7.06.37,10.59.57,5.07,0,9.91,0,14.37.06l26.75.14,12.47.07-11.2-2.64c-5.11-1.2-11.29-3.52-10.49-7.15.42-1.91,2.67-3.12,5.33-4-15,.34-30,.36-45.07-.2"/><path class="cls-33" d="M220.8,126.47l196.86,16.6q98.49,8,197.33,15.27c23.39,1.72,47,3.42,70.89,4.62l22.3.35,26.78.41c11.9.18,26.35.21,41.56.14,13.78-.54,27.52-1.31,41.06-2.51,33.66-2.81,66.55-6.78,99.53-8.89s66.38-2,100.27-1.13c67.37,1.48,138.13,5.25,205.36-7-67.85,8.44-135.54,1.66-202.76-2.57C986.25,139.59,952.1,138,917.74,139s-67.65,3.93-100.48,5.81c-65.26,4.6-129.7-.74-195.46-6.61L424.65,121.64l-34.12-2.7-2.87.19c-36.52,2.45-96.11,1.57-132.42-1.95l-28.44-2.75c-34.86-3.38-90.52-2.44-126.72,2-2.59,2.61-7.73,4.37-12.9,5.49-5.93,1.29-12.36,2.18-17.21,4.47a11.59,11.59,0,0,0-3.76,2.71c19.8-2.6,39-5.06,58.09-5.73,31.73-1.32,64,.5,96.5,3.14"/><path class="cls-33" d="M226.73,108.42l28.38,2.12c15.55,1.17,35.36,1.87,55.77,2.15q-42-3.24-84.15-6.33c-33.43-2.26-67.89-3.79-102.79-1.78-20.1,1.09-39.35,3.82-58,6.73,3.46.2,7,.32,10.41.43l2.2.1,16-1.64c36.27-3.71,95.77-4.51,132.25-1.78"/><path class="cls-33" d="M859.5,202c109.56-1.49,216.49-3.8,322.07-7q20.37-.57,40.67-1.24c-1.66-2.56-4.18-4.94-2.84-7.86,3.62-7.83,20.81-6.18,28.61-11.43l-67.07,4.21C1075.4,185.58,968.63,193.33,859.5,202"/><path class="cls-33" d="M855.17,237.75c-73.77,1.91-147,4.39-219.93,5.44s-145.44.46-218.29-1.67c-124.7-3.52-250-10.4-377.14-12.89,6.29,1,12.65,1.85,15,5,1.23,1.64.9,3.53,1.73,5.26,4,8.24,29.14,8.06,41.41,7.7,23.13-.67,46.27-.84,69.4-.66,86.2.64,307.93,2.69,361.74,2.51,27.95-.1,159.85-1.73,166.77-1.56,9.66.23,188.59.88,299,.76,56.27-2.28,112.92-3.79,170-3.81,1.07-2,2.16-4.07,3.34-6.05-105.19-4.4-210-2.75-313,0"/><path class="cls-33" d="M357.64,45c35.66,1.21,71.26,2.9,106.82,4.85,29.19-1,60.41-1.25,82.92-.52l27.93.91c36,1.18,94.22,1.85,131.1,1.53,8.83-1,17.57-2.08,26.16-2.9,23.66-2.48,46.94-2.47,71.66-1.41h.34c2.65-.34,10.16,0,20.79,1,42.83,2,86.5,3.66,129.85,4.1,99.08,1.24,198.91-2.06,298.4-9.72.57-3,1.32-6.45,2.05-10q-149,7.55-295.88,3.33c-50-1.4-99.2-4.06-149.22-7.31-25.09-1.49-51.89-2.21-78,0C706.77,31,682.45,34.45,658.9,36c-47.07,3.17-95.67-1.55-145.51-5s-99.82-6-149.82-7.69c-2.78-.1-5.56-.14-8.33-.23-33.6,1.52-73.41,1.58-100.53-.11l-27.85-1.74c-6.16-.38-13.13-.73-20.39-1-66.47-.52-133-.12-199.62.73H6.14c2.28,2.15,1.14,4.86.32,7.58-1.36,4.51.34,9.89,6.93,12.23,115.3-.21,230,.39,344.25,4.19"/><path class="cls-34" d="M67.79,18.73l25.87-.45c30.53-.54,77,.3,112.81,1.91,7.26.32,14.23.67,20.39,1L254.71,23c27.12,1.69,66.93,1.63,100.53.11,11.68-.53,22.63-1.22,32-2.09l27.59-2.55c36.34-3.37,95.58-2.5,131.65,1.94L575.93,24c36.07,4.43,94.78,3.55,130.49-2l30.52-4.7c35.7-5.5,94.65-7.26,131-3.91L895.41,16c36.34,3.36,96.12,6,132.84,5.86l27.84-.1c36.72-.13,96.8-.68,133.51-1.23l25.23-.37c12.28-.19,27.25-.1,43,.16.88-7.86.22-14.56-4.52-17-7.32,0-14.44,0-21.1.1-9.38,1-18.88,1-28.42,1.17q-21.43.41-42.86.74c-34.82,1.07-77.4,2.48-105.94,3.52l-25.83,1c-36.66,1.34-96-1.78-131.79-7l-1.68-.24c-52.79-.39-109.49-.44-165.46.24l-25,4.9C670.08,14.6,612,16.1,576.13,11.07L546.57,6.91c-15.46-2.17-35.28-3.64-55.71-4.41-3.42,0-6.84.18-10.26.22-14.77.17-41.42.76-73.37,1.5l-9.17.8-5.59.49L386.82,6c-29.46,2.58-73.89,2.88-109.09,1.09-47,.92-89,1.49-110.06,1.06-28-.58-56.12-1-84.22-.88q-21,.06-42.1.53c-10.72.25-25.49-1.13-35.58,1A11.89,11.89,0,0,0,1.1,10.52c-1.8,1.42-1.14,3.36.19,4.89S4.53,18.35,5.12,20a4.25,4.25,0,0,1,1,.94h.71C29,19.85,50.88,19,67.79,18.73"/><path class="cls-34" d="M1189.28,64.87c-36.7.9-96.76,1.48-133.48,1.3L1029.36,66c-36.72-.18-96.19-4.21-132.16-9l-27.61-3.64c-16.94-2.24-32.46-4-44.23-5-10.63-.94-18.14-1.32-20.79-1-.65.08-1.08.2-1.12.37C803,49.37,772.66,51,736,51.37l-27.2.27H706.4c-36.87.32-95.14-.35-131.09-1.53l-27.93-.91c-22.51-.73-53.73-.47-82.92.52-18.37.63-35.93,1.53-50,2.67l-27.14,2.19c-36.43,3-96,2.61-132.32-.76l-27.89-2.59c-36.34-3.37-96-4.39-132.57-2.27L65.65,50.73c-12.91.74-28.8,1.58-45.48,2.41-.42,4.19-2,8.55-3.14,12.34-.15.5-.25,1-.37,1.53,18.88-1.05,37-2,51.51-2.77L93.37,63c36.6-1.86,95.75,1.15,131.44,6.7l31.09,4.83c35.69,5.55,94.37,6.4,130.42,1.9l30.76-3.84c36-4.5,95.57-7.77,132.28-7.26l25.52.35c36.71.51,96.7-.53,133.32-2.3l26.38-1.28c36.62-1.78,96.15.17,132.3,4.32l27.89,3.2c36.14,4.15,65.78,7.82,65.86,8.15s30.18,1.25,66.88,2l27.29.58c36.7.78,96.76,1,133.48.57l27.15-.34c12.54-.16,27.86-.31,44-.44.09-.24.24-.47.31-.71,1.53-5.46-.34-10.88-2.66-16.29-15.25.43-29.73.82-41.66,1.11Z"/><path class="cls-34" d="M1187.71,197.92c-36.61-1.84-96,.53-132,5.28l-29.2,3.86c-36,4.75-95.14,5.95-131.5,2.66l-26.69-2.41c-30.69-2.78-77.89-4.19-114-3.64-6.66.11-13.06.25-18.77.5l-26.94,1.14c-36.64,1.56-96.42.42-132.85-2.53l-28.08-2.28c-.84-.07-1.84-.13-2.7-.19-36.62-2.84-94.42-4.69-130.28-4.11l-29.41.47c-36.71.59-96.14,5.07-132.06,9.94l-27.09,3.68c-35.92,4.88-94.61,4.59-130.41-.64l-29.68-4.34c-9.76-1.42-21.34-2.7-33.66-3.81a33.12,33.12,0,0,1-4.06,10.44L27,214.36c13.8,1.21,26.82,2.64,37.6,4.27L95,223.24c35.74,5.41,94.57,6.51,130.75,2.46l29.87-3.35c36.17-4.06,95.78-8.28,132.46-9.39l26-.78c36.68-1.11,96.36,1,132.62,4.76l28.14,2.9c36.26,3.72,96,6,132.64,5.09l26.77-.67c36.69-.93,96.47,1,132.84,4.24l29.41,2.64c36.37,3.26,95,.5,130.18-6.14l31.75-6c27.63-5.21,69.54-8.21,104-7.94,9.48.07,18.5.35,26.37,1l27.42,2.1c2.41.18,5.16.36,7.76.53.24-5,.68-10,0-14.93l-7.3-.34Z"/><path class="cls-34" d="M1215.8,155.68l-27.6.52c-36.71.69-96.79,1.39-133.51,1.54l-26.29.11c-36.72.16-96.75,1.53-133.4,3L868.33,162c-24.76,1-60.1,1.7-91.81,1.87-15.21.07-29.66,0-41.56-.14l-26.78-.41-22.3-.35c-35.71-.58-81.17-1.34-111.19-1.89l-25.64-.47c-36.7-.66-96.76-2-133.45-3l-28.07-.75c-36.69-1-96.37,1.31-132.62,5.07l-28.19,2.92c-36.25,3.76-95.09,2.28-130.77-3.29L65.37,156.8a365.73,365.73,0,0,0-37.53-3.47,73.13,73.13,0,0,0,1.46,13.76A344,344,0,0,1,64.8,171l31.05,5.4c35.44,6.17,93.67,6.78,129.4,1.36L256.37,173c35.73-5.42,94.79-7.55,131.25-4.72l27.09,2.11c36.46,2.83,96.32,5.47,133,5.88l26.73.3c36.72.4,96.76-.26,133.43-1.48l27-.9c36.67-1.22,96.72-1.87,133.43-1.44l27.32.32c36.71.44,96.79.69,133.51.57l26.16-.09c36.72-.12,96.75-1.47,133.39-3l26.42-1.1c10.64-.45,23.34-.71,36.76-.85a23.84,23.84,0,0,0,.3-3.37c.1-3.25.21-6.51.31-9.76-13.42-.06-26.11,0-36.75.19"/><path class="cls-34" d="M1188.64,105.87c-4.46,0-9.3,0-14.37-.06-36.64-.09-86.9.1-119.15.48l-27.51.32c-36.71.43-96.53,3.36-132.92,6.51L868,115.43c-36.39,3.14-95.7,2.15-131.78-2.21l-27.78-3.35c-36.08-4.36-65.85-9-66.15-10.21s-30.48-.78-67.09,1.06l-27.85,1.4c-36.61,1.84-96.46,5.23-133,7.53l-26.49,1.67c-21,1.32-49.53,1.74-77,1.37-20.41-.28-40.22-1-55.77-2.14l-28.38-2.13c-36.47-2.73-96-1.93-132.25,1.78l-16,1.64c8,.31,16.2.93,22.72,3.38a7.42,7.42,0,0,1-1.14,1.17c36.2-4.4,91.86-5.34,126.72-2l28.45,2.75c36.3,3.52,95.89,4.4,132.41,2l2.87-.19,24.37-1.63c36.53-2.45,96.45-4.36,133.17-4.24l25.64.08c36.73.11,96.42,3.31,132.66,7.11l29.25,3.07c36.24,3.8,95.72,4.6,132.18,1.79l28.31-2.18c36.46-2.81,96.3-6,133-7.09l26.22-.78c36.68-1.09,96.7-1,133.37.21l26.5.86c11.32.37,25,.59,39.37.7-3.3-4.76-12-7.29-19.63-9.1l-7.06-1.66-12.47-.07Z"/><path class="cls-35" d="M364.06,204.49s-4.36.52-12.29,1.08a293.88,293.88,0,0,1-33.71.23c-28.54-1-66.85-7.74-108.76-16s-81.42-13-110.17-11.9A239,239,0,0,0,65.56,181c-7.76,1.34-12,2.32-12,2.32s4.35-.66,12.22-1.49a268,268,0,0,1,33.4-1.25c28.27.28,66.27,6.23,108,14.41s81.5,13.79,110.6,13.46a259.4,259.4,0,0,0,34-2.09c7.9-1.07,12.16-1.92,12.16-1.92"/><path class="cls-36" d="M364.06,204.49s-4.32.64-12.24,1.4a277,277,0,0,1-33.84,1c-28.76-.49-67.61-6.76-109.48-15S127.73,178.41,99.17,179a252.09,252.09,0,0,0-33.51,2.39c-7.8,1.15-12,2-12,2s4.09-1.17,11.79-2.82a221.76,221.76,0,0,1,33.67-4.27c29-2,69.44,2.1,111.49,10.36S290,202.32,318.19,204.15a317.18,317.18,0,0,0,33.49.91c7.95-.26,12.38-.57,12.38-.57"/><path class="cls-35" d="M472.09,48.45s-16.31,1.47-42.85,3.18S365.86,55,325,55.45s-77.78-.56-104.44-1.75-43.09-2.32-43.09-2.32,16.09,2.07,42.68,4.19,63.78,4,105,3.64,78.25-3.07,104.6-5.73,42.29-5,42.29-5"/><path class="cls-36" d="M472.09,48.45s-16.15,1.82-42.63,3.9-63.39,4.14-104.36,4.56-78-.93-104.66-2.48-42.93-3-42.93-3l43.33,1.18c26.72.62,63.52,1,104.1.6s77.31-1.53,104-2.67l43.2-2"/><path class="cls-35" d="M578.41,112.13s-33.37.14-74.48,1.34-74.38,3-74.38,3,33.52,2.47,74.62,1.28,74.24-5.62,74.24-5.62"/><path class="cls-36" d="M578.41,112.13s-33.28,1.8-74.38,3-74.48,1.34-74.48,1.34,33.13-4.42,74.23-5.62,74.63,1.28,74.63,1.28"/><path class="cls-35" d="M221.36,114.19s-24.81-.88-55.42-1-55.44.56-55.44.56a479.62,479.62,0,0,0,55.41,3.46,480,480,0,0,0,55.45-3"/><path class="cls-36" d="M221.36,114.19s-24.82.68-55.43.56-55.43-1-55.43-1a475.23,475.23,0,0,1,110.86.44"/><path class="cls-35" d="M213.54,21s-40.5-.88-90.47-1-90.49.56-90.49.56S73,23.9,123,24s90.52-3,90.52-3"/><path class="cls-36" d="M213.54,21s-40.52.68-90.49.56-90.47-1-90.47-1,40.55-3.14,90.52-3S213.54,21,213.54,21"/><path class="cls-35" d="M923,31.56S909.38,30.22,887.2,29s-53-2.17-86.91-1.29-64.55,3.42-86.52,5.84S678.3,38,678.3,38l36-1.68c22.16-1,52.65-2.13,86.27-3s64.15-1.36,86.36-1.5l36.05-.2"/><path class="cls-36" d="M923,31.56s-13.72-.8-35.9-1.5-52.86-1.08-86.69-.21S736,32.72,713.93,34.59,678.3,38,678.3,38s13.21-2.89,35.08-6.14A716.47,716.47,0,0,1,887.3,27.27c22.17,2.1,35.65,4.29,35.65,4.29"/><path class="cls-35" d="M1228.09,59.82s-42.41-2.55-94.81-4.35-95-2.18-95-2.18,42.16,6,94.56,7.76,95.21-1.23,95.21-1.23"/><path class="cls-36" d="M1228.09,59.82s-42.56-.38-95-2.18-94.81-4.35-94.81-4.35,42.8-3,95.21-1.24,94.56,7.77,94.56,7.77"/><path class="cls-35" d="M1197.35,193.57s-9.24.08-24.07-.65a466.54,466.54,0,0,1-57.14-6.53A433.5,433.5,0,0,1,1061.57,173c-13.51-4.32-21.55-7.49-21.55-7.49a169.56,169.56,0,0,0,19.77,10,243.84,243.84,0,0,0,54.34,16.34,277.18,277.18,0,0,0,58.95,3.9,232.17,232.17,0,0,0,24.27-2.14"/><path class="cls-36" d="M1197.35,193.57s-9.19.63-24.15.43a366.55,366.55,0,0,1-57.84-5.5,334.19,334.19,0,0,1-54.48-14.56c-13.24-4.84-20.86-8.47-20.86-8.47l22.63,6c13.94,3.53,33.21,7.79,54.72,11.65s41.36,6.55,56,8.13l24,2.36"/><path class="cls-35" d="M781.83,174s-27.51,3.28-61,8.63-60.29,10.75-60.29,10.75a436.45,436.45,0,0,0,62.1-5.3A403.36,403.36,0,0,0,781.83,174"/><path class="cls-36" d="M781.83,174s-26.81,5.39-60.3,10.75-61,8.63-61,8.63a399.27,399.27,0,0,1,59.19-14.08,435,435,0,0,1,62.1-5.3"/><path class="cls-35" d="M981.42,224.63s-40.61,2.77-90.8,3.61-91-.41-91-.41,10,1.68,26.48,3.32a565.55,565.55,0,0,0,64.68,2.68,561.7,561.7,0,0,0,64.39-5c16.31-2.21,26.2-4.24,26.2-4.24"/><path class="cls-36" d="M981.42,224.63s-40.3,4.94-90.72,5.78-91-2.58-91-2.58,41-2.07,90.83-3,90.92-.19,90.92-.19"/></g></g></g></g></svg>