<svg xmlns="http://www.w3.org/2000/svg" viewBox="0 0 42.08 42.09"><defs><style>.cls-1{fill:#ecb71e;}</style></defs><title>bsc</title><g id="Layer_2" data-name="Layer 2"><g id="Layer_1-2" data-name="Layer 1"><path class="cls-1" d="M33.72,13.09,29.1,17.43c-2.37-2.35-4.91-4.84-7.41-7.36-.49-.5-.76-.59-1.3,0-2.27,2.34-4.62,4.62-6.91,7-.47.47-.74.6-1.26,0-1.16-1.26-2.39-2.45-3.63-3.64-.4-.38-.48-.6,0-1.05q6-6,12-12c.27-.27.46-.56.9-.11q6,6.14,12.11,12.24C33.53,12.7,33.49,12.94,33.72,13.09Z"/><path class="cls-1" d="M8.21,29.2a3.54,3.54,0,0,1,.28-.32c1.32-1.33,2.66-2.64,3.95-4,.39-.41.59-.22.88.08,2.39,2.41,4.8,4.8,7.18,7.22.44.45.66.43,1.09,0,2.35-2.4,4.75-4.76,7.11-7.16.42-.43.65-.47,1.09,0,1.22,1.29,2.48,2.54,3.76,3.78.39.37.39.59,0,1q-6,6-12,12.05c-.34.34-.53.37-.89,0q-6-6.07-12.09-12.13C8.39,29.58,8.2,29.48,8.21,29.2Z"/><path class="cls-1" d="M21.05,25.8l-.43-.37c-1.3-1.3-2.59-2.61-3.9-3.89-.35-.34-.4-.54,0-.91q2-1.95,4-4c.36-.37.53-.24.81.05q1.94,2,3.89,3.91c.26.26.49.44.1.82-1.39,1.34-2.74,2.73-4.1,4.1Z"/><path class="cls-1" d="M42.08,21c0,.27-.18.37-.31.5-1.32,1.33-2.65,2.64-4,4-.33.34-.51.29-.81,0q-1.95-2-3.95-4c-.33-.32-.31-.52,0-.84,1.34-1.31,2.65-2.63,4-4,.25-.26.41-.39.74-.05,1.32,1.37,2.68,2.7,4,4Z"/><path class="cls-1" d="M.19,20.84,4.8,16.47C6.11,17.78,7.54,19.21,9,20.63c.3.29.41.48,0,.83C7.6,22.84,6.2,24.25,4.78,25.65H4.56C3,24.28,1.6,22.81.2,21.31.19,21.15.19,21,.19,20.84Z"/><path class="cls-1" d="M33.72,13.09c-.24-.15-.19-.39-.18-.61C33.71,12.65,34.15,12.74,33.72,13.09Z"/><path class="cls-1" d="M.19,20.84v.47C-.06,21.15-.07,21,.19,20.84Z"/><path class="cls-1" d="M4.55,25.66h.22C4.71,25.84,4.64,25.8,4.55,25.66Z"/></g></g></svg>