<svg xmlns="http://www.w3.org/2000/svg" xmlns:xlink="http://www.w3.org/1999/xlink" viewBox="0 0 312.4 212.22"><defs><style>.cls-1{fill:#f1f2f2;}.cls-2{fill:url(#radial-gradient);}.cls-3{fill:url(#radial-gradient-2);}.cls-4{fill:url(#radial-gradient-3);}.cls-5{fill:url(#radial-gradient-4);}.cls-6{fill:url(#radial-gradient-5);}.cls-7{fill:url(#radial-gradient-6);}.cls-8{fill:url(#radial-gradient-7);}.cls-9{fill:url(#radial-gradient-8);}.cls-10{fill:url(#radial-gradient-9);}.cls-11{fill:url(#radial-gradient-10);}.cls-12{fill:url(#radial-gradient-11);}.cls-13{fill:url(#radial-gradient-12);}</style><radialGradient id="radial-gradient" cx="34.91" cy="171.08" r="27.24" gradientTransform="matrix(1, 0, 0, -1, 0, 216.76)" gradientUnits="userSpaceOnUse"><stop offset="0.02" stop-color="#703117"/><stop offset="0.12" stop-color="#733317"/><stop offset="0.22" stop-color="#7c391a"/><stop offset="0.31" stop-color="#8c421e"/><stop offset="0.4" stop-color="#a45023"/><stop offset="0.48" stop-color="#c46327"/><stop offset="0.52" stop-color="#d36c28"/><stop offset="0.71" stop-color="#ce6a28"/><stop offset="0.88" stop-color="#bf6528"/><stop offset="1" stop-color="#b06027"/></radialGradient><radialGradient id="radial-gradient-2" cx="77.56" cy="168.56" r="28.08" xlink:href="#radial-gradient"/><radialGradient id="radial-gradient-3" cx="122.35" cy="169.57" r="30.02" xlink:href="#radial-gradient"/><radialGradient id="radial-gradient-4" cx="173.02" cy="171.04" r="26" xlink:href="#radial-gradient"/><radialGradient id="radial-gradient-5" cx="33.81" cy="75.56" r="27.65" xlink:href="#radial-gradient"/><radialGradient id="radial-gradient-6" cx="85.38" cy="63" r="35.97" xlink:href="#radial-gradient"/><radialGradient id="radial-gradient-7" cx="119.85" cy="72.03" r="28.09" xlink:href="#radial-gradient"/><radialGradient id="radial-gradient-8" cx="151.12" cy="73.04" r="22.68" xlink:href="#radial-gradient"/><radialGradient id="radial-gradient-9" cx="183.29" cy="75.07" r="26.3" xlink:href="#radial-gradient"/><radialGradient id="radial-gradient-10" cx="225.56" cy="74.51" r="26" xlink:href="#radial-gradient"/><radialGradient id="radial-gradient-11" cx="273.53" cy="63" r="35.97" xlink:href="#radial-gradient"/><radialGradient id="radial-gradient-12" cx="-4.68" cy="206.6" r="320.37" gradientTransform="matrix(1, 0, 0, -1, 0, 216.76)" gradientUnits="userSpaceOnUse"><stop offset="0.02" stop-color="#e6a32f"/><stop offset="0.14" stop-color="#e5a02e"/><stop offset="0.25" stop-color="#e1982d"/><stop offset="0.36" stop-color="#dd8a2b"/><stop offset="0.46" stop-color="#d77829"/><stop offset="0.52" stop-color="#d36c28"/><stop offset="0.71" stop-color="#ce6a28"/><stop offset="0.88" stop-color="#bf6528"/><stop offset="1" stop-color="#b06027"/></radialGradient></defs><title>Asset 1</title><g id="Layer_2" data-name="Layer 2"><g id="Layer_1-2" data-name="Layer 1"><path class="cls-1" d="M8.43,76q-.81-3.69-1.68-7.7c-.52-2.49-1-5.22-1.57-8.22s-1-6-1.45-9-.8-5.9-1-8.27-.38-4.2-.5-5.83c-.18-2-.27-3.83-.27-5.46V28.22l2-2.67q.36-.48,1-1.2L5.19,24l.32-.32.12-.14,0-.44L8.42,20.3v-.08L9.63,19l1.16-1.29L23.56,2.45l.37,2.06,1.38-2.75,6.55.35a39.71,39.71,0,0,1,4.48.51l3.72.54c1.71.24,3.56.57,5.5,1s3.49.67,4.89,1,2.75.67,3.82,1,2.29.69,3.24,1.06l5.25,2,1,5.54c.1.58.43,2.33.43,2.33l0,.22c.11.8.24,1.76.38,2.9.17,1.34.28,2.8.35,4.48a42.23,42.23,0,0,1,0,5.39c-.09,1.49-.19,2.85-.31,4l-.09,1,3.7-.08L68,45.17l-.56,20.59-3.48-.5,1.83,17.51H31.82l.29-1.08H32v.08l-12.94,2.1-3.89.65v0l-4.75.77Z"/><polygon class="cls-1" points="68 79.7 59.34 79.7 52.12 79.9 52.12 79.7 46.97 79.7 54.13 36.02 46.31 36.34 48.99 27.66 48.91 27.65 54.17 10.85 57.37 0 98.64 2.67 107.25 86.56 94.05 88.28 81.5 90.16 76.72 90.89 67.4 92.4 68 79.7"/><polygon class="cls-1" points="123.44 92.03 123.24 92.5 119.41 82.27 116.53 82.27 116.53 82.35 108.39 82.35 99.02 82.68 98.99 82.35 93.93 82.35 94.42 36.36 85.83 35.95 85.94 29.46 85.67 29.43 86.09 19.66 86.11 18.68 86.23 11.57 86.29 11.57 86.44 5.48 99.31 3.53 99.29 3.49 110.64 1.82 117.1 0.85 117.11 0.88 122.58 0.08 125.68 10.19 128.05 4.13 137.72 5.1 158.93 6.7 157.45 88.02 148.82 87.78 132.63 87.43 126.8 100.64 123.44 92.03"/><path class="cls-1" d="M143.16,82.91l-.13-9-.17,0V62.23l-.29-15.33,4.15.41-.17-10.8.61-.3.09-5-.76-.07,0-2.72h-.08L146,2.34l10.82.74c.43,0,1.29.07,2.92.1l2.19,0,2.55,0,5.92-.12,6.32-.16c4.84-.16,10.15-.37,15.71-.64l12-.57-.61,4.49H204l-1.9,13.14L201.29,25h0l-1.53,12.74L191,37.17l-.11,5.52V48l-.24.1-.07,2.55,14.22-2.06L203.35,60.1l.26,0-1.86,12.37-.07.56-1.2,10.82Z"/><polygon class="cls-1" points="17.46 128.44 0 129.03 0 107.04 0.08 107.03 0.08 97.4 68.15 98.09 67.7 106.65 67.75 106.66 67.45 112.02 67.59 112.03 66.97 120.7 66.79 124.18 66.76 124.18 66.61 126.81 66.59 126.82 66.01 139.21 52.46 138.45 53.4 160.95 53.16 160.78 53.53 164.95 53.84 179.04 46.88 179.15 46.88 179.37 39.82 179.37 39.81 179.45 25.95 179.45 10.4 179.76 17.46 128.44"/><path class="cls-1" d="M74.85,192.93l-1.75-1.76,0-.58c-.8-1.1-1.41-2-1.88-2.71l-.16-.26-2.61-4.35.68-4.15H46.9l-.14-5.7-.18,0v-3.29H46.5v-7.32l-.11-4.38.11,0v-13l5.14,1-.77-38-.18-6.82,9.09-1,4.57-.55.14,0c1.58-.17,3.42-.33,5.47-.48l1.37-.08-.23-.52,9.24.31.39-1.54.66,1.56h.12c1.47,0,2.81.07,4,.13l2,.09,1.56.07.86,0h0c.58,0,1.12.09,1.61.14l.5,0h5.57l2.91,4.74a48.67,48.67,0,0,1,2.66,5c.7,1.52,1.41,3.24,2.2,5.3a73.1,73.1,0,0,1,2.33,7.35c.66,2.45,1.18,4.72,1.54,6.74s.61,3.52.79,4.92c.26,1.75.42,3.38.49,4.86l.3,6.49-4.47,2.23v0L104,148.54l.23,15.06,17.66.59,1.44,7.94c.09.5.2,1.07.34,1.7l0,.23,0,.23c.15.92.28,2,.38,3.16s.16,2.58.16,4a38.16,38.16,0,0,1-.23,4.31c-.12,1.05-.24,2-.36,2.81l0,.22,0,.22a26.23,26.23,0,0,1-.9,3.55l-1.94,5.86-16.58,2.4-9.78,1.48-.73,9.46-4-4-.48,4.43Z"/><polygon class="cls-1" points="110.31 176.23 101.66 176.23 94.44 176.43 94.44 176.23 89.28 176.23 96.44 132.55 88.62 132.87 91.3 124.19 91.23 124.18 96.48 107.36 99.68 96.53 140.95 99.2 149.57 183.09 136.38 184.81 124.06 186.65 119.25 187.39 109.71 188.94 110.31 176.23"/><polygon class="cls-1" points="130.38 99.32 136.56 100 136.56 99.96 142.18 100.61 142.19 100.52 149.84 101.41 149.86 101.24 171.65 103.96 168.19 177.48 160.68 178.82 160.68 178.83 159.99 178.95 144.37 181.75 144.34 181.63 135.15 183.2 130.38 99.32"/><polygon class="cls-1" points="153.55 178.93 152.92 169.5 152.79 169.49 152.35 161.7 151.46 151.96 151.79 151.94 151.41 145.18 158.29 145.6 157.16 97.72 167.42 98.45 171.69 98.6 171.69 98.59 186.79 99.03 190.01 99.1 190.01 99.12 200.77 99.43 195.17 149.37 215.96 146.94 213.26 169.21 212.59 175.29 212.54 175.3 212.04 179.63 153.55 178.93"/><path class="cls-1" d="M195.69,179.44l-.13-9-.17,0V158.76l-.29-15.33,4.14.41L199.07,133l.61-.3.09-5-.76-.07,0-2.72h-.08l-.34-26.06,10.81.72c.44,0,1.3.07,2.93.1l2.19,0,2.55,0L223,99.6l6.31-.16c4.84-.16,10.15-.37,15.71-.64l12-.57-.61,4.49h.12l-1.89,13-.78,5.74h-.05l-1.53,12.74-8.67-.56-.11,5.54v5.26l-.24.1-.07,2.57,14.22-2.06-1.49,11.52.26,0L254.27,169l-.06.5L253,180.4Z"/><path class="cls-1" d="M263,192.93l-1.75-1.76,0-.58c-.8-1.1-1.41-2-1.88-2.71l-.16-.26-2.61-4.35.68-4.15H235.05l-.14-5.7-.18,0v-3.29h-.08v-7.32l-.11-4.38.11,0v-13l5.14,1-.77-38-.18-6.84,9.09-1,4.57-.55.14,0c1.58-.17,3.42-.33,5.47-.48l1.37-.08-.23-.52,9.24.31.39-1.54.66,1.56h.12c1.47,0,2.81.07,4,.13l2,.09,1.56.07.86,0h0c.58,0,1.12.09,1.61.14l.5,0h5.57l2.91,4.74a48.67,48.67,0,0,1,2.66,5c.7,1.52,1.41,3.24,2.2,5.3A73.1,73.1,0,0,1,295.9,122c.66,2.45,1.18,4.72,1.54,6.74s.61,3.52.79,4.92c.25,1.75.42,3.38.49,4.86l.3,6.5-4.47,2.24v0l-2.45,1.22.23,15.06,17.66.59,1.44,7.94c.09.5.2,1.07.34,1.7l.05.23,0,.23c.15.92.28,1.95.38,3.16s.16,2.58.16,4a38.16,38.16,0,0,1-.23,4.31c-.12,1.05-.24,2-.36,2.81l0,.22,0,.22a26.23,26.23,0,0,1-.9,3.55l-1.94,5.86-16.58,2.4-9.78,1.48-.73,9.46-4-4-.48,4.43Z"/><path class="cls-2" d="M57.78,52.69,56.53,53l-1.25.32,2.49.64-.08,3-5.07-.72,2,19.23H52.38L50.93,63.07q.24,3.06.28,6.19c0,2.09.09,4.16.2,6.19H44.89l1-3.54L22.93,75.77l-1.61-7.4L21.64,76l-3.46.56q-.81-3.7-1.69-7.72c-.48-2.3-1-4.91-1.49-7.8s-1-5.79-1.41-8.69-.75-5.54-1-7.76-.38-4.11-.48-5.67c-.16-1.77-.24-3.32-.24-4.67.16-.21.37-.48.64-.8s.58-.62.93-1.05.76-.91,1.25-1.45L17,54q-.31-6-.52-12.15c-.13-4.07-.34-8.12-.6-12.15l.8-.8a10,10,0,0,0,.8-.89l1.61,9-.48-10.14,2.57-2.57q2.33-2.34,4.1-4c1.18-1.13,2.2-2.06,3.06-2.82L44.4,20.82,30.81,16.64l-.56-.16-.64-.16c.27-.27.51-.5.72-.68a5.24,5.24,0,0,1,.56-.44,1.33,1.33,0,0,0,.4-.4,31.51,31.51,0,0,1,3.46.4l3.9.56c1.53.21,3.18.51,5,.89s3.3.63,4.59.92,2.36.58,3.22.84,1.8.54,2.49.81l.4,2.17q.16,1.13.36,2.73c.13,1.07.23,2.33.28,3.78a32,32,0,0,1,0,4.26c-.08,1.4-.17,2.63-.28,3.7-.11,1.29-.24,2.47-.4,3.54l-5.95.32,1-3.7L47.07,39.8l-6.92.32c.27-.8.51-1.58.72-2.33s.4-1.31.56-2a16.79,16.79,0,0,0,.32-1.69L30.11,31.38q-.64,3.14-1.37,6.6c-.43,2-.84,4.18-1.25,6.6s-.74,4.88-1,7.4q-.16,1.05-.24,2c0,.64-.11,1.26-.16,1.85l-1.45-5.79q.24,4.66.16,9.37c-.05,3.14,0,6.23.16,9.29v.8l14.88-3.46.32-4.83-4,.64V56.39l3.7-1.53c-.59,0-1.19.09-1.81.12a13.36,13.36,0,0,0-1.81.2V53.25l11.1-1.77c-1.88,0-3.73.07-5.55.2s-3.67.25-5.55.36V48.42l21.72-.48ZM35.1,22.45l-1.13,1,13.76,1.77Z"/><path class="cls-3" d="M92.61,81.09,90.52,65.24,91,81.33l-5.39.8A5.16,5.16,0,0,0,85,80.52,3.82,3.82,0,0,1,84.41,79v3.3l-2.09.32-.56-7.8-.8,8-3,.48L79.27,56l-3.54.24V48.66l11,1.37L84.9,31.53l-2.49.32-1.29-5.63L81.2,32l-6.35.88L72.52,48.33l2.57.24c-.11,1.29-.19,2.57-.24,3.86s-.11,2.57-.16,3.86H74l-2.09-1.61a3.15,3.15,0,0,1-.12.84,8.81,8.81,0,0,0-.2.92l-1.77.16-1.05-7.08.08,7.08-1.37.08L68,72.12l-5.87.16V64.4l-.88,8H58.77L66,28.2l-6,.24,2-6.52,7-.89-6.68-.24.8-2.57,14.4.24L63.67,16.69l1-3.54,24.86,1.61,6.76,65.8Z"/><path class="cls-4" d="M147.63,80.45l-2.9-.08.33-19.07-1.61,19.06-7.56-.16,4.75-33L127.37,77.3l-2.74-7,11.74-32.5L123.74,68.05l-1.21-3.22,2-5a4.9,4.9,0,0,1-1.29,1.65,6,6,0,0,0-1.37,1.65l-7-18.1L115.52,75h-3.7l-1-2.49a9.8,9.8,0,0,0-.24,1.25,10.1,10.1,0,0,0-.08,1.25l-2.25.08-1.69-21v21H104l.48-45.53L96,29.12l.08-5,11-.16-11-1,.08-1.85c.75-.11,1.46-.24,2.13-.4a9.15,9.15,0,0,1,2.13-.24L96.13,20l.08-3.22,14.4-2.17,8.21,21.48-6.6-21.72,3.3-.48,9,29.36,10.06-25.74,3.22.32-4.67,13.35,6-13.27,9.57.72Z"/><path class="cls-5" d="M192.28,70.55l-8,.16q-4,.08-8,.32l15.85,1-.24,1.61L181,74.17l10.78.81-.16,1.45L153,75.79,153,70.16l1.73-.6q.84-.28,1.65-.6l-3.46-.64V66.23l12.87-.72-12.87-.64-.08-4.18,4.1.4-.24-15.69a.83.83,0,0,1,.2-.08.83.83,0,0,0,.2-.08l.24-13.59a5.25,5.25,0,0,0-.8,2.09l-.16-10.46c.86-.16,1.7-.31,2.53-.44a24.76,24.76,0,0,0,2.45-.52l-5.07-.4-.08-6.11q1.2.07,3.42.12t5.07,0l6-.12,6.31-.16q7.4-.24,15.93-.64l-.4,3q-5.72.17-11.46.28t-11.54.44q5.79.16,11.46.44t11.38.12l-1.05,7.24-3.86.64,3.7.72-.24,2-26-1.69.24,9.57,15.93-.48-.08,4-8.85.56,8.77.72v1.53a3.88,3.88,0,0,1-1.29.28c-.48,0-.64.36-.48,1a2.2,2.2,0,0,1,.84-.16,2.17,2.17,0,0,0,.84-.16l-.16,5.71h-8.77l-.32,15.44,21.64-3.14Z"/><path class="cls-6" d="M57.3,116.89H45.72v.32q2.89.32,5.79.68t5.71.6L57,122.75,54.16,124l2.74.16-.16,2.25-8.37.32q-4.18.16-8.29.48l16.57.72-.16,3.46L42,130.55l.56,13.51-1.29-.89,2.25,25,.08,3.7L38.7,172l-1.53-21.64q-.16,5.38-.12,10.86c0,3.65,0,7.27,0,10.86H31.46c-.11-1-.2-2-.28-3.06a14.88,14.88,0,0,0-.52-2.9c-.05,1-.11,2-.16,3.06s-.11,2-.16,3h-2.9l2.82-36.52Q29.06,144.77,28,154t-2.17,18.18l-3.94.08L29,120.73l-19,.64v-3.06l5.79-.88-5.71-.32v-3.06l37.81-.4-37.81-.89v-2.57l47.54.48Z"/><path class="cls-7" d="M114.25,184.22a27.66,27.66,0,0,1-.16,3.18c-.11.94-.21,1.78-.32,2.53a17.57,17.57,0,0,1-.56,2.25l-6.11.89-.32-1.53-3.06,2-13.84,2.09c-.21-.16-.48-.35-.8-.56s-.6-.46-1-.72a13.65,13.65,0,0,1-1.33-1.05L86,183.82l-.64,8.29-1.61-1.61a4.14,4.14,0,0,0-.48-.56l1-22L82,188.49c-1.07-1.45-1.85-2.55-2.33-3.3L79,184l4.5-27.51a6.78,6.78,0,0,0-1-.8,8.9,8.9,0,0,0-1.13-.8c-.43-.27-.91-.54-1.45-.81a12,12,0,0,0-1.33-.56c-.46-.16-.9-.29-1.33-.4l.4-10.54,2.17.56c.32-.75.67-1.61,1.05-2.57s.67-1.93,1-3.22.72-2.76,1-4.42a2.61,2.61,0,0,0,.08-.6,2.61,2.61,0,0,1,.08-.6l1.53,3.62-.56-10.46a23.48,23.48,0,0,0,.24-2.73v-1L70.18,123l2.41,18.26,3.86,1q.17,5.48.72,10.86a3.23,3.23,0,0,0-.68-.2,3.62,3.62,0,0,1-.52-.12,2.45,2.45,0,0,0-.48-.08l.32,19.14h-3.7l-.32-8.53-1,8.53H56.66l-.08-3.22a4,4,0,0,0,1.05-.48l1-.64-2-.24V164l4.83.32-4.67-1.45h-.24v-2.65l5.39,1.05L61,117.8l11.26-2.57-5.63.48c-1.88.16-3.75.3-5.63.4l-.08-3,4.67-.56c1.45-.16,3.14-.31,5.07-.44s4-.2,6.27-.2c1.55-.05,3-.07,4.38,0s2.61.07,3.74.12l3.38,4.1-1.77-4c1.61,0,2.92.13,3.94.24.59,0,1.07.08,1.45.08a38.16,38.16,0,0,1,2.09,3.94c.59,1.29,1.23,2.84,1.93,4.67a62.11,62.11,0,0,1,2,6.36q.89,3.3,1.37,6c.32,1.77.56,3.27.72,4.51a39.54,39.54,0,0,1,.4,3.94l-4.18,2.09c-.21-2.41-.51-4.75-.89-7s-.78-4.51-1.21-6.76c.21,2.36.43,4.72.64,7.08s.45,4.72.72,7.08L86.17,149a10.94,10.94,0,0,1,1.13.4,10.18,10.18,0,0,1,1.13.48c.43.21.88.46,1.37.72l1.13,10.3c0-1.61,0-3.23,0-4.87s0-3.26-.12-4.87l1.25.81c.4.27.74.51,1,.72a6.23,6.23,0,0,1,.89.72l.56,36.6,8.45-6.68-2.73-7.08,2.49.08a18.82,18.82,0,0,0,1,2c.37.67.72,1.33,1.05,2l-1-3.94,9.65.32c.11.59.24,1.26.4,2s.2,1.43.28,2.37S114.25,183,114.25,184.22Zm-47.7-29.44q-.24-5.55-.44-11.18c-.13-3.75-.42-7.43-.84-11v17.86Z"/><path class="cls-8" d="M134.92,177.62l-2.09-15.85.48,16.09-5.39.8a5.16,5.16,0,0,0-.64-1.61,3.82,3.82,0,0,1-.56-1.53v3.3l-2.09.32-.56-7.8-.8,8-3,.48,1.29-27.27-3.54.24v-7.56l11,1.37-1.85-18.5-2.49.32-1.29-5.63.08,5.79-6.35.88-2.33,15.44,2.57.24c-.11,1.29-.19,2.57-.24,3.86s-.11,2.57-.16,3.86h-.72l-2.09-1.61a3.15,3.15,0,0,1-.12.84,8.81,8.81,0,0,0-.2.92l-1.77.16-1-7.08.08,7.08-1.37.08.56,15.44-5.87.16v-7.88l-.88,8h-2.51l7.24-44.16-6,.24,2-6.52,7-.89-6.68-.24.8-2.57,14.4.24L106,113.22l1.05-3.54,24.86,1.61,6.76,65.8Z"/><path class="cls-9" d="M158.57,171.75l-6.27,1.13-1.77-9.09.08,9.33-6.11,1L141,113.27l3.62.4,2.25,33.14.4,1.85-.56-34.75,2.09.24c.11,1.29.28,2.6.52,3.94s.49,2.71.76,4.1l.88-7.88,6.27.72v12.15l1.37-12.07,2.57.32Z"/><path class="cls-10" d="M203.86,166.36a8.42,8.42,0,0,1-1.57.32,4.11,4.11,0,0,0-1.41.4l2.82.32-.16,1.45c-2.68.27-5.38.42-8.08.44s-5.35.17-7.92.44l15.85.4-.24,2.09-40.22-.48-.32-4.83,3.62-.89-3.7-.24-.16-1.77,9.41-.56-9.49-.64-.24-4.26,6.52.4-1.13-47.78,1.13.08L170.1,131V111.25l4.34.16,2.25,7.24-.4-7.16,3.54.08-.72,36.12,1-6q.4-7.49.64-15t.56-15l8.37.24-5.79,51.64,20.67-2.41Z"/><path class="cls-11" d="M244.81,167.08l-8,.16q-4,.07-8,.32l15.85,1.05-.24,1.61-10.94.48,10.78.81L244.1,173l-38.53-.64-.08-5.63,1.73-.6q.84-.28,1.65-.6l-3.46-.64v-2.09l12.87-.72-12.87-.64-.08-4.18,4.1.4-.24-15.69a.83.83,0,0,1,.2-.08.83.83,0,0,0,.2-.08l.24-13.59a5.25,5.25,0,0,0-.8,2.09l-.16-10.46c.86-.16,1.7-.31,2.53-.44a24.76,24.76,0,0,0,2.45-.52l-5.07-.4-.08-6.11q1.2.07,3.42.12t5.07,0l6-.12,6.31-.16q7.4-.24,15.93-.64l-.4,3q-5.72.17-11.46.28t-11.54.44q5.79.17,11.46.44t11.38.12L243.85,123l-3.86.64,3.7.72-.24,2-26-1.69.24,9.57,15.93-.48-.08,4-8.85.56,8.77.72v1.53a3.88,3.88,0,0,1-1.29.28c-.48,0-.64.36-.48,1a2.2,2.2,0,0,1,.84-.16,2.17,2.17,0,0,0,.84-.16l-.16,5.71h-8.77l-.32,15.44,21.64-3.14Z"/><path class="cls-12" d="M302.4,184.22a27.66,27.66,0,0,1-.16,3.18c-.11.94-.21,1.78-.32,2.53a17.57,17.57,0,0,1-.56,2.25l-6.11.89-.32-1.53-3.06,2L278,195.64c-.21-.16-.48-.35-.8-.56s-.6-.46-1-.72a13.65,13.65,0,0,1-1.33-1.05l-.72-9.49-.64,8.29-1.61-1.61a4.14,4.14,0,0,0-.48-.56l1-22-2.25,20.59c-1.07-1.45-1.85-2.55-2.33-3.3l-.72-1.21,4.5-27.51a6.78,6.78,0,0,0-1-.8,8.9,8.9,0,0,0-1.13-.8c-.43-.27-.91-.54-1.45-.81a12,12,0,0,0-1.33-.56c-.46-.16-.9-.29-1.33-.4l.4-10.54,2.17.56c.32-.75.67-1.61,1-2.57s.67-1.93,1.05-3.22.72-2.76,1.05-4.42a2.61,2.61,0,0,0,.08-.6,2.61,2.61,0,0,1,.08-.6l1.53,3.62-.56-10.46a23.48,23.48,0,0,0,.24-2.73v-1L258.33,123l2.41,18.26,3.86,1q.16,5.48.72,10.86a3.23,3.23,0,0,0-.68-.2,3.62,3.62,0,0,1-.52-.12,2.45,2.45,0,0,0-.48-.08l.32,19.14h-3.7l-.32-8.53-1,8.53H244.81l-.08-3.22a4,4,0,0,0,1.05-.48l1-.64-2-.24V164l4.83.32-4.67-1.45h-.24v-2.65l5.39,1.05-.89-43.44,11.26-2.57-5.63.48c-1.88.16-3.75.3-5.63.4l-.08-3,4.67-.56c1.45-.16,3.14-.31,5.07-.44s4-.2,6.27-.2c1.55-.05,3-.07,4.38,0s2.61.07,3.74.12l3.38,4.1-1.77-4c1.61,0,2.92.13,3.94.24.59,0,1.07.08,1.45.08a38.16,38.16,0,0,1,2.09,3.94c.59,1.29,1.23,2.84,1.93,4.67a62.11,62.11,0,0,1,2,6.36q.88,3.3,1.37,6c.32,1.77.56,3.27.72,4.51a39.54,39.54,0,0,1,.4,3.94l-4.18,2.09c-.21-2.41-.51-4.75-.89-7s-.78-4.51-1.21-6.76c.21,2.36.43,4.72.64,7.08s.45,4.72.72,7.08L274.32,149a10.94,10.94,0,0,1,1.13.4,10.18,10.18,0,0,1,1.13.48c.43.21.88.46,1.37.72l1.13,10.3c0-1.61,0-3.23,0-4.87s0-3.26-.12-4.87l1.25.81c.4.27.74.51,1,.72a6.23,6.23,0,0,1,.89.72l.56,36.6,8.45-6.68-2.73-7.08,2.49.08a18.82,18.82,0,0,0,1,2c.37.67.72,1.33,1.05,2l-1-3.94,9.65.32c.11.59.24,1.26.4,2s.2,1.43.28,2.37S302.4,183,302.4,184.22Zm-47.7-29.44q-.24-5.55-.44-11.18c-.13-3.75-.42-7.43-.84-11v17.86Z"/><path class="cls-13" d="M57.78,50l-1.25.32-1.25.32,2.49.64-.08,3-5.07-.72,2,19.23H52.38L50.93,60.37q.24,3.06.28,6.19c0,2.09.09,4.16.2,6.19H44.89l1-3.54L22.93,73.07l-1.61-7.4.32,7.64-3.46.56q-.81-3.7-1.69-7.72c-.48-2.3-1-4.91-1.49-7.8s-1-5.79-1.41-8.69-.75-5.54-1-7.76-.38-4.11-.48-5.67c-.16-1.77-.24-3.32-.24-4.67.16-.21.37-.48.64-.8s.58-.62.93-1.05.76-.91,1.25-1.45l2.25,23q-.31-6-.52-12.15c-.13-4.07-.34-8.12-.6-12.15l.8-.8a10,10,0,0,0,.8-.89l1.61,9-.48-10.14,2.57-2.57q2.33-2.34,4.1-4c1.18-1.13,2.2-2.06,3.06-2.82L44.4,18.12,30.81,13.94l-.56-.16-.64-.16c.27-.27.51-.5.72-.68a5.24,5.24,0,0,1,.56-.44,1.33,1.33,0,0,0,.4-.4,31.51,31.51,0,0,1,3.46.4l3.9.56c1.53.21,3.18.51,5,.89s3.3.63,4.59.92,2.36.58,3.22.84,1.8.54,2.49.81l.4,2.17q.16,1.13.36,2.73c.13,1.07.23,2.33.28,3.78a32,32,0,0,1,0,4.26c-.08,1.4-.17,2.63-.28,3.7-.11,1.29-.24,2.47-.4,3.54L48.35,37l1-3.7L47.07,37.1l-6.92.32c.27-.8.51-1.58.72-2.33s.4-1.31.56-2a16.79,16.79,0,0,0,.32-1.69L30.09,28.66q-.64,3.14-1.37,6.6c-.43,2-.84,4.18-1.25,6.6s-.74,4.88-1,7.4q-.16,1.05-.24,2c0,.64-.11,1.26-.16,1.85l-1.45-5.79q.24,4.66.16,9.37c-.05,3.14,0,6.23.16,9.29v.8l14.88-3.46.32-4.83-4,.64V53.67l3.7-1.53c-.59,0-1.19.09-1.81.12a13.36,13.36,0,0,0-1.81.2V50.53l11.1-1.77c-1.88,0-3.73.07-5.55.2s-3.67.25-5.55.36V45.7l21.72-.48ZM35.1,19.74l-1.13,1,13.76,1.77Z"/><path class="cls-13" d="M92.61,78.38,90.52,62.53,91,78.62l-5.39.8A5.16,5.16,0,0,0,85,77.81a3.82,3.82,0,0,1-.56-1.53v3.3l-2.09.32-.56-7.8-.8,8-3,.48,1.29-27.27-3.54.24V46l11,1.37L84.9,28.82l-2.49.32-1.29-5.63.08,5.79-6.35.88L72.52,45.62l2.57.24c-.11,1.29-.19,2.57-.24,3.86s-.11,2.57-.16,3.86H74L71.88,52a3.15,3.15,0,0,1-.12.84,8.81,8.81,0,0,0-.2.92l-1.77.16-1.05-7.08.08,7.08L67.45,54,68,69.41l-5.87.16V61.69l-.88,8H58.77L66,25.49l-6,.24,2-6.52,7-.89-6.68-.24.8-2.57,14.4.24L63.67,14l1-3.54,24.86,1.61,6.76,65.8Z"/><path class="cls-13" d="M147.63,77.74l-2.9-.08.33-19.06-1.61,19.06-7.56-.16,4.75-33L127.37,74.6l-2.74-7,11.74-32.5L123.74,65.35l-1.21-3.22,2-5a4.9,4.9,0,0,1-1.29,1.65,6,6,0,0,0-1.37,1.65l-7-18.1.64,29.92h-3.7l-1-2.49a9.8,9.8,0,0,0-.24,1.25,10.1,10.1,0,0,0-.08,1.25l-2.25.08-1.69-21v21H104l.48-45.53L96,26.42l.08-5,11-.16-11-1,.08-1.85c.75-.11,1.46-.24,2.13-.4a9.15,9.15,0,0,1,2.13-.24l-4.26-.48.08-3.22,14.4-2.17,8.21,21.48-6.6-21.72,3.3-.48,9,29.36,10.06-25.74,3.22.32-4.67,13.35,6-13.27,9.57.72Z"/><path class="cls-13" d="M192.28,67.85l-8,.16q-4,.08-8,.32l15.85,1L191.89,71,181,71.47l10.78.81-.16,1.45L153,73.09,153,67.46l1.73-.6q.84-.28,1.65-.6l-3.46-.64V63.53l12.87-.72-12.87-.64L152.8,58l4.1.4-.24-15.69a.83.83,0,0,1,.2-.08.83.83,0,0,0,.2-.08L157.3,29a5.25,5.25,0,0,0-.8,2.09l-.16-10.46c.86-.16,1.7-.31,2.53-.44a24.76,24.76,0,0,0,2.45-.52l-5.07-.4-.08-6.11q1.2.08,3.42.12t5.07,0l6-.12L177,13q7.4-.24,15.93-.64l-.4,3q-5.72.17-11.46.28T169.53,16q5.79.16,11.46.44t11.38.12l-1.05,7.24-3.86.64,3.7.72-.24,2-26-1.69.24,9.57,15.93-.48-.08,4-8.85.56,8.77.72v1.5a3.88,3.88,0,0,1-1.29.28c-.48,0-.64.36-.48,1a2.2,2.2,0,0,1,.84-.16,2.17,2.17,0,0,0,.84-.16l-.16,5.71h-8.77l-.32,15.44,21.64-3.14Z"/><path class="cls-13" d="M57.3,114.18H45.72v.32q2.89.31,5.79.68t5.71.6L57,120l-2.82,1.21,2.74.16-.16,2.25-8.37.32q-4.18.17-8.29.48l16.57.72-.16,3.46L42,127.84l.56,13.51-1.29-.89,2.25,25,.08,3.7-4.91.08-1.53-21.64Q37,153,37.05,158.48c0,3.65,0,7.27,0,10.86H31.46c-.11-1-.2-2-.28-3.06a14.88,14.88,0,0,0-.52-2.9c-.05,1-.11,2-.16,3.06s-.11,2-.16,3h-2.9l2.82-36.52q-1.2,9.16-2.25,18.34t-2.17,18.18l-3.94.08L29,118l-19,.64V115.6l5.79-.88-5.71-.32v-3.06l37.81-.4-37.81-.89v-2.57l47.54.48Z"/><path class="cls-13" d="M114.25,181.51a27.66,27.66,0,0,1-.16,3.18c-.11.94-.21,1.78-.32,2.53a17.57,17.57,0,0,1-.56,2.25l-6.11.89-.32-1.53-3.06,2-13.84,2.09c-.21-.16-.48-.35-.8-.56s-.6-.46-1-.72a13.65,13.65,0,0,1-1.33-1.05L86,181.11l-.64,8.29-1.61-1.61a4.14,4.14,0,0,0-.48-.56l1-22L82,185.78c-1.07-1.45-1.85-2.55-2.33-3.3L79,181.27l4.5-27.51a6.78,6.78,0,0,0-1-.8,8.9,8.9,0,0,0-1.13-.8c-.43-.27-.91-.54-1.45-.81a12,12,0,0,0-1.33-.56c-.46-.16-.9-.29-1.33-.4l.4-10.54,2.17.56c.32-.75.67-1.61,1.05-2.57s.67-1.93,1-3.22.72-2.76,1-4.42a2.61,2.61,0,0,0,.08-.6,2.61,2.61,0,0,1,.08-.6l1.53,3.62-.56-10.46a23.48,23.48,0,0,0,.24-2.73v-1.05l-14.16,1.93,2.41,18.26,3.86,1q.17,5.47.72,10.86a3.23,3.23,0,0,0-.68-.2,3.62,3.62,0,0,1-.52-.12,2.45,2.45,0,0,0-.48-.08l.32,19.14h-3.7l-.32-8.53-1,8.53H56.66l-.08-3.22a4,4,0,0,0,1.05-.48l1-.64-2-.24v-3.3l4.83.32-4.67-1.45h-.24v-2.65l5.39,1.05L61,115.09l11.26-2.57-5.63.48c-1.88.16-3.75.3-5.63.4l-.08-3,4.67-.56c1.45-.16,3.14-.31,5.07-.44s4-.2,6.27-.2c1.55,0,3-.07,4.38,0s2.61.07,3.74.12l3.38,4.1-1.77-4c1.61.05,2.92.13,3.94.24.59,0,1.07.08,1.45.08a38.16,38.16,0,0,1,2.09,3.94c.59,1.29,1.23,2.84,1.93,4.67a62.11,62.11,0,0,1,2,6.36q.89,3.3,1.37,6c.32,1.77.56,3.27.72,4.51a39.54,39.54,0,0,1,.4,3.94l-4.18,2.09c-.21-2.41-.51-4.75-.89-7s-.78-4.51-1.21-6.76c.21,2.36.43,4.72.64,7.08s.45,4.72.72,7.08l-9.49,4.75a10.94,10.94,0,0,1,1.13.4,10.18,10.18,0,0,1,1.13.48c.43.21.88.46,1.37.72l1.13,10.3c0-1.61,0-3.23,0-4.87s0-3.26-.12-4.87l1.25.81c.4.27.74.51,1,.72a6.23,6.23,0,0,1,.89.72l.56,36.6,8.45-6.68-2.73-7.08,2.49.08a18.82,18.82,0,0,0,1,2c.37.67.72,1.33,1.05,2l-1-3.94,9.65.32c.11.59.24,1.26.4,2s.2,1.43.28,2.37S114.25,180.33,114.25,181.51Zm-47.7-29.44q-.24-5.55-.44-11.18c-.13-3.75-.42-7.43-.84-11v17.86Z"/><path class="cls-13" d="M134.92,174.92l-2.09-15.85.48,16.09-5.39.8a5.16,5.16,0,0,0-.64-1.61,3.82,3.82,0,0,1-.56-1.53v3.3l-2.09.32-.56-7.8-.8,8-3,.48,1.29-27.27-3.54.24v-7.56l11,1.37-1.85-18.5-2.49.32-1.29-5.63.08,5.79-6.35.88-2.33,15.44,2.57.24c-.11,1.29-.19,2.57-.24,3.86s-.11,2.57-.16,3.86h-.72l-2.09-1.61a3.15,3.15,0,0,1-.12.84,8.81,8.81,0,0,0-.2.92l-1.77.16-1-7.08.08,7.08-1.37.08.56,15.44-5.87.16v-7.88l-.88,8h-2.51L108.3,122l-6,.24,2-6.52,7-.89-6.68-.24.8-2.57,14.4.24L106,110.52,107,107l24.86,1.61,6.76,65.8Z"/><path class="cls-13" d="M158.57,169l-6.27,1.13-1.77-9.09.08,9.33-6.11,1.05L141,110.56l3.62.4,2.25,33.14.4,1.85-.56-34.75,2.09.24c.11,1.29.28,2.6.52,3.94s.49,2.71.76,4.1l.88-7.88,6.27.72v12.15l1.37-12.07,2.57.32Z"/><path class="cls-13" d="M203.86,163.65a8.42,8.42,0,0,1-1.57.32,4.11,4.11,0,0,0-1.41.4l2.82.32-.16,1.45c-2.68.27-5.38.42-8.08.44s-5.35.17-7.92.44l15.85.4-.24,2.09L162.93,169l-.32-4.83,3.62-.89-3.7-.24-.16-1.77,9.41-.56-9.49-.64-.24-4.26,6.52.4-1.13-47.78,1.13.08,1.53,19.71V108.54l4.34.16,2.25,7.24-.4-7.16,3.54.08L179.11,145l1-6q.4-7.48.64-15t.56-15l8.37.24-5.79,51.64,20.67-2.41Z"/><path class="cls-13" d="M244.81,164.38l-8,.16q-4,.08-8,.32l15.85,1-.24,1.61-10.94.48,10.78.81-.16,1.45-38.53-.64-.08-5.63,1.73-.6q.84-.28,1.65-.6l-3.46-.64v-2.09l12.87-.72-12.87-.64-.08-4.18,4.1.4-.24-15.69a.83.83,0,0,1,.2-.08.83.83,0,0,0,.2-.08l.24-13.59a5.25,5.25,0,0,0-.8,2.09l-.16-10.46c.86-.16,1.7-.31,2.53-.44a24.76,24.76,0,0,0,2.45-.52l-5.07-.4-.08-6.11q1.2.08,3.42.12t5.07,0l6-.12,6.31-.16q7.4-.24,15.93-.64l-.4,3q-5.72.17-11.46.28t-11.54.44q5.79.17,11.46.44t11.38.12l-1.05,7.24L240,121l3.7.72-.24,2-26-1.69.24,9.57,15.93-.48-.08,4-8.85.56,8.77.72v1.53a3.88,3.88,0,0,1-1.29.28c-.48,0-.64.36-.48,1a2.2,2.2,0,0,1,.84-.16,2.17,2.17,0,0,0,.84-.16l-.16,5.71h-8.77l-.32,15.44,21.64-3.14Z"/><path class="cls-13" d="M302.4,181.51a27.66,27.66,0,0,1-.16,3.18c-.11.94-.21,1.78-.32,2.53a17.57,17.57,0,0,1-.56,2.25l-6.11.89-.32-1.53-3.06,2L278,192.93c-.21-.16-.48-.35-.8-.56s-.6-.46-1-.72a13.65,13.65,0,0,1-1.33-1.05l-.72-9.49-.64,8.29-1.61-1.61a4.14,4.14,0,0,0-.48-.56l1-22-2.25,20.59c-1.07-1.45-1.85-2.55-2.33-3.3l-.72-1.21,4.5-27.51a6.78,6.78,0,0,0-1-.8,8.9,8.9,0,0,0-1.13-.8c-.43-.27-.91-.54-1.45-.81a12,12,0,0,0-1.33-.56c-.46-.16-.9-.29-1.33-.4l.4-10.54,2.17.56c.32-.75.67-1.61,1-2.57s.67-1.93,1.05-3.22.72-2.76,1.05-4.42a2.61,2.61,0,0,0,.08-.6,2.61,2.61,0,0,1,.08-.6l1.53,3.62-.56-10.46a23.48,23.48,0,0,0,.24-2.73v-1.05l-14.16,1.93,2.41,18.26,3.86,1q.16,5.47.72,10.86a3.23,3.23,0,0,0-.68-.2,3.62,3.62,0,0,1-.52-.12,2.45,2.45,0,0,0-.48-.08l.32,19.14h-3.7l-.32-8.53-1,8.53H244.81l-.08-3.22a4,4,0,0,0,1.05-.48l1-.64-2-.24v-3.3l4.83.32-4.67-1.45h-.24v-2.65l5.39,1.05-.89-43.44,11.26-2.57-5.63.48c-1.88.16-3.75.3-5.63.4l-.08-3,4.67-.56c1.45-.16,3.14-.31,5.07-.44s4-.2,6.27-.2c1.55,0,3-.07,4.38,0s2.61.07,3.74.12l3.38,4.1-1.77-4c1.61.05,2.92.13,3.94.24.59,0,1.07.08,1.45.08a38.16,38.16,0,0,1,2.09,3.94c.59,1.29,1.23,2.84,1.93,4.67a62.11,62.11,0,0,1,2,6.36q.88,3.3,1.37,6c.32,1.77.56,3.27.72,4.51a39.54,39.54,0,0,1,.4,3.94l-4.18,2.09c-.21-2.41-.51-4.75-.89-7s-.78-4.51-1.21-6.76c.21,2.36.43,4.72.64,7.08s.45,4.72.72,7.08l-9.49,4.75a10.94,10.94,0,0,1,1.13.4,10.18,10.18,0,0,1,1.13.48c.43.21.88.46,1.37.72l1.13,10.3c0-1.61,0-3.23,0-4.87s0-3.26-.12-4.87l1.25.81c.4.27.74.51,1,.72a6.23,6.23,0,0,1,.89.72l.56,36.6,8.45-6.68-2.73-7.08,2.49.08a18.82,18.82,0,0,0,1,2c.37.67.72,1.33,1.05,2l-1-3.94,9.65.32c.11.59.24,1.26.4,2s.2,1.43.28,2.37S302.4,180.33,302.4,181.51Zm-47.7-29.44q-.24-5.55-.44-11.18c-.13-3.75-.42-7.43-.84-11v17.86Z"/></g></g></svg>