<svg xmlns="http://www.w3.org/2000/svg" xmlns:xlink="http://www.w3.org/1999/xlink" viewBox="0 0 42.77 25.81"><defs><style>.cls-1{fill:none;}.cls-2{clip-path:url(#clip-path);}.cls-3{fill:url(#linear-gradient);}.cls-4{opacity:0.2;}.cls-5{clip-path:url(#clip-path-2);}.cls-6{fill:#010101;}.cls-7{clip-path:url(#clip-path-3);}.cls-8{opacity:0.1;}.cls-9{clip-path:url(#clip-path-4);}.cls-10{fill:#f8aa42;}.cls-11{opacity:0.3;}.cls-12{clip-path:url(#clip-path-5);}.cls-13{fill:#f69524;}</style><clipPath id="clip-path"><path class="cls-1" d="M23.34,7c1.71,3-11.86.62-20.4,0C2,6.89,1,10.58.72,14.27s.12,7.63,2.2,7.24c8.47-2,22.24-6.24,20.7-4-2.73,6.64-1.87,7.62-.37,7.59L40.15,14.5c2.15-1.41,2.22-3-.52-4.37L22.88.69c-1.77.08-1.26,2.56.46,6.3"/></clipPath><linearGradient id="linear-gradient" x1="-126.97" y1="310.83" x2="-125.97" y2="310.83" gradientTransform="matrix(0, -22.22, -22.22, 0, 6928.85, -2797.66)" gradientUnits="userSpaceOnUse"><stop offset="0" stop-color="#8d2d1c"/><stop offset="0.13" stop-color="#963821"/><stop offset="0.37" stop-color="#ac562e"/><stop offset="0.68" stop-color="#d18744"/><stop offset="1" stop-color="#fdc05e"/></linearGradient><clipPath id="clip-path-2"><rect class="cls-1" x="2.92" y="12.85" width="24.74" height="8.66"/></clipPath><clipPath id="clip-path-3"><rect class="cls-1" x="23.09" y="12.2" width="16.96" height="12.9"/></clipPath><clipPath id="clip-path-4"><rect class="cls-1" x="21.77" y="0.69" width="5.22" height="8.94"/></clipPath><clipPath id="clip-path-5"><rect class="cls-1" x="2.76" y="3.27" width="34.75" height="19.52"/></clipPath></defs><title>icon-title</title><g id="Layer_2" data-name="Layer 2"><g id="Layer_1-2" data-name="Layer 1"><g class="cls-2"><rect class="cls-3" x="0.2" y="0.35" width="42.36" height="25.12" transform="translate(-0.21 0.35) rotate(-0.94)"/></g><g class="cls-4"><g class="cls-5"><path class="cls-6" d="M5.21,16.46,2.92,21.51s15.57-4.14,16.44-4.12A19.1,19.1,0,0,0,22,16.93c.62-.05,1.54.3,1.77.25S26,15.59,27.15,15,27.7,13.1,24,12.89a28.25,28.25,0,0,0-9.74,1.25c-2.51.77-9,2.32-9,2.32"/></g></g><g class="cls-4"><g class="cls-7"><path class="cls-6" d="M38,12.22c.18,0,1.48-.12,1.88.19s0,2.26,0,2.26L23.25,25.09a4.88,4.88,0,0,1,0-2.3,20.22,20.22,0,0,1,2.81-3.05c.68-.6,11.93-7.52,11.93-7.52"/></g></g><g class="cls-8"><g class="cls-9"><path class="cls-6" d="M22.88.69s-.05,2.2.54,2.61a27.48,27.48,0,0,1,2.86,3.82,3,3,0,0,1,.64,2.51l-1.19-.69L23.34,7s-1-2.2-1.2-3a6.76,6.76,0,0,1-.36-2c.06-.43.13-1,.61-1.13Z"/></g></g><path class="cls-10" d="M3.48,8.63c8.54.61,23.83,2.92,22.12-.1C23.88,4.8,22.6,3.07,24.37,3l13.71,7.65c2.74,1.39,2.06,2.18-.09,3.6L24,22.79c-1.49,0-1.36.26,1.37-6.38,1.54-2.23-12.48,1.14-20.95,3.14-4.09.77-2.76-11.13-.9-10.92"/><g class="cls-11"><g class="cls-12"><path class="cls-13" d="M5,8.74a8.1,8.1,0,0,1-1.1,3.79c-.71,1.23-1,4.27-1.11,6.45a1.6,1.6,0,0,0,1.2.6c.08-.91.15-2,.21-3.17.12-2.49.79-3.34,1.58-5.95.15-.49.28-1,.4-1.61L5,8.74"/><path class="cls-13" d="M9.72,9.19,8.6,9.08c-1,2.54-1.58,2.17-1.94,4.05s-.85,2.49-.61,4.37c.07.55.13,1.1.17,1.62L7,19a15.06,15.06,0,0,1,.68-5.09A25.69,25.69,0,0,1,9.51,9.73a3.83,3.83,0,0,0,.21-.54"/><path class="cls-13" d="M13.7,11.43c-.91-.67-1.54.43-1.53-2L11,9.32c-.32.86-.76,1.73-1.16,2.84a29.11,29.11,0,0,0-.76,6.28l.57-.13A13.53,13.53,0,0,1,10.79,14c.67-1.21,1.33-2,1.52-1.7s1.21-.24,1.15,3.28c0,.71-.05,1.35-.1,1.92l.77-.17c0-.57,0-1.21,0-1.93,0-2.19.48-3.28-.43-4"/><path class="cls-13" d="M16.56,9.82l-1-.09a4.73,4.73,0,0,1,.3.79c.6,2.13,1,4.9.58,6.31.49-.11,1-.2,1.45-.29.25-1.84.7-3.49-.09-5a12.39,12.39,0,0,0-1.21-1.73"/><path class="cls-13" d="M29.73,10.1c-.24.3-.85,1.71-.85,1.13s.24-1.38.24-2.59a6.71,6.71,0,0,0-1.34-3.76L24.89,3.27c.5.71,1,1.39,1.38,1.91,1.46,1.94,1.82,2.25,1.82,4.43a9.35,9.35,0,0,1-.49,4.19c-.6,1.88.85,2.44-.78,4a30,30,0,0,1-3.14,2.58l-.09.22a5.91,5.91,0,0,0,1.89-.8,5.39,5.39,0,0,0,2.62-3c.48-1.46.35-3,.9-3.65s.85.49.85,1.76-.24,2.92-1.15,3.77A37.59,37.59,0,0,1,25.18,21a10.59,10.59,0,0,0-2,1.7,2.18,2.18,0,0,0,.8.06l3.86-2.36a18.1,18.1,0,0,0,2-3.17,16.74,16.74,0,0,0,.91-5.16c0-.85-.79-2.31-1-2"/><path class="cls-13" d="M32.76,7.66,31.3,6.85c-.42,1.24.55,2,1.1,3.13a11.72,11.72,0,0,1,.67,4.67,14,14,0,0,1-1,3.15l1-.57a20.93,20.93,0,0,0,1-3.79c.06-1.4.67.6-.67-3.59-.25-.8-.48-1.53-.67-2.19"/><path class="cls-13" d="M23.57,15.69a7.69,7.69,0,0,1,.82,0,10.5,10.5,0,0,0,.42-3.76c-.08-.84-.16-1.47-.26-2.1a10.06,10.06,0,0,1-1.17.16,37.54,37.54,0,0,1,.34,4.31,8.11,8.11,0,0,1-.15,1.4"/><path class="cls-13" d="M36.21,9.59A18.8,18.8,0,0,1,36,13.38a15.92,15.92,0,0,1-.48,2.36L36.74,15c0-.22.1-.45.15-.7a23.45,23.45,0,0,0,.62-4Z"/><path class="cls-13" d="M20.7,10l-.57,0c0,.15.05.29.07.44a36.52,36.52,0,0,1,.1,5.64l.79-.13a42.12,42.12,0,0,0-.3-5.39c0-.15-.06-.34-.09-.54"/></g></g></g></g></svg>