<svg xmlns="http://www.w3.org/2000/svg" viewBox="0 0 28.79 43.01"><defs><style>.cls-1{fill:#5d1e30;}.cls-2{fill:#3b1e27;}.cls-3{fill:#cb1e50;}.cls-4{fill:#ae1e49;}.cls-5{fill:#e8225a;}.cls-6{fill:#791f3a;}</style></defs><title>polygon</title><g id="Layer_2" data-name="Layer 2"><g id="Layer_1-2" data-name="Layer 1"><path class="cls-1" d="M14.77,28.49l-.3.17,0-14.11V.27c.23.19.47.37.68.58q4.55,4.55,9.09,9.08c1.2,1.19,2.33,2.4,3.54,3.57.28.27.45.45.8.84-.26.29-.61.18-.93.18-4,0-8.08,0-12.11,0-.72,0-.93.19-.93.92,0,4.07,0,8.13,0,12.2C14.6,27.93,14.51,28.24,14.77,28.49Z"/><path class="cls-2" d="M14.43.27V14.55l-10.93,0c-1.06,0-2.12,0-3.18-.06,0-.38.26-.58.49-.81L13.7.75C13.91.55,14.09.28,14.43.27Z"/><path class="cls-3" d="M.32,29.14C0,29,0,28.67,0,28.37q0-6.82,0-13.66c.05,0,.12,0,.15,0,2.17,2.21,4.36,4.4,6.62,6.53s4.6,4.56,6.89,6.86a1.87,1.87,0,0,1,.57.68,2.06,2.06,0,0,1-1,.14h-12C.94,29,.59,28.87.32,29.14Z"/><path class="cls-4" d="M14.25,28.82a1.87,1.87,0,0,0-.57-.68c-2.29-2.29-4.53-4.64-6.89-6.86S2.35,17,.17,14.75c0,0-.1,0-.15,0,0-.19.17-.2.3-.25l3.18.06,10.93,0,0,14.11c0,.11-.05.21-.07.32A.79.79,0,0,0,14.25,28.82Z"/><path class="cls-5" d="M14.25,28.82l.14.15V43a.19.19,0,0,1-.29,0L.32,29.14c.27-.28.62-.17.93-.17h12A2.07,2.07,0,0,0,14.25,28.82Z"/><path class="cls-6" d="M14.77,28.49c-.26-.24-.17-.56-.17-.85,0-4.07,0-8.13,0-12.2,0-.73.21-.92.93-.92,4,0,8.08,0,12.11,0,.31,0,.66.11.93-.18.25.24,0,.39-.12.53Z"/><polygon class="cls-6" points="28.66 14.55 14.43 14.55 14.39 28.98 28.66 14.55"/><polygon class="cls-1" points="14.43 14.55 28.79 14.55 14.43 0 14.43 14.55"/><polygon class="cls-6" points="28.47 14.55 28.79 14.55 28.21 15.09 28.47 14.55"/><polygon class="cls-2" points="2.78 11.68 0.01 14.46 1.92 14.46 2.78 11.68"/><polygon class="cls-2" points="14.43 1.52 14.43 0 13.71 0.76 14.43 1.52"/><polygon class="cls-4" points="2.2 14.5 0.01 14.46 1.89 16.48 2.2 14.5"/><polygon class="cls-3" points="1.4 15.98 0.01 14.46 0.03 16.48 1.4 15.98"/><polygon class="cls-4" points="13.36 27.82 14.39 28.98 13.98 27.76 13.36 27.82"/><polygon class="cls-3" points="13.75 28.25 14.39 28.98 13.43 28.97 13.75 28.25"/><polygon class="cls-5" points="2.38 28.98 0.09 28.93 0.77 29.59 2.38 28.98"/></g></g></svg>