<svg xmlns="http://www.w3.org/2000/svg" xmlns:xlink="http://www.w3.org/1999/xlink" viewBox="0 0 316.8 126.2"><defs><style>.cls-1{fill:url(#radial-gradient);}.cls-2{fill:#9e5224;opacity:0.4;isolation:isolate;}.cls-3{fill:#dd863c;}.cls-4{fill:url(#radial-gradient-2);}.cls-5{fill:#8e8933;}.cls-6{fill:#665f27;}.cls-7{fill:url(#radial-gradient-3);}.cls-8{fill:url(#radial-gradient-4);}.cls-9{fill:url(#radial-gradient-5);}.cls-10{fill:url(#radial-gradient-6);}.cls-11{fill:url(#radial-gradient-7);}.cls-12{fill:url(#radial-gradient-8);}.cls-13{fill:url(#radial-gradient-9);}.cls-14{fill:url(#radial-gradient-10);}.cls-15{fill:url(#radial-gradient-11);}.cls-16{fill:url(#radial-gradient-12);}.cls-17{fill:url(#radial-gradient-13);}.cls-18{fill:url(#radial-gradient-14);}.cls-19{fill:url(#radial-gradient-15);}.cls-20{fill:#c8bc2e;}.cls-21{fill:#9a9033;}.cls-22{fill:#e5de19;}</style><radialGradient id="radial-gradient" cx="54.66" cy="68.95" r="41.58" gradientTransform="matrix(1, 0, 0, -1, 0, 127)" gradientUnits="userSpaceOnUse"><stop offset="0" stop-color="#c36128"/><stop offset="0.35" stop-color="#bf6028"/><stop offset="0.67" stop-color="#b35b27"/><stop offset="0.98" stop-color="#a05324"/><stop offset="1" stop-color="#9e5224"/></radialGradient><radialGradient id="radial-gradient-2" cx="272.8" cy="66.6" r="43.21" xlink:href="#radial-gradient"/><radialGradient id="radial-gradient-3" cx="510.06" cy="-47.78" r="416.6" gradientTransform="matrix(1.19, 0, 0, -0.95, -311.89, -190.96)" gradientUnits="userSpaceOnUse"><stop offset="0" stop-color="#bfb131"/><stop offset="0.38" stop-color="#b9ac31"/><stop offset="0.72" stop-color="#aca032"/><stop offset="1" stop-color="#9a9033"/></radialGradient><radialGradient id="radial-gradient-4" cx="510.06" cy="-47.76" r="416.62" xlink:href="#radial-gradient-3"/><radialGradient id="radial-gradient-5" cx="510.06" cy="-47.76" r="416.62" xlink:href="#radial-gradient-3"/><radialGradient id="radial-gradient-6" cx="510.06" cy="-47.76" r="416.61" xlink:href="#radial-gradient-3"/><radialGradient id="radial-gradient-7" cx="510.06" cy="-47.76" r="416.62" xlink:href="#radial-gradient-3"/><radialGradient id="radial-gradient-8" cx="510.06" cy="-47.76" r="416.62" xlink:href="#radial-gradient-3"/><radialGradient id="radial-gradient-9" cx="510.06" cy="-47.75" r="416.65" xlink:href="#radial-gradient-3"/><radialGradient id="radial-gradient-10" cx="510.06" cy="-47.75" r="416.63" xlink:href="#radial-gradient-3"/><radialGradient id="radial-gradient-11" cx="510.06" cy="-47.77" r="416.61" xlink:href="#radial-gradient-3"/><radialGradient id="radial-gradient-12" cx="510.06" cy="-47.94" r="416.36" xlink:href="#radial-gradient-3"/><radialGradient id="radial-gradient-13" cx="510.06" cy="-47.75" r="416.64" xlink:href="#radial-gradient-3"/><radialGradient id="radial-gradient-14" cx="510.06" cy="-47.76" r="416.57" xlink:href="#radial-gradient-3"/><radialGradient id="radial-gradient-15" cx="510.06" cy="-47.65" r="416.83" xlink:href="#radial-gradient-3"/></defs><title>roadmap-title</title><g id="Layer_2" data-name="Layer 2"><g id="Layer_1-2" data-name="Layer 1"><path class="cls-1" d="M62.37,116.1H48c-.7-35-4.6-74.5-1.6-116.1h17.7C60,39,60.77,77.8,62.37,116.1Z"/><path class="cls-2" d="M61.07,116.1h-4.8c1.1-40.5.7-79.3-1.4-116.1h7.8C58.57,38.9,59.37,77.9,61.07,116.1Z"/><path class="cls-3" d="M49.47,116.1h-.1c-.2-10.6-.7-21.6-1.3-32.8-1.2-26.7-2.5-54.3-.4-83.3h2.9C48.07,29.9,48.27,70.9,49.47,116.1Z"/><path class="cls-2" d="M60,0l-.1,1.9-.3,4.3L59,14.8l-.6,8.6L58,27.7c-.2,1.4-.3,2.9-.5,4.3-.3-1.4-.3-2.9-.5-4.3l-.2-4.3a81.66,81.66,0,0,1,.2-8.6,80.78,80.78,0,0,1,1-8.6l.9-4.3c.2-.6.3-1.3.5-1.9Z"/><path class="cls-2" d="M50.77,41.8c.3,2.7.5,5.5.8,8.2l.6,8.2c.4,5.5.5,11,.8,16.5.1,5.5.3,11,.3,16.5v8.3c-.1,2.8-.1,5.5-.2,8.3-.3-2.7-.5-5.5-.8-8.2l-.6-8.2c-.3-5.5-.5-11-.8-16.5-.1-5.5-.3-11-.3-16.5V50.1C50.67,47.3,50.67,44.5,50.77,41.8Z"/><polygon class="cls-2" points="53.67 116.1 53.37 116.1 53.47 113.8 53.67 116.1"/><path class="cls-4" d="M280.47,120.8h-14.3c-.9-36.6-4.4-77.6-1.8-120.8h17.7C278.37,40.6,279,80.9,280.47,120.8Z"/><path class="cls-2" d="M279.17,120.8h-4.6c.9-42,.6-82.4-1.3-120.8h7.5C277,40.5,277.67,81.1,279.17,120.8Z"/><path class="cls-3" d="M267.67,120.8h-.1c-.2-10.5-.7-21.3-1.2-32.3-1.2-28.4-2.4-57.7-.6-88.5h2.9C266.37,31.6,266.57,74.1,267.67,120.8Z"/><path class="cls-2" d="M278.17,0l-.3,4.7-.6,9.4-.6,9.4-.4,4.7c-.2,1.6-.3,3.1-.5,4.7-.2-1.6-.3-3.1-.5-4.7l-.2-4.7c-.1-3.1,0-6.3.2-9.4s.5-6.3,1-9.4l.9-4.6h1Z"/><path class="cls-2" d="M269.07,43.3c.3,3,.5,6,.8,9l.6,9c.4,6,.5,12,.8,18,.1,6,.3,12,.3,18v9c-.1,3-.1,6-.2,9-.3-3-.5-6-.8-9l-.6-9c-.3-6-.5-12-.8-18-.1-6-.3-12-.3-18v-9C268.87,49.3,268.87,46.3,269.07,43.3Z"/><path class="cls-5" d="M314.77,61.8c-1.2-4.6,5.4-14.6-1.3-17.2l-9.3-3.6c-2.9-1.2-5.5-.1-8.6.1-4.3.3-8.7.2-13,.3-18.3.4-36.7-.3-55-.6-28.1-.4-56.2-.6-84.3.3-.8,0-1.5.1-2.3.1-1.4.1-1.8-.2-2.3.6s0,3.8,0,4.8c-.1,3.2-.5,6.4-.6,9.7-.1,1.9.8,2,2.7,2.7,1.1.4,2.3.8,3.4,1.2,2.2.9,4.4,2.2,6.9,2.5,2,.3,5.7.7,7,2.1,2.4,2.7-3.7,3.9-5.8,4-4,.2-7.9-.6-11.9-.7-1.6,0-3.2-.2-4.3.9s-.6,2.6-1.7,3.5-2.1.3-3.3.9a3.48,3.48,0,0,0-1.6,3.1c-.2,3.3,1.3,6.9,2,10.1a51.16,51.16,0,0,1,1.7,9.5c.1,2.9-1.4,5.8-.1,8.7a12.16,12.16,0,0,0,5.6,5.6,40.92,40.92,0,0,1,4.9,1.8c1,.5,1.5.5,2.2,1.3a13.25,13.25,0,0,1,1.6,2.5c.7,1.5.7,3.3,1.5,4.7a5,5,0,0,0,2.3,1.4c1,.4,2.1.8,3.1,1.2s2.1.9,3.1,1.2a16.8,16.8,0,0,0,3.8,1.2,57.67,57.67,0,0,0,7.2.1c30.2.3,60.5.4,90.7.2,6.2,0,12.4-.4,18.6-.4,2,0,4.1,0,6.1.1,1.4,0,5,.7,6.2.2,2-.7,2.3-3.9,3.6-5.5a7,7,0,0,1,5.6-2.8c2,0,4.7.8,6.5,0,2.1-.9,1.5-3.7,1.5-5.3a11.28,11.28,0,0,0-.5-4.1c-.5-1.2-1.3-2-.5-3.3,1.1-1.6,3.9-1.6,5.7-2.3,3.2-1.2,2.8-3.7,2.8-6.2a69.4,69.4,0,0,1,.5-9.1c.5-2.6,1-4.9-2-6.5-2.6-1.5-5.9-2.4-8.7-3.5-4.9-1.9.4-3.3,3.3-3.9s8-.7,8.8-3.3C317.47,67.7,315.47,64.4,314.77,61.8Z"/><path class="cls-5" d="M185.47,61.8c-1.2-4.6,5.4-14.6-1.3-17.2l-9.3-3.6c-2.9-1.2-5.5-.1-8.6.1-4.3.3-8.7.2-13,.3-18.3.4-36.7-.3-55-.6-28.1-.4-56.2-.6-84.3.3-.8,0-1.5.1-2.3.1-1.4.1-1.8-.2-2.3.6s0,3.8,0,4.8c-.1,3.2-.5,6.4-.6,9.7-.1,1.9.8,2,2.7,2.7,1.1.4,2.3.8,3.4,1.2,2.2.9,4.4,2.2,6.9,2.5,2,.3,5.7.7,7,2.1,2.4,2.7-3.7,3.9-5.8,4-4,.2-7.9-.6-11.9-.7-1.6,0-3.2-.2-4.3.9s-.6,2.6-1.7,3.5-2.1.3-3.3.9a3.48,3.48,0,0,0-1.6,3.1c-.2,3.3,1.3,6.9,2,10.1a51.16,51.16,0,0,1,1.7,9.5c.1,2.9-1.4,5.8-.1,8.7a12.16,12.16,0,0,0,5.6,5.6,40.92,40.92,0,0,1,4.9,1.8c1,.5,1.5.5,2.2,1.3a13.25,13.25,0,0,1,1.6,2.5c.7,1.5.7,3.3,1.5,4.7a5,5,0,0,0,2.3,1.4c1,.4,2.1.8,3.1,1.2s2.1.9,3.1,1.2a16.8,16.8,0,0,0,3.8,1.2,57.67,57.67,0,0,0,7.2.1c30.2.3,60.5.4,90.7.2,6.2,0,12.4-.4,18.6-.4,2,0,4.1,0,6.1.1,1.4,0,5,.7,6.2.2,2-.7,2.3-3.9,3.6-5.5a7,7,0,0,1,5.6-2.8c2,0,4.7.8,6.5,0,2.1-.9,1.5-3.7,1.5-5.3a11.28,11.28,0,0,0-.5-4.1c-.5-1.2-1.3-2-.5-3.3,1.1-1.6,3.9-1.6,5.7-2.3,3.2-1.2,2.8-3.7,2.8-6.2a69.4,69.4,0,0,1,.5-9.1c.5-2.6,1-4.9-2-6.5-2.6-1.5-5.9-2.4-8.7-3.5-4.9-1.9.4-3.3,3.3-3.9s8-.7,8.8-3.3C188.17,67.7,186.17,64.4,185.47,61.8Z"/><path class="cls-6" d="M147.17,120.5l-126-1.1L20,121.3a6.63,6.63,0,0,0,1.9.9c1,.4,2.1.8,3.1,1.2s2.1.9,3.1,1.2a16.8,16.8,0,0,0,3.8,1.2,57.67,57.67,0,0,0,7.2.1c30.2.3,60.5.4,90.7.2,6.2,0,12.4-.4,18.6-.4,2,0,4.1,0,6.1.1,1.4,0,5,.7,6.2.2.1,0,.2-.1.3-.1Z"/><path class="cls-6" d="M293,112.5h-10.5l13.6,6.1a7.45,7.45,0,0,1,3.1-.7c2,0,4.7.8,6.5,0a5.55,5.55,0,0,0,.8-.6Z"/><path class="cls-6" d="M313.77,101.4l-13.1-5-9.1,5,14.4,4.1a.37.37,0,0,1,.1-.3c1.1-1.6,3.9-1.6,5.7-2.3.2-.1.3-.1.4-.2l1.6-1.3Z"/><path class="cls-6" d="M287.27,69.3l1.6,2.3,14.2,3.6a14.64,14.64,0,0,1,4.6-1.5c2.8-.6,8-.7,8.8-3.3L305,66.6Z"/><path class="cls-6" d="M276.47,120.5l-126-1.1-1.2,1.9a6.63,6.63,0,0,0,1.9.9c1,.4,2.1.8,3.1,1.2s2.1.9,3.1,1.2a16.8,16.8,0,0,0,3.8,1.2,57.67,57.67,0,0,0,7.2.1c30.2.3,60.5.4,90.7.2,6.2,0,12.4-.4,18.6-.4,2,0,4.1,0,6.1.1,1.4,0,5,.7,6.2.2.1,0,.2-.1.3-.1Z"/><path class="cls-6" d="M9,57.9a9.87,9.87,0,0,0,2.3,1.1c1.1.4,2.3.8,3.4,1.2,2.2.9,4.4,2.1,6.9,2.5a32.21,32.21,0,0,1,3.5.6l.6-1.2-4.3-5.5Z"/><path class="cls-7" d="M71.07,98.8c2.3-.6,2.9-1.3,1.1-1.8a42.4,42.4,0,0,0-11.1-.6,9.21,9.21,0,0,0-3.9.9C61.67,97.8,66.37,98.3,71.07,98.8Z"/><path class="cls-8" d="M206.17,80c-27.7-.3-55.4-1.3-83.3-2.7s-56.2-3.1-85.1-5.1q18.9-.3,37.5-.3c-9.6-1.5-22.9-1.9-31.4-.9l-7.2.8C27,72.9,11,74.1,1.17,74.4H.87a8.79,8.79,0,0,0-.6,1,6.65,6.65,0,0,0,0,3.7c.5,2.4,1,4.8,1.6,7.3h.2a208.42,208.42,0,0,0,33.7,1.3,63.4,63.4,0,0,1-17.9-7.2c11.6,1.1,22,1.5,32.4,2s20.7.8,32.3.8a67.71,67.71,0,0,1-12.4,4.4A94.42,94.42,0,0,1,83.07,90c9.3,2.4,24.5,6.5,33.8,9l.3.1c9.3,2.6,8.9,5.4-.9,6.2l-1.3.1c-9.7.9-25.7,2.2-35.5,2.9l-1,.1c-9.8.7-25.1.9-34.1.5s-23.7-1.2-32.7-1.7c-2-.1-4.4-.2-6.9-.3a36.36,36.36,0,0,0,3.4,3.4,15.82,15.82,0,0,1,6.5-.1c.2,2,1.7,3.6,2.8,5.3,6.8-.1,13.8-.1,19,0l7.3.1c9.8.2,25.8.1,35.6-.2l6.9-.2c9.8-.3,25.8-1,35.6-1.6l7.3-.4c9.8-.6,17.8-1.1,17.9-1s8.1,0,17.9-.1h7.1c9.8-.1,25.8-.4,35.6-.8l7.1-.3c9.8-.4,17.8-.1,17.9.5s8.1,1.5,17.9,1.8l7.3.2c7.1.2,17.4.6,26.2,1,.4-.2.8-.5,1.3-.7,2.6-1,9.5,1.5,10-1.8-41.4-1.7-82.9-4.2-126-7.6a43.74,43.74,0,0,1-5,.9,23.55,23.55,0,0,1-11.6-1.4,97.24,97.24,0,0,1,11-2.2,24.54,24.54,0,0,1,11.6,1.3c-2,.5-3.8.9-5.6,1.4,43-.4,84.5-.1,125.6.8v-.3c-.3-1.2-1.5-2.1-1.1-3.4s1.9-1.8,3.4-2.2c-19.5-.5-39.1-1.7-59.4-.1,14.6-2.4,29.4-2.9,43.8-3.1,7-.1,13.9-.1,20.8-.1a6.6,6.6,0,0,0,.1-1.4c0-1.2.1-2.3.1-3.5-3.7-.4-7.5-.8-11.3-1.4,3.9-.5,7.6-.8,11.4-1,0-1,0-2,.1-3a23.3,23.3,0,0,1,.5-3.4,41.39,41.39,0,0,0-9.8,1.4,36,36,0,0,1,10-3.6,3.75,3.75,0,0,0-.1-1.1,4.1,4.1,0,0,0-1.5-2C270.17,79.6,238.07,80.3,206.17,80Zm-84.5,30.7c-6.9.7-14.7.3-21.1-2.8,7.4.7,13.9-.2,20.6-.8a157.68,157.68,0,0,1,21-1.1A110.77,110.77,0,0,1,121.67,110.7Zm77.8-14.5c-12.6.7-25.5,1.2-38.6.2a180.33,180.33,0,0,1-38.5-7.2,285.81,285.81,0,0,0,38.9,1.8c12.6-.3,25.1-1.4,37.9-2.1a300.16,300.16,0,0,1,77.2,5.3C249.57,93.8,224.57,94.7,199.47,96.2Zm45-15c-25.1,1.3-48.8,5.4-73.3,4.2-12.2-.8-23.9-2.1-36-3.1s-24.3-1.7-36.9-1.1c25.1-3.5,49.8-1,73.4.6C195.37,82.9,219.37,80.1,244.47,81.2Z"/><path class="cls-9" d="M217.07,63.9c-10.1-.8-20.3-1.9-30.2-2.8s-19.9.2-30,1.5-20.3,2.9-30.7,3.7a97.53,97.53,0,0,1-31.4-2,102.72,102.72,0,0,0,31.3.4c10.3-1.2,20.3-3.2,30.5-4.8,4.7-.7,9.5-1.4,14.4-1.8l-6-.4a197.89,197.89,0,0,0-35.3,1.2l-7.8,1.1a147.22,147.22,0,0,1-35.1-.4l-8.1-1.3a345.65,345.65,0,0,0-35.3-3.4L37,54.7a234.93,234.93,0,0,0-28.3,1.1c-.1.7-.1,1.3-.2,2a.75.75,0,0,0,.1.5.78.78,0,0,0,.7.3c2.8.4,5.6,0,8.3.5a5.73,5.73,0,0,1,1.4.4,123.13,123.13,0,0,1,22.8-1.3,76.88,76.88,0,0,1,23.4,4.3c-14.7-2.8-28.9-1.7-42.7.2,1.9.9,4.6,1.2,6.3,2.5.4,1.2.7,1.8-.5,2.6a9,9,0,0,1-4.1,1.3c-4.8.5-9.7-.6-14.5-.6a4.7,4.7,0,0,0-2.7.6,4,4,0,0,0-1.2,2.5c9.6-.6,22.3-1.9,30.5-3.2l8-1.3a131.56,131.56,0,0,1,34.9.2L87,68.6c9.6,1.6,25.3,1.9,35,.5l7.6-1.1a147.19,147.19,0,0,1,35.1,0l7.9,1.1c9.7,1.3,25.6,2.5,35.4,2.7l6.8.1c9.8.1,25.8.5,35.6.8l7.2.2a257.91,257.91,0,0,0,33.7-1.7,4.53,4.53,0,0,1,2.5-1.2l9.5-2.1a3.49,3.49,0,0,0,1.3-.5,1.83,1.83,0,0,0,.8-1.3v-.2c-9,.3-18,.5-26.9.5C257.67,66.5,237.37,65.5,217.07,63.9Z"/><path class="cls-10" d="M293.37,58.1c-9.8.2-25.8.3-35.7.2l-7.1-.1c-9.8-.1-25.8.1-35.6.4l-7.2.2c-1.9.1-4,.1-6.2.1,5.5.5,11,.9,16.5,1.4,20.2,1.6,40.4,2.9,60.8,3.5,8.8.1,17.7.4,26.6.4-.2-2.1-1.2-4.2-1.8-6.4-1,0-2.1.1-3,.1Z"/><path class="cls-11" d="M44.37,105.7a258.58,258.58,0,0,0,34-.4l21-1.8c9.8-.8,10.2-3.6.9-6.1l-17.8-4.9a115.5,115.5,0,0,0-21.7-3.3,73.05,73.05,0,0,1-15.5.1l-8.2.6c-9.8.7-17.8,1.4-17.9,1.5s-7.5-.7-16.8-1.9c0,.2.1.4.1.6,2.1.3,4,.6,5.9.9,8.3,1.2,16.7,2.4,25.1,3.5,5.4.7,10.9,1.4,16.4,2,.3-1.3,2.5-2.3,6.5-2.6a81,81,0,0,1,23,2.2c4.2,1.2,4.7,2.6,1.9,3.8,1.2.1,2.5.2,3.7.4-1.8.1-3.5.1-5.3.2a36.15,36.15,0,0,1-4.8,1c-6.6.9-14,.6-19-.7-7.9-.1-15.8-.3-23.6-.8-8.6-.5-17.2-1.3-25.7-2.2a29.09,29.09,0,0,1-3.1-.4,14.92,14.92,0,0,1-.2,2.1,16.68,16.68,0,0,0-.5,3.1,3.4,3.4,0,0,0,.1,1c3.1,0,6.1.1,8.6.3C20.67,104.2,35.37,105.1,44.37,105.7Z"/><path class="cls-12" d="M251.17,120.2c8.7.2,17.5.4,26.4-.5-7.1-.2-14.4-.5-19.8-.9l-7.4-.6c-9.8-.7-25.8-1-35.6-.7l-6.9.3c-9.8.4-25.8.2-35.6-.3l-7.3-.4c-1-.1-2-.1-3.1-.1-12.5,2.1-25.3,2.5-37.8,2.7-4.4.1-8.7.1-13,.2-8.3.6-17.6,1.2-24.2,1.3l-7.4.2c-9.8.2-25.8,0-35.6-.6l-3.8-.2c-3.7.2-7.5.6-11.2,1.1,17.2.1,91.3.4,98.6,0a198.28,198.28,0,0,1,21.8.1,2.2,2.2,0,0,0,.8-.1.1.1,0,0,1,.1-.1c1.5,0,3,.1,4.6.1,1.8.1,25.8.2,50.1.2,5-.7,10-1.3,15.1-1.7C230.47,119.4,240.77,119.9,251.17,120.2Z"/><path class="cls-13" d="M304.57,42.8a2.49,2.49,0,0,0-1.5-2.1c-2-.7-3.2,0-5,.2a67.92,67.92,0,0,1-7.8.4c-5.7.1-11.4.3-17,.4-3,.1-10-.1-19.7-.3a.37.37,0,0,0-.3.1C270.27,41.7,287.37,42.2,304.57,42.8Z"/><path class="cls-14" d="M270.17,121.5q4.2,0,8.4.3a2.2,2.2,0,0,0,.8-.1c.2-.1.2-.3.3-.4l.6-1.5h-.5C276.57,120.5,273.37,121.1,270.17,121.5Z"/><path class="cls-15" d="M160.67,116.9a283.67,283.67,0,0,0-31.2,1.1h-.4A238.45,238.45,0,0,0,160.67,116.9Z"/><path class="cls-16" d="M143.87,72.1c3.5,0,7,.1,10.5.1C150.87,72,147.37,72,143.87,72.1Z"/><path class="cls-17" d="M9.17,41.4v.7c24.2-.4,48.5-.9,73.2-1.4C59.27,40.4,33,40.5,9.17,41.4Z"/><path class="cls-18" d="M9,51.1c9.1-.8,20-1.4,27.4-1.3h7.8a322.23,322.23,0,0,1,35.4,2.5l7.2,1a159.34,159.34,0,0,0,35.2.1l7.4-1c9.7-1.3,17.7-2.1,17.8-1.8s8.2,1,18,1.5l6.9.4c9.8.6,25.8.8,35.6.6l6.9-.2c9.8-.3,25.8-.6,35.6-.8l7.4-.1c9.8-.2,25.8-.4,35.7-.4H304c.2-1,.3-1.9.5-2.9-61.1.7-120.3-1.1-183.6-5.6,23-.9,45.5-1.4,67.7-1.7-6.8-.5-13.6-.6-20.5-.7-10,.1-20,.3-29.5.7v.3c-6.5-.1-17.2-.3-30.4-.6a863.32,863.32,0,0,1-99.1,8.2C9.07,49.9,9,50.5,9,51.1Z"/><path class="cls-19" d="M232.27,41c-4-.1-8.2-.1-12.6-.2C223.87,41,228.07,41.1,232.27,41Z"/><path class="cls-20" d="M277.57,119.7c-8.9.9-17.7.7-26.4.5-10.4-.3-20.7-.8-31.2,0-5.1.4-10.1,1-15.1,1.7,23.8.1,48,0,52-.2,4.5-.2,8.9-.3,13.4-.2a81,81,0,0,0,9.6-1.8Z"/><path class="cls-20" d="M161.87,117h-1.1a256.84,256.84,0,0,1-31.6,1.2l-6.7.7c-3.2.4-7.2.7-11.3,1,4.3-.1,8.7-.2,13-.2C136.57,119.4,149.27,119,161.87,117Z"/><path class="cls-20" d="M36.37,120.3c-4.7-.3-11-.4-17.2-.5a10.42,10.42,0,0,0,.5,1.6l.1.1c1.9,0,3.7.1,5.6.1h3.5c3.7-.5,7.4-.9,11.2-1.1Z"/><path class="cls-20" d="M218,60.3c-5.5-.5-11-.9-16.5-1.4-9.5.1-21.4-.3-29.4-.8l-1.2-.1c-4.8.4-9.6,1.1-14.4,1.8-10.2,1.6-20.2,3.6-30.5,4.8a102.75,102.75,0,0,1-31.3-.4c10.2,2.5,21,2.8,31.4,2s20.6-2.4,30.7-3.7,20.2-2.2,30-1.5c9.9.9,20.1,2.1,30.2,2.8,20.2,1.6,40.6,2.6,61.2,2.6,8.9,0,17.9-.2,26.9-.5a10.28,10.28,0,0,0,.1-1.7c-8.9,0-17.8-.3-26.6-.4C258.37,63.2,238.17,61.9,218,60.3Z"/><path class="cls-20" d="M121.17,107.1c-6.7.6-13.2,1.5-20.6.8,6.4,3,14.2,3.5,21.1,2.8,7.1-.7,13.7-2.6,20.6-4.7A143.88,143.88,0,0,0,121.17,107.1Z"/><path class="cls-20" d="M238.47,99.2c20.3-1.6,39.9-.4,59.4.1,1.8-.5,3.8-.8,4.7-2.1a5.36,5.36,0,0,0,.5-1.1c-6.9.1-13.8,0-20.8.1C267.87,96.3,253.17,96.8,238.47,99.2Z"/><path class="cls-20" d="M65.07,62.3A76.88,76.88,0,0,0,41.67,58a133,133,0,0,0-22.8,1.3.37.37,0,0,0,.3.1,21,21,0,0,1,1.4,1.7,5.15,5.15,0,0,0,1.7,1.3C36.17,60.6,50.27,59.5,65.07,62.3Z"/><path class="cls-20" d="M171.67,81.8c-23.7-1.5-48.3-4-73.4-.6,12.6-.6,24.8.2,36.9,1.1s23.9,2.3,36,3.1c24.5,1.2,48.2-2.8,73.3-4.2C219.37,80.1,195.37,82.9,171.67,81.8Z"/><path class="cls-20" d="M303.27,91.1a19.27,19.27,0,0,1,.1-2.4c-3.7.2-7.5.5-11.4,1C295.87,90.3,299.57,90.7,303.27,91.1Z"/><path class="cls-20" d="M48.27,86.8a118.92,118.92,0,0,1,21.8.9,67.71,67.71,0,0,0,12.4-4.4c-11.6,0-21.9-.4-32.3-.8s-20.8-.9-32.4-2a66.5,66.5,0,0,0,17.9,7.2,8.6,8.6,0,0,0,1.6-.1Z"/><path class="cls-20" d="M32.47,99.8c7.8.5,15.7.7,23.6.8a12.9,12.9,0,0,1-4-1.5c-1.5-.9-2.1-1.8-2-2.6-5.5-.7-11-1.3-16.4-2-8.4-1.1-16.8-2.3-25.1-3.5-1.9-.3-3.9-.6-5.9-.9.2.8.3,1.6.5,2.4a25.2,25.2,0,0,1,.5,4.8c1,.1,2.1.2,3.1.4C15.27,98.5,23.87,99.3,32.47,99.8Z"/><path class="cls-20" d="M304,82.4a16.46,16.46,0,0,0,.2-2.1,36,36,0,0,0-10,3.6A37,37,0,0,1,304,82.4Z"/><path class="cls-20" d="M60.87,89.2A93.46,93.46,0,0,0,48,89.1l-2.6.2A73.05,73.05,0,0,0,60.87,89.2Z"/><path class="cls-20" d="M120.87,43.1c63.3,4.5,122.5,6.3,183.6,5.6a20.11,20.11,0,0,0,.2-5.9c-17.2-.6-34.3-1.1-51.4-1.3a.37.37,0,0,0,.3-.1c-6.1-.1-13.3-.3-21.3-.4-4.2.1-8.4,0-12.6-.2-14.3-.2-30.1-.3-46.1-.2a6.52,6.52,0,0,0-3.4,0h-2.1c6.9.1,13.8.3,20.5.7C166.37,41.7,143.87,42.3,120.87,43.1Z"/><path class="cls-20" d="M199.17,89c-12.7.7-25.2,1.8-37.9,2.1a285.81,285.81,0,0,1-38.9-1.8,180.33,180.33,0,0,0,38.5,7.2c13.1,1,26,.5,38.6-.2,25.1-1.5,50.1-2.4,76.9-1.9A287.75,287.75,0,0,0,199.17,89Z"/><path class="cls-20" d="M85.17,100.1c-1.2-.1-2.5-.2-3.7-.4a5.27,5.27,0,0,1-1.5.5C81.67,100.2,83.37,100.2,85.17,100.1Z"/><path class="cls-20" d="M170,104.3c1.8-.4,3.6-.9,5.6-1.4a24.54,24.54,0,0,0-11.6-1.3,97.24,97.24,0,0,0-11,2.2,26,26,0,0,0,11.6,1.4,40.14,40.14,0,0,0,5-.9c43.1,3.4,84.7,5.9,126,7.6,0-.1.1-.2.1-.4a35.16,35.16,0,0,0-.1-6.5C254.57,104.2,213,103.9,170,104.3Z"/><path class="cls-20" d="M257.87,75.9l-7.7-.8a280.13,280.13,0,0,0-35.5-.9l-7.2.4c-9.8.5-17.9,1.3-18,1.8s-8.1-.4-17.7-2l-7.2-1.2a94.74,94.74,0,0,0-10.3-1c-3.5,0-7-.1-10.5-.1a94,94,0,0,0-14.1,1.2l-8,1.4c-9.6,1.7-25.2,1.4-34.7-.5l-8.2-1.7q-1.65-.3-3.6-.6l-37.5.3c28.9,2,57.2,3.7,85.1,5.1s55.6,2.4,83.3,2.7c31.9.3,64.1-.4,96.5-2.7a13.06,13.06,0,0,0-4-1.7c-.8-.2-1.7-.5-2.5-.7l-3,.4A180,180,0,0,1,257.87,75.9Z"/><path class="cls-20" d="M57.17,98.7c1.6,1,6.6,1.3,11.1.6,1.1-.2,2-.3,2.8-.5l-14-1.5C56.37,97.7,56.37,98.2,57.17,98.7Z"/><path class="cls-20" d="M108.17,41.1c-7.8-.1-16.5-.3-25.7-.4-24.7.6-49,1.1-73.2,1.4,0,2.4,0,4.8-.1,7.2A888.56,888.56,0,0,0,108.17,41.1Z"/><path class="cls-21" d="M44.37,108.8c9,.4,24.4.2,34.1-.5l1-.1c9.8-.7,25.7-2,35.5-2.9l1.3-.1c9.7-.9,10.1-3.7.9-6.2l-.3-.1c-9.3-2.6-24.5-6.6-33.8-9a112.74,112.74,0,0,0-12.9-2.3,128.53,128.53,0,0,0-21.8-.9l-11,.8c-.5,0-1.1.1-1.6.1a208.42,208.42,0,0,1-33.7-1.3h-.2c.2,1,.4,2.1.7,3.1,9.3,1.2,16.8,2,16.8,1.9s8.1-.8,17.9-1.5l8.2-.6,2.6-.2a93.46,93.46,0,0,1,12.9.1,116.81,116.81,0,0,1,21.7,3.3l17.8,4.9c9.3,2.6,8.9,5.3-.9,6.1l-21,1.8a277.54,277.54,0,0,1-34,.4c-8.9-.6-23.7-1.5-32.7-2.1-2.5-.1-5.5-.2-8.6-.3A8.75,8.75,0,0,0,5,106.7c2.5.1,4.9.1,6.9.3C20.67,107.6,35.37,108.4,44.37,108.8Z"/><path class="cls-21" d="M257.57,72.8l-7.2-.2c-9.8-.3-25.8-.7-35.6-.8l-6.8-.1a322.48,322.48,0,0,1-35.4-2.7l-7.9-1.1a158.44,158.44,0,0,0-35.1,0L122,69c-9.7,1.4-25.4,1.1-35-.5l-7.8-1.3c-9.6-1.6-25.3-1.8-34.9-.2l-8,1.3c-8.2,1.3-20.9,2.6-30.5,3.2,0,.1-.1.2-.1.3a2.22,2.22,0,0,1-2.5,1.7,1.9,1.9,0,0,0-2.2.9h.3c9.8-.4,25.8-1.5,35.5-2.6L44,71c8.6-1,21.8-.5,31.4.9q1.95.3,3.6.6l8.2,1.7c9.5,1.9,25.1,2.2,34.7.5l8-1.4A96.42,96.42,0,0,1,144,72.1c3.5-.1,7.1-.1,10.5.1a94.74,94.74,0,0,1,10.3,1l7.2,1.2c9.6,1.6,17.6,2.5,17.7,2s8.2-1.3,18-1.8l7.2-.4a280.13,280.13,0,0,1,35.5.9l7.7.8a172.5,172.5,0,0,0,35.2-.7l3-.4c-.8-.2-1.6-.5-2.4-.7-1.4-.4-3-1.2-2.8-2.4,0-.2.2-.4.3-.6A244.51,244.51,0,0,1,257.57,72.8Z"/><path class="cls-21" d="M293.27,51.6c-9.8,0-25.9.2-35.7.4l-7.4.1c-9.8.2-25.8.6-35.6.8l-6.9.2c-9.8.3-25.8,0-35.6-.6l-6.9-.4c-9.8-.6-17.9-1.3-18-1.5s-8.2.5-17.8,1.8l-7.4,1a159.34,159.34,0,0,1-35.2-.1l-7.2-1a320.49,320.49,0,0,0-35.4-2.5h-7.8c-7.4,0-18.3.5-27.4,1.3-.1,1.5-.2,3-.4,4.5a256.63,256.63,0,0,1,28.3-1.1l6.4.2c9.8.4,25.7,1.9,35.3,3.4l8.1,1.3a147.16,147.16,0,0,0,35.1.4l7.8-1.1a219.35,219.35,0,0,1,35.3-1.2l6,.4,1.2.1c7.9.6,19.9.9,29.4.8,2.2,0,4.4,0,6.2-.1l7.2-.2c9.8-.3,25.8-.4,35.6-.4l7.1.1c9.8.1,25.8,0,35.7-.2l7.2-.2c.9,0,2-.1,3-.1,0-.1-.1-.3-.1-.4-.3-1,.1-3.3.6-5.9h-3.6Z"/><path class="cls-21" d="M250.67,113.2c-9.8-.3-17.9-1.1-17.9-1.8s-8.1-.9-17.9-.5l-7.1.3c-9.8.4-25.8.7-35.6.8h-7.1c-9.8.1-17.9.1-17.9.1s-8.1.4-17.9,1l-7.3.4c-9.8.6-25.8,1.3-35.6,1.6l-6.9.2c-9.8.3-25.8.4-35.6.2l-7.3-.1c-5.2-.1-12.1-.1-19,0,.1.2.2.3.3.5.2.4.9,2.4,1.4,4,6.3,0,12.5.2,17.2.5l3.6.2,3.8.2c9.8.6,25.8.9,35.6.6l7.4-.2c6.5-.2,15.8-.7,24.2-1.3,4.2-.3,8.1-.7,11.3-1l6.7-.7h.4a260.93,260.93,0,0,1,31.2-1.1h1.1c1.1,0,2.2.1,3.1.1l7.3.4c9.8.5,25.8.7,35.6.3l6.9-.3c9.8-.4,25.8,0,35.6.7l7.4.6c5.4.4,12.7.7,19.8.9a16.2,16.2,0,0,1,2.2.1h.5c.9-2,1.9-4,4-5.3-8.9-.4-19.2-.8-26.2-1Z"/><path class="cls-21" d="M52.07,99.1a15.25,15.25,0,0,0,4,1.5,56.18,56.18,0,0,0,19,.7,30.33,30.33,0,0,0,4.8-1,13.08,13.08,0,0,0,1.5-.5c2.8-1.2,2.3-2.6-1.9-3.8a81.31,81.31,0,0,0-23-2.2c-3.9.3-6.2,1.3-6.5,2.6Q49.82,97.75,52.07,99.1ZM61,96.4a42.4,42.4,0,0,1,11.1.6c1.8.5,1.3,1.2-1.1,1.8a15.85,15.85,0,0,1-2.8.5c-4.5.6-9.5.4-11.1-.6-.8-.5-.8-1-.1-1.4A8.71,8.71,0,0,1,61,96.4Z"/><path class="cls-22" d="M86,50.3s-3.6-.4-9.6-.9-14.1-.7-23.2-.4S36,50.1,30.07,50.9s-9.5,1.5-9.5,1.5,3.7-.2,9.6-.6,14.1-.7,23-1,17.1-.5,23.1-.5Z"/><path class="cls-6" d="M86,50.3s-3.7-.3-9.6-.5-14.1-.4-23.2-.1-17.2,1-23.1,1.6-9.5,1.1-9.5,1.1,3.5-1,9.4-2a155,155,0,0,1,23.1-2.5,158.13,158.13,0,0,1,23.3,1A90.37,90.37,0,0,1,86,50.3Z"/><path class="cls-22" d="M167.47,59.6s-11.3-.8-25.3-1.4-25.4-.7-25.4-.7a214.68,214.68,0,0,0,25.3,2.6A231.6,231.6,0,0,0,167.47,59.6Z"/><path class="cls-6" d="M167.47,59.6s-11.4-.1-25.4-.7-25.3-1.4-25.3-1.4a217.7,217.7,0,0,1,25.4-.4A229.48,229.48,0,0,1,167.47,59.6Z"/><path class="cls-22" d="M159.27,104s-2.5,0-6.4-.2a96.52,96.52,0,0,1-15.3-2.2A88.75,88.75,0,0,1,123,97.1c-3.6-1.4-5.8-2.5-5.8-2.5a55.19,55.19,0,0,0,5.3,3.3,54,54,0,0,0,14.5,5.4,61.83,61.83,0,0,0,15.7,1.3A42.42,42.42,0,0,0,159.27,104Z"/><path class="cls-6" d="M159.27,104s-2.5.2-6.4.1a81.89,81.89,0,0,1-15.4-1.8A74.18,74.18,0,0,1,123,97.5c-3.5-1.6-5.6-2.8-5.6-2.8s2.3.8,6,2,8.9,2.6,14.6,3.9,11,2.2,15,2.7C156.77,103.7,159.27,104,159.27,104Z"/><path class="cls-22" d="M48.27,97.5S41,98.6,32,100.4s-16.1,3.6-16.1,3.6a94.52,94.52,0,0,0,16.6-1.8A92.84,92.84,0,0,0,48.27,97.5Z"/><path class="cls-6" d="M48.27,97.5s-7.2,1.8-16.1,3.6-16.3,2.9-16.3,2.9a92.84,92.84,0,0,1,15.8-4.7A94.52,94.52,0,0,1,48.27,97.5Z"/><path class="cls-22" d="M101.57,114.3s-10.8.9-24.2,1.2-24.3-.1-24.3-.1,2.7.6,7.1,1.1a136.88,136.88,0,0,0,17.3.9,136.83,136.83,0,0,0,17.2-1.6C98.87,114.9,101.57,114.3,101.57,114.3Z"/><path class="cls-6" d="M101.57,114.3a217.39,217.39,0,0,1-24.2,1.9,204.14,204.14,0,0,1-24.3-.9s11-.7,24.3-1S101.57,114.3,101.57,114.3Z"/><path class="cls-22" d="M215.27,50.3s-3.6-.4-9.6-.9-14.1-.7-23.2-.4-17.2,1.1-23.1,1.9-9.5,1.5-9.5,1.5,3.7-.2,9.6-.6,14.1-.7,23-1,17.1-.5,23.1-.5Z"/><path class="cls-6" d="M215.27,50.3s-3.7-.3-9.6-.5-14.1-.4-23.2-.1-17.2,1-23.1,1.6-9.5,1.1-9.5,1.1,3.5-1,9.4-2a155,155,0,0,1,23.1-2.5,158.13,158.13,0,0,1,23.3,1A90.37,90.37,0,0,1,215.27,50.3Z"/><path class="cls-22" d="M296.77,59.6s-11.3-.8-25.3-1.4-25.4-.7-25.4-.7a214.68,214.68,0,0,0,25.3,2.6A230.34,230.34,0,0,0,296.77,59.6Z"/><path class="cls-6" d="M296.77,59.6s-11.4-.1-25.4-.7-25.3-1.4-25.3-1.4a217.7,217.7,0,0,1,25.4-.4A229.48,229.48,0,0,1,296.77,59.6Z"/><path class="cls-22" d="M288.57,104s-2.5,0-6.4-.2a96.52,96.52,0,0,1-15.3-2.2,88.75,88.75,0,0,1-14.6-4.5c-3.6-1.4-5.8-2.5-5.8-2.5a55.19,55.19,0,0,0,5.3,3.3,54,54,0,0,0,14.5,5.4,61.83,61.83,0,0,0,15.7,1.3A40.51,40.51,0,0,0,288.57,104Z"/><path class="cls-6" d="M288.57,104s-2.5.2-6.4.1a81.89,81.89,0,0,1-15.4-1.8,74.18,74.18,0,0,1-14.5-4.8c-3.5-1.6-5.6-2.8-5.6-2.8s2.3.8,6,2,8.9,2.6,14.6,3.9,11,2.2,15,2.7C286.07,103.7,288.57,104,288.57,104Z"/><path class="cls-22" d="M230.87,114.3s-10.8.9-24.2,1.2-24.3-.1-24.3-.1,2.7.6,7.1,1.1a136.88,136.88,0,0,0,17.3.9,136.83,136.83,0,0,0,17.2-1.6C228.27,114.9,230.87,114.3,230.87,114.3Z"/><path class="cls-6" d="M230.87,114.3a217.39,217.39,0,0,1-24.2,1.9,204.14,204.14,0,0,1-24.3-.9s11-.7,24.3-1S230.87,114.3,230.87,114.3Z"/></g></g></svg>