<svg xmlns="http://www.w3.org/2000/svg" xmlns:xlink="http://www.w3.org/1999/xlink" viewBox="0 0 317.16 157.58"><defs><style>.cls-1{fill:none;}.cls-2{isolation:isolate;}.cls-3{clip-path:url(#clip-path);}.cls-4{fill:url(#linear-gradient);}.cls-5{opacity:0.25;mix-blend-mode:overlay;}.cls-6{clip-path:url(#clip-path-2);}.cls-7{clip-path:url(#clip-path-3);}.cls-8{fill:url(#linear-gradient-2);}.cls-9{clip-path:url(#clip-path-4);}.cls-10{fill:url(#linear-gradient-3);}.cls-11{clip-path:url(#clip-path-5);}.cls-12{fill:url(#linear-gradient-4);}.cls-13{fill:#8ea8ce;}.cls-14{clip-path:url(#clip-path-6);}.cls-15{fill:url(#linear-gradient-5);}.cls-16{fill:#a0b0d3;}.cls-17{fill:#dde8f7;}.cls-18{clip-path:url(#clip-path-7);}.cls-19{fill:url(#linear-gradient-6);}.cls-20{clip-path:url(#clip-path-8);}.cls-21{fill:url(#linear-gradient-7);}.cls-22{opacity:0.5;}.cls-23{clip-path:url(#clip-path-9);}.cls-24{clip-path:url(#clip-path-10);}.cls-25{fill:url(#linear-gradient-8);}.cls-26{clip-path:url(#clip-path-11);}.cls-27{clip-path:url(#clip-path-12);}.cls-28{fill:url(#linear-gradient-9);}.cls-29{opacity:0.35;}.cls-30{clip-path:url(#clip-path-13);}.cls-31{clip-path:url(#clip-path-14);}.cls-32{fill:url(#linear-gradient-10);}.cls-33{fill:#f1f2f2;}.cls-34{clip-path:url(#clip-path-15);}.cls-35{fill:url(#radial-gradient);}.cls-36{clip-path:url(#clip-path-16);}.cls-37{fill:url(#radial-gradient-2);}.cls-38{clip-path:url(#clip-path-17);}.cls-39{fill:url(#radial-gradient-3);}.cls-40{clip-path:url(#clip-path-18);}.cls-41{fill:url(#radial-gradient-4);}.cls-42{clip-path:url(#clip-path-19);}.cls-43{fill:url(#radial-gradient-5);}.cls-44{clip-path:url(#clip-path-20);}.cls-45{fill:url(#radial-gradient-6);}.cls-46{clip-path:url(#clip-path-21);}.cls-47{fill:url(#radial-gradient-7);}.cls-48{clip-path:url(#clip-path-22);}.cls-49{fill:url(#radial-gradient-8);}</style><clipPath id="clip-path"><path class="cls-1" d="M65.56,6S21.86,29.79,0,43c0,0,1.36,9.62,2.66,22.68,2,19.78,3.85,47.45.66,61.41,0,0,37.74,21.18,50.33,30.45,0,0,37.73-4,58.25-2.65,0,0,31.51-12.48,89.95-7.35l.77.07,2.76-1.32c3.42-1.63,9.81-4.63,17.86-8.36,27.85-12.82,75.67-34.16,89.94-36l4-15.9-.07-.66-.71-8.72-1.22-15.12L194.67,0S123.83,13.91,65.56,6"/></clipPath><linearGradient id="linear-gradient" x1="3592.05" y1="4863.39" x2="3593.05" y2="4863.39" gradientTransform="matrix(0, 157.58, 157.58, 0, -766205.76, -566028.08)" gradientUnits="userSpaceOnUse"><stop offset="0" stop-color="#dce7f6"/><stop offset="0.01" stop-color="#dce7f6"/><stop offset="0.99" stop-color="#b6c6e2"/><stop offset="1" stop-color="#b6c6e2"/></linearGradient><clipPath id="clip-path-2"><rect class="cls-1" width="317.16" height="137.97"/></clipPath><clipPath id="clip-path-3"><path class="cls-1" d="M2.66,65.72C1.36,52.66,0,43,0,43,21.86,29.79,65.56,6,65.56,6c58.27,8,129.11-6,129.11-6L315.16,61.57l1.22,15.12.71,8.72.07.66-4,15.9c-14.27,1.84-62.09,23.18-89.94,36C200.91,62,64.81,60.52,2.66,65.72"/></clipPath><linearGradient id="linear-gradient-2" x1="3589.89" y1="4859.83" x2="3590.89" y2="4859.83" gradientTransform="matrix(0, 137.97, 137.97, 0, -670373.01, -495312.46)" gradientUnits="userSpaceOnUse"><stop offset="0" stop-color="#fff"/><stop offset="0.02" stop-color="#fff"/><stop offset="0.75" stop-color="#c9d5e9"/><stop offset="0.99" stop-color="#b6c6e2"/><stop offset="1" stop-color="#b6c6e2"/></linearGradient><clipPath id="clip-path-4"><path class="cls-1" d="M65.56,6s-.36.21-1,.56C57.81,10.2,19.88,31,0,43c0,0,.1.71.27,2C1.71,55.81,8,106.46,3.32,127.13l.8.44c5.47,3.1,38,21.54,49.53,30,21.18-28.47-35.1-31.13-35-31.16,10-6.09,14.28-14.37,15.36-23.08C36.57,82.8,21.2,60.25,21.2,60.25h.47c32.08.24,50.52-9.13,61-18.51S95.4,23.2,95.45,23.23c1.32.54,15.64,6.35,50.88,15.17C181.28,47.14,198.58,30,200.45,28a1.73,1.73,0,0,0,.17-.19s6.62,11.26,21.85,19.2S278.08,55.61,294,58.93c13,2.69,20.19,13.76,22.4,17.76l-1.22-15.12L195.3.32,194.67,0S123.83,13.91,65.56,6"/></clipPath><linearGradient id="linear-gradient-3" x1="3592.05" y1="4863.39" x2="3593.05" y2="4863.39" gradientTransform="matrix(0, 157.58, 157.58, 0, -766206.15, -566028.08)" gradientUnits="userSpaceOnUse"><stop offset="0" stop-color="#cbd8ed"/><stop offset="1" stop-color="#a0b0d3"/></linearGradient><clipPath id="clip-path-5"><path class="cls-1" d="M286,95.78c-19.37,0-61,2.1-80.65,50.56,15.28-7.25,89.42-42,107.8-44.38l4-15.89,0-.66C311.43,89.3,299.92,95.78,286,95.78"/></clipPath><linearGradient id="linear-gradient-4" x1="3567.99" y1="4823.65" x2="3568.99" y2="4823.65" gradientTransform="matrix(0, 60.93, 60.93, 0, -293624.93, -217297.96)" gradientUnits="userSpaceOnUse"><stop offset="0" stop-color="#8ea8ce"/><stop offset="0.01" stop-color="#8ea8ce"/><stop offset="0.34" stop-color="#89a2c9"/><stop offset="0.76" stop-color="#7a92bc"/><stop offset="0.99" stop-color="#6f87b3"/><stop offset="1" stop-color="#6f87b3"/></linearGradient><clipPath id="clip-path-6"><path class="cls-1" d="M65.56,6s-.36.21-1,.56L95.45,23.23c2.91,1.64,70.86,38.33,106.76,6.84L195.3.32,194.67,0S123.83,13.91,65.56,6"/></clipPath><linearGradient id="linear-gradient-5" x1="3578.55" y1="4905.74" x2="3579.55" y2="4905.74" gradientTransform="matrix(137.69, 0, 0, -137.69, -492651.77, 675483.2)" gradientUnits="userSpaceOnUse"><stop offset="0" stop-color="#bdcae4"/><stop offset="0.01" stop-color="#bdcae4"/><stop offset="0.34" stop-color="#b1c1de"/><stop offset="0.95" stop-color="#91aad0"/><stop offset="1" stop-color="#8ea8ce"/></linearGradient><clipPath id="clip-path-7"><path class="cls-1" d="M186.11,119.45c0,4.66,3.51,8.44,7.84,8.44s7.84-3.78,7.84-8.44S198.28,111,194,111s-7.84,3.77-7.84,8.43"/></clipPath><linearGradient id="linear-gradient-6" x1="3465.57" y1="4654.49" x2="3466.57" y2="4654.49" gradientTransform="matrix(0, 16.87, 16.87, 0, -78344.45, -58365.8)" gradientUnits="userSpaceOnUse"><stop offset="0" stop-color="#6f87b3"/><stop offset="0.01" stop-color="#6f87b3"/><stop offset="0.24" stop-color="#7a92bc"/><stop offset="0.66" stop-color="#89a2c9"/><stop offset="0.99" stop-color="#8ea8ce"/><stop offset="1" stop-color="#8ea8ce"/></linearGradient><clipPath id="clip-path-8"><path class="cls-1" d="M165.42,100.82A3.55,3.55,0,1,0,169,97a3.68,3.68,0,0,0-3.54,3.82"/></clipPath><linearGradient id="linear-gradient-7" x1="3293.74" y1="4370.71" x2="3294.74" y2="4370.71" gradientTransform="matrix(0, 7.62, 7.62, 0, -33157.03, -25017.28)" xlink:href="#linear-gradient-6"/><clipPath id="clip-path-9"><rect class="cls-1" x="115.85" y="51.25" width="18.1" height="19.49"/></clipPath><clipPath id="clip-path-10"><path class="cls-1" d="M124.9,70.74c-5,0-9.05-4.36-9.05-9.74s4.06-9.75,9.05-9.75,9,4.37,9,9.75-4,9.74-9,9.74"/></clipPath><linearGradient id="linear-gradient-8" x1="3484.55" y1="4685.85" x2="3485.55" y2="4685.85" gradientTransform="matrix(0, 19.49, 19.49, 0, -91180.99, -67846.78)" xlink:href="#linear-gradient-6"/><clipPath id="clip-path-11"><rect class="cls-1" x="98" y="79.21" width="11.02" height="11.86"/></clipPath><clipPath id="clip-path-12"><path class="cls-1" d="M103.51,91.07A5.95,5.95,0,1,1,109,85.14a5.73,5.73,0,0,1-5.51,5.93"/></clipPath><linearGradient id="linear-gradient-9" x1="3405.69" y1="4555.61" x2="3406.69" y2="4555.61" gradientTransform="matrix(0, 11.86, 11.86, 0, -53928.74, -40314.36)" xlink:href="#linear-gradient-6"/><clipPath id="clip-path-13"><rect class="cls-1" x="197.97" y="46.59" width="11.02" height="11.86"/></clipPath><clipPath id="clip-path-14"><path class="cls-1" d="M203.48,58.46A5.95,5.95,0,1,1,209,52.53a5.74,5.74,0,0,1-5.51,5.93"/></clipPath><linearGradient id="linear-gradient-10" x1="3405.69" y1="4555.61" x2="3406.69" y2="4555.61" gradientTransform="matrix(0, 11.86, 11.86, 0, -53828.77, -40346.98)" xlink:href="#linear-gradient-6"/><clipPath id="clip-path-15"><path class="cls-1" d="M72.3,57.92l4.84.57-4.84.43V61.2q3.06.28,6.12.36t6.12.35L72.3,62.2v5.12l6,.43-6,1.06v3.56l11.32-.49-2.78,36.51,3.78-.21,1-17.37.14,17.29,3.49-.14.5-5.83.71,5.76,2.42-.14L93.65,67l1,40.72,3.35-.15-.43-44.41,18.93.71-.07-5.41-15-.71c2.56,0,5.07-.07,7.51-.21s5-.24,7.51-.29l-.07-2.13-44.06-.5Z"/></clipPath><radialGradient id="radial-gradient" cx="3681.12" cy="4932.73" r="1" gradientTransform="matrix(0, -53.56, -53.56, 0, 264354.98, 197328.99)" gradientUnits="userSpaceOnUse"><stop offset="0" stop-color="#e5a32f"/><stop offset="0.02" stop-color="#e5a32f"/><stop offset="0.16" stop-color="#e49f2f"/><stop offset="0.29" stop-color="#e0952d"/><stop offset="0.41" stop-color="#da822b"/><stop offset="0.52" stop-color="#d36c28"/><stop offset="0.69" stop-color="#d06b28"/><stop offset="0.84" stop-color="#c56728"/><stop offset="0.98" stop-color="#b36127"/><stop offset="1" stop-color="#af6027"/></radialGradient><clipPath id="clip-path-16"><path class="cls-1" d="M136.86,96.72c1.71-.24,3.44-.4,5.19-.47s3.52-.15,5.27-.25l-.28.72-10.18.21ZM113,58.64l-.14,3.56,8.76.56-8.76.72-.07,2.2L114.86,67H112.8l-.14,4.35,6-1-1.28,32.1,3.7.07q-.15-6.4.1-12.77t.18-12.85l.86,25.62h1.63l.5-6.4.64,6.47,22.35.43.57-2.63q-3.84.21-7.76.07c-2.61-.1-5.22-.14-7.83-.14,2.61-.24,5.24-.4,7.87-.47s5.25-.17,7.86-.32l1.78-7.9-19.57,2.28.14-11,9.11.35V82.05L137,81.34a2,2,0,0,0,1.21-.1,3.8,3.8,0,0,1,1.28-.25V79l-9.61-.42c1.66-.1,3.28-.22,4.84-.36s3.18-.26,4.84-.36l.07-5.19L126.4,74.51v-8l20.78.71.28-2.28-2.31-.28-2.38-.29,2.42-.14,2.42-.14.28-1.85q-3.55,0-7-.29c-2.32-.19-4.67-.35-7-.5,2.42,0,4.79-.08,7.11-.1s4.7-.09,7.12-.18l.43-3.13Z"/></clipPath><radialGradient id="radial-gradient-2" cx="3681.12" cy="4932.73" r="1" gradientTransform="matrix(0, -53.56, -53.56, 0, 264358.66, 197311.88)" xlink:href="#radial-gradient"/><clipPath id="clip-path-17"><path class="cls-1" d="M171.52,61.77l.21,4.91.65-.07,2.13,16.08-2.92-.28-6.26-.5c0,1,0,1.89-.07,2.81a27.33,27.33,0,0,1-.29,2.74,13.87,13.87,0,0,0-.14-2.81,18.69,18.69,0,0,1-.21-2.81l-1.93-.14,1.71-14,5.91-.79V65.18a6,6,0,0,1,.25.75,1.5,1.5,0,0,0,.39.68ZM159.45,63.3q-1,5.52-2,11.07.78-5.55,1.56-11.07t1.43-11.07h-1.36L151,96.5l-9.4-.85.5,2.77,3,.15a4.65,4.65,0,0,1-1.35.49,8.53,8.53,0,0,0-1.42.43l.14.93,5.48.14,5.48.14-10.75.57.43,2.35,15.09-.14-.5-14.59,10.54-.22L167.61,108l4.91-.5q-.21-6.25-.47-12.52t-.46-12.6q.57,6.27,1.07,12.46t.71,12.52l2.49-.21-.57-8.61c.24,1.47.51,2.89.82,4.27s.58,2.77.82,4.2l5.41-.5L178.78,61l6.05.35.14-2.85a6.38,6.38,0,0,1-1.28-.42,6.85,6.85,0,0,0-1.35-.43,5.08,5.08,0,0,0,1.42,0c.43-.07.86-.13,1.28-.17l.15-1.43-11.46-.5,11.53-.42.14-2.71-18.29-.07-2.64.93-.35-.93-2.64-.07q-1,5.55-2,11.07"/></clipPath><radialGradient id="radial-gradient-3" cx="3681.12" cy="4932.73" r="1" gradientTransform="matrix(0, -53.56, -53.56, 0, 264362.33, 197296.58)" xlink:href="#radial-gradient"/><clipPath id="clip-path-18"><path class="cls-1" d="M203.2,79.78l-.43-1.93-3.21-9.46,1.71,2.35-2.84-13.1-6.41.14-.36,4.77-1.06-4.7H189q-.08,4.2,0,8.44c0,2.82,0,5.63-.1,8.43-.29-2.75-.51-5.53-.68-8.32s-.37-5.63-.6-8.48H186l-.29,45.91,5.77.36c.1-2.71.15-5.43.18-8.19s.11-5.48.25-8.18l.85,16.51,2.21.14.35-26.4,5.55,16.37,3.85-6.34v.5L203,92.3c-.57,1.24-1.11,2.49-1.64,3.78l1.14,3.34q3.21-6.69,6.41-13.45t6.48-13.53q-3.06,7.34-6.05,14.56t-6.12,14.56l2.27,6.76L219.21,79.7l-5.55,34.88,16.94-.14.71-2.28c-1.76-.09-3.55-.18-5.37-.25s-3.62-.2-5.38-.39a32.71,32.71,0,0,1,5.41-.28c1.9,0,3.77,0,5.63-.07l.21-.72h-.07a4,4,0,0,0-1.21-.49l-1.28-.29a5,5,0,0,1,1.38-.25c.5,0,1-.06,1.53-.11l1.07-3.41-10.39.14,3.2-48c-.47.66-1,1.32-1.46,2s-1,1.3-1.46,2l3.07-6.12.28-4.2-5.41-.35-6.41,11c.72-1.8,1.52-3.64,2.42-5.52s1.71-3.73,2.43-5.59L216.15,51Z"/></clipPath><radialGradient id="radial-gradient-4" cx="3681.12" cy="4932.73" r="1" gradientTransform="matrix(0, -53.56, -53.56, 0, 264369.13, 197275.1)" xlink:href="#radial-gradient"/><clipPath id="clip-path-19"><path class="cls-1" d="M72.3,55.92l4.84.57-4.84.43V59.2q3.06.28,6.12.36t6.12.35L72.3,60.2v5.12l6,.43-6,1.06v3.56l11.32-.49-2.78,36.51,3.78-.21,1-17.37.14,17.29,3.49-.14.5-5.83.71,5.76,2.42-.14L93.65,65l1,40.72,3.35-.14-.43-44.42,18.93.71-.07-5.41-15-.71c2.56,0,5.07-.07,7.51-.21s5-.24,7.51-.29l-.07-2.13-44.06-.5Z"/></clipPath><radialGradient id="radial-gradient-5" cx="3590.19" cy="4889.74" r="1" gradientTransform="matrix(0, 270.2, 270.2, 0, -1321076.01, -970074.98)" xlink:href="#radial-gradient"/><clipPath id="clip-path-20"><path class="cls-1" d="M136.86,94.72c1.71-.24,3.44-.4,5.19-.47s3.52-.15,5.27-.25l-.28.72-10.18.21ZM113,56.64l-.14,3.56,8.76.56-8.76.72-.07,2.2L114.86,65H112.8l-.14,4.34,6-1-1.28,32.1,3.7.07q-.15-6.4.1-12.77t.18-12.85l.86,25.62h1.63l.5-6.4.64,6.47,22.35.43.57-2.63q-3.84.21-7.76.07c-2.61-.1-5.22-.14-7.83-.14,2.61-.24,5.24-.4,7.87-.47s5.25-.17,7.86-.32l1.78-7.9-19.57,2.28.14-11,9.11.35V80.05L137,79.34a2,2,0,0,0,1.21-.1,3.8,3.8,0,0,1,1.28-.25V77l-9.61-.42c1.66-.1,3.28-.22,4.84-.36s3.18-.26,4.84-.36l.07-5.19L126.4,72.51v-8l20.78.71.28-2.28-2.31-.28-2.38-.29,2.42-.14,2.42-.14.28-1.85q-3.55,0-7-.29c-2.32-.19-4.67-.35-7-.5,2.42,0,4.79-.08,7.11-.1s4.7-.09,7.12-.18l.43-3.13Z"/></clipPath><radialGradient id="radial-gradient-6" cx="3590.19" cy="4889.74" r="1" gradientTransform="matrix(0, 270.2, 270.2, 0, -1321060.54, -970103.04)" xlink:href="#radial-gradient"/><clipPath id="clip-path-21"><path class="cls-1" d="M171.52,59.77l.21,4.91.65-.07,2.13,16.08-2.92-.28-6.26-.5c0,1,0,1.89-.07,2.81a27.33,27.33,0,0,1-.29,2.74,13.87,13.87,0,0,0-.14-2.81,18.69,18.69,0,0,1-.21-2.81l-1.93-.14,1.71-14,5.91-.79V63.18a6,6,0,0,1,.25.75,1.5,1.5,0,0,0,.39.68ZM159.45,61.3c-.68,3.68-1.36,7.36-2,11.07.52-3.71,1-7.39,1.56-11.07s1-7.37,1.43-11.07h-1.36L151,94.5l-9.4-.85.5,2.77,3,.15a4.65,4.65,0,0,1-1.35.49,8.53,8.53,0,0,0-1.42.43l.14.93,5.48.14,5.48.14-10.75.57.43,2.35,15.09-.14-.5-14.59,10.54-.22L167.61,106l4.91-.49q-.21-6.27-.47-12.53t-.46-12.6q.57,6.27,1.07,12.46t.71,12.52l2.49-.21-.57-8.61c.24,1.47.51,2.89.82,4.27s.58,2.77.82,4.2l5.41-.5L178.78,59l6.05.35.14-2.85a6.38,6.38,0,0,1-1.28-.42,6.85,6.85,0,0,0-1.35-.43,5.08,5.08,0,0,0,1.42,0c.43-.07.86-.13,1.28-.17l.15-1.43-11.46-.5,11.53-.42.14-2.71-18.29-.07-2.64.93-.35-.93-2.64-.07q-1,5.55-2,11.07"/></clipPath><radialGradient id="radial-gradient-7" cx="3590.19" cy="4889.74" r="1" gradientTransform="matrix(0, 270.2, 270.2, 0, -1321040.33, -970136.02)" xlink:href="#radial-gradient"/><clipPath id="clip-path-22"><path class="cls-1" d="M203.2,77.78l-.43-1.93-3.21-9.46,1.71,2.35-2.84-13.1-6.41.14-.36,4.77-1.06-4.7H189q-.08,4.2,0,8.44c0,2.82,0,5.63-.1,8.43-.29-2.75-.51-5.53-.68-8.32s-.37-5.63-.6-8.48H186l-.29,45.91,5.77.36c.1-2.71.15-5.43.18-8.19s.11-5.48.25-8.18l.85,16.51,2.21.14.35-26.4,5.55,16.37,3.85-6.34v.5L203,90.3c-.57,1.24-1.11,2.49-1.64,3.78l1.14,3.34q3.21-6.69,6.41-13.45t6.48-13.53q-3.06,7.34-6.05,14.56T203.2,99.56l2.27,6.76L219.21,77.7l-5.55,34.88,16.94-.14.71-2.28c-1.76-.09-3.55-.18-5.37-.25s-3.62-.2-5.38-.39a32.71,32.71,0,0,1,5.41-.28c1.9,0,3.77,0,5.63-.08l.21-.71h-.07a4.24,4.24,0,0,0-1.21-.5l-1.28-.28a5,5,0,0,1,1.38-.25c.5,0,1-.06,1.53-.11l1.07-3.41-10.39.14,3.2-48c-.47.66-1,1.32-1.46,2s-1,1.3-1.46,2l3.07-6.12.28-4.2-5.41-.35-6.41,11c.72-1.81,1.52-3.64,2.42-5.52s1.71-3.74,2.43-5.59L216.15,49Z"/></clipPath><radialGradient id="radial-gradient-8" cx="3590.19" cy="4889.74" r="1" gradientTransform="matrix(0, 270.2, 270.2, 0, -1321010.19, -970179.05)" xlink:href="#radial-gradient"/></defs><title>Asset 3</title><g class="cls-2"><g id="Layer_2" data-name="Layer 2"><g id="Layer_1-2" data-name="Layer 1"><g class="cls-3"><rect class="cls-4" width="317.16" height="157.58"/></g><g class="cls-5"><g class="cls-6"><g class="cls-7"><rect class="cls-8" width="317.16" height="137.97"/></g></g></g><g class="cls-9"><rect class="cls-10" width="316.38" height="157.58"/></g><g class="cls-11"><rect class="cls-12" x="205.38" y="85.41" width="111.77" height="60.93"/></g><path class="cls-13" d="M4.12,127.57l-.8-.44C8,106.46,1.71,55.81.27,45.07l21.4,15.18.65.46S37.92,88.58,34,103.34c0,.14,0,.22-.06.31A31.51,31.51,0,0,1,18.6,126.42c-.05,0-14.48,1.15-14.48,1.15"/><g class="cls-14"><rect class="cls-15" x="64.52" width="137.69" height="61.56"/></g><path class="cls-16" d="M111.9,154.93c24.91-23,93.48-8.6,93.48-8.6l-3.53,1.25c-58.44-5.13-89.95,7.35-89.95,7.35"/><path class="cls-17" d="M256.85,54.43s-34.31.85-54.64-24.35c0,0-26.51,32.9-106.76-6.85,0,0,73.08,44.12,106.34,10,0,0,14,23.51,55.06,21.18"/><path class="cls-17" d="M95.45,23.23s-4,34.65-73.13,37.48c0,0,63.37,10.32,73.13-37.48"/><g class="cls-18"><rect class="cls-19" x="186.11" y="111.02" width="15.67" height="16.87"/></g><g class="cls-20"><rect class="cls-21" x="165.42" y="97" width="7.08" height="7.63"/></g><g class="cls-22"><g class="cls-23"><g class="cls-24"><rect class="cls-25" x="115.85" y="51.25" width="18.1" height="19.49"/></g></g></g><g class="cls-22"><g class="cls-26"><g class="cls-27"><rect class="cls-28" x="98" y="79.21" width="11.02" height="11.86"/></g></g></g><g class="cls-29"><g class="cls-30"><g class="cls-31"><rect class="cls-32" x="197.97" y="46.6" width="11.02" height="11.86"/></g></g></g><polygon class="cls-33" points="72.79 82.36 62.3 82.82 62.3 44.47 126.04 45.19 126.16 48.87 126.3 48.88 126.4 56.16 126.76 67.02 126.55 67.03 126.64 74.22 107.67 73.51 108.09 117.11 98.46 117.53 98.45 117.6 89.7 117.95 81.68 118.42 81.67 118.36 70.01 119.02 72.79 82.36"/><polygon class="cls-33" points="131.28 112.75 131.28 112.75 120.96 112.55 112.52 112.55 112.52 112.39 106.96 112.28 108.15 82.27 102.26 83.25 102.64 71.55 102.49 71.54 103.08 56.68 103.16 54.23 103.18 54.23 103.4 48.79 159.95 47.88 159.35 52.27 159.55 52.27 157.75 63.97 156.84 70.56 155.97 77.56 149.57 77.34 149.51 81.63 162.67 80.1 158.87 96.96 155.36 113.2 131.28 112.75"/><polygon class="cls-33" points="157.44 113.48 134.72 113.7 134.08 110.21 133.81 110.2 132.53 101.95 129.39 84.5 142.76 85.72 150.73 42.23 153.12 42.23 153.16 42 161.62 42.23 171.63 42.23 171.63 42.32 195.93 42.41 195.72 46.45 196.18 46.47 195.21 56.25 194.76 64.73 194.67 64.73 194.31 71.92 189.64 71.64 193.08 115.59 186.48 116.2 186.49 116.31 177.8 117.05 157.28 119.13 157.44 113.48"/><polygon class="cls-33" points="197.05 114.63 183.21 113.74 183.2 113.7 175.63 113.23 176.03 47.92 179.2 47.92 179.2 47.85 188.73 47.85 206.45 47.46 206.56 47.97 209.88 40.6 215.5 40.96 215.53 40.92 225.5 41.58 238.37 23.5 237.11 42.34 237.13 42.34 236.38 53.34 233.54 95.89 246.89 95.71 244.65 102.87 244.68 102.88 240.49 116.3 239.14 120.79 239.09 120.8 237.97 124.38 208.74 124.62 203.84 134.82 197.05 114.63"/><g class="cls-34"><rect class="cls-35" x="62.29" y="47.37" width="64.23" height="68.23" transform="translate(-27.14 53.59) rotate(-27.88)"/></g><g class="cls-36"><rect class="cls-37" x="104.3" y="51.99" width="53.88" height="57.14" transform="translate(-22.44 70.71) rotate(-27.88)"/></g><g class="cls-38"><rect class="cls-39" x="131.05" y="45.22" width="64.85" height="69.83" transform="translate(-18.5 85.73) rotate(-27.88)"/></g><g class="cls-40"><rect class="cls-41" x="173.58" y="43.59" width="71.75" height="78.42" transform="translate(-14.41 107.54) rotate(-27.88)"/></g><g class="cls-42"><rect class="cls-43" x="60.41" y="47.61" width="67.98" height="63.75" transform="translate(-19.16 127.79) rotate(-63.14)"/></g><g class="cls-44"><rect class="cls-45" x="102.78" y="51.82" width="56.92" height="53.47" transform="translate(1.85 160.14) rotate(-63.14)"/></g><g class="cls-46"><rect class="cls-47" x="128.68" y="45.97" width="69.59" height="64.33" transform="translate(19.91 188.67) rotate(-63.14)"/></g><g class="cls-48"><rect class="cls-49" x="170.36" y="45.23" width="78.19" height="71.14" transform="translate(42.73 231.15) rotate(-63.14)"/></g></g></g></g></svg>