<svg xmlns="http://www.w3.org/2000/svg" viewBox="0 0 42.24 44.44"><defs><style>.cls-1{fill:#e8225a;}</style></defs><title>tron</title><g id="Layer_2" data-name="Layer 2"><g id="Layer_1-2" data-name="Layer 1"><path class="cls-1" d="M17.83,44.43a1,1,0,0,1-.58-.64c-.17-.41-.31-.84-.47-1.25-.91-2.27-1.8-4.54-2.73-6.79q-3.3-8-6.63-15.92c-2-4.83-4-9.66-5.95-14.54C1,4.06.5,2.83.07,1.59A1.21,1.21,0,0,1,.9,0a1.39,1.39,0,0,1,.45,0L4.16.52l3,.54,3.49.63,3.94.72,3.79.7,3.93.73,3.73.69L30,5.26l3.42.64a1.71,1.71,0,0,1,.78.4c.52.45,1,.9,1.54,1.37q2.57,2.45,5.11,4.91l.88.83a1.66,1.66,0,0,1,.54,1.39.62.62,0,0,1-.07.23,10.08,10.08,0,0,1-1.09,1.5c-2.25,2.75-4.49,5.51-6.75,8.26L26.05,34.86l-6.59,8c-.33.41-.67.81-1,1.21a3.7,3.7,0,0,1-.42.37Zm-.11-7.13h0c0-.16,0-.31.05-.47.09-.79.19-1.59.28-2.38s.18-1.59.28-2.38.19-1.59.28-2.38.17-1.46.25-2.19.19-1.59.28-2.38.17-1.46.25-2.19.19-1.59.28-2.38.18-1.59.28-2.38a.19.19,0,0,0-.07-.19l-7.25-6.15L4.55,4.93l-.07,0h0Q11.08,21.09,17.72,37.3Zm2.67,0,0,0L37.66,16.52l0,0-.58.09-3.24.52-3.1.5-3,.48-3.11.5-2,.32a.13.13,0,0,0-.13.13c0,.39-.09.79-.14,1.18l-.24,2c-.08.65-.15,1.31-.23,2l-.24,2c-.08.66-.16,1.32-.23,2s-.15,1.32-.23,2-.15,1.32-.23,2l-.24,2c-.08.66-.16,1.32-.23,2C20.48,36.48,20.43,36.88,20.39,37.28ZM6.49,3.64v0L21.23,15.75,30.37,8ZM33.14,9.09l-8.56,7.1v0l13.59-2.47Z"/></g></g></svg>