<?xml version="1.0" encoding="utf-8"?>
<!-- Generator: Adobe Illustrator 24.0.0, SVG Export Plug-In . SVG Version: 6.00 Build 0)  -->
<svg version="1.1" xmlns="http://www.w3.org/2000/svg" xmlns:xlink="http://www.w3.org/1999/xlink" x="0px" y="0px"
	 viewBox="0 0 960.26 32.24" style="enable-background:new 0 0 960.26 32.24;" xml:space="preserve">
<style type="text/css">
	.st0{fill:#914520;}
	.st1{fill:#7A3718;}
	.st2{fill:url(#SVGID_3_);}
	.st3{fill:url(#SVGID_4_);}
	.st4{fill:url(#SVGID_5_);}
	.st5{fill:url(#SVGID_6_);}
	.st6{fill:url(#SVGID_7_);}
	.st7{fill:url(#SVGID_8_);}
	.st8{fill:url(#SVGID_9_);}
	.st9{fill:url(#SVGID_10_);}
	.st10{fill:url(#SVGID_11_);}
	.st11{fill:url(#SVGID_12_);}
	.st12{fill:url(#SVGID_13_);}
	.st13{fill:url(#SVGID_14_);}
	.st14{fill:url(#SVGID_15_);}
	.st15{fill:url(#SVGID_16_);}
	.st16{fill:url(#SVGID_17_);}
	.st17{fill:url(#SVGID_18_);}
	.st18{fill:url(#SVGID_19_);}
	.st19{fill:url(#SVGID_20_);}
	.st20{fill:url(#SVGID_21_);}
	.st21{fill:url(#SVGID_22_);}
	.st22{fill:url(#SVGID_23_);}
	.st23{fill:url(#SVGID_24_);}
	.st24{fill:url(#SVGID_25_);}
	.st25{fill:url(#SVGID_26_);}
	.st26{fill:url(#SVGID_27_);}
	.st27{fill:url(#SVGID_28_);}
	.st28{fill:url(#SVGID_29_);}
	.st29{fill:url(#SVGID_30_);}
	.st30{fill:url(#SVGID_31_);}
	.st31{fill:url(#SVGID_32_);}
	.st32{fill:url(#SVGID_33_);}
	.st33{fill:url(#SVGID_34_);}
	.st34{fill:url(#SVGID_35_);}
	.st35{fill:url(#SVGID_36_);}
	.st36{fill:url(#SVGID_37_);}
	.st37{fill:url(#SVGID_38_);}
	.st38{fill:url(#SVGID_39_);}
	.st39{fill:url(#SVGID_40_);}
	.st40{fill:url(#SVGID_41_);}
	.st41{fill:url(#SVGID_42_);}
	.st42{fill:url(#SVGID_43_);}
	.st43{fill:url(#SVGID_44_);}
	.st44{fill:url(#SVGID_45_);}
	.st45{fill:url(#SVGID_46_);}
	.st46{fill:url(#SVGID_47_);}
	.st47{fill:url(#SVGID_48_);}
	.st48{fill:url(#SVGID_49_);}
	.st49{fill:url(#SVGID_50_);}
	.st50{fill:url(#SVGID_51_);}
	.st51{fill:url(#SVGID_52_);}
	.st52{fill:url(#SVGID_53_);}
	.st53{fill:url(#SVGID_54_);}
	.st54{fill:url(#SVGID_55_);}
	.st55{fill:url(#SVGID_56_);}
	.st56{fill:url(#SVGID_57_);}
	.st57{fill:url(#SVGID_58_);}
	.st58{fill:url(#SVGID_59_);}
	.st59{fill:url(#SVGID_60_);}
	.st60{fill:url(#SVGID_61_);}
	.st61{fill:url(#SVGID_62_);}
	.st62{fill:#DD7727;}
	.st63{fill:#B06027;}
	.st64{fill:#F89636;}
	.st65{fill:#5F2B0E;}
	.st66{fill:#FFFFFF;}
	.st67{fill:#02AE98;}
	.st68{fill:none;}
	.st69{clip-path:url(#SVGID_64_);}
	.st70{fill:url(#SVGID_65_);}
	.st71{fill:url(#SVGID_66_);}
	.st72{clip-path:url(#SVGID_68_);}
	.st73{fill:url(#SVGID_69_);}
	.st74{fill:#FDC169;}
	.st75{clip-path:url(#SVGID_73_);}
	.st76{clip-path:url(#SVGID_75_);}
	.st77{fill:#CC8A38;}
	.st78{fill:#A6C839;}
	.st79{fill:#88A13C;}
	.st80{fill:#BCD635;}
	.st81{fill:#164B37;}
	.st82{fill:#411F2D;}
	.st83{fill:#896F5F;}
	.st84{fill:#479644;}
	.st85{fill:#317037;}
	.st86{fill:#8DC641;}
	.st87{fill:#A9BE76;}
	.st88{fill:#7D3F3F;}
	.st89{fill:url(#SVGID_76_);}
	.st90{opacity:0.13;fill:#D6D5D5;}
	.st91{opacity:0.1;fill:#010101;}
	.st92{opacity:0.11;fill:#D6D5D5;}
	.st93{fill:#D6D5D5;}
	.st94{opacity:0.37;fill:#D6D5D5;}
	.st95{fill:#E9E8E7;}
	.st96{fill:#070608;}
	.st97{fill:#FCB23A;}
	.st98{opacity:0.15;fill:#010101;}
	.st99{fill:#010101;}
	.st100{opacity:0.69;fill:#B3B3B3;}
	.st101{opacity:0.19;fill:#D6D5D5;}
	.st102{opacity:0.13;fill:#010101;}
	.st103{opacity:0.22;fill:#010101;}
	.st104{opacity:0.27;fill:#D6D5D5;}
	.st105{opacity:0.54;fill:#010101;}
	.st106{opacity:0.24;fill:#010101;}
	.st107{opacity:0.29;fill:#010101;}
	.st108{opacity:0.36;fill:#010101;}
	.st109{fill:url(#SVGID_77_);}
	.st110{fill:url(#SVGID_78_);}
	.st111{opacity:0.2;fill:#FFFFFF;}
	.st112{opacity:0.03;fill:#FFFFFF;}
	.st113{fill:url(#SVGID_79_);}
	.st114{fill:url(#SVGID_80_);}
	.st115{opacity:0.23;fill:#1E1710;}
	.st116{opacity:0.45;fill:#FDC149;}
	.st117{fill:url(#SVGID_81_);}
	.st118{opacity:0.67;fill:#1E1710;}
	.st119{opacity:0.16;fill:#FFFFFF;}
	.st120{fill:#1E1710;}
	.st121{fill:#603E33;}
	.st122{opacity:0.14;fill:#FFFFFF;}
	.st123{opacity:0.09;fill:#FFFFFF;}
	.st124{opacity:0.45;fill:#1E1710;}
	.st125{opacity:0.1;fill:#FDC149;}
	.st126{opacity:0.12;fill:#1E1710;}
	.st127{opacity:0.16;fill:#FDC149;}
	.st128{fill:#995F26;}
	.st129{fill:#305F2E;}
	.st130{fill:#2C4A23;}
	.st131{fill:#337238;}
	.st132{fill:#54A346;}
	.st133{fill:#3E8840;}
	.st134{fill:#76BA43;}
	.st135{fill:#A9CF39;}
	.st136{fill:#243A1E;}
	.st137{fill:#FFFFFF;stroke:#010101;stroke-miterlimit:10;}
	.st138{fill:#8F5123;}
	.st139{fill:#653B18;}
	.st140{fill:#030303;}
	.st141{enable-background:new    ;}
	.st142{fill:#333333;}
	.st143{fill:#676868;}
	.st144{fill:#AC4526;}
	.st145{fill:#F15B28;}
	.st146{fill:#4E4F4F;}
	.st147{fill:#1A1A1A;}
	.st148{fill:#B4B2B4;}
	.st149{fill:#FAAF3A;}
	.st150{fill:#979797;}
	.st151{fill:#CBCBCA;}
	.st152{fill:#C2742A;}
	.st153{fill:#FCF6B6;}
	.st154{fill:#FBBC5A;}
	.st155{opacity:0.3;fill:#FFFFFF;}
	.st156{opacity:0.3;fill:#C2742A;}
	.st157{fill:#7E7E7E;}
	.st158{fill:#706F70;}
	.st159{fill:#474747;}
	.st160{opacity:0.5;fill:#0BA4BE;}
	.st161{opacity:0.5;fill:#C2742A;}
	.st162{fill:#D3EDFA;}
	.st163{fill:#E5E5E4;}
	.st164{fill:url(#SVGID_82_);}
	.st165{fill:url(#SVGID_83_);}
	.st166{fill:url(#SVGID_84_);}
	.st167{opacity:0.53;}
	.st168{fill:#C28843;}
	.st169{fill:#E6B35D;}
	.st170{fill:#81471E;}
	.st171{fill:#D3984F;}
	.st172{fill:none;stroke:#D3984F;stroke-miterlimit:10;}
	.st173{fill:#B0702E;}
	.st174{fill:#222222;}
	.st175{fill:#948992;}
	.st176{fill:#5B5B61;}
	.st177{fill:#747278;}
	.st178{fill:#48474A;}
	.st179{fill:#3A393A;}
	.st180{fill:#9B98A4;}
	.st181{fill:#9D6F41;}
	.st182{fill:#532F18;}
	.st183{fill:url(#SVGID_91_);}
	.st184{fill:url(#SVGID_92_);}
	.st185{fill:url(#SVGID_93_);}
	.st186{fill:url(#SVGID_94_);}
	.st187{fill:#683F17;}
	.st188{fill:#9A6326;}
	.st189{fill:#E9DBCF;}
	.st190{fill:#C0AE9A;}
	.st191{fill:#AF9B88;}
	.st192{fill:#D9C5B3;}
	.st193{opacity:0.61;fill:#D9C5B3;}
	.st194{fill:#271B12;}
	.st195{fill:#080808;}
	.st196{fill:#663915;}
	.st197{fill:#82CFCF;}
	.st198{fill:#6CADAC;}
	.st199{fill:#3C5E5E;}
	.st200{fill:#A96831;}
	.st201{fill:#E1A269;}
	.st202{fill:#534B40;}
	.st203{fill:#39342B;}
	.st204{fill:#3B342A;}
	.st205{fill:#F3AA41;}
	.st206{fill:#F1B6A7;}
	.st207{opacity:0.5;}
	.st208{fill:#CE8881;}
	.st209{fill:#E5A192;}
	.st210{fill:#EECFA8;}
	.st211{fill:#C3BAAC;}
	.st212{fill:#80441D;}
	.st213{opacity:0;}
	.st214{fill:#4E3217;}
	.st215{fill:#E29681;}
	.st216{fill:#A26F29;}
	.st217{fill:#BB8135;}
	.st218{fill:#735224;}
	.st219{opacity:0;fill:#030303;}
	.st220{fill:#805421;}
	.st221{fill:#C18A5F;}
	.st222{fill:#5B3C19;}
	.st223{fill:#E8D5BB;}
	.st224{fill:#2E1F12;}
	.st225{fill:#5D3C19;}
	.st226{fill:#F4E5D4;}
	.st227{clip-path:url(#SVGID_96_);enable-background:new    ;}
	.st228{fill:#74706C;}
	.st229{fill:#787471;}
	.st230{clip-path:url(#SVGID_98_);enable-background:new    ;}
	.st231{fill:#8E5724;}
	.st232{opacity:0.46;fill:#030303;}
	.st233{opacity:0.25;fill:#030303;}
	.st234{opacity:0.29;fill:#030303;}
	.st235{fill:#24232C;}
	.st236{fill:#A66428;}
	.st237{fill:#BD782A;}
	.st238{fill:#2E5F2E;}
	.st239{fill:#327238;}
	.st240{fill:#499744;}
	.st241{fill:#ABD037;}
	.st242{fill:#76B943;}
	.st243{fill:#2B4A21;}
	.st244{opacity:0.4;fill:#010101;}
	.st245{opacity:0.2;fill:#010101;}
	.st246{opacity:0.5;fill:#010101;}
	.st247{opacity:0.31;fill:#010101;}
	.st248{fill:url(#SVGID_99_);}
	.st249{opacity:0.17;fill:#FFFFFF;}
	.st250{opacity:0.24;fill:#FFFFFF;}
	.st251{opacity:0.14;fill:#010101;}
	.st252{opacity:0.19;fill:#FFFFFF;}
	.st253{opacity:0.04;fill:#010101;}
	.st254{fill:url(#SVGID_100_);}
	.st255{opacity:0.11;fill:#010101;}
	.st256{fill:url(#SVGID_101_);}
	.st257{opacity:0.25;fill:#FFFFFF;}
	.st258{opacity:0.13;fill:#FFFFFF;}
	.st259{opacity:0.05;fill:#010101;}
	.st260{fill:url(#SVGID_102_);}
	.st261{opacity:0.09;fill:#010101;}
	.st262{opacity:0.38;fill:#010101;}
	.st263{opacity:0.23;fill:#010101;}
	.st264{opacity:0.18;fill:#010101;}
	.st265{opacity:0.01;fill:#FFFFFF;}
	.st266{opacity:0.11;fill:#FFFFFF;}
	.st267{opacity:0.33;fill:#FFFFFF;}
	.st268{opacity:0.12;fill:#FFFFFF;}
	.st269{opacity:0.1;fill:#FFFFFF;}
	.st270{opacity:0.22;fill:#FFFFFF;}
	.st271{opacity:0.07;fill:#FFFFFF;}
	.st272{opacity:0.15;fill:#FFFFFF;}
	.st273{opacity:0.08;fill:#010101;}
	.st274{opacity:0.34;fill:#010101;}
	.st275{opacity:0.29;fill:#FFFFFF;}
	.st276{opacity:0.16;fill:#010101;}
	.st277{opacity:0.33;fill:#010101;}
	.st278{opacity:0.19;fill:#010101;}
	.st279{fill:#D2A996;}
	.st280{fill:#E5A866;}
	.st281{fill:#543F31;}
	.st282{fill:#A0733F;}
	.st283{fill:#34261E;}
	.st284{clip-path:url(#SVGID_104_);}
	.st285{fill:#F6933D;}
	.st286{fill:#B65727;}
	.st287{fill:#DD6E26;}
	.st288{fill:#A1A84E;}
	.st289{fill:#818736;}
	.st290{fill:#F68637;}
	.st291{fill:#B3622A;}
	.st292{fill:#CB6E29;}
	.st293{opacity:0;fill:#010101;}
	.st294{fill:#9B4822;}
	.st295{fill:#C35D28;}
	.st296{fill:#E18037;}
	.st297{fill:#8F3D1F;}
	.st298{fill:#B34E28;}
	.st299{fill:#81361D;}
	.st300{fill:#B9B447;}
	.st301{fill:#7E7F46;}
	.st302{fill:#231B17;}
	.st303{fill:#CA3929;}
	.st304{fill:url(#SVGID_105_);}
	.st305{clip-path:url(#SVGID_107_);}
	.st306{fill:#C0672A;}
	.st307{fill:#F0AA3C;}
	.st308{fill:#FFCE59;}
	.st309{fill:#D8732C;}
	.st310{fill:#69BD45;}
	.st311{fill:#80C4BA;}
	.st312{fill:#6FB5A9;}
	.st313{fill:#404040;}
	.st314{fill:#646464;}
	.st315{fill:#747474;}
	.st316{fill:#7F7F7F;}
	.st317{fill:#D1CAC7;}
	.st318{clip-path:url(#SVGID_109_);}
	.st319{clip-path:url(#SVGID_113_);fill:url(#SVGID_114_);}
	.st320{clip-path:url(#SVGID_116_);fill:url(#SVGID_117_);}
	.st321{clip-path:url(#SVGID_119_);fill:url(#SVGID_120_);}
	.st322{clip-path:url(#SVGID_122_);fill:#0F3034;}
	.st323{fill:#3897D3;}
	.st324{clip-path:url(#SVGID_124_);}
	.st325{clip-path:url(#SVGID_128_);fill:url(#SVGID_129_);}
	.st326{clip-path:url(#SVGID_131_);fill:url(#SVGID_132_);}
	.st327{clip-path:url(#SVGID_134_);fill:url(#SVGID_135_);}
	.st328{clip-path:url(#SVGID_137_);fill:#0F3034;}
	.st329{fill:#E89835;}
	.st330{clip-path:url(#SVGID_139_);}
	.st331{clip-path:url(#SVGID_143_);fill:url(#SVGID_144_);}
	.st332{clip-path:url(#SVGID_146_);fill:url(#SVGID_147_);}
	.st333{clip-path:url(#SVGID_149_);fill:url(#SVGID_150_);}
	.st334{clip-path:url(#SVGID_152_);fill:#0F3034;}
	.st335{clip-path:url(#SVGID_154_);}
	.st336{clip-path:url(#SVGID_158_);fill:url(#SVGID_159_);}
	.st337{clip-path:url(#SVGID_161_);fill:url(#SVGID_162_);}
	.st338{clip-path:url(#SVGID_164_);fill:url(#SVGID_165_);}
	.st339{clip-path:url(#SVGID_167_);fill:#0F3034;}
	.st340{clip-path:url(#SVGID_169_);}
	.st341{clip-path:url(#SVGID_173_);fill:url(#SVGID_174_);}
	.st342{clip-path:url(#SVGID_176_);fill:url(#SVGID_177_);}
	.st343{clip-path:url(#SVGID_179_);fill:url(#SVGID_180_);}
	.st344{clip-path:url(#SVGID_182_);fill:#0F3034;}
	.st345{clip-path:url(#SVGID_184_);}
	.st346{clip-path:url(#SVGID_188_);fill:url(#SVGID_189_);}
	.st347{clip-path:url(#SVGID_191_);fill:url(#SVGID_192_);}
	.st348{clip-path:url(#SVGID_194_);fill:url(#SVGID_195_);}
	.st349{clip-path:url(#SVGID_197_);fill:#0F3034;}
	.st350{clip-path:url(#SVGID_199_);}
	.st351{clip-path:url(#SVGID_203_);fill:url(#SVGID_204_);}
	.st352{clip-path:url(#SVGID_206_);fill:url(#SVGID_207_);}
	.st353{clip-path:url(#SVGID_209_);fill:url(#SVGID_210_);}
	.st354{clip-path:url(#SVGID_212_);fill:#0F3034;}
	.st355{clip-path:url(#SVGID_214_);}
	.st356{clip-path:url(#SVGID_218_);fill:url(#SVGID_219_);}
	.st357{clip-path:url(#SVGID_221_);fill:url(#SVGID_222_);}
	.st358{clip-path:url(#SVGID_224_);fill:url(#SVGID_225_);}
	.st359{fill:#674B3C;}
	.st360{fill:#87BD40;}
	.st361{fill:#ADD14F;}
	.st362{fill:#D16928;}
	.st363{fill:#F68B21;}
	.st364{fill:#FABC18;}
	.st365{fill:#FAAF1B;}
	.st366{fill:#F6B01A;}
	.st367{fill:#F48220;}
	.st368{fill:#AC6628;}
	.st369{fill:#494B21;}
	.st370{fill:#A4B245;}
	.st371{fill:#68682D;}
	.st372{fill:#1C1918;}
	.st373{opacity:0.5;fill:#1C1918;}
	.st374{fill:#A7AC3C;}
	.st375{fill:#C9CB51;}
	.st376{fill:#CFD153;}
	.st377{opacity:0.8;fill:#010101;}
	.st378{opacity:0.6;fill:#010101;}
	.st379{opacity:0.43;fill:#A3AB40;}
	.st380{opacity:0.21;fill:#010101;}
	.st381{fill:#689D44;}
	.st382{fill:url(#SVGID_226_);}
	.st383{fill:url(#SVGID_227_);}
	.st384{fill:url(#SVGID_228_);}
	.st385{fill:url(#SVGID_229_);}
	.st386{fill:url(#SVGID_230_);}
	.st387{fill:url(#SVGID_231_);}
	.st388{fill:url(#SVGID_232_);}
	.st389{fill:url(#SVGID_233_);}
	.st390{fill:url(#SVGID_234_);}
	.st391{fill:url(#SVGID_235_);}
	.st392{fill:url(#SVGID_236_);}
	.st393{fill:url(#SVGID_237_);}
	.st394{fill:url(#SVGID_238_);}
	.st395{fill:url(#SVGID_239_);}
	.st396{fill:url(#SVGID_240_);}
	.st397{fill:url(#SVGID_241_);}
	.st398{fill:#CC6E2D;}
	.st399{fill:#9E5224;}
	.st400{fill:#E88D42;}
	.st401{fill:#682D11;}
	.st402{fill:url(#SVGID_242_);}
	.st403{opacity:0.4;fill:#9E5224;}
	.st404{fill:#DD863C;}
	.st405{fill:url(#SVGID_243_);}
	.st406{fill:#8E8933;}
	.st407{fill:#665F27;}
	.st408{fill:url(#SVGID_244_);}
	.st409{fill:url(#SVGID_245_);}
	.st410{fill:url(#SVGID_246_);}
	.st411{fill:url(#SVGID_247_);}
	.st412{fill:url(#SVGID_248_);}
	.st413{fill:url(#SVGID_249_);}
	.st414{fill:url(#SVGID_250_);}
	.st415{fill:url(#SVGID_251_);}
	.st416{fill:url(#SVGID_252_);}
	.st417{fill:url(#SVGID_253_);}
	.st418{fill:url(#SVGID_254_);}
	.st419{fill:url(#SVGID_255_);}
	.st420{fill:url(#SVGID_256_);}
	.st421{fill:#C8BC2E;}
	.st422{fill:#9A9033;}
	.st423{fill:#E5DE19;}
	.st424{fill:#F2F2F2;}
	.st425{fill:#7D491D;}
	.st426{fill:#653915;}
	.st427{fill:#8F5022;}
	.st428{fill:#223B1B;}
	.st429{fill:#3D8840;}
	.st430{fill:#53A345;}
	.st431{fill:#BE792A;}
	.st432{fill:#A66427;}
	.st433{fill:#438B41;}
	.st434{opacity:0.1;fill:#352419;}
	.st435{fill:#BF6828;}
	.st436{fill:#754E25;}
	.st437{fill:#F8B093;}
	.st438{fill:#55391D;}
	.st439{fill:#C6B199;}
	.st440{fill:#9D5124;}
	.st441{opacity:0.5;fill:#55391D;}
	.st442{fill:#B5D6EA;}
	.st443{fill:#276EB6;}
	.st444{opacity:0.5;fill:#F8B093;}
	.st445{fill:#732A16;}
	.st446{opacity:0.3;fill:#2680BB;}
	.st447{fill:#352419;}
	.st448{opacity:0.36;fill:#FFF3B0;}
	.st449{clip-path:url(#SVGID_258_);}
	.st450{fill:url(#SVGID_259_);}
	.st451{fill:url(#SVGID_260_);}
	.st452{fill:url(#SVGID_261_);}
	.st453{fill:url(#SVGID_262_);}
	.st454{fill:url(#SVGID_263_);}
	.st455{fill:url(#SVGID_264_);}
	.st456{fill:url(#SVGID_265_);}
	.st457{fill:url(#SVGID_266_);}
	.st458{fill:url(#SVGID_267_);}
	.st459{fill:url(#SVGID_268_);}
	.st460{fill:url(#SVGID_269_);}
	.st461{fill:url(#SVGID_270_);}
	.st462{fill:url(#SVGID_271_);}
	.st463{fill:url(#SVGID_272_);}
	.st464{fill:url(#SVGID_273_);}
	.st465{fill:url(#SVGID_274_);}
	.st466{fill:url(#SVGID_275_);}
	.st467{fill:url(#SVGID_276_);}
	.st468{fill:url(#SVGID_277_);}
	.st469{fill:url(#SVGID_278_);}
	.st470{fill:url(#SVGID_279_);}
	.st471{fill:url(#SVGID_280_);}
	.st472{fill:url(#SVGID_281_);}
	.st473{fill:url(#SVGID_282_);}
	.st474{fill:url(#SVGID_283_);}
	.st475{fill:url(#SVGID_284_);}
	.st476{fill:url(#SVGID_285_);}
	.st477{fill:url(#SVGID_286_);}
	.st478{fill:url(#SVGID_287_);}
	.st479{fill:url(#SVGID_288_);}
	.st480{fill:url(#SVGID_289_);}
	.st481{fill:url(#SVGID_290_);}
	.st482{fill:url(#SVGID_291_);}
	.st483{fill:url(#SVGID_292_);}
	.st484{fill:url(#SVGID_293_);}
	.st485{fill:url(#SVGID_294_);}
	.st486{fill:url(#SVGID_295_);}
	.st487{fill:url(#SVGID_296_);}
	.st488{fill:url(#SVGID_297_);}
	.st489{fill:url(#SVGID_298_);}
	.st490{fill:url(#SVGID_299_);}
	.st491{fill:url(#SVGID_300_);}
	.st492{fill:url(#SVGID_301_);}
	.st493{fill:url(#SVGID_302_);}
	.st494{fill:url(#SVGID_303_);}
	.st495{fill:url(#SVGID_304_);}
	.st496{fill:url(#SVGID_305_);}
	.st497{fill:url(#SVGID_306_);}
	.st498{fill:url(#SVGID_307_);}
	.st499{fill:url(#SVGID_308_);}
	.st500{fill:url(#SVGID_309_);}
	.st501{fill:url(#SVGID_310_);}
	.st502{fill:url(#SVGID_311_);}
	.st503{fill:url(#SVGID_312_);}
	.st504{fill:url(#SVGID_313_);}
	.st505{fill:url(#SVGID_314_);}
	.st506{fill:url(#SVGID_315_);}
	.st507{fill:url(#SVGID_316_);}
	.st508{fill:url(#SVGID_317_);}
	.st509{fill:url(#SVGID_318_);}
	.st510{clip-path:url(#SVGID_320_);}
	.st511{fill:url(#SVGID_321_);}
	.st512{fill:url(#SVGID_322_);}
	.st513{fill:url(#SVGID_323_);}
	.st514{fill:url(#SVGID_324_);}
	.st515{fill:url(#SVGID_325_);}
	.st516{fill:url(#SVGID_326_);}
	.st517{fill:url(#SVGID_327_);}
	.st518{fill:url(#SVGID_328_);}
	.st519{fill:url(#SVGID_329_);}
	.st520{fill:url(#SVGID_330_);}
	.st521{fill:url(#SVGID_331_);}
	.st522{fill:url(#SVGID_332_);}
	.st523{fill:url(#SVGID_333_);}
	.st524{fill:url(#SVGID_334_);}
	.st525{fill:url(#SVGID_335_);}
	.st526{fill:url(#SVGID_336_);}
	.st527{fill:url(#SVGID_337_);}
	.st528{fill:url(#SVGID_338_);}
	.st529{fill:url(#SVGID_339_);}
	.st530{fill:url(#SVGID_340_);}
	.st531{fill:url(#SVGID_341_);}
	.st532{fill:url(#SVGID_342_);}
	.st533{fill:url(#SVGID_343_);}
	.st534{fill:url(#SVGID_344_);}
	.st535{fill:url(#SVGID_345_);}
	.st536{fill:url(#SVGID_346_);}
	.st537{fill:url(#SVGID_347_);}
	.st538{fill:url(#SVGID_348_);}
	.st539{fill:url(#SVGID_349_);}
	.st540{fill:url(#SVGID_350_);}
	.st541{fill:url(#SVGID_351_);}
	.st542{fill:url(#SVGID_352_);}
	.st543{fill:url(#SVGID_353_);}
	.st544{fill:url(#SVGID_354_);}
	.st545{fill:url(#SVGID_355_);}
	.st546{fill:url(#SVGID_356_);}
	.st547{fill:url(#SVGID_357_);}
	.st548{fill:url(#SVGID_358_);}
	.st549{fill:url(#SVGID_359_);}
	.st550{fill:url(#SVGID_360_);}
	.st551{fill:url(#SVGID_361_);}
	.st552{fill:url(#SVGID_362_);}
	.st553{fill:url(#SVGID_363_);}
	.st554{fill:url(#SVGID_364_);}
	.st555{fill:url(#SVGID_365_);}
	.st556{fill:url(#SVGID_366_);}
	.st557{fill:url(#SVGID_367_);}
	.st558{fill:url(#SVGID_368_);}
	.st559{fill:url(#SVGID_369_);}
	.st560{fill:url(#SVGID_370_);}
	.st561{fill:url(#SVGID_371_);}
	.st562{fill:url(#SVGID_372_);}
	.st563{fill:url(#SVGID_373_);}
	.st564{fill:url(#SVGID_374_);}
	.st565{fill:url(#SVGID_375_);}
	.st566{fill:url(#SVGID_376_);}
	.st567{fill:url(#SVGID_377_);}
	.st568{fill:url(#SVGID_378_);}
	.st569{fill:url(#SVGID_379_);}
	.st570{fill:url(#SVGID_380_);}
	.st571{clip-path:url(#SVGID_382_);}
	.st572{fill:url(#SVGID_383_);}
	.st573{fill:url(#SVGID_384_);}
	.st574{fill:url(#SVGID_385_);}
	.st575{fill:url(#SVGID_386_);}
	.st576{fill:url(#SVGID_387_);}
	.st577{fill:url(#SVGID_388_);}
	.st578{fill:url(#SVGID_389_);}
	.st579{fill:url(#SVGID_390_);}
	.st580{fill:url(#SVGID_391_);}
	.st581{fill:url(#SVGID_392_);}
	.st582{fill:url(#SVGID_393_);}
	.st583{fill:url(#SVGID_394_);}
	.st584{fill:url(#SVGID_395_);}
	.st585{fill:url(#SVGID_396_);}
	.st586{fill:url(#SVGID_397_);}
	.st587{fill:url(#SVGID_398_);}
	.st588{fill:url(#SVGID_399_);}
	.st589{fill:url(#SVGID_400_);}
	.st590{fill:url(#SVGID_401_);}
	.st591{fill:url(#SVGID_402_);}
	.st592{fill:url(#SVGID_403_);}
	.st593{fill:url(#SVGID_404_);}
	.st594{fill:url(#SVGID_405_);}
	.st595{fill:url(#SVGID_406_);}
	.st596{fill:url(#SVGID_407_);}
	.st597{fill:url(#SVGID_408_);}
	.st598{fill:url(#SVGID_409_);}
	.st599{fill:url(#SVGID_410_);}
	.st600{fill:url(#SVGID_411_);}
	.st601{fill:url(#SVGID_412_);}
	.st602{fill:url(#SVGID_413_);}
	.st603{fill:url(#SVGID_414_);}
	.st604{fill:url(#SVGID_415_);}
	.st605{fill:url(#SVGID_416_);}
	.st606{fill:url(#SVGID_417_);}
	.st607{fill:url(#SVGID_418_);}
	.st608{fill:url(#SVGID_419_);}
	.st609{fill:url(#SVGID_420_);}
	.st610{fill:url(#SVGID_421_);}
	.st611{fill:url(#SVGID_422_);}
	.st612{fill:url(#SVGID_423_);}
	.st613{fill:url(#SVGID_424_);}
	.st614{fill:url(#SVGID_425_);}
	.st615{fill:url(#SVGID_426_);}
	.st616{fill:url(#SVGID_427_);}
	.st617{fill:url(#SVGID_428_);}
	.st618{fill:url(#SVGID_429_);}
	.st619{fill:url(#SVGID_430_);}
	.st620{fill:url(#SVGID_431_);}
	.st621{fill:url(#SVGID_432_);}
	.st622{fill:url(#SVGID_433_);}
	.st623{fill:url(#SVGID_434_);}
	.st624{fill:url(#SVGID_435_);}
	.st625{fill:url(#SVGID_436_);}
	.st626{fill:url(#SVGID_437_);}
	.st627{fill:url(#SVGID_438_);}
	.st628{fill:url(#SVGID_439_);}
	.st629{fill:url(#SVGID_440_);}
	.st630{fill:url(#SVGID_441_);}
	.st631{fill:url(#SVGID_442_);}
	.st632{fill:#FAAA3F;}
	.st633{fill:#4F2610;}
	.st634{fill:#87C540;}
	.st635{clip-path:url(#SVGID_444_);}
	.st636{clip-path:url(#SVGID_446_);enable-background:new    ;}
	.st637{clip-path:url(#SVGID_448_);}
	.st638{clip-path:url(#SVGID_450_);}
	.st639{fill:url(#SVGID_451_);}
	.st640{clip-path:url(#SVGID_453_);}
	.st641{clip-path:url(#SVGID_455_);}
	.st642{clip-path:url(#SVGID_457_);}
	.st643{clip-path:url(#SVGID_459_);}
	.st644{clip-path:url(#SVGID_461_);enable-background:new    ;}
	.st645{clip-path:url(#SVGID_463_);enable-background:new    ;}
	.st646{fill:url(#SVGID_464_);}
	.st647{clip-path:url(#SVGID_466_);}
	.st648{clip-path:url(#SVGID_468_);}
	.st649{fill:url(#SVGID_469_);}
	.st650{clip-path:url(#SVGID_471_);enable-background:new    ;}
	.st651{fill:#858585;}
	.st652{fill:url(#SVGID_472_);}
	.st653{clip-path:url(#SVGID_474_);}
	.st654{clip-path:url(#SVGID_476_);}
	.st655{clip-path:url(#SVGID_478_);}
	.st656{clip-path:url(#SVGID_480_);}
	.st657{clip-path:url(#SVGID_482_);enable-background:new    ;}
	.st658{fill:url(#SVGID_483_);}
	.st659{clip-path:url(#SVGID_485_);}
	.st660{clip-path:url(#SVGID_487_);}
	.st661{clip-path:url(#SVGID_489_);enable-background:new    ;}
	.st662{fill:url(#SVGID_490_);}
	.st663{fill:#F6CA9D;}
	.st664{fill:#012822;}
	.st665{fill:#847E3D;}
	.st666{fill:#97C157;}
	.st667{fill:#D9AA82;}
	.st668{fill:#090909;}
	.st669{fill:#679B41;}
	.st670{fill:#EBF7F8;}
	.st671{fill:#C08E4B;}
	.st672{fill:#F99C2D;}
	.st673{fill:#E45A25;}
	.st674{opacity:0.8;}
	.st675{opacity:0.6;fill:#B54226;}
	.st676{opacity:0.5;fill:#679B41;}
	.st677{opacity:0.6;fill:#090909;}
	.st678{opacity:0.4;fill:#090909;}
	.st679{opacity:0.5;fill:#090909;}
	.st680{fill:url(#SVGID_491_);}
	.st681{fill:url(#SVGID_492_);}
	.st682{fill:url(#SVGID_493_);}
	.st683{fill:url(#SVGID_494_);}
	.st684{opacity:0.3;fill:#010101;}
	.st685{opacity:0.28;fill:#010101;}
	.st686{opacity:0.39;fill:#010101;}
	.st687{opacity:0.05;fill:#FFFFFF;}
	.st688{fill:url(#SVGID_495_);}
	.st689{opacity:0.17;fill:#010101;}
	.st690{opacity:0.06;fill:#FFFFFF;}
	.st691{fill:#E39B4C;}
	.st692{clip-path:url(#SVGID_497_);}
	.st693{fill:none;stroke:#EDBF2E;stroke-miterlimit:10;}
	.st694{fill:#9BCC57;}
	.st695{fill:#EDBF2E;}
	.st696{fill:url(#SVGID_498_);}
	.st697{fill:url(#SVGID_501_);}
	.st698{opacity:0.43;fill:#FFFFFF;}
	.st699{fill:url(#SVGID_506_);}
	.st700{fill:url(#SVGID_509_);}
	.st701{fill:url(#SVGID_514_);}
	.st702{fill:url(#SVGID_515_);}
	.st703{fill:url(#SVGID_520_);}
	.st704{fill:url(#SVGID_523_);}
	.st705{opacity:0.05;fill:#606161;}
	.st706{opacity:0.3;fill:#C8BC2E;}
	.st707{fill:url(#SVGID_524_);}
	.st708{fill:#894920;}
	.st709{opacity:0.49;fill:#9B4322;}
	.st710{fill:#482112;}
	.st711{fill:url(#SVGID_525_);}
	.st712{fill:url(#SVGID_526_);}
	.st713{fill:url(#SVGID_527_);}
	.st714{clip-path:url(#SVGID_529_);enable-background:new    ;}
	.st715{fill:#966C16;}
	.st716{clip-path:url(#SVGID_531_);enable-background:new    ;}
	.st717{clip-path:url(#SVGID_533_);enable-background:new    ;}
	.st718{clip-path:url(#SVGID_535_);enable-background:new    ;}
	.st719{clip-path:url(#SVGID_537_);enable-background:new    ;}
	.st720{clip-path:url(#SVGID_539_);enable-background:new    ;}
	.st721{clip-path:url(#SVGID_541_);enable-background:new    ;}
	.st722{clip-path:url(#SVGID_543_);enable-background:new    ;}
	.st723{clip-path:url(#SVGID_545_);enable-background:new    ;}
	.st724{clip-path:url(#SVGID_547_);enable-background:new    ;}
	.st725{fill:#E1C458;}
	.st726{clip-path:url(#SVGID_549_);enable-background:new    ;}
	.st727{clip-path:url(#SVGID_551_);enable-background:new    ;}
	.st728{clip-path:url(#SVGID_553_);enable-background:new    ;}
	.st729{clip-path:url(#SVGID_555_);enable-background:new    ;}
	.st730{clip-path:url(#SVGID_557_);enable-background:new    ;}
	.st731{clip-path:url(#SVGID_559_);enable-background:new    ;}
	.st732{clip-path:url(#SVGID_561_);enable-background:new    ;}
	.st733{clip-path:url(#SVGID_563_);enable-background:new    ;}
	.st734{clip-path:url(#SVGID_565_);enable-background:new    ;}
	.st735{clip-path:url(#SVGID_567_);enable-background:new    ;}
	.st736{clip-path:url(#SVGID_569_);enable-background:new    ;}
	.st737{clip-path:url(#SVGID_571_);enable-background:new    ;}
	.st738{clip-path:url(#SVGID_573_);enable-background:new    ;}
	.st739{clip-path:url(#SVGID_575_);enable-background:new    ;}
	.st740{clip-path:url(#SVGID_577_);enable-background:new    ;}
	.st741{clip-path:url(#SVGID_579_);enable-background:new    ;}
	.st742{clip-path:url(#SVGID_581_);enable-background:new    ;}
	.st743{clip-path:url(#SVGID_583_);enable-background:new    ;}
	.st744{clip-path:url(#SVGID_585_);enable-background:new    ;}
	.st745{clip-path:url(#SVGID_587_);enable-background:new    ;}
	.st746{clip-path:url(#SVGID_589_);enable-background:new    ;}
	.st747{clip-path:url(#SVGID_591_);enable-background:new    ;}
	.st748{clip-path:url(#SVGID_593_);enable-background:new    ;}
	.st749{clip-path:url(#SVGID_595_);enable-background:new    ;}
	.st750{clip-path:url(#SVGID_597_);enable-background:new    ;}
	.st751{clip-path:url(#SVGID_599_);enable-background:new    ;}
	.st752{clip-path:url(#SVGID_601_);enable-background:new    ;}
	.st753{clip-path:url(#SVGID_603_);enable-background:new    ;}
	.st754{clip-path:url(#SVGID_605_);enable-background:new    ;}
	.st755{clip-path:url(#SVGID_607_);enable-background:new    ;}
	.st756{clip-path:url(#SVGID_609_);enable-background:new    ;}
	.st757{clip-path:url(#SVGID_611_);enable-background:new    ;}
	.st758{clip-path:url(#SVGID_613_);enable-background:new    ;}
	.st759{clip-path:url(#SVGID_615_);enable-background:new    ;}
	.st760{clip-path:url(#SVGID_617_);enable-background:new    ;}
	.st761{clip-path:url(#SVGID_619_);enable-background:new    ;}
	.st762{clip-path:url(#SVGID_621_);enable-background:new    ;}
	.st763{clip-path:url(#SVGID_623_);enable-background:new    ;}
	.st764{clip-path:url(#SVGID_625_);enable-background:new    ;}
	.st765{clip-path:url(#SVGID_627_);enable-background:new    ;}
	.st766{clip-path:url(#SVGID_629_);enable-background:new    ;}
	.st767{clip-path:url(#SVGID_631_);enable-background:new    ;}
	.st768{clip-path:url(#SVGID_633_);enable-background:new    ;}
	.st769{clip-path:url(#SVGID_635_);enable-background:new    ;}
	.st770{clip-path:url(#SVGID_637_);enable-background:new    ;}
	.st771{clip-path:url(#SVGID_639_);enable-background:new    ;}
	.st772{clip-path:url(#SVGID_641_);enable-background:new    ;}
	.st773{clip-path:url(#SVGID_643_);enable-background:new    ;}
	.st774{clip-path:url(#SVGID_645_);enable-background:new    ;}
	.st775{clip-path:url(#SVGID_647_);enable-background:new    ;}
	.st776{clip-path:url(#SVGID_649_);enable-background:new    ;}
	.st777{clip-path:url(#SVGID_651_);enable-background:new    ;}
	.st778{clip-path:url(#SVGID_653_);enable-background:new    ;}
	.st779{fill:#F7D568;}
	.st780{clip-path:url(#SVGID_655_);}
	.st781{clip-path:url(#SVGID_657_);}
	.st782{clip-path:url(#SVGID_659_);enable-background:new    ;}
	.st783{fill:#857632;}
	.st784{clip-path:url(#SVGID_661_);}
	.st785{fill:#817330;}
	.st786{fill:url(#SVGID_662_);}
	.st787{fill:url(#SVGID_663_);}
	.st788{fill:url(#SVGID_664_);}
	.st789{fill:url(#SVGID_665_);}
	.st790{fill:url(#SVGID_666_);}
	.st791{fill:url(#SVGID_667_);}
	.st792{fill:url(#SVGID_668_);}
	.st793{fill:url(#SVGID_669_);}
	.st794{fill:url(#SVGID_670_);}
	.st795{fill:url(#SVGID_671_);}
	.st796{fill:url(#SVGID_672_);}
	.st797{fill:url(#SVGID_673_);}
	.st798{fill:url(#SVGID_674_);}
	.st799{fill:url(#SVGID_675_);}
	.st800{fill:url(#SVGID_676_);}
	.st801{fill:url(#SVGID_677_);}
	.st802{fill:url(#SVGID_678_);}
	.st803{fill:url(#SVGID_679_);}
	.st804{fill:url(#SVGID_680_);}
	.st805{fill:url(#SVGID_681_);}
	.st806{fill:url(#SVGID_682_);}
	.st807{fill:url(#SVGID_683_);}
	.st808{fill:url(#SVGID_684_);}
	.st809{fill:url(#SVGID_685_);}
	.st810{fill:url(#SVGID_686_);}
	.st811{fill:url(#SVGID_687_);}
	.st812{fill:url(#SVGID_688_);}
	.st813{fill:url(#SVGID_689_);}
	.st814{fill:#ECB71E;}
	.st815{fill:#E8225A;}
	.st816{fill:#5D1E30;}
	.st817{fill:#3B1E27;}
	.st818{fill:#CB1E50;}
	.st819{fill:#AE1E49;}
	.st820{fill:#791F3A;}
	.st821{fill:#F1F2F2;}
	.st822{fill:url(#SVGID_690_);}
	.st823{fill:url(#SVGID_691_);}
	.st824{fill:url(#SVGID_692_);}
	.st825{fill:url(#SVGID_693_);}
	.st826{fill:url(#SVGID_694_);}
	.st827{fill:url(#SVGID_695_);}
	.st828{fill:url(#SVGID_696_);}
	.st829{fill:url(#SVGID_697_);}
	.st830{fill:url(#SVGID_698_);}
	.st831{fill:url(#SVGID_699_);}
	.st832{fill:url(#SVGID_700_);}
	.st833{fill:url(#SVGID_701_);}
	.st834{fill:url(#SVGID_702_);}
	.st835{fill:url(#SVGID_703_);}
	.st836{fill:url(#SVGID_704_);}
	.st837{fill:url(#SVGID_705_);}
	.st838{fill:url(#SVGID_706_);}
	.st839{fill:url(#SVGID_707_);}
	.st840{fill:url(#SVGID_708_);}
	.st841{fill:url(#SVGID_709_);}
	.st842{fill:url(#SVGID_710_);}
	.st843{fill:url(#SVGID_711_);}
	.st844{fill:#E5A457;}
	.st845{fill:url(#SVGID_712_);}
	.st846{fill:url(#SVGID_713_);}
	.st847{fill:url(#SVGID_714_);}
	.st848{fill:url(#SVGID_715_);}
	.st849{fill:url(#SVGID_716_);}
	.st850{fill:url(#SVGID_717_);}
	.st851{fill:url(#SVGID_718_);}
	.st852{opacity:0.25;fill:url(#SVGID_719_);}
	.st853{fill:url(#SVGID_720_);}
	.st854{fill:url(#SVGID_721_);}
	.st855{fill:#8EA8CE;}
	.st856{fill:url(#SVGID_722_);}
	.st857{fill:#A0B0D3;}
	.st858{fill:#DDE8F7;}
	.st859{fill:url(#SVGID_723_);}
	.st860{fill:url(#SVGID_724_);}
	.st861{opacity:0.5;fill:url(#SVGID_725_);}
	.st862{opacity:0.5;fill:url(#SVGID_726_);}
	.st863{opacity:0.35;fill:url(#SVGID_727_);}
	.st864{fill:url(#SVGID_728_);}
	.st865{opacity:0.25;fill:url(#SVGID_729_);}
	.st866{fill:url(#SVGID_730_);}
	.st867{fill:url(#SVGID_731_);}
	.st868{fill:url(#SVGID_732_);}
	.st869{fill:url(#SVGID_733_);}
	.st870{fill:url(#SVGID_734_);}
	.st871{opacity:0.5;fill:url(#SVGID_735_);}
	.st872{opacity:0.5;fill:url(#SVGID_736_);}
	.st873{opacity:0.35;fill:url(#SVGID_737_);}
	.st874{fill:url(#SVGID_738_);}
	.st875{fill:url(#SVGID_739_);}
	.st876{fill:url(#SVGID_740_);}
	.st877{fill:url(#SVGID_741_);}
	.st878{fill:url(#SVGID_742_);}
	.st879{fill:url(#SVGID_743_);}
	.st880{fill:url(#SVGID_744_);}
	.st881{fill:url(#SVGID_745_);}
	.st882{fill:url(#SVGID_746_);}
	.st883{fill:url(#SVGID_747_);}
	.st884{fill:url(#SVGID_748_);}
	.st885{fill:url(#SVGID_749_);}
	.st886{fill:url(#SVGID_750_);}
	.st887{fill:url(#SVGID_751_);}
	.st888{fill:url(#SVGID_752_);}
	.st889{fill:url(#SVGID_753_);}
	.st890{fill:url(#SVGID_754_);}
	.st891{fill:url(#SVGID_755_);}
	.st892{fill:url(#SVGID_756_);}
	.st893{fill:url(#SVGID_757_);}
	.st894{fill:url(#SVGID_758_);}
	.st895{fill:url(#SVGID_759_);}
	.st896{clip-path:url(#SVGID_761_);}
	.st897{fill:url(#SVGID_762_);}
	.st898{fill:url(#SVGID_763_);}
	.st899{fill:url(#SVGID_764_);}
	.st900{fill:url(#SVGID_765_);}
	.st901{fill:url(#SVGID_766_);}
	.st902{fill:url(#SVGID_767_);}
	.st903{fill:url(#SVGID_768_);}
	.st904{fill:url(#SVGID_769_);}
	.st905{fill:url(#SVGID_770_);}
	.st906{fill:url(#SVGID_771_);}
	.st907{fill:url(#SVGID_772_);}
	.st908{fill:url(#SVGID_773_);}
	.st909{fill:url(#SVGID_774_);}
	.st910{fill:url(#SVGID_775_);}
	.st911{fill:url(#SVGID_776_);}
	.st912{fill:url(#SVGID_777_);}
	.st913{fill:url(#SVGID_778_);}
	.st914{fill:url(#SVGID_779_);}
	.st915{fill:url(#SVGID_780_);}
	.st916{fill:url(#SVGID_781_);}
	.st917{fill:url(#SVGID_782_);}
	.st918{fill:url(#SVGID_783_);}
	.st919{fill:url(#SVGID_784_);}
	.st920{fill:url(#SVGID_785_);}
	.st921{fill:url(#SVGID_786_);}
	.st922{fill:url(#SVGID_787_);}
	.st923{fill:url(#SVGID_788_);}
	.st924{fill:url(#SVGID_789_);}
	.st925{fill:url(#SVGID_790_);}
	.st926{fill:url(#SVGID_791_);}
	.st927{fill:url(#SVGID_792_);}
	.st928{fill:url(#SVGID_793_);}
	.st929{fill:url(#SVGID_794_);}
	.st930{fill:url(#SVGID_795_);}
	.st931{fill:url(#SVGID_796_);}
	.st932{fill:url(#SVGID_797_);}
	.st933{fill:url(#SVGID_798_);}
	.st934{fill:url(#SVGID_799_);}
	.st935{fill:url(#SVGID_800_);}
	.st936{fill:url(#SVGID_801_);}
	.st937{fill:url(#SVGID_802_);}
	.st938{fill:url(#SVGID_803_);}
	.st939{fill:url(#SVGID_804_);}
	.st940{fill:url(#SVGID_805_);}
	.st941{fill:url(#SVGID_806_);}
	.st942{fill:url(#SVGID_807_);}
	.st943{fill:url(#SVGID_808_);}
	.st944{fill:url(#SVGID_809_);}
	.st945{fill:url(#SVGID_810_);}
	.st946{fill:url(#SVGID_811_);}
	.st947{fill:url(#SVGID_812_);}
	.st948{fill:url(#SVGID_813_);}
	.st949{fill:url(#SVGID_814_);}
	.st950{fill:url(#SVGID_815_);}
	.st951{fill:url(#SVGID_816_);}
	.st952{fill:url(#SVGID_817_);}
	.st953{fill:url(#SVGID_818_);}
	.st954{fill:url(#SVGID_819_);}
	.st955{fill:url(#SVGID_820_);}
	.st956{fill:url(#SVGID_821_);}
	.st957{fill:#6BBE45;}
	.st958{fill:url(#SVGID_822_);}
	.st959{fill:url(#SVGID_825_);}
	.st960{fill:url(#SVGID_830_);}
	.st961{fill:url(#SVGID_839_);}
	.st962{fill:url(#SVGID_842_);}
	.st963{fill:url(#SVGID_851_);}
	.st964{fill:url(#SVGID_854_);}
	.st965{fill:url(#SVGID_857_);}
	.st966{fill:url(#SVGID_860_);}
	.st967{fill:url(#SVGID_863_);}
	.st968{fill:url(#SVGID_870_);}
	.st969{fill:url(#SVGID_871_);}
	.st970{fill:url(#SVGID_872_);}
	.st971{fill:url(#SVGID_879_);}
	.st972{fill:url(#SVGID_880_);}
	.st973{fill:url(#SVGID_881_);}
	.st974{fill:url(#SVGID_884_);}
	.st975{fill:#FCFCF7;}
	.st976{fill:url(#SVGID_891_);}
	.st977{fill:url(#SVGID_892_);}
	.st978{fill:#ED1C24;}
	.st979{fill:#87C54E;}
	.st980{fill:#EF9532;}
	.st981{fill:#A64329;}
	.st982{fill:#742B1D;}
	.st983{fill:#C2573F;}
	.st984{fill:#9A3C30;}
	.st985{fill:#1B75BC;}
</style>
<g id="Layer_1">
	<g>
		<defs>
			<rect id="SVGID_257_" width="960.26" height="32.24"/>
		</defs>
		<clipPath id="SVGID_2_">
			<use xlink:href="#SVGID_257_"  style="overflow:visible;"/>
		</clipPath>
		<g style="clip-path:url(#SVGID_2_);">
			<path class="st0" d="M1014.6,88.03c0.2-1.39-0.09-2.94-2.3-4.2c-1.72-0.98-5.64-1.56-7.28-2.5c-2.1-1.21,0.05-3.36,0.6-4.64
				c0.74-1.72,0.91-3.4-2.11-4.95c-1.92-0.99-5.04-1.78-7.72-2.6c-4.02-1.24-2.84-2.7-2.54-4.37c0.73-4.04,2.75-8.04,3.3-12.08
				c0.53-3.9-0.05-7.82-1.98-11.68c-1.88-3.76-7.28-7.36-8.95-11.08c-0.85-1.88,1.91-2.84,4.72-4.39c2.86-1.58,2.25-3.34,2.09-5.08
				c-0.36-4-1.02-8-1.06-12c-0.01-1.28,0.99-2.72-1.6-3.8c-2.16-0.9-5.48-1.68-8.07-2.48c-2.11-0.65-5.11-1.99-7.95-2.26
				c-1.92-0.18-6.68,0.08-9.14,0.03c-4.24-0.09-8.48-0.23-12.69-0.41c8.72-2.01,23.86-1.1,34.2-1.31c6.01-0.12,12-0.33,17.94-0.62
				c4.65-0.23,3.75-0.19,3.66-1.45c-0.04-0.63,0.27-1.27,0.57-1.89c0.7-1.44,2.13-2.91,1.43-4.37c-0.64-1.34-3.66-2.33-4.99-3.59
				c-3.08-2.9,0.87-6.62,0.79-9.64c-0.1-3.35-1.35-6.75-4.14-10c-1.4-1.64-4.58-1.87-7.2-3.11c-4.05-1.91-1.58-6.02-1.12-8.3
				c0.41-2.01,1.45-7.91,13.71-6.69c1.03-4.14,2.05-8.27,3.08-12.4c0.45-1.8,1.67-3.74,1.34-5.55c-0.24-1.33-2.36-1.83-5.32-2.74
				c-2.37-0.73-4.75-1.46-7.12-2.19c-3.23-0.99-4.14-1.51-9.17-1.42c-14.19,0.26-28.4,0.86-42.54,1.28
				c13.23-1.2,27.47-0.74,40.9-1.66c7.19-0.49,10.91-1.02,10.97-3.31c0.05-2.03-1.19-3.51,3.75-5.13
				c10.22-3.36-0.38-6.61-2.86-10.26c-2.38-3.5,0.65-6.96,2.31-10.42c1.04-2.16,1.83-4.34,2.14-6.52c0.22-1.53,0.51-2.55-3.07-3.59
				c-2.61-0.75-5.29-1.56-7.8-2.34c-1.38-0.43-2.6-0.95-4.17-1.31c-4.31-0.98-13.85-0.65-19.63-0.71
				c-64.68-0.65-128.94,1.96-193.16,3.77c-31.98,0.9-64,1.46-96.14,1.41c-16.55-0.02-33.1-0.18-49.61-0.48
				c-14.54-0.26-29.57-0.68-43.66,0.68c-6.26,0.6-12.01,1.58-18.26,2.19c-7.61,0.74-15.56,0.85-23.53,0.82
				c-16.53-0.07-33.07-0.29-49.6-0.44c-32.83-0.3-65.65-0.59-98.48-0.89c-16.18-0.15-32.35-0.29-48.53-0.44
				c-7.24-0.07-14.58-0.08-21.65-0.58c-7.58-0.54-14.49-1.62-22.2-2.04c-15.5-0.85-32.03-0.4-47.72-0.36
				c-16.05,0.04-32.09,0.08-48.14,0.12c-64.98,0.16-129.91,0.07-194.88,0.08c-31.92,0-63.88,0.19-95.7,0.98
				c-5.06,0.13-14.05-0.17-15.18,1.7c-1.14,1.89,2.78,4.8,4.18,6.66c3.24,4.33,6.85,8.71,6.44,13.17c-0.2,2.18-1.92,4.26-3.04,6.41
				c-1.05,2.01,0.42,2.83,5.02,4.24c2.95,0.9,6,1.47,5.48,2.82c-0.72,1.88-5.54,3.4-6.29,5.3c-0.64,1.63,1.59,3.14,2.6,4.71
				c1.34,2.06,1.63,4.19,1.65,6.29c0.03,4.27-1.57,8.52-2.57,12.77c-0.88,3.73,0.16,7.52-3.4,11.13c-2.9,2.93,3.39,4.19,9.81,6.16
				c2.98,0.92,5.59,1.99,9.72,2.4c4.21,0.42,2.79,0.23,5.03,1.42c1.23,0.65,2.87,1.15,4.61,1.68c5.15,1.58,10.83,4.09,17.82,4.94
				c5.26,0.64,11.77,0.48,17.33,0.67c7.79,0.26,15.5,0.71,23.05,1.32c-4.7,2.49-10.77,1.58-18.45,1.63
				c-7.42,0.05-16.21,1.09-23.1,1.87c-6.28,0.7-11.09,1.68-12.97,3.61c-0.88,0.9-0.94,1.75-3.95,2.3c-3.54,0.65-9.5,0.63-13.43,0.82
				c-3.78,0.18-10.59,0.16-13.98,0.65c-3.33,0.49-2.75,0.78-2.38,1.87c1.02,3,2.24,6,3.36,9c2.06,5.52-0.99,10.78-0.64,16.28
				c0.14,2.18,0.48,4.71,5.32,6.5c2.82,1.04,7.59,1.89,9.57,3.07c1.64,0.98,1.49,2.88,1.8,3.95c0.38,1.32,0.55,2.65,0.5,3.98
				c-0.05,1.31-0.09,2.68-0.81,3.98c-0.98,1.77-3.35,1.58-7.89,2.24c-6.61,0.96-3.72,4.11-3.46,5.83c0.47,3.15,0.94,6.3,1.41,9.44
				c0.36,2.41,0.01,5.25,4.78,7.35c2.97,1.31,7.57,2.43,11.28,3.57c4.51,1.39,9.58,2.58,14.08,3.9c3.88,1.14,7.6,2.34,11.39,3.5
				c6.47,1.99,10.92,1.98,20.14,1.85c4.6-0.06,9.17-0.09,13.65,0.28c4.75,0.38,8.7,1.26,13.31,1.73
				c-11.32,1.73-24.82,1.85-36.6,0.46c-9.3-1.1-19.32-3.4-29.94-3.14c-13.15,0.31-7.42,6.23-6.87,8.63c0.68,3.01-4.06,5.4-5.49,8.3
				c-1.12,2.26,2.05,3.66,7.05,5.18c2.95,0.9,3.29,1.58,3.57,2.89c0.48,2.17,0.85,4.34,1.28,6.52c0.77,3.9,3.1,7.94-0.6,11.75
				c-3.86,3.97-1.31,8.01,0.17,12.04c0.64,1.76,0.5,3.88,3.34,5.49c1.88,1.06,5.4,1.9,8.21,2.76c5.66,1.74,10.67,3.79,19.09,4.35
				c12.75,0.85,27.67,0.04,40.59-0.11c58.9-0.69,117.85-1.06,176.8-0.96c59.44,0.1,118.89,0.68,178.2,1.87
				c26.1,0.53,52.72,1.49,78.79,0.34c13.16-0.58,25.05-1.83,36.9-3.57c11.96-1.75,23.86-2.08,37.04-2.32
				c29.94-0.53,59.89-1.06,89.83-1.58c14.73-0.26,29.47-0.52,44.2-0.78c14.24-0.25,29.44-0.98,43.68-0.67
				c6.5,0.14,11.29,1.06,16.98,1.87c5.97,0.84,12.38,1.33,18.95,1.58c13.26,0.5,26.8,0.07,40.07-0.17
				c29.53-0.55,59.06-1.18,88.6-1.64c13.85-0.22,27.24-0.11,40.83,0.74c13.73,0.86,27.46,1.77,41.41,2.29
				c13.4,0.5,27.01,0.62,40.4,0.03c5.3-0.24,14.11-0.4,18.29-1.5c4.61-1.21,3.15-4.02,3.45-5.66c0.34-1.88,0.76-3.75,1.24-5.62
				c0.45-1.75,2.43-3.94-1.37-5.47c-0.94-0.38-2.45-0.65-3.34-1.03c-3.13-1.36-1.25-3.11-3.26-4.63c-1.87-1.41-5.31-2.6-5.1-4.19
				c0.21-1.59,3.5-2.94,6.47-4.21c2.59-1.11,5.44-2.2,6.9-3.49c2.23-1.96,1.02-4.01,0.39-6.01
				C1009.11,94.85,1014.1,91.6,1014.6,88.03z M933.1-69.69c-4.93,2.47-15.25,1.94-23.79,1.95c-10.83,0.02-21.66-0.08-32.47-0.28
				c18.8-0.27,40.74-0.76,58.28-2.9C934.54-70.49,933.87-70.08,933.1-69.69z M25.4,77.07c5.82-1.08,13.23-1.68,20.14-1.53
				c3.12,0.07,6.28,0.3,8.99,0.76c3.2,0.55,5.08,1.54,8.38,2.02c-7.1,0-14.38,0.12-21.44-0.11C38.47,78.11,26.68,76.83,25.4,77.07z"
				/>
			<g>
				<path class="st1" d="M923.79-4.83l10.13,5.03l18.02-0.66c8.72-2.01,23.86-1.1,34.2-1.31c6.01-0.12,12-0.33,17.94-0.62
					c2.04-0.1,2.98-0.15,3.42-0.28l-17.25-5.02h-57.21L923.79-4.83z"/>
			</g>
			<g>
				
					<radialGradient id="SVGID_3_" cx="69.1344" cy="130.0013" r="329.8965" gradientTransform="matrix(3.2136 0 0 0.9344 173.5067 -102.9375)" gradientUnits="userSpaceOnUse">
					<stop  offset="0" style="stop-color:#D36C28"/>
					<stop  offset="0.396" style="stop-color:#CE6A28"/>
					<stop  offset="0.7541" style="stop-color:#BF6528"/>
					<stop  offset="1" style="stop-color:#B06027"/>
				</radialGradient>
				<path class="st2" d="M402.16,4.05c-4.89,0.21-9.87,0.48-14.9,0.75c0.42,0,0.92,0,1.33,0l15.49-0.07
					c20.91-0.09,38.2-0.52,38.44-0.94c0.02-0.04,0.33-0.07,0.72-0.09c-0.09,0-0.19,0-0.28-0.01C428.89,3.41,415.63,3.41,402.16,4.05
					z"/>
				
					<radialGradient id="SVGID_4_" cx="69.1344" cy="129.9993" r="329.8786" gradientTransform="matrix(3.2136 0 0 0.9344 173.5067 -102.9375)" gradientUnits="userSpaceOnUse">
					<stop  offset="0" style="stop-color:#D36C28"/>
					<stop  offset="0.396" style="stop-color:#CE6A28"/>
					<stop  offset="0.7541" style="stop-color:#BF6528"/>
					<stop  offset="1" style="stop-color:#B06027"/>
				</radialGradient>
				<path class="st3" d="M-53.42,6.16C-32.54,5.82,1.58,5.09,22.4,4.54l16.45-0.43c20.82-0.55,54.79-0.28,75.49,0.59l15.88,0.67
					c20.69,0.87,54.6,0.96,75.34,0.2l15.45-0.57c8.01-0.29,18.01-0.53,28.47-0.69c-20.25-0.5-40.52-0.94-60.83-1.25
					C98.42,1.69,7.69,1.9-83.79,2.08c0.13,0.35,0.26,0.7,0.39,1.05c0.44,1.19,0.51,2.34,0.44,3.47c5.33-0.06,10.41-0.12,14.81-0.2
					L-53.42,6.16z"/>
				
					<radialGradient id="SVGID_5_" cx="69.134" cy="129.9996" r="329.8803" gradientTransform="matrix(3.2136 0 0 0.9344 173.5067 -102.9375)" gradientUnits="userSpaceOnUse">
					<stop  offset="0" style="stop-color:#D36C28"/>
					<stop  offset="0.396" style="stop-color:#CE6A28"/>
					<stop  offset="0.7541" style="stop-color:#BF6528"/>
					<stop  offset="1" style="stop-color:#B06027"/>
				</radialGradient>
				<path class="st4" d="M768.4,18.93c6.21,0,13.63,0.04,21.48,0.11c-10.1-0.27-20.15-0.5-30.16-0.58
					c-16.88-0.13-34.08,0.18-51.57,0.42c16,0.02,32.75,0.04,44.97,0.04L768.4,18.93z"/>
				
					<radialGradient id="SVGID_6_" cx="69.1345" cy="129.9997" r="329.8788" gradientTransform="matrix(3.2136 0 0 0.9344 173.5067 -102.9375)" gradientUnits="userSpaceOnUse">
					<stop  offset="0" style="stop-color:#D36C28"/>
					<stop  offset="0.396" style="stop-color:#CE6A28"/>
					<stop  offset="0.7541" style="stop-color:#BF6528"/>
					<stop  offset="1" style="stop-color:#B06027"/>
				</radialGradient>
				<path class="st5" d="M22.24,31.95l17.41,1.23c20.31,1.44,53.83,1.82,74.47,0.85l16.05-0.76c20.64-0.97,54.62-1.56,75.52-1.31
					l15.99,0.19c20.89,0.25,55.09,0.6,75.99,0.77l14.6,0.12c17.09,0.14,42.98,0.34,63.32,0.49c-13.59-0.31-27.05-0.75-40.37-1.19
					c-37.56-1.26-74.98-2.57-112.36-3.95c-37.33-1.43-74.66-2.86-112.1-4.29c-18.51-0.68-36.88-1.15-54.95-0.81
					c-17.9,0.28-35.96,1.82-55.48,2.71c-9.71,0.44-19.95,0.67-30.06,0.44c-10.02-0.22-19.47-0.74-28.69-1
					c-4.33-0.14-8.71-0.19-13.13-0.17c0.83,0.37,1.22,0.81,1.49,1.25c1.35,2.16,2.05,4.34,2.22,6.54l16.2-1.14
					C-31.33,30.5,1.93,30.51,22.24,31.95z"/>
				
					<radialGradient id="SVGID_7_" cx="69.1343" cy="129.9997" r="329.88" gradientTransform="matrix(3.2136 0 0 0.9344 173.5067 -102.9375)" gradientUnits="userSpaceOnUse">
					<stop  offset="0" style="stop-color:#D36C28"/>
					<stop  offset="0.396" style="stop-color:#CE6A28"/>
					<stop  offset="0.7541" style="stop-color:#BF6528"/>
					<stop  offset="1" style="stop-color:#B06027"/>
				</radialGradient>
				<path class="st6" d="M936.33,6.99c-20.88-0.3-54.72,0.47-75.2,1.71l-17.51,1.06c-20.47,1.24-54.33,2.25-75.24,2.26l-15.23,0.01
					c-20.91,0.01-55.12,0.11-76.03,0.23l-15.46,0.09c-20.91,0.12-55.11,0.05-76.01-0.15l-15.53-0.15
					c-20.9-0.2-38.04-0.44-38.08-0.52s-16.92-1.03-37.51-2.11l-15.88-0.83c-20.58-1.07-54.48-1.57-75.33-1.12L388.29,7.8
					c-20.85,0.46-55.01,0.73-75.92,0.6L297.84,8.3c-20.91-0.13-54.8,0.71-75.33,1.88L205,11.17c-20.52,1.16-53.94,0.94-74.26-0.49
					l-17.7-1.25C92.71,8,59.03,7.22,38.18,7.7L23.84,8.03C2.99,8.51-31.09,9.39-51.9,9.98l-16.67,0.47
					c-5.43,0.15-10.6,0.33-15.29,0.52c-0.19,0.64-0.37,1.28-0.55,1.91c15.63-0.27,30.99-0.09,46.3,0.03
					c31.01,0.29,61.93,0.8,92.85,0.45c7.76-0.08,15.32-0.29,23.34-0.4c7.92-0.12,15.83-0.1,23.73-0.04
					c15.79,0.14,31.48,0.53,47.2,0.87c31.29,0.63,63.44,1.28,94.52-1.23c-30.93,3-63.91,2.75-95.49,2.46
					c-15.88-0.16-31.65-0.39-47.3-0.37c-15.68-0.06-30.89,0.53-46.78,0.86c-31.49,0.57-62.72,0.22-93.64,0.05
					c-15.25-0.07-30.41-0.19-45.26,0.12c-0.1,1.29,0.02,2.61,0.61,3.98c0.18,0.4,0.39,0.82,0.68,1.23
					c5.44,0.05,10.6,0.11,15.08,0.22l15.6,0.38c16.77,0.41,41.92,0.24,61.9-0.34c14.88-1.03,30.28-2.3,46.65-2.7
					c19.87-0.52,39.49-0.12,58.53,0.46c16.06,0.53,32,1.08,47.92,1.63c15.64,0.1,31.9-0.01,43.84-0.35l15.08-0.43
					c20.81-0.6,54.89-1.47,75.74-1.95l15.85-0.36c20.85-0.48,38.04-0.6,38.21-0.27c0.17,0.32,17.12,1.51,37.67,2.64l15.82,0.87
					c20.55,1.13,54.31,1.38,75.04,0.57l15.19-0.6c20.72-0.81,54.78-1.57,75.69-1.68l15.67-0.08c18.36-0.1,46.98-0.15,67.84-0.12
					c-2.01-0.05-4.03-0.08-6.03-0.15c-18.96-0.58-37.6-1.58-56.19-2.56c-18.59-0.97-37.22-1.93-56.15-2.38
					c-18.9-0.42-38.18-0.29-57.17,0.89c18.65-1.64,38.24-2.22,57.58-2.2c19.37,0.06,38.52,0.65,57.42,1.28
					c18.89,0.64,37.57,1.31,56.08,1.57c18.47,0.31,36.74-0.03,55.31-0.52c18.53-0.47,37.31-1.06,56.46-1.07
					c19.12-0.02,37.88,0.46,56.29,0.91c18.41,0.44,36.54,0.85,54.33,0.71c17.97-0.1,34.64-0.91,52.27-2.37
					c16.18-1.25,33.99-2.71,52.89-2.52c-0.08-0.9-0.16-1.81-0.24-2.71c-9.76-0.2-19.06-0.37-26.62-0.48L936.33,6.99z M486.83,16.25
					c-6.28,0.98-13.67,1.38-20.89,1.32c-7.25-0.05-14.31-0.5-21.02-1.05c-13.55-1.11-25.66-2.56-38.48-2.85
					c-12.89-0.4-26.34-0.24-40.18-0.36c-13.75-0.13-28.37-0.5-41.47-2.23c28.25,1.53,54.53-1.12,82.97-0.21
					c14.46,0.36,27.51,2.2,39.78,3.66C459.86,16.01,472.95,17.32,486.83,16.25z"/>
				
					<radialGradient id="SVGID_8_" cx="69.1345" cy="129.9998" r="329.8794" gradientTransform="matrix(3.2136 0 0 0.9344 173.5067 -102.9375)" gradientUnits="userSpaceOnUse">
					<stop  offset="0" style="stop-color:#D36C28"/>
					<stop  offset="0.396" style="stop-color:#CE6A28"/>
					<stop  offset="0.7541" style="stop-color:#BF6528"/>
					<stop  offset="1" style="stop-color:#B06027"/>
				</radialGradient>
				<path class="st7" d="M859.85-1.89l-15.72,0.36c-20.85,0.48-54.9,0.31-75.69-0.36L752.57-2.4c-20.78-0.67-54.89-1.11-75.79-0.97
					l-14.37,0.1c-20.9,0.14-55.12,0.28-76.02,0.32l-15.85,0.03c-20.91,0.03-54.95-0.65-75.65-1.51L479.24-5.1
					c-20.7-0.87-54.26-0.41-74.59,1.01l-17.38,1.22c-20.33,1.42-53.76,1.65-74.3,0.5L296.2-3.3c-20.54-1.15-54.27-1.37-74.96-0.5
					l-15.71,0.66c-5.34,0.22-11.57,0.4-18.22,0.54c1.58,0.02,3.16,0.03,4.74,0.06c28.47,0.45,56.92,1.09,85.31,1.99
					c28.38,0.89,56.06,2.11,82.86,1.29c13.41-0.4,27.26-1.3,41.96-1.83c14.85-0.58,30.11-0.39,44.4-0.01
					c28.48,0.84,56.49,1.53,84.97,1.89c56.82,0.76,113.99,0.44,171.61-0.92c7.31-0.14,14.87-0.23,22.51,0.05
					c7.7,0.27,14.88,0.95,21.77,1.57c13.61,1.28,27.63,1.98,42.04,2.1c28.82,0.28,57.8-1.38,86.59-3.07
					c-28.69,2.16-57.6,4.29-87.4,4.39C773.86,5,758.8,4.41,744.57,3.25c-7.07-0.54-13.95-1.06-20.84-1.17
					c-6.94-0.13-14,0.05-21.15,0.29C644.69,4.44,586.59,5.33,528.94,5c-24.72-0.11-49.62-0.54-74.05-1.06
					c6.72,0.27,15.57,0.72,25.3,1.3l15.72,0.94c20.48,1.22,54.35,2.27,75.26,2.31l15.05,0.03c20.91,0.05,55.11-0.1,76.01-0.33
					l14.88-0.17C698,7.8,732.17,7.33,753.05,7l14.16-0.23c20.88-0.34,54.89-1.34,75.57-2.22l16.54-0.71
					c20.69-0.89,54.72-1.59,75.63-1.57l17,0.02c6.96,0.01,15.43,0.11,24.32,0.27c0.15-1.59,0.08-3.15-4-2.48
					c-13.58-0.14-27.11-0.71-40.25-1.71c-0.14-0.12-0.17-0.25-0.24-0.38C910.77-2.38,879.49-2.33,859.85-1.89z"/>
				
					<radialGradient id="SVGID_9_" cx="69.1345" cy="129.9997" r="329.8794" gradientTransform="matrix(3.2136 0 0 0.9344 173.5067 -102.9375)" gradientUnits="userSpaceOnUse">
					<stop  offset="0" style="stop-color:#D36C28"/>
					<stop  offset="0.396" style="stop-color:#CE6A28"/>
					<stop  offset="0.7541" style="stop-color:#BF6528"/>
					<stop  offset="1" style="stop-color:#B06027"/>
				</radialGradient>
				<path class="st8" d="M935.83,22.06c-20.79,0.64-54.82,0.63-75.6-0.02L844,21.53c-20.79-0.65-54.87-0.87-75.74-0.49l-15.38,0.28
					c-20.87,0.38-55.03,0.44-75.91,0.13l-15.09-0.22c-20.88-0.31-55.06-0.33-75.95-0.05l-14.93,0.2
					c-20.89,0.28-54.96,1.11-75.72,1.83l-16.12,0.56c-20.76,0.73-54.63,0.52-75.26-0.46l-16.66-0.79
					c-20.63-0.98-54.63-1.81-75.54-1.84l-14.6-0.02c-20.91-0.03-55.03,0.46-75.83,1.1l-13.88,0.42c6.47,0.23,12.95,0.46,19.43,0.7
					c37.42,1.43,74.81,2.86,112.27,4.29c37.44,1.52,74.14,2.9,111.3,1.71c18.7-0.49,37.73-1.25,57.22-1.5
					c19.56-0.25,39.01,0.16,58.21,0.72c38.28,1.09,76.83,2.85,115.46,0.66c-38.28,3.15-78.58,2.18-116.94,1.79
					c-19.3-0.21-38.38-0.26-57.1,0.29c-18.78,0.55-37.51,1.57-56.67,2.3c-7.71,0.31-15.54,0.51-23.38,0.65
					c18.05-0.04,38.18-0.22,52.28-0.48L494.66,33c20.87-0.39,55.05-0.74,75.96-0.78l14.97-0.03c20.91-0.04,55.12-0.22,76.02-0.4
					l15.72-0.13c20.9-0.18,55.06,0.06,75.9,0.53l15.01,0.34c20.85,0.47,54.92,0.35,75.72-0.28l16.07-0.48
					c20.8-0.62,37.9-1.13,38-1.13c0.1,0,17.15,0.65,37.88,1.43l15.13,0.58c7.49,0.28,16.73,0.45,26.41,0.51
					c-1.23-1.74-2.73-3.47-4.57-5.17c-1.02-0.94-2.11-1.94-2.51-2.92c-19.8,0.28-39.89,1.03-60.01,1.6
					c-27.75,0.91-56.1,1.2-84.38,0.93c-28.32-0.22-56.76-0.79-85.62-1.04c57.96-0.37,114.73,0.52,169.83-2.01
					c20.42-0.75,40.72-1.67,61.39-2.04c0.86-0.51,2.02-0.97,3.07-1.45c-8.77,0.14-17.09,0.31-23.92,0.52L935.83,22.06z
					 M666.08,26.26c-11.11-0.5-22.11-1.04-33.29-1.38c-11.17-0.32-22.6-0.5-34.44,0.21c10.8-1.61,23.05-2.19,34.78-2.32
					c11.8-0.12,23.36,0.21,34.66,0.71c22.7,0.97,44.08,2.91,67.51,3.82C711.35,28.29,688.17,27.21,666.08,26.26z"/>
				
					<radialGradient id="SVGID_10_" cx="69.1352" cy="129.9997" r="329.8782" gradientTransform="matrix(3.2136 0 0 0.9344 173.5067 -102.9375)" gradientUnits="userSpaceOnUse">
					<stop  offset="0" style="stop-color:#D36C28"/>
					<stop  offset="0.396" style="stop-color:#CE6A28"/>
					<stop  offset="0.7541" style="stop-color:#BF6528"/>
					<stop  offset="1" style="stop-color:#B06027"/>
				</radialGradient>
				<path class="st9" d="M927.38,18.46c-8.94,0.69-18.41,1.37-28.06,1.75c-4.69,0.19-9.39,0.33-14.08,0.43
					c17.56,0.07,36.84-0.11,50.47-0.54l14.93-0.47c7.51-0.24,16.77-0.42,26.5-0.54c0.3-0.68,0.3-1.39,0.23-2.08
					c-0.03-0.36-0.06-0.71-0.1-1.07C961.3,15.74,944.82,17.1,927.38,18.46z"/>
				<path class="st62" d="M740.38,26.56c28.86,0.25,57.3,0.82,85.62,1.04c28.28,0.27,56.62-0.02,84.38-0.93
					c20.11-0.57,40.2-1.32,60.01-1.6c-0.35-0.86-0.19-1.7,1.06-2.48c0.04-0.03,0.11-0.05,0.15-0.07
					c-20.66,0.37-40.97,1.29-61.39,2.04C855.1,27.08,798.33,26.19,740.38,26.56z"/>
				<path class="st62" d="M447.54,14.55c-12.27-1.47-25.32-3.3-39.78-3.66c-28.44-0.91-54.73,1.73-82.97,0.21
					c13.1,1.72,27.73,2.1,41.47,2.23c13.84,0.12,27.29-0.04,40.18,0.36c12.82,0.29,24.93,1.74,38.48,2.85
					c6.71,0.55,13.77,0.99,21.02,1.05c7.22,0.06,14.61-0.34,20.89-1.32C472.95,17.32,459.86,16.01,447.54,14.55z"/>
				<path class="st62" d="M633.13,22.78c-11.72,0.13-23.97,0.71-34.78,2.32c11.83-0.71,23.26-0.54,34.44-0.21
					c11.18,0.34,22.18,0.88,33.29,1.38c22.09,0.95,45.27,2.03,69.22,1.04c-23.43-0.91-44.81-2.84-67.51-3.82
					C656.49,22.98,644.93,22.66,633.13,22.78z"/>
				<path class="st62" d="M-39.67,15.56c30.92,0.17,62.15,0.52,93.64-0.05c15.89-0.33,31.09-0.92,46.78-0.86
					c15.64-0.02,31.41,0.21,47.3,0.37c31.57,0.29,64.56,0.54,95.49-2.46c-31.08,2.51-63.23,1.86-94.52,1.23
					c-15.72-0.33-31.41-0.73-47.2-0.87c-7.89-0.06-15.8-0.08-23.73,0.04c-8.02,0.12-15.58,0.32-23.34,0.4
					c-30.92,0.35-61.84-0.16-92.85-0.45c-15.31-0.13-30.67-0.31-46.3-0.03c-0.25,0.92-0.44,1.85-0.52,2.79
					C-70.08,15.37-54.92,15.5-39.67,15.56z"/>
				<path class="st62" d="M188.67,3.05c20.31,0.31,40.58,0.75,60.83,1.25c16.62-0.26,34.4-0.32,47.22-0.13l15.9,0.24
					c20.47,0.3,53.65,0.48,74.65,0.4c5.03-0.27,10.01-0.54,14.9-0.75c13.47-0.64,26.73-0.64,40.8-0.36c0.09,0,0.19,0,0.28,0.01
					c1.52-0.08,5.71,0.01,11.65,0.25c24.42,0.52,49.33,0.95,74.05,1.06c57.65,0.33,115.76-0.56,173.64-2.64
					c7.15-0.24,14.22-0.41,21.15-0.29c6.89,0.11,13.77,0.63,20.84,1.17c14.23,1.15,29.29,1.74,44.1,1.66
					c29.8-0.1,58.71-2.23,87.4-4.39c-28.79,1.69-57.77,3.34-86.59,3.07c-14.42-0.12-28.44-0.82-42.04-2.1
					c-6.89-0.62-14.07-1.3-21.77-1.57c-7.64-0.28-15.2-0.19-22.51-0.05c-57.62,1.36-114.79,1.68-171.61,0.92
					c-28.48-0.36-56.49-1.05-84.97-1.89c-14.29-0.38-29.55-0.57-44.4,0.01c-14.7,0.53-28.55,1.43-41.96,1.83
					c-26.8,0.82-54.47-0.4-82.86-1.29c-28.39-0.9-56.84-1.54-85.31-1.99c-1.58-0.02-3.16-0.03-4.74-0.06
					c-19.13,0.39-41.8,0.41-57.24-0.03L114.2-3.08c-3.5-0.1-7.48-0.19-11.61-0.27C64.74-3.49,26.86-3.38-11.08-3.16
					c-14.78,0.33-29.82,0.74-41,1.17L-68.9-1.36c-4.76,0.18-10.25,0.28-16.05,0.33c0.39,1.04,0.77,2.07,1.16,3.11
					C7.69,1.9,98.42,1.69,188.67,3.05z"/>
				<path class="st62" d="M38.82,19.91c20.65-0.96,54.53-1.17,75.3-0.46L130.28,20c8.85,0.3,20.14,0.48,31.76,0.55
					c-15.92-0.56-31.86-1.11-47.92-1.63c-19.04-0.58-38.66-0.98-58.53-0.46c-16.37,0.4-31.77,1.67-46.65,2.7
					c4.85-0.14,9.49-0.3,13.53-0.49L38.82,19.91z"/>
				<path class="st62" d="M-29.75,26.45c10.11,0.23,20.36,0,30.06-0.44c19.52-0.89,37.58-2.43,55.48-2.71
					c18.07-0.34,36.44,0.13,54.95,0.81c37.44,1.43,74.77,2.86,112.1,4.29c37.39,1.38,74.81,2.69,112.36,3.95
					c13.32,0.45,26.78,0.88,40.37,1.19c4.53,0.03,8.88,0.06,12.69,0.09l15.25,0.11c6.78,0.05,15,0.05,23.67,0.03
					c7.85-0.14,15.67-0.34,23.38-0.65c19.16-0.73,37.9-1.75,56.67-2.3c18.72-0.55,37.8-0.51,57.1-0.29
					c38.36,0.38,78.66,1.36,116.94-1.79c-38.63,2.18-77.18,0.43-115.46-0.66c-19.21-0.56-38.65-0.97-58.21-0.72
					c-19.49,0.25-38.52,1.02-57.22,1.5c-37.16,1.19-73.85-0.19-111.3-1.71c-37.46-1.43-74.85-2.86-112.27-4.29
					c-6.48-0.24-12.95-0.46-19.43-0.7l-1.63,0.05c-20.8,0.63-54.73,0.41-75.4-0.5L114.17,21c-20.67-0.91-54.33-0.62-74.78,0.64
					l-16.76,1.03c-20.45,1.26-54.21,1.78-75.01,1.16l-16.09-0.48c-3.68-0.11-7.88-0.19-12.24-0.26c0.84,0.37,1.84,0.7,3.14,0.95
					c1.92,0.37,4.32,0.57,5.76,1.1c0.11,0.04,0.14,0.09,0.24,0.14c4.42-0.01,8.8,0.03,13.13,0.17
					C-49.22,25.71-39.76,26.23-29.75,26.45z"/>
				<path class="st62" d="M923.88,12.9c-17.64,1.45-34.3,2.27-52.27,2.37c-17.78,0.14-35.92-0.27-54.33-0.71
					c-18.41-0.44-37.17-0.93-56.29-0.91c-19.16,0.01-37.93,0.6-56.46,1.07c-18.57,0.49-36.83,0.83-55.31,0.52
					c-18.51-0.26-37.19-0.93-56.08-1.57c-18.89-0.63-38.05-1.23-57.42-1.28c-19.34-0.02-38.94,0.57-57.58,2.2
					c18.99-1.18,38.27-1.31,57.17-0.89c18.93,0.45,37.55,1.41,56.15,2.38c18.59,0.98,37.23,1.98,56.19,2.56
					c2,0.07,4.02,0.1,6.03,0.15c2.89,0,5.64,0.01,8.18,0.01l15.23,0.04c8.69,0.02,19.69,0.04,31.06,0.06
					c17.49-0.24,34.69-0.54,51.57-0.42c10.01,0.08,20.06,0.3,30.16,0.58c18.59,0.16,39.76,0.49,54.41,0.87l15.75,0.41
					c7.18,0.18,15.96,0.29,25.2,0.33c4.69-0.1,9.39-0.24,14.08-0.43c9.65-0.38,19.12-1.06,28.06-1.75
					c17.44-1.35,33.92-2.72,49.89-2.52c-0.17-1.85-0.34-3.71-0.5-5.56C957.87,10.18,940.05,11.64,923.88,12.9z"/>
				<path class="st63" d="M934.96,2.27c-20.91-0.02-54.94,0.68-75.63,1.57l-16.54,0.71c-20.69,0.88-54.7,1.88-75.57,2.22L753.05,7
					C732.17,7.33,698,7.8,677.1,8.03l-14.88,0.17c-20.89,0.23-55.1,0.38-76.01,0.33l-15.05-0.03c-20.91-0.05-54.77-1.09-75.26-2.31
					l-15.72-0.94c-9.72-0.58-18.58-1.03-25.3-1.3c-5.93-0.24-10.12-0.33-11.65-0.25c-0.39,0.02-0.69,0.05-0.72,0.09
					c-0.23,0.42-17.53,0.85-38.44,0.94L388.6,4.8c-0.41,0-0.91,0-1.33,0c-21,0.08-54.18-0.09-74.65-0.4l-15.9-0.24
					c-12.82-0.19-30.6-0.12-47.22,0.13c-10.46,0.16-20.46,0.39-28.47,0.69l-15.45,0.57c-20.75,0.76-54.65,0.67-75.34-0.2
					l-15.88-0.67C93.65,3.82,59.68,3.56,38.85,4.11L22.4,4.54C1.58,5.09-32.54,5.82-53.42,6.16l-14.73,0.24
					c-4.4,0.07-9.47,0.14-14.81,0.2c-0.09,1.48-0.47,2.93-0.91,4.37c4.7-0.19,9.86-0.36,15.29-0.52l16.67-0.47
					c20.81-0.59,54.89-1.47,75.74-1.95L38.18,7.7C59.03,7.22,92.71,8,113.03,9.43l17.7,1.25c20.32,1.43,53.74,1.65,74.26,0.49
					l17.51-0.99c20.52-1.16,54.42-2.01,75.33-1.88l14.53,0.09c20.91,0.13,55.07-0.14,75.92-0.6l15.02-0.33
					c20.85-0.46,54.75,0.04,75.33,1.12l15.88,0.83c20.58,1.07,37.46,2.02,37.51,2.11s17.18,0.32,38.08,0.52l15.53,0.15
					c20.9,0.2,55.1,0.27,76.01,0.15l15.46-0.09c20.91-0.12,55.12-0.22,76.03-0.23l15.23-0.01c20.91-0.01,54.77-1.02,75.24-2.26
					l17.51-1.06c20.47-1.24,54.31-2,75.2-1.71l13.58,0.19c7.56,0.11,16.86,0.28,26.62,0.48c-0.11-1.21-0.22-2.41-0.33-3.62
					c-0.04-0.45,0.03-0.97,0.08-1.49c-8.89-0.16-17.35-0.26-24.32-0.27L934.96,2.27z"/>
				<path class="st63" d="M935.92,32.07c-20.73-0.79-37.78-1.43-37.88-1.43c-0.1,0-17.2,0.51-38,1.13l-16.07,0.48
					c-20.8,0.62-54.87,0.75-75.72,0.28l-15.01-0.34c-20.85-0.47-55-0.71-75.9-0.53l-15.72,0.13c-20.9,0.18-55.11,0.36-76.02,0.4
					l-14.97,0.03c-20.91,0.04-55.09,0.39-75.96,0.78l-15.19,0.28c-14.1,0.26-34.23,0.44-52.28,0.48
					c-8.66,0.02-16.89,0.01-23.67-0.03l-15.25-0.11c-3.81-0.03-8.16-0.06-12.69-0.09c-20.34-0.15-46.23-0.35-63.32-0.49l-14.6-0.12
					c-20.9-0.17-55.1-0.52-75.99-0.77l-15.99-0.19c-20.89-0.25-54.87,0.34-75.52,1.31l-16.05,0.76C93.48,35,59.97,34.62,39.65,33.18
					l-17.41-1.23c-20.32-1.44-53.57-1.45-73.9-0.03l-16.2,1.14c0.08,1.1,0,2.2-0.21,3.29c0.04,0,0.08-0.01,0.12-0.01l16.16-1.1
					c20.36-1.39,53.52-1.22,73.7,0.37l17.68,1.4c20.18,1.59,53.34,1.75,73.68,0.35L131,36.14c20.35-1.4,53.98-1.95,74.74-1.22
					l15.43,0.54c20.76,0.73,54.85,1.42,75.75,1.52l15.22,0.08c20.91,0.1,55.1-0.07,75.98-0.38l15.4-0.23
					c20.88-0.32,55.07-0.48,75.98-0.37l15.55,0.08c20.91,0.11,55.12,0.18,76.03,0.15l14.9-0.02c20.91-0.03,55.09-0.38,75.96-0.78
					l15.04-0.29c18.35-0.35,46.95-0.32,67.75,0.03c2.85,0.05,5.56,0.1,8.07,0.16l15.41,0.37c20.84,0.5,38.1,1.21,38.36,1.58
					c0.26,0.37,17.29-0.24,37.85-1.36l15.75-0.85c3.41-0.18,7.27-0.33,11.29-0.45c20.16-0.61,46.31-0.46,63.44,0.49l16.67,0.92
					c7.91,0.44,17.78,0.73,28.09,0.88c-0.59-1.29-1.31-2.57-2.21-3.84c-9.69-0.06-18.92-0.22-26.41-0.51L935.92,32.07z"/>
				<path class="st63" d="M935.7,20.1c-13.62,0.43-32.91,0.61-50.47,0.54c-9.23-0.04-18.02-0.14-25.2-0.33l-15.75-0.41
					c-14.65-0.38-35.82-0.7-54.41-0.87c-7.84-0.07-15.27-0.11-21.48-0.11l-15.27,0c-12.22,0-28.97-0.02-44.97-0.04
					c-11.37-0.02-22.37-0.04-31.06-0.06l-15.23-0.04c-2.54-0.01-5.3-0.01-8.18-0.01c-20.86-0.02-49.48,0.02-67.84,0.12l-15.67,0.08
					c-20.91,0.11-54.97,0.87-75.69,1.68l-15.19,0.6c-20.72,0.81-54.49,0.56-75.04-0.57l-15.82-0.87
					c-20.55-1.13-37.5-2.31-37.67-2.64c-0.17-0.32-17.36-0.2-38.21,0.27l-15.85,0.36c-20.85,0.48-54.93,1.35-75.74,1.95l-15.08,0.43
					c-11.94,0.34-28.2,0.45-43.84,0.35c-11.62-0.07-22.9-0.25-31.76-0.55l-16.16-0.55c-20.77-0.71-54.66-0.5-75.3,0.46l-16.35,0.76
					c-4.04,0.19-8.67,0.34-13.53,0.49c-19.98,0.58-45.14,0.75-61.9,0.34l-15.6-0.38c-4.48-0.11-9.65-0.18-15.08-0.22
					c0.57,0.8,1.47,1.57,2.94,2.21c4.36,0.07,8.56,0.15,12.24,0.26l16.09,0.48c20.8,0.62,54.55,0.1,75.01-1.16l16.76-1.03
					c20.45-1.26,54.11-1.55,74.78-0.64l16.2,0.71c20.67,0.91,54.61,1.13,75.4,0.5l1.63-0.05l13.88-0.42
					c20.8-0.63,54.92-1.12,75.83-1.1l14.6,0.02c20.91,0.03,54.9,0.86,75.54,1.84l16.66,0.79c20.64,0.98,54.51,1.19,75.26,0.46
					l16.12-0.56c20.76-0.73,54.84-1.55,75.72-1.83l14.93-0.2c20.89-0.28,55.06-0.26,75.95,0.05l15.09,0.22
					c20.88,0.31,55.04,0.25,75.91-0.13l15.38-0.28c20.87-0.38,54.95-0.16,75.74,0.49l16.22,0.51c20.79,0.65,54.81,0.66,75.6,0.02
					l14.92-0.46c6.83-0.21,15.15-0.39,23.92-0.52c0.34-0.15,0.72-0.3,1-0.46c0.82-0.48,1.23-1,1.47-1.53
					c-9.73,0.12-18.99,0.31-26.5,0.54L935.7,20.1z"/>
			</g>
			<g>
				<path class="st64" d="M343.84,5.72c0,0-5.19-0.03-14.59-0.09c-9.39-0.03-23-0.01-39.79,0.26c-16.79,0.26-36.75,0.77-58.76,1.72
					c-11.01,0.47-22.51,1.05-34.37,1.76c-11.89,0.64-23.99,1.74-36.53,2.06c-12.62,0.37-24.52-0.89-36.27-1.75
					c-11.78-0.87-23.37-1.42-34.47-1.73C66.86,7.32,46.76,7.49,29.99,7.79C13.21,8.1-0.31,8.53-9.65,8.82
					c-9.34,0.31-14.5,0.47-14.5,0.47s5.2-0.06,14.6-0.17c9.39-0.11,22.98-0.3,39.71-0.37C46.88,8.7,66.79,8.78,88.48,9.57
					c10.84,0.4,22.09,1.01,33.47,1.9c5.68,0.43,11.57,1,17.98,1.42c6.34,0.43,13.53,0.65,20.39,0.47
					c13.83-0.37,25.58-1.5,37.32-2.18c11.71-0.75,23.06-1.41,33.92-1.96c21.72-1.12,41.47-1.87,58.12-2.37
					c16.65-0.51,30.2-0.77,39.58-0.92C338.65,5.8,343.84,5.72,343.84,5.72z"/>
				<path class="st1" d="M343.84,5.72c0,0-5.19,0.01-14.59,0.03c-9.39,0.04-22.97,0.16-39.71,0.51
					c-16.73,0.35-36.61,0.96-58.51,1.97c-10.95,0.5-22.4,1.12-34.19,1.84c-11.83,0.66-23.8,1.77-36.84,2.11
					c-13.24,0.39-25.59-0.95-37.08-1.8c-11.63-0.88-23.09-1.46-34.08-1.8c-22-0.69-42.03-0.62-58.78-0.41
					C13.3,8.38-0.25,8.72-9.61,8.94C-18.97,9.17-24.14,9.3-24.14,9.3S-19,9.06-9.71,8.64c9.31-0.4,22.78-0.98,39.59-1.44
					c16.8-0.45,37.02-0.77,59.54-0.24c11.25,0.26,23.05,0.78,35.08,1.63c12.13,0.86,23.33,2.02,34.98,1.67
					c11.76-0.3,24.06-1.37,36.05-1.99c11.95-0.68,23.55-1.23,34.64-1.64c22.18-0.84,42.28-1.21,59.15-1.32
					c16.87-0.12,30.51,0.01,39.92,0.15C338.66,5.59,343.84,5.72,343.84,5.72z"/>
			</g>
			<g>
				<path class="st64" d="M57.85,18.33c0,0-6.08,0.47-15.98,1.08c-9.9,0.61-23.68,1.29-39.02,1.71
					c-15.34,0.41-29.32,0.48-39.44,0.41c-10.12-0.07-16.39-0.21-16.39-0.21s6.05,0.62,16.22,1.17c10.13,0.56,24.49,0.97,40.23,0.55
					c15.74-0.43,29.59-1.61,39.2-2.7C52.29,19.27,57.85,18.33,57.85,18.33z"/>
				<path class="st1" d="M57.85,18.33c0,0-5.88,0.65-15.68,1.45c-9.79,0.8-23.59,1.67-39.09,2.09c-15.5,0.41-29.62,0.29-39.75,0.03
					c-10.14-0.26-16.32-0.58-16.32-0.58s6.33-0.15,16.5-0.38c10-0.26,23.76-0.61,38.96-0.99c15.18-0.43,28.93-0.82,38.92-1.11
					C51.54,18.53,57.85,18.33,57.85,18.33z"/>
			</g>
			<g>
				<path class="st64" d="M594.14,19.1c0,0-12.52,0.15-35.77,0.43c-11.62,0.15-25.92,0.34-42.67,0.57
					c-8.38,0.11-17.35,0.27-26.87,0.18c-4.75-0.05-9.63-0.18-14.57-0.44c-2.47-0.12-4.94-0.3-7.4-0.51
					c-1.25-0.1-2.35-0.22-4.01-0.38l-2.28-0.26l-1.14-0.13c-0.41-0.06-0.78-0.1-0.9,0c0.35-0.11-0.04-0.11-0.4,0.43
					c-0.25,0.25-0.64,0.57-1.25,0.9c-0.57,0.23-1.24,0.48-2.26,0.71c-3.98,1-11.7,1.48-19.66,1.8c-11.23,0.53-22.22,0.97-32.87,1.04
					c-10.65,0.08-20.86-0.35-30.53-0.88c-9.67-0.53-18.86-1.13-27.61-1.48c-8.74-0.36-16.96-0.51-24.45-0.52
					c-15.01-0.02-27.05,0.5-35.25,0.97c-8.2,0.48-12.64,0.86-12.64,0.86s4.55-0.27,12.82-0.56c8.26-0.28,20.3-0.56,35.01-0.3
					c7.35,0.12,15.36,0.4,23.82,0.86c8.46,0.46,17.46,1.15,27.22,1.78c9.71,0.63,20.47,1.16,31.71,1.13
					c11.17-0.01,22.51-0.45,33.82-0.98c5.43-0.25,11.69-0.5,17.15-1.24c2.74-0.37,5.37-0.86,7.44-1.53
					c0.53-0.15,0.97-0.35,1.42-0.52c0.48-0.19,0.18-0.08,0.3-0.14c0.02-0.02,0.01-0.03,0.01-0.05c0.01-0.01,0.08,0,0.13-0.01
					c0.07,0-0.03-0.01,0.2,0.01l1.89,0.17c2.52,0.2,5.04,0.37,7.54,0.49c5,0.25,9.9,0.36,14.63,0.39c9.48,0.06,18.3-0.17,26.5-0.37
					c16.4-0.45,30.86-0.85,42.86-1.18C580.06,19.63,594.14,19.1,594.14,19.1z"/>
				<path class="st1" d="M594.14,19.1c0,0-12.51,0.25-35.72,0.71c-11.61,0.22-25.89,0.48-42.63,0.8
					c-8.36,0.15-17.37,0.35-27.03,0.28c-4.83-0.03-9.81-0.15-14.89-0.4c-2.54-0.12-5.1-0.29-7.65-0.5c-1.28-0.09-2.64-0.24-3.5-0.32
					l-1.45-0.16l-0.72-0.08c-0.27-0.04-0.5-0.06-0.49,0.05c0.11-0.13,0.06-0.01-0.21,0.28c-0.16,0.14-0.43,0.33-0.87,0.54
					c-0.67,0.28-1.55,0.6-2.74,0.88c-4.69,1.18-13.01,1.65-20.86,1.97c-11.26,0.53-22.38,0.97-33.24,1.01
					c-10.88,0.06-21.3-0.41-30.99-0.98c-9.71-0.57-18.82-1.2-27.46-1.6c-8.63-0.4-16.77-0.6-24.21-0.65
					c-14.89-0.12-26.93,0.31-35.16,0.7c-8.23,0.41-12.71,0.74-12.71,0.74s4.36-0.45,12.53-1.04c8.16-0.57,20.21-1.25,35.39-1.37
					c7.58-0.07,15.92,0.01,24.84,0.31c8.92,0.29,18.22,0.83,27.84,1.3c9.65,0.47,19.53,0.84,29.81,0.73
					c10.33-0.09,21.11-0.55,32.29-1.07c5.77-0.26,10.76-0.48,14.51-0.97c1.84-0.23,3.23-0.51,4.08-0.77
					c0.26-0.06,0.36-0.13,0.56-0.19c0.16-0.04,0.62-0.49,0.9-0.7c0.57-0.59,1.03-1.22,1.43-1.69l6.74,0.78
					c1.09,0.13,2.36,0.27,3.29,0.35l1.6,0.16c2.15,0.19,4.32,0.36,6.51,0.49c4.38,0.27,8.81,0.42,13.21,0.51
					c8.8,0.18,17.42,0.1,25.65,0.05c16.47-0.07,31-0.14,43.05-0.19C579.95,19.03,594.14,19.1,594.14,19.1z"/>
			</g>
			<g>
				<path class="st64" d="M935.46,20.95c0,0-3.31,0.08-9.31,0.24c-5.99,0.14-14.68,0.29-25.42,0.32
					c-10.73,0.04-23.53-0.07-37.65-0.44c-7.06-0.19-14.45-0.44-22.08-0.78c-3.81-0.15-7.67-0.4-11.83-0.45
					c-4.07-0.08-8.79,0.19-12.28,0.97c-3.38,0.76-6.37,1.33-10.23,1.52c-3.74,0.22-7.65,0.21-11.52,0.22
					c-7.73,0.01-15.19,0.01-22.29,0.01c-14.21-0.03-27.01-0.11-37.75-0.21c-21.49-0.21-34.78-0.45-34.78-0.45s13.15,0.72,34.62,1.42
					c10.74,0.34,23.56,0.67,37.83,0.88c7.14,0.1,14.63,0.17,22.41,0.2c3.82,0.01,8.05,0.06,12.77-0.19
					c2.34-0.13,4.82-0.35,7.19-0.72c2.42-0.38,4.15-0.81,5.58-1.09c4.23-1.05,11.29-0.57,19.37-0.27
					c7.79,0.29,15.34,0.47,22.54,0.57c14.4,0.2,27.38,0.06,38.19-0.22c10.82-0.27,19.49-0.67,25.44-0.99
					C932.21,21.17,935.46,20.95,935.46,20.95z"/>
				<path class="st1" d="M935.46,20.95c0,0-3.3,0.13-9.27,0.35c-5.98,0.21-14.66,0.46-25.43,0.58C890,22.01,877.14,22,862.91,21.7
					c-7.11-0.15-14.57-0.38-22.26-0.7c-7.54-0.27-15.96-0.99-22.27,0.42c-3.04,0.71-7.05,1.46-11.22,1.63
					c-4.12,0.23-8.15,0.2-12,0.21c-7.75,0-15.22-0.02-22.34-0.07c-14.23-0.1-27.04-0.27-37.78-0.47
					c-21.49-0.4-34.72-0.82-34.72-0.82s13.34-0.05,34.88-0.14c10.74-0.06,23.52-0.12,37.71-0.2c7.08-0.05,14.52-0.1,22.22-0.15
					c3.9-0.03,7.61-0.04,10.75-0.23c3.4-0.21,4.78-0.49,8.68-1.34c1.88-0.41,4.7-0.82,7.29-0.99c2.63-0.18,5.15-0.21,7.47-0.18
					c4.69,0.07,8.53,0.34,12.25,0.5c7.52,0.36,14.82,0.66,21.79,0.9c13.95,0.48,26.63,0.73,37.32,0.85
					c10.69,0.12,19.39,0.11,25.41,0.08C932.12,20.97,935.46,20.95,935.46,20.95z"/>
			</g>
			<g>
				<path class="st64" d="M925.49,6c0,0-2.5-0.07-7.03-0.19c-4.53-0.11-11.09-0.27-19.24-0.31c-8.13-0.03-17.94,0.05-28.57,0.75
					c-5.38,0.31-10.64,0.94-16.06,1.57c-5.46,0.62-11.08,1.31-16.88,1.85c-23.47,2.18-46.17,2.37-62.31,2.5
					c-16.23,0.08-26.29,0.05-26.29,0.05s9.97,0.52,26.29,0.92c16.2,0.35,39.56,0.66,64.35-1.63c6.27-0.59,11.66-1.29,16.98-1.95
					c2.65-0.34,5.26-0.67,7.81-0.99c2.51-0.29,4.95-0.52,7.41-0.74c9.82-0.83,19.28-1.16,27.28-1.37c8.01-0.2,14.61-0.28,19.16-0.36
					C922.96,6.04,925.49,6,925.49,6z"/>
				<path class="st1" d="M925.49,6c0,0-2.51-0.02-7.05-0.07c-4.54-0.04-11.11-0.11-19.21-0.05c-8.08,0.07-17.75,0.24-28.06,0.99
					c-5.18,0.33-10.33,0.98-15.73,1.63c-5.4,0.63-10.93,1.33-16.92,1.89c-23.99,2.22-46.94,2.22-63.1,2.16
					c-16.27-0.11-26.29-0.33-26.29-0.33s10.06-0.24,26.29-0.64c16.1-0.42,38.39-0.92,61.06-3.03c5.52-0.52,11.28-1.2,16.82-1.79
					c2.77-0.29,5.49-0.58,8.16-0.87c2.79-0.26,5.66-0.45,8.42-0.61c11.11-0.62,21.14-0.54,29.35-0.37
					c8.24,0.19,14.77,0.5,19.29,0.72C922.99,5.87,925.49,6,925.49,6z"/>
			</g>
			<g>
				<path class="st64" d="M693.14,8.26c0,0-24.32,0.36-54.25,0.4c-29.93,0.06-54.27-0.23-54.27-0.23s5.94,0.54,15.72,1.1
					c9.77,0.55,23.44,1.09,38.58,1.07c15.14-0.02,28.78-0.6,38.54-1.19C687.22,8.82,693.14,8.26,693.14,8.26z"/>
				<path class="st1" d="M693.14,8.26c0,0-24.13,1.11-54.24,1.15c-30.11,0.06-54.28-0.98-54.28-0.98s24.59-0.9,54.24-0.95
					C668.53,7.44,693.14,8.26,693.14,8.26z"/>
			</g>
			<g>
				<path class="st64" d="M946.88,35.64c0,0-5.22-0.2-14.66-0.57c-9.45-0.32-23.17-0.85-40.27-0.8c-8.54,0.03-17.92,0.25-27.8,0.84
					c-4.89,0.29-9.97,0.72-14.89,0.36c-4.77-0.4-9.66-1.34-15.19-1.77c-5.45-0.5-11.17-0.83-16.97-1.14
					c-5.79-0.31-11.81-0.64-18.12-0.61c-6.28-0.03-12.92,0.61-18.21,1.63c-2.73,0.46-5.39,0.9-8.34,1.11
					c-2.95,0.22-6.09,0.28-9.28,0.28c-51.89-0.44-99.04-0.27-133.06,0.07c-34.05,0.34-55.06,0.76-55.06,0.76s21.08,0.08,55.14,0.21
					c34.12,0.14,80.81,0.45,132.99,0.9c3.46,0,7.16-0.06,10.94-0.35c3.88-0.28,7.31-0.86,9.99-1.33c2.79-0.49,4.96-0.85,7.33-1.07
					c2.39-0.23,4.98-0.34,7.68-0.36c5.41-0.06,11.12,0.21,16.9,0.49c5.8,0.27,11.3,0.55,16.39,0.97c2.55,0.21,4.97,0.45,7.3,0.75
					c2.38,0.3,5.08,0.7,8.35,0.91c6.82,0.4,12.42-0.21,17.06-0.52c9.44-0.68,18.54-1.02,26.92-1.17c16.78-0.3,30.58-0.01,40.07,0.13
					C941.62,35.55,946.88,35.64,946.88,35.64z"/>
				<path class="st1" d="M946.88,35.64c0,0-5.24-0.16-14.7-0.46c-9.46-0.25-23.21-0.69-40.19-0.54c-8.48,0.07-17.75,0.34-27.46,0.97
					c-4.79,0.3-10.08,0.8-15.73,0.42c-5.51-0.45-9.94-1.33-15.37-1.73c-5.31-0.47-10.95-0.77-16.74-1.07
					c-5.79-0.3-11.69-0.61-17.65-0.56c-6.04,0-11.66,0.54-16.96,1.55c-2.71,0.46-5.66,0.96-8.98,1.19
					c-3.27,0.25-6.63,0.31-9.93,0.31c-52-0.44-98.97-0.46-133.03-0.3c-34.04,0.15-55.1,0.38-55.1,0.38s20.96-0.71,55.01-1.35
					c33.96-0.64,81.39-1.11,133.1-0.66c3.03,0,5.82-0.06,8.26-0.24c2.38-0.16,4.57-0.51,7.33-0.98c2.64-0.45,5.96-1.01,9.58-1.31
					c3.56-0.32,7.16-0.44,10.57-0.45c6.87-0.02,13.08,0.36,18.87,0.69c5.79,0.34,11.65,0.69,17.32,1.24
					c5.7,0.48,11.3,1.53,14.92,1.84c3.75,0.32,8.52,0,13.56-0.27c10.15-0.53,19.71-0.69,28.34-0.64
					c17.29,0.09,30.97,0.77,40.39,1.21C941.69,35.38,946.88,35.64,946.88,35.64z"/>
			</g>
		</g>
	</g>
</g>
<g id="Layer_2">
</g>
</svg>
