<svg xmlns="http://www.w3.org/2000/svg" xmlns:xlink="http://www.w3.org/1999/xlink" viewBox="0 0 463.11 103.83"><defs><style>.cls-1{fill:#914520;}.cls-2{fill:#7a3718;}.cls-3{fill:url(#radial-gradient);}.cls-4{fill:url(#radial-gradient-2);}.cls-5{fill:url(#radial-gradient-3);}.cls-6{fill:url(#radial-gradient-4);}.cls-7{fill:url(#radial-gradient-5);}.cls-8{fill:url(#radial-gradient-6);}.cls-9{fill:url(#radial-gradient-7);}.cls-10{fill:url(#radial-gradient-8);}.cls-11{fill:url(#radial-gradient-9);}.cls-12{fill:url(#radial-gradient-10);}.cls-13{fill:url(#radial-gradient-11);}.cls-14{fill:url(#radial-gradient-12);}.cls-15{fill:url(#radial-gradient-13);}.cls-16{fill:url(#radial-gradient-14);}.cls-17{fill:url(#radial-gradient-15);}.cls-18{fill:url(#radial-gradient-16);}.cls-19{fill:#cc6e2d;}.cls-20{fill:#9e5224;}.cls-21{fill:#e88d42;}.cls-22{fill:#682d11;}</style><radialGradient id="radial-gradient" cx="580.78" cy="-15.1" r="496.75" gradientTransform="matrix(1.33, 0, 0, -0.95, -517.16, 27.13)" gradientUnits="userSpaceOnUse"><stop offset="0" stop-color="#c36128"/><stop offset="0.35" stop-color="#bf6028"/><stop offset="0.67" stop-color="#b35b27"/><stop offset="0.98" stop-color="#a05324"/><stop offset="1" stop-color="#9e5224"/></radialGradient><radialGradient id="radial-gradient-2" cx="580.78" cy="-15.1" r="496.76" xlink:href="#radial-gradient"/><radialGradient id="radial-gradient-3" cx="580.78" cy="-15.1" r="496.76" xlink:href="#radial-gradient"/><radialGradient id="radial-gradient-4" cx="580.77" cy="-15.1" r="496.75" xlink:href="#radial-gradient"/><radialGradient id="radial-gradient-5" cx="580.78" cy="-15.1" r="496.78" xlink:href="#radial-gradient"/><radialGradient id="radial-gradient-6" cx="580.78" cy="-15.1" r="496.76" xlink:href="#radial-gradient"/><radialGradient id="radial-gradient-7" cx="580.78" cy="-15.1" r="496.76" xlink:href="#radial-gradient"/><radialGradient id="radial-gradient-8" cx="305.71" cy="62.28" r="555.57" gradientTransform="matrix(1.19, 0, 0, -1, -107.67, 103.75)" xlink:href="#radial-gradient"/><radialGradient id="radial-gradient-9" cx="580.77" cy="-15.1" r="496.76" xlink:href="#radial-gradient"/><radialGradient id="radial-gradient-10" cx="580.78" cy="-15.1" r="496.8" xlink:href="#radial-gradient"/><radialGradient id="radial-gradient-11" cx="580.77" cy="-15.09" r="496.76" xlink:href="#radial-gradient"/><radialGradient id="radial-gradient-12" cx="580.78" cy="-15.1" r="496.76" xlink:href="#radial-gradient"/><radialGradient id="radial-gradient-13" cx="580.77" cy="-15.09" r="496.76" xlink:href="#radial-gradient"/><radialGradient id="radial-gradient-14" cx="580.78" cy="-15.1" r="496.81" xlink:href="#radial-gradient"/><radialGradient id="radial-gradient-15" cx="580.78" cy="-15.1" r="496.76" xlink:href="#radial-gradient"/><radialGradient id="radial-gradient-16" cx="580.78" cy="-15.1" r="496.76" xlink:href="#radial-gradient"/></defs><title>Asset 2</title><g id="Layer_2" data-name="Layer 2"><g id="Layer_1-2" data-name="Layer 1"><path class="cls-1" d="M460.39,26.19c-1.62-5.43,7.19-17.39-1.79-20.52q-6.19-2.16-12.38-4.35c-3.9-1.37-7.34-.14-11.49.1-5.75.34-11.59.28-17.36.4-24.41.47-48.81-.35-73.22-.7C306.77.59,269.34.38,232,1.5l-3.08.1c-1.58,0-2.19-.1-2.74.42C220.07-.34,212.36-.08,205.71.13c-22,.7-44.06,1.1-66.09,1.67-21.34.55-42.68,1.16-64,1.41-9.46.11-18.88-.09-28.33-.23-8.64-.13-17.28-.17-25.92,0C17.89,3,14.43,3.11,11,3c-2.61,0-7.6-.66-9.83.69C-.65,4.82.36,5.74,1.24,7c1.17,1.61,1.39,2,1.19,3.84-.13,1.24-.47,2.34.31,3.52S5.34,16,6.32,17.22c3.75,4.6-3.42,10.56.6,15.3,1.17,1.38,3.25,2.08,5,2.92,2.86,1.37,2,1.15,1.89,3.58-.07,2.84,3.82,4,6.52,5.33a94.16,94.16,0,0,0,8.9,4.21c-1.92.43-9,2.59-5.53,5-3.69.59-8.69,1.17-12,2.68-2,.93-1.82,2.13-1.86,4A28.18,28.18,0,0,0,10.25,65c.93,6.37,2.88,12.53-.14,18.75-1.24,2.55-2.13,4.12,1,5.87,2.62,1.46,6.43,2.4,8.67,4.18.69.55.9,1.45,1.77,2a33.3,33.3,0,0,0,4.34,2c2.82,1.35,5.7,3.09,8.74,4.11,6.37,2.15,14.82.89,21.52.79,6.87-.1,13.73,0,20.6,0l32.15.29q35.43.33,70.87.59c8.27,0,16.58.23,24.85,0,4.36-.13,8.72-.42,13-.85,4-.4,9.27-.51,13-1.8,5.73-2,3.33-9,3.43-13.92a4.12,4.12,0,0,1,1.22.84,12.52,12.52,0,0,1,2.16,3c.95,1.76.87,4,2,5.63.62.88,2,1.26,3.09,1.67,1.39.52,2.77.94,4.13,1.45s2.85,1,4.13,1.45a25.73,25.73,0,0,0,5.06,1.46c3.07.32,6.48.14,9.63.17q60.34.49,120.73.21c8.23,0,16.46-.44,24.69-.47q4,0,8.09.08c1.85,0,6.68.79,8.26.29,2.66-.85,3.08-4.63,4.76-6.5a9.6,9.6,0,0,1,7.45-3.29c2.61,0,6.25.93,8.69,0,2.76-1.11,1.94-4.46,2-6.33a11.19,11.19,0,0,0-.67-4.85c-.62-1.37-1.76-2.44-.69-3.88,1.44-1.94,5.15-1.94,7.6-2.79,4.25-1.48,3.67-4.38,3.76-7.37a64.17,64.17,0,0,1,.7-10.81c.6-3,1.31-5.8-2.61-7.8-3.4-1.74-7.84-2.83-11.59-4.15-6.47-2.27.49-3.88,4.35-4.64,3.7-.73,10.6-.87,11.75-3.91C464,33.22,461.33,29.35,460.39,26.19Z"/><path class="cls-2" d="M431.35,86.71l17.94,5.61a3.1,3.1,0,0,1-1.06.72c-2.44,1-6.08,0-8.69,0a10,10,0,0,0-4.11.85l-18.12-7.22Zm-1.78-13.2,19.12,4.83a1.84,1.84,0,0,1,.15-.36c1.44-1.94,5.15-1.94,7.6-2.79.21-.07.37-.17.56-.25l2-1.4,0,0-17.43-6ZM447.42,32l-23.59,3.15L426,37.94l18.91,4.27A24,24,0,0,1,451,40.42c3.7-.73,10.6-.87,11.75-3.91ZM241.74,94.9s-21.33.82-21.25,0L45.31,93.23,21.56,95.89a33.3,33.3,0,0,0,4.34,2c2.82,1.35,5.7,3.09,8.74,4.11,6.37,2.15,14.82.89,21.52.79,6.87-.1,13.73,0,20.6,0l32.15.29q35.43.33,70.87.59c8.27,0,16.58.23,24.85,0,.77,0,1.53-.08,2.3-.11v0l1.66-.11c1.35-.07,2.7-.15,4-.25,8.46-.5,23.86-1.34,28.6-1.07,6.64.37,19.86.69,19.86.69l0-.1c1.49,0,3,0,4.42,0q60.35.49,120.73.21c8.23,0,16.46-.44,24.69-.47q4,0,8.09.08c1.85,0,6.68.79,8.26.29a3.78,3.78,0,0,0,.35-.17L409.4,96.18ZM28.8,48.69l6,.48,5.55-6L18.64,41.46l-.83,1.75c.86.4,1.74.77,2.53,1.15a94.16,94.16,0,0,0,8.9,4.21Z"/><path class="cls-3" d="M261.53,20.34c13.05-.14,23.84-.79,24-1.44,0-.07.17-.11.4-.15h-.12a153.78,153.78,0,0,0-25.46.56c-3,.32-6.16.73-9.3,1.15h.83Z"/><path class="cls-4" d="M339.45,20.76c-15.4-.17-30.92-.82-46.14-1.62,4.18.41,9.7,1.1,15.72,2l9.81,1.44a407.77,407.77,0,0,0,47,3.54l9.39,0c13.05.07,34.39-.16,47.43-.51l9.28-.25L446.7,25c-.5-1.29-1.06-2.59-1.44-3.89a11.07,11.07,0,0,1,.22-4.15C410.13,20,374.66,21.25,339.45,20.76Z"/><path class="cls-5" d="M33.3,7.22l-9.19.18c-6,.12-13.78.44-21.66.87,23.68-.34,47.32-.5,70.94-.29C60.64,7.34,44.14,7,33.3,7.22Z"/><path class="cls-6" d="M383.19,97.67c9.81-.44,19.06-.39,29,.07a1.83,1.83,0,0,0,1-.14,1.09,1.09,0,0,0,.41-.52c.11-.23.22-.47.34-.71-20.3,0-40.43.61-60.43,1.51C368.66,97.87,380.17,97.81,383.19,97.67Z"/><path class="cls-7" d="M34.11,63.87c12.68,2.2,33.59,2.79,46.47,1.3L90.6,64a393.83,393.83,0,0,1,47.13-2l10,.29c13,.38,34.38.91,47.42,1.18l9.11.18c10.67.22,26.82.52,39.51.75-8.48-.47-16.88-1.14-25.19-1.83q-35.16-2.88-70.12-6L78.49,50A252,252,0,0,0,44.2,48.74,197.73,197.73,0,0,0,23.56,51a1.61,1.61,0,0,0,.17,2.57,97.89,97.89,0,0,0-13.39,3.11,17.93,17.93,0,0,0-.42,3.91A121,121,0,0,1,23.26,62Z"/><path class="cls-8" d="M408.07,85.33a33.66,33.66,0,0,1,5-1.89c-12.24-.11-27.13,1.08-36.95,3.14L364.84,89c-12.52,2.62-33.33,3.72-46.26,2.43l-10.45-1a450.17,450.17,0,0,0-47.2-1.68l-9.51.27a402.35,402.35,0,0,1-47.13-2l-10-1.14a387.64,387.64,0,0,0-47.13-1.88l-9.23.31c-13,.44-34.22,2.11-47.07,3.71L80.24,89.24c-12.85,1.6-33.76,1.17-46.46-1L23,86.43c-3.83-.65-8.46-1.21-13.36-1.69-.76,1.43-1.36,3,0,4.11,1,.87,2.79,1.22,4.59,1.53,45.19,1,89.71,3.71,134,5.09,25.88.84,51.66,1.13,77.57.66s51.94-1.4,78.15-2.15c36.62-1.09,73.86-1.74,111.24,0a10.89,10.89,0,0,1,6.34-5.73c3.56-1.24,13.12,2,13.41-2.49-1.63,0-3.24,0-4.83,0C422.84,85.67,416,84.87,408.07,85.33Z"/><path class="cls-9" d="M422.44,67.43c-13,.6-34.35,1.14-47.4,1.19l-9.3,0c-13.05,0-34.4-.05-47.45-.22l-9.71-.13c-13.05-.17-34.38.08-47.41.57l-9.61.36c-13,.48-34.37.75-47.42.59l-9.5-.12c-13-.16-34.32-1.21-47.28-2.33l-9.63-.83c-12.95-1.12-33.94-.28-46.64,1.87L80,70.28c-12.7,2.14-33.39,1.9-46-.53L23,67.61A108.69,108.69,0,0,0,10.4,66.07c.3,1.78.66,3.55.95,5.32A105.81,105.81,0,0,1,24,73.09q6.93,1.38,14,2.31c19,2.5,38.74,1.81,58.46.92-19.8,1.61-39.7,3-59.34.91-4.88-.51-9.73-1.21-14.5-2A104.72,104.72,0,0,0,11.7,74a19.87,19.87,0,0,1-.17,5.66c4.38.44,8.49.94,12,1.51L34,82.9c12.72,2.07,33.58,2.18,46.34.25L90,81.7a430.78,430.78,0,0,1,46.93-3.93l10.45-.19c12.74-.23,33.28.5,46.3,1.62-7.62-1-15.23-2.29-22.8-4,22.89,2.19,44.72,2.35,66.49,2.34S280.9,77,303.7,76.32c-12,1.91-23.83,3.29-35.62,4.21A394.28,394.28,0,0,1,308.57,82l9.48,1c12.92,1.3,33.95.83,46.73-1l10.37-1.52A281,281,0,0,1,422,78.26l10.29.58,2.6.13a11.15,11.15,0,0,0-.21-1.41,3.48,3.48,0,0,0-.41-.93q-7.21.27-14.45.49c-37.52,1.26-75.52,2.18-114.45,2.76,38.78-3.44,76.72-6.51,114.22-9.21L443.46,69a2.94,2.94,0,0,0,1.4-2.33c-4.77,0-9.28.16-13.06.34Z"/><path class="cls-10" d="M422.27,32c-13,.18-34.39.08-47.43-.23l-9.69-.23c-13-.31-23.74-.67-23.77-.8S330.82,29.14,318,27.5l-9.91-1.27a315,315,0,0,0-47-1.71l-9.37.51c-13,.7-34.33,1.11-47.38.91l-9.07-.14a371.75,371.75,0,0,0-47,2.87l-10.93,1.52C124.48,32,103.63,31.63,91,29.44l-11-1.91a249.22,249.22,0,0,0-46.71-2.65l-8.95.51c-5.15.29-11.6.68-18.3,1.1-.53,2.46-.38,5.2,2,7,11.87.28,23.73.46,35.59.13,4.84-.13,9.56-.44,14.57-.62s9.88-.15,14.81-.07c9.85.21,19.65.82,29.46,1.33,19.53,1,39.59,2,59-1.88-19.3,4.59-39.88,4.21-59.59,3.76-9.91-.25-19.75-.6-29.51-.57s-19.28.8-29.19,1.31c-9.58.43-19.11.51-28.61.46a6.44,6.44,0,0,1-.54,1.32c-.74,1.85,1.43,3.71,4.18,4.54a24.12,24.12,0,0,0,5.35.83,185.78,185.78,0,0,1,20.63-2.66A262.1,262.1,0,0,1,80.6,42c10,.81,20,1.65,29.9,2.5,9.76.15,19.91,0,27.36-.54l9.41-.66c13-.91,34.26-2.25,47.26-3l9.89-.55c13-.73,23.74-.92,23.84-.42s10.68,2.31,23.51,4l9.87,1.33a247.48,247.48,0,0,0,46.83.87L318,44.7c12.93-1.24,34.19-2.4,47.23-2.57L375,42c11.46-.15,29.32-.23,42.34-.19-1.25-.08-2.51-.12-3.76-.23-11.84-.88-23.47-2.41-35.07-3.92s-23.23-2.95-35-3.64a174.21,174.21,0,0,0-35.68,1.37A169.49,169.49,0,0,1,343.69,32c12.09.09,24,1,35.83,2s23.45,2,35,2.41c5.36.22,10.69.21,16,.08a12.23,12.23,0,0,1,1.77-.49L445,33.51a5,5,0,0,0,1.68-.54,2.3,2.3,0,0,0,.93-1.32c-5.73.05-11.17.11-15.63.17Zm-109.1,6a35,35,0,0,1-13,2A73.44,73.44,0,0,1,287,38.4c-8.46-1.7-16-3.92-24-4.36-8-.61-16.44-.37-25.07-.55s-17.7-.77-25.88-3.4c17.63,2.34,34-1.71,51.78-.31,9,.55,17.17,3.36,24.83,5.6S304.51,39.61,313.17,38Z"/><path class="cls-11" d="M422.41,45.57c-13-.47-34.36-.51-47.39-.08l-9.32.31c-13,.43-34.3,1.69-47.26,2.8l-10.06.86a282.22,282.22,0,0,1-47-.71L251,47.54c-12.88-1.5-34.09-2.77-47.14-2.81l-9.11,0c-13.05,0-34.34.71-47.32,1.68l-8.66.65,12.12,1.07L221,54.66c23.37,2.32,46.27,4.43,69.46,2.61,11.67-.74,23.55-1.92,35.71-2.3a353.62,353.62,0,0,1,36.33,1.1c23.89,1.67,47.94,4.35,72,1-23.89,4.82-49,3.33-73,2.74-12-.32-24-.4-35.63.45s-23.41,2.4-35.37,3.51c-4.81.48-9.7.78-14.59,1,11.27-.06,23.83-.33,32.63-.74l9.48-.44c13-.6,34.35-1.14,47.4-1.2l9.34,0c13.05-.06,34.4-.34,47.44-.61l9.81-.21c3.78-.08,8.29-.1,13.06-.08.06-2.11.11-4.22.18-6.33C438.4,54.71,431.64,54,425,53.28c-6.94-.76-13.8-1.58-20.78-2.11a96.91,96.91,0,0,0-21.49.33c6.74-2.46,14.39-3.35,21.7-3.54A162.22,162.22,0,0,1,426.1,49c6.67.7,13.16,1.73,19.69,2.77.38-1.73.78-3.53.4-4.82a3.06,3.06,0,0,0-.37-.8c-5.12,0-10-.13-14-.27Z"/><path class="cls-12" d="M144.72,1.67l-4.06.1.8.21Z"/><path class="cls-13" d="M445.38,1.3a2.33,2.33,0,0,0-.52-.27c-2.6-.8-4.27,0-6.67.29l-.31,0C440.24,1.31,442.77,1.3,445.38,1.3Z"/><path class="cls-14" d="M137.47,2.37l2-.19-2.2-.32c-12.24.32-25.91.67-38.57.94A285.7,285.7,0,0,0,137.47,2.37Z"/><path class="cls-15" d="M365.72,3.86l9.18-.37c10.14-.41,25.27-1,37.65-1.39l-7.45.14c-8.92.16-44.29-.87-86.8-1.22l.6.1A284.33,284.33,0,0,0,365.72,3.86Z"/><path class="cls-16" d="M204.74,4.37c12.75,2,33.39,1.4,45.86-1.32l8.89-1.94c-11.33.15-22.58.4-33.43.77a13.32,13.32,0,0,0-3.75-1c-2.06-.33-4.1-.54-6.12-.66-2.67,0-5.34,0-8-.12-3.19.07-6.41.22-9.76.34-8,.28-16,.45-24,.58a184.14,184.14,0,0,1,19.8,1.75Z"/><path class="cls-17" d="M7.18,21c5.93-.33,11.57-.66,16.16-1l10.27-.66a341.24,341.24,0,0,1,47.11.9l9.91,1a295.24,295.24,0,0,0,47,.3l9.64-.87c5-.45,11.24-.81,17.77-1.05-12.64-.77-25.29-1.44-38-1.92C86.5,16.28,45.74,16,4.77,16.12a4.57,4.57,0,0,0,.79.26A5.09,5.09,0,0,1,7.18,21Z"/><path class="cls-18" d="M431.71,8l-9,.15c-13.05.22-34.4.44-47.44.49l-9.89,0c-13.05,0-34.29-1-47.21-2.32l-9.76-1C295.52,4,274.58,4.68,261.89,6.86L251,8.72c-12.69,2.18-33.55,2.52-46.37.77L194.2,8.06a237.4,237.4,0,0,0-46.78-.77l-9.8,1c-3.33.34-7.22.62-11.37.83l3,.09q26.65,1,53.24,3c17.71,1.36,35,3.22,51.71,2,8.37-.61,17-2,26.19-2.8a173.21,173.21,0,0,1,27.71,0c17.77,1.28,35.25,2.33,53,2.89Q393.32,16,446.23,13c.31-1.66.6-3.36.76-5C441.39,7.92,436.07,7.88,431.71,8Z"/><path class="cls-19" d="M37.19,77.21c19.63,2.06,39.53.71,59.34-.91-19.73.89-39.46,1.58-58.46-.92Q31,74.45,24,73.07a107.9,107.9,0,0,0-12.64-1.7c.15.88.27,1.75.36,2.63a104.72,104.72,0,0,1,11,1.19C27.45,76,32.3,76.7,37.19,77.21Z"/><path class="cls-19" d="M204.65,80.16a415.31,415.31,0,0,0,47.21,1l9.57-.45c2-.1,4.31-.15,6.67-.2,11.79-.92,23.63-2.31,35.62-4.21-22.8.68-44.54,1.12-66.32,1.21s-43.6-.15-66.49-2.34c7.57,1.71,15.18,3,22.8,4l1,.08Z"/><path class="cls-19" d="M72.23,35.53c9.76,0,19.6.32,29.51.57,19.7.45,40.29.83,59.59-3.76-19.4,3.84-39.46,2.85-59,1.88-9.81-.51-19.6-1.12-29.46-1.33C68,32.8,63,32.77,58.08,33s-9.72.49-14.57.62c-11.86.33-23.72.15-35.59-.13a7.22,7.22,0,0,0,1.54.87c2,.81,5,1.33,5,2.79,0,.07-.05.13-.06.2,9.5,0,19,0,28.61-.46C53,36.33,62.45,35.44,72.23,35.53Z"/><path class="cls-19" d="M422.44,83.81c-2.8-.24-6-.35-9.37-.38a34.52,34.52,0,0,0-5,1.89c7.93-.46,14.77.34,22,.42,1.59,0,3.21,0,4.83,0,0,0,0-.07,0-.12,0-.26,0-.53,0-.8l-2.76-.21Z"/><path class="cls-19" d="M208.19.07c2.67.11,5.34.16,8,.12C213.53,0,210.87,0,208.19.07Z"/><path class="cls-19" d="M288.65,35.37c-7.66-2.24-15.8-5.06-24.83-5.6-17.75-1.4-34.15,2.65-51.78.31,8.18,2.63,17.3,3.21,25.88,3.4s17-.06,25.07.55c8,.44,15.56,2.66,24,4.36A73.44,73.44,0,0,0,300.12,40a35,35,0,0,0,13-2C304.51,39.61,296.34,37.61,288.65,35.37Z"/><path class="cls-19" d="M404.47,48c-7.32.2-15,1.08-21.7,3.54a98.14,98.14,0,0,1,21.49-.33c7,.52,13.84,1.35,20.78,2.11,6.6.7,13.36,1.43,20.25,1.85,0-.11,0-.22,0-.33a18.51,18.51,0,0,1,.49-3c-6.53-1-13-2.07-19.69-2.77A162.22,162.22,0,0,0,404.47,48Z"/><path class="cls-19" d="M141.46,2l-.8-.21-3.39.09,2.2.32Z"/><path class="cls-19" d="M414.51,36.41C403,36,391.3,35,379.51,34s-23.74-1.88-35.83-2a170.2,170.2,0,0,0-35.94,3.37A174.18,174.18,0,0,1,343.42,34c11.81.69,23.44,2.15,35,3.64s23.23,3,35.07,3.92c1.25.1,2.51.15,3.76.23l5.11,0,9.5.06,4.43,0-4-1c-1.81-.48-4-1.39-3.73-2.83.15-.75.95-1.23,1.9-1.57C425.19,36.62,419.86,36.63,414.51,36.41Z"/><path class="cls-19" d="M78.47,50l69.95,6.56q35,3.15,70.12,6c8.31.68,16.71,1.35,25.19,1.83l7.92.14,9.52.16c4.23.07,9.36.08,14.77,0,4.9-.21,9.78-.51,14.59-1,12-1.11,23.65-2.68,35.37-3.51s23.59-.77,35.63-.45c23.94.59,49.09,2.08,73-2.74-24.11,3.34-48.16.66-72.05-1A353.62,353.62,0,0,0,326.13,55c-12.16.38-24,1.55-35.71,2.3C267.23,59.09,244.33,57,221,54.66L150.9,48.1,138.78,47l-1,.08a313.22,313.22,0,0,1-47.06-.77L80.59,45.25c-12.39-1.33-32.17-1-45,.78A9.38,9.38,0,0,1,31,48.2,27.69,27.69,0,0,0,24.85,50,4.38,4.38,0,0,0,23.52,51a195.06,195.06,0,0,1,20.64-2.26A247.37,247.37,0,0,1,78.47,50Z"/><path class="cls-19" d="M80.58,42.86l10.08.84c5.53.46,12.57.74,19.82.85-9.94-.85-19.88-1.7-29.9-2.5a262.1,262.1,0,0,0-36.53-.7A185.78,185.78,0,0,0,23.42,44c1.23.08,2.47.13,3.7.17l.78,0,5.68-.65A289.22,289.22,0,0,1,80.58,42.86Z"/><path class="cls-19" d="M305.44,79.87c38.93-.59,76.93-1.5,114.45-2.76q7.25-.23,14.45-.49c-.59-1-1.49-2-1-3.1,1.29-3.1,7.39-2.45,10.16-4.52-7.94.55-15.88,1.12-23.83,1.66C382.16,73.36,344.22,76.43,305.44,79.87Z"/><path class="cls-19" d="M303.9,94c-26.21.75-52.24,1.73-78.15,2.15s-51.68.18-77.57-.66c-44.31-1.39-88.83-4.11-134-5.09,2.24.39,4.49.73,5.33,2,.44.65.32,1.4.62,2.08,1.41,3.26,10.35,3.19,14.72,3,8.22-.27,16.44-.33,24.66-.26,30.63.25,109.43,1.07,128.55,1,9.93,0,56.8-.68,59.26-.61,3.43.09,67,.35,106.23.3,20-.9,40.13-1.5,60.43-1.51.38-.81.77-1.61,1.19-2.39C377.76,92.25,340.52,92.9,303.9,94Z"/><path class="cls-19" d="M127.1,17.77c12.67.48,25.32,1.15,38,1.92,10.37-.39,21.47-.5,29.47-.21l9.93.36c12.77.46,33.48.73,46.59.6,3.14-.42,6.24-.82,9.3-1.15a154.9,154.9,0,0,1,25.46-.56h.12a46.57,46.57,0,0,1,7.39.39c15.22.8,30.74,1.45,46.14,1.62,35.21.49,70.68-.81,106-3.84.2-1.21.47-2.55.73-3.93q-53,3-105.14,1.32c-17.77-.56-35.25-1.61-53-2.89a174.39,174.39,0,0,0-27.71,0c-9.17.81-17.82,2.19-26.19,2.8-16.72,1.25-34-.61-51.71-2s-35.47-2.36-53.24-3l-3-.09a333.49,333.49,0,0,1-35.72,0l-9.9-.69C78.44,8.23,76,8.09,73.38,8c-23.62-.21-47.26,0-70.94.29H2.19c.81.85.41,1.92.11,3a3.91,3.91,0,0,0,2.46,4.83C45.74,16,86.5,16.27,127.1,17.77Z"/><path class="cls-20" d="M24.1,7.41l9.19-.18C44.14,7,60.64,7.35,73.37,8c2.58.13,5.06.26,7.25.42l9.9.69a336.14,336.14,0,0,0,35.72.05c4.15-.21,8-.48,11.37-.83l9.8-1a236.61,236.61,0,0,1,46.78.77l10.47,1.43c12.82,1.75,33.68,1.4,46.37-.77l10.85-1.86C274.57,4.7,295.51,4,308.43,5.33l9.76,1c12.92,1.33,34.16,2.37,47.21,2.32l9.89,0c13,0,34.4-.27,47.44-.49l9-.15c4.37-.07,9.68,0,15.27.07.31-3.11.08-5.76-1.61-6.72-2.6,0-5.13,0-7.5,0-3.33.38-6.71.39-10.1.46q-7.62.16-15.23.29c-12.37.42-27.5,1-37.65,1.39l-9.18.37a283.36,283.36,0,0,1-46.83-2.75l-.6-.1c-18.76-.15-38.91-.17-58.8.09l-8.89,1.94c-12.48,2.72-33.12,3.31-45.86,1.32l-10.5-1.64A186.75,186.75,0,0,0,174.42,1c-1.22,0-2.43.07-3.65.09-5.25.07-14.72.3-26.07.59L141.44,2l-2,.19-2,.19a285.7,285.7,0,0,1-38.76.43c-16.69.36-31.61.59-39.11.42-10-.23-19.94-.38-29.93-.35-5,0-10,.08-15,.21-3.81.1-9.06-.45-12.64.39a4.06,4.06,0,0,0-1.66.69C-.25,4.71,0,5.48.45,6.08A7.08,7.08,0,0,1,1.81,7.9c.18.11.24.25.36.37h.25C10.33,7.85,18.09,7.52,24.1,7.41Z"/><path class="cls-20" d="M422.63,25.64c-13,.35-34.38.59-47.43.51l-9.39,0a407.6,407.6,0,0,1-47-3.54L309,21.12c-6-.88-11.54-1.57-15.72-2a47.85,47.85,0,0,0-7.39-.39c-.23,0-.38.08-.4.15-.15.65-10.94,1.3-24,1.44l-9.67.11H251c-13.1.12-33.81-.14-46.59-.6l-9.93-.36c-8-.29-19.09-.19-29.47.21-6.53.25-12.77.6-17.77,1.05l-9.64.87a295.25,295.25,0,0,1-47-.3l-9.91-1a341.24,341.24,0,0,0-47.11-.9l-10.27.66c-4.59.3-10.23.63-16.16.95A30,30,0,0,1,6.05,25.9c0,.2-.09.4-.13.61,6.71-.42,13.16-.8,18.3-1.1l9-.51a248.38,248.38,0,0,1,46.71,2.65l11.05,1.91c12.68,2.19,33.54,2.53,46.34.75l10.93-1.52a371.75,371.75,0,0,1,47-2.87l9.07.14c13.05.2,34.37-.21,47.38-.91l9.37-.51a315,315,0,0,1,47,1.71L318,27.52c12.84,1.64,23.38,3.09,23.41,3.22s10.72.49,23.77.8l9.69.23c13,.31,34.39.41,47.43.23l9.65-.14c4.45-.06,9.9-.12,15.63-.17,0-.09.09-.19.11-.28.54-2.16-.12-4.3-.95-6.44-5.42.17-10.57.33-14.8.44Z"/><path class="cls-20" d="M422.07,78.24a281,281,0,0,0-46.89,2.09l-10.37,1.52C352,83.73,331,84.2,318.08,82.9l-9.48-1a394.38,394.38,0,0,0-40.49-1.44c-2.37,0-4.64.1-6.67.2l-9.57.45a415.27,415.27,0,0,1-47.21-1l-10-.9-1-.08c-13-1.12-33.55-1.85-46.3-1.62L137,77.75A431,431,0,0,0,90,81.68l-9.63,1.45c-12.77,1.93-33.62,1.81-46.34-.25L23.52,81.17c-3.47-.56-7.58-1.07-12-1.51a14,14,0,0,1-1.44,4.13c-.17.31-.35.63-.52,1,4.9.48,9.53,1,13.36,1.69l10.82,1.82c12.7,2.14,33.61,2.58,46.46,1l10.62-1.32c12.85-1.6,34-3.27,47.07-3.71l9.23-.31a387.8,387.8,0,0,1,47.13,1.88l10,1.14a402.35,402.35,0,0,0,47.13,2l9.51-.27a447.37,447.37,0,0,1,47.2,1.68l10.45,1c12.92,1.29,33.74.2,46.26-2.43l11.28-2.37c9.82-2.06,24.71-3.25,36.95-3.14,3.37,0,6.57.14,9.37.38l9.74.83,2.76.21a37.5,37.5,0,0,0,0-5.9l-2.6-.13Z"/><path class="cls-20" d="M432.05,61.54l-9.81.21c-13,.27-34.39.55-47.44.61l-9.34,0c-13,.06-34.38.6-47.4,1.2l-9.48.44c-8.8.4-21.36.67-32.63.74-5.41,0-10.54,0-14.77,0l-9.52-.16-7.92-.14c-12.69-.23-28.85-.53-39.51-.75l-9.11-.18c-13-.26-34.38-.79-47.42-1.18l-10-.29a398.13,398.13,0,0,0-47.13,2l-10,1.16c-12.88,1.49-33.79.9-46.47-1.3L23.23,62A116.34,116.34,0,0,0,9.89,60.63a33.39,33.39,0,0,0,.52,5.44A113.52,113.52,0,0,1,23,67.61l11,2.14c12.59,2.44,33.28,2.68,46,.53L91.1,68.41c12.7-2.14,33.69-3,46.64-1.87l9.63.83c12.95,1.12,34.23,2.17,47.28,2.33l9.5.12c13,.16,34.38-.1,47.42-.59l9.61-.36c13-.48,34.37-.74,47.41-.57l9.71.13c13.05.17,34.4.27,47.45.22l9.3,0c13.05-.05,34.38-.58,47.4-1.19l9.39-.44c3.78-.18,8.29-.28,13.06-.34a11.92,11.92,0,0,0,.11-1.33c0-1.29.07-2.57.11-3.86C440.34,61.44,435.83,61.46,432.05,61.54Z"/><path class="cls-20" d="M422.4,41.85l-5.11,0c-13,0-30.88,0-42.34.19l-9.78.13c-13.05.17-34.3,1.33-47.23,2.57l-9.48.91a247.49,247.49,0,0,1-46.83-.87l-9.87-1.33c-12.82-1.72-23.4-3.54-23.51-4s-10.83-.31-23.84.42l-9.89.55c-13,.73-34.28,2.07-47.26,3l-9.41.66c-7.45.52-17.6.69-27.36.54-7.25-.11-14.29-.39-19.82-.85l-10.08-.84a289.08,289.08,0,0,0-47,.71l-5.68.65A24.21,24.21,0,0,1,36,45.55a2.87,2.87,0,0,1-.4.46c12.86-1.74,32.64-2.11,45-.78l10.11,1.09a313.2,313.2,0,0,0,47.06.77l1-.08,8.66-.65c13-1,34.27-1.72,47.32-1.68l9.11,0c13,0,34.26,1.31,47.14,2.81l10.39,1.21a282.22,282.22,0,0,0,47,.71l10.06-.86c13-1.11,34.22-2.37,47.26-2.8l9.32-.31c13-.43,34.36-.39,47.39.08l9.42.34c4,.15,8.87.23,14,.27-1.17-1.88-4.25-2.88-7-3.6l-2.51-.66-4.43,0Z"/><path class="cls-21" d="M129.38,80.84s-1.55.2-4.37.43a92.68,92.68,0,0,1-12,.09C102.89,81,89.27,78.3,74.38,75s-28.93-5.14-39.15-4.7A77.5,77.5,0,0,0,23.3,71.57c-2.76.53-4.25.92-4.25.92s1.55-.26,4.34-.59a85.44,85.44,0,0,1,11.87-.49c10.05.11,23.55,2.46,38.39,5.7s29,5.45,39.3,5.32a81.65,81.65,0,0,0,12.1-.83C127.87,81.17,129.38,80.84,129.38,80.84Z"/><path class="cls-22" d="M129.38,80.84s-1.54.25-4.35.55a89,89,0,0,1-12,.38c-10.22-.19-24-2.67-38.9-5.93s-28.7-5.31-38.85-5.09a78.78,78.78,0,0,0-11.9,1c-2.77.45-4.28.79-4.28.79s1.45-.46,4.19-1.12a71.83,71.83,0,0,1,12-1.69c10.32-.77,24.68.83,39.62,4.1S103.08,80,113.1,80.7a102.1,102.1,0,0,0,11.9.36C127.81,81,129.38,80.84,129.38,80.84Z"/><path class="cls-21" d="M167.77,19.15s-5.8.58-15.23,1.26-22.52,1.35-37,1.51-27.64-.22-37.11-.69-15.31-.92-15.31-.92,5.72.82,15.17,1.66,22.66,1.59,37.31,1.44,27.81-1.21,37.17-2.26S167.77,19.15,167.77,19.15Z"/><path class="cls-22" d="M167.77,19.15s-5.74.72-15.15,1.54-22.52,1.64-37.08,1.8-27.73-.37-37.19-1S63.09,20.3,63.09,20.3l15.4.47c9.5.24,22.57.39,37,.24S143,20.41,152.42,20Z"/><path class="cls-21" d="M205.55,44.33s-11.86.05-26.47.53-26.43,1.19-26.43,1.19a259.33,259.33,0,0,0,26.52.51A261.06,261.06,0,0,0,205.55,44.33Z"/><path class="cls-22" d="M205.55,44.33s-11.83.71-26.43,1.19-26.47.53-26.47.53a257.86,257.86,0,0,1,52.9-1.72Z"/><path class="cls-21" d="M78.67,45.14s-8.82-.35-19.7-.4-19.7.22-19.7.22A153,153,0,0,0,59,46.33,152.87,152.87,0,0,0,78.67,45.14Z"/><path class="cls-22" d="M78.67,45.14s-8.82.27-19.7.22-19.7-.4-19.7-.4a152.24,152.24,0,0,1,39.4.18Z"/><path class="cls-21" d="M75.89,8.31S61.5,8,43.74,7.91s-32.16.22-32.16.22S26,9.45,43.72,9.5,75.89,8.31,75.89,8.31Z"/><path class="cls-22" d="M75.89,8.31s-14.4.27-32.16.22-32.15-.4-32.15-.4S26,6.89,43.75,6.94,75.89,8.31,75.89,8.31Z"/><path class="cls-21" d="M328,12.48s-4.84-.53-12.72-1-18.81-.86-30.88-.51-22.94,1.35-30.74,2.31S241.06,15,241.06,15l12.78-.67c7.88-.4,18.71-.84,30.66-1.19s22.79-.54,30.69-.59Z"/><path class="cls-22" d="M328,12.48s-4.87-.32-12.76-.59-18.78-.43-30.81-.08-22.88,1.13-30.71,1.88S241,15,241,15s4.69-1.14,12.47-2.43a229.44,229.44,0,0,1,61.8-1.8C323.19,11.61,328,12.48,328,12.48Z"/><path class="cls-21" d="M436.42,23.65s-15.07-1-33.69-1.72S369,21.07,369,21.07a318.89,318.89,0,0,0,33.6,3.07A323.5,323.5,0,0,0,436.42,23.65Z"/><path class="cls-22" d="M436.42,23.65s-15.12-.15-33.74-.86S369,21.07,369,21.07a323.5,323.5,0,0,1,33.83-.49A318.89,318.89,0,0,1,436.42,23.65Z"/><path class="cls-21" d="M425.5,76.52s-3.29,0-8.56-.26a150.08,150.08,0,0,1-20.3-2.58,140.88,140.88,0,0,1-19.39-5.31c-4.8-1.71-7.65-3-7.65-3a58.57,58.57,0,0,0,7,4,80.34,80.34,0,0,0,19.31,6.46,88,88,0,0,0,20.95,1.54A72.13,72.13,0,0,0,425.5,76.52Z"/><path class="cls-22" d="M425.5,76.52s-3.27.25-8.58.17a116.68,116.68,0,0,1-20.55-2.18A108.14,108.14,0,0,1,377,68.75c-4.7-1.91-7.41-3.35-7.41-3.35l8,2.36c4.95,1.4,11.8,3.08,19.44,4.61S411.78,75,417,75.58Z"/><path class="cls-21" d="M277.84,68.76s-9.77,1.3-21.68,3.41-21.43,4.25-21.43,4.25a139.2,139.2,0,0,0,22.07-2.1A130.51,130.51,0,0,0,277.84,68.76Z"/><path class="cls-22" d="M277.84,68.76s-9.52,2.13-21.43,4.25-21.67,3.41-21.67,3.41a131.15,131.15,0,0,1,21-5.57A139.84,139.84,0,0,1,277.84,68.76Z"/><path class="cls-21" d="M348.76,88.8s-14.43,1.1-32.27,1.43-32.32-.16-32.32-.16,3.57.66,9.41,1.31a181.14,181.14,0,0,0,23,1.06,179.23,179.23,0,0,0,22.88-2C345.25,89.6,348.76,88.8,348.76,88.8Z"/><path class="cls-22" d="M348.76,88.8a309.92,309.92,0,0,1-32.24,2.29,309.61,309.61,0,0,1-32.35-1s14.57-.82,32.27-1.19S348.76,88.8,348.76,88.8Z"/></g></g></svg>